<?xml version="1.0" standalone="no"?>
 <!DOCTYPE svg PUBLIC "-//W3C//DTD SVG 1.1//EN" 
 "http://www.w3.org/Graphics/SVG/1.1/DTD/svg11.dtd"> 
<svg xmlns="http://www.w3.org/2000/svg" version="1.1" 
    width="29.7002cm" height="21.0007cm" viewBox="0 0 116930 82680 ">
<title>SVG Picture created as WemosClock-F_Fab.svg date 2019/11/03 21:08:51 </title>
  <desc>Picture generated by PCBNEW </desc>
<g style="fill:#000000; fill-opacity:1;stroke:#000000; stroke-opacity:1;
stroke-linecap:round; stroke-linejoin:round; "
 transform="translate(0 0) scale(1 1)">
</g>
<g style="fill:#000000; fill-opacity:0.0; 
stroke:#000000; stroke-width:-0.000393701; stroke-opacity:1; 
stroke-linecap:round; stroke-linejoin:round;">
</g>
<g style="fill:#000000; fill-opacity:0.0; 
stroke:#000000; stroke-width:39.3701; stroke-opacity:1; 
stroke-linecap:round; stroke-linejoin:round;">
</g>
<g style="fill:#000000; fill-opacity:0.0; 
stroke:#000000; stroke-width:59.0551; stroke-opacity:1; 
stroke-linecap:round; stroke-linejoin:round;">
<rect x="69685.9" y="65357.2" width="42519.7" height="12598.4" rx="0" />
</g>
<g style="fill:#000000; fill-opacity:0.0; 
stroke:#000000; stroke-width:39.3701; stroke-opacity:1; 
stroke-linecap:round; stroke-linejoin:round;">
</g>
<g style="fill:#000000; fill-opacity:0.0; 
stroke:#000000; stroke-width:59.0551; stroke-opacity:1; 
stroke-linecap:round; stroke-linejoin:round;">
<rect x="3937.01" y="3937.01" width="109056" height="74806" rx="0" />
</g>
<g style="fill:#000000; fill-opacity:0.0; 
stroke:#000000; stroke-width:39.3701; stroke-opacity:1; 
stroke-linecap:round; stroke-linejoin:round;">
</g>
<g style="fill:#000000; fill-opacity:0.0; 
stroke:#000000; stroke-width:59.0551; stroke-opacity:1; 
stroke-linecap:round; stroke-linejoin:round;">
<rect x="4724.41" y="4724.41" width="107481" height="73231.2" rx="0" />
</g>
<g style="fill:#000000; fill-opacity:0.0; 
stroke:#000000; stroke-width:39.3701; stroke-opacity:1; 
stroke-linecap:round; stroke-linejoin:round;">
</g>
<g style="fill:#000000; fill-opacity:0.0; 
stroke:#000000; stroke-width:59.0551; stroke-opacity:1; 
stroke-linecap:round; stroke-linejoin:round;">
<path d="M23622 4724
L23622 3937
" />
</g>
<g style="fill:#000000; fill-opacity:0.0; 
stroke:#000000; stroke-width:39.3701; stroke-opacity:1; 
stroke-linecap:round; stroke-linejoin:round;">
</g>
<g style="fill:#000000; fill-opacity:0.0; 
stroke:#000000; stroke-width:59.0551; stroke-opacity:1; 
stroke-linecap:round; stroke-linejoin:round;">
<path d="M43307 4724
L43307 3937
" />
</g>
<g style="fill:#000000; fill-opacity:0.0; 
stroke:#000000; stroke-width:39.3701; stroke-opacity:1; 
stroke-linecap:round; stroke-linejoin:round;">
</g>
<g style="fill:#000000; fill-opacity:0.0; 
stroke:#000000; stroke-width:59.0551; stroke-opacity:1; 
stroke-linecap:round; stroke-linejoin:round;">
<path d="M62992 4724
L62992 3937
" />
</g>
<g style="fill:#000000; fill-opacity:0.0; 
stroke:#000000; stroke-width:39.3701; stroke-opacity:1; 
stroke-linecap:round; stroke-linejoin:round;">
</g>
<g style="fill:#000000; fill-opacity:0.0; 
stroke:#000000; stroke-width:59.0551; stroke-opacity:1; 
stroke-linecap:round; stroke-linejoin:round;">
<path d="M82677 4724
L82677 3937
" />
</g>
<g style="fill:#000000; fill-opacity:0.0; 
stroke:#000000; stroke-width:39.3701; stroke-opacity:1; 
stroke-linecap:round; stroke-linejoin:round;">
</g>
<g style="fill:#000000; fill-opacity:0.0; 
stroke:#000000; stroke-width:59.0551; stroke-opacity:1; 
stroke-linecap:round; stroke-linejoin:round;">
<path d="M102362 4724
L102362 3937
" />
</g>
<g style="fill:#000000; fill-opacity:0.0; 
stroke:#000000; stroke-width:39.3701; stroke-opacity:1; 
stroke-linecap:round; stroke-linejoin:round;">
</g>
<g style="fill:#000000; fill-opacity:0.0; 
stroke:#000000; stroke-width:59.0551; stroke-opacity:1; 
stroke-linecap:round; stroke-linejoin:round;">
<path d="M14199 4562
L13906 4562
" />
<path d="M14052 4562
L14052 4050
L14004 4123
L13955 4172
L13906 4196
" />
</g>
<g style="fill:#000000; fill-opacity:0.0; 
stroke:#000000; stroke-width:39.3701; stroke-opacity:1; 
stroke-linecap:round; stroke-linejoin:round;">
</g>
<g style="fill:#000000; fill-opacity:0.0; 
stroke:#000000; stroke-width:59.0551; stroke-opacity:1; 
stroke-linecap:round; stroke-linejoin:round;">
<path d="M33591 4099
L33615 4074
L33664 4050
L33786 4050
L33835 4074
L33859 4099
L33884 4147
L33884 4196
L33859 4269
L33567 4562
L33884 4562
" />
</g>
<g style="fill:#000000; fill-opacity:0.0; 
stroke:#000000; stroke-width:39.3701; stroke-opacity:1; 
stroke-linecap:round; stroke-linejoin:round;">
</g>
<g style="fill:#000000; fill-opacity:0.0; 
stroke:#000000; stroke-width:59.0551; stroke-opacity:1; 
stroke-linecap:round; stroke-linejoin:round;">
<path d="M53252 4050
L53569 4050
L53398 4245
L53471 4245
L53520 4269
L53544 4294
L53569 4342
L53569 4464
L53544 4513
L53520 4537
L53471 4562
L53325 4562
L53276 4537
L53252 4513
" />
</g>
<g style="fill:#000000; fill-opacity:0.0; 
stroke:#000000; stroke-width:39.3701; stroke-opacity:1; 
stroke-linecap:round; stroke-linejoin:round;">
</g>
<g style="fill:#000000; fill-opacity:0.0; 
stroke:#000000; stroke-width:59.0551; stroke-opacity:1; 
stroke-linecap:round; stroke-linejoin:round;">
<path d="M73205 4221
L73205 4562
" />
<path d="M73083 4026
L72961 4391
L73278 4391
" />
</g>
<g style="fill:#000000; fill-opacity:0.0; 
stroke:#000000; stroke-width:39.3701; stroke-opacity:1; 
stroke-linecap:round; stroke-linejoin:round;">
</g>
<g style="fill:#000000; fill-opacity:0.0; 
stroke:#000000; stroke-width:59.0551; stroke-opacity:1; 
stroke-linecap:round; stroke-linejoin:round;">
<path d="M92914 4050
L92671 4050
L92646 4294
L92671 4269
L92719 4245
L92841 4245
L92890 4269
L92914 4294
L92939 4342
L92939 4464
L92914 4513
L92890 4537
L92841 4562
L92719 4562
L92671 4537
L92646 4513
" />
</g>
<g style="fill:#000000; fill-opacity:0.0; 
stroke:#000000; stroke-width:39.3701; stroke-opacity:1; 
stroke-linecap:round; stroke-linejoin:round;">
</g>
<g style="fill:#000000; fill-opacity:0.0; 
stroke:#000000; stroke-width:59.0551; stroke-opacity:1; 
stroke-linecap:round; stroke-linejoin:round;">
<path d="M112575 4050
L112477 4050
L112429 4074
L112404 4099
L112356 4172
L112331 4269
L112331 4464
L112356 4513
L112380 4537
L112429 4562
L112526 4562
L112575 4537
L112599 4513
L112624 4464
L112624 4342
L112599 4294
L112575 4269
L112526 4245
L112429 4245
L112380 4269
L112356 4294
L112331 4342
" />
</g>
<g style="fill:#000000; fill-opacity:0.0; 
stroke:#000000; stroke-width:39.3701; stroke-opacity:1; 
stroke-linecap:round; stroke-linejoin:round;">
</g>
<g style="fill:#000000; fill-opacity:0.0; 
stroke:#000000; stroke-width:59.0551; stroke-opacity:1; 
stroke-linecap:round; stroke-linejoin:round;">
<path d="M23622 77955
L23622 78742
" />
</g>
<g style="fill:#000000; fill-opacity:0.0; 
stroke:#000000; stroke-width:39.3701; stroke-opacity:1; 
stroke-linecap:round; stroke-linejoin:round;">
</g>
<g style="fill:#000000; fill-opacity:0.0; 
stroke:#000000; stroke-width:59.0551; stroke-opacity:1; 
stroke-linecap:round; stroke-linejoin:round;">
<path d="M43307 77955
L43307 78742
" />
</g>
<g style="fill:#000000; fill-opacity:0.0; 
stroke:#000000; stroke-width:39.3701; stroke-opacity:1; 
stroke-linecap:round; stroke-linejoin:round;">
</g>
<g style="fill:#000000; fill-opacity:0.0; 
stroke:#000000; stroke-width:59.0551; stroke-opacity:1; 
stroke-linecap:round; stroke-linejoin:round;">
<path d="M62992 77955
L62992 78742
" />
</g>
<g style="fill:#000000; fill-opacity:0.0; 
stroke:#000000; stroke-width:39.3701; stroke-opacity:1; 
stroke-linecap:round; stroke-linejoin:round;">
</g>
<g style="fill:#000000; fill-opacity:0.0; 
stroke:#000000; stroke-width:59.0551; stroke-opacity:1; 
stroke-linecap:round; stroke-linejoin:round;">
<path d="M82677 77955
L82677 78742
" />
</g>
<g style="fill:#000000; fill-opacity:0.0; 
stroke:#000000; stroke-width:39.3701; stroke-opacity:1; 
stroke-linecap:round; stroke-linejoin:round;">
</g>
<g style="fill:#000000; fill-opacity:0.0; 
stroke:#000000; stroke-width:59.0551; stroke-opacity:1; 
stroke-linecap:round; stroke-linejoin:round;">
<path d="M102362 77955
L102362 78742
" />
</g>
<g style="fill:#000000; fill-opacity:0.0; 
stroke:#000000; stroke-width:39.3701; stroke-opacity:1; 
stroke-linecap:round; stroke-linejoin:round;">
</g>
<g style="fill:#000000; fill-opacity:0.0; 
stroke:#000000; stroke-width:59.0551; stroke-opacity:1; 
stroke-linecap:round; stroke-linejoin:round;">
<path d="M14199 78580
L13906 78580
" />
<path d="M14052 78580
L14052 78069
L14004 78142
L13955 78190
L13906 78215
" />
</g>
<g style="fill:#000000; fill-opacity:0.0; 
stroke:#000000; stroke-width:39.3701; stroke-opacity:1; 
stroke-linecap:round; stroke-linejoin:round;">
</g>
<g style="fill:#000000; fill-opacity:0.0; 
stroke:#000000; stroke-width:59.0551; stroke-opacity:1; 
stroke-linecap:round; stroke-linejoin:round;">
<path d="M33591 78117
L33615 78093
L33664 78069
L33786 78069
L33835 78093
L33859 78117
L33884 78166
L33884 78215
L33859 78288
L33567 78580
L33884 78580
" />
</g>
<g style="fill:#000000; fill-opacity:0.0; 
stroke:#000000; stroke-width:39.3701; stroke-opacity:1; 
stroke-linecap:round; stroke-linejoin:round;">
</g>
<g style="fill:#000000; fill-opacity:0.0; 
stroke:#000000; stroke-width:59.0551; stroke-opacity:1; 
stroke-linecap:round; stroke-linejoin:round;">
<path d="M53252 78069
L53569 78069
L53398 78263
L53471 78263
L53520 78288
L53544 78312
L53569 78361
L53569 78483
L53544 78532
L53520 78556
L53471 78580
L53325 78580
L53276 78556
L53252 78532
" />
</g>
<g style="fill:#000000; fill-opacity:0.0; 
stroke:#000000; stroke-width:39.3701; stroke-opacity:1; 
stroke-linecap:round; stroke-linejoin:round;">
</g>
<g style="fill:#000000; fill-opacity:0.0; 
stroke:#000000; stroke-width:59.0551; stroke-opacity:1; 
stroke-linecap:round; stroke-linejoin:round;">
<path d="M73205 78239
L73205 78580
" />
<path d="M73083 78044
L72961 78410
L73278 78410
" />
</g>
<g style="fill:#000000; fill-opacity:0.0; 
stroke:#000000; stroke-width:39.3701; stroke-opacity:1; 
stroke-linecap:round; stroke-linejoin:round;">
</g>
<g style="fill:#000000; fill-opacity:0.0; 
stroke:#000000; stroke-width:59.0551; stroke-opacity:1; 
stroke-linecap:round; stroke-linejoin:round;">
<path d="M92914 78069
L92671 78069
L92646 78312
L92671 78288
L92719 78263
L92841 78263
L92890 78288
L92914 78312
L92939 78361
L92939 78483
L92914 78532
L92890 78556
L92841 78580
L92719 78580
L92671 78556
L92646 78532
" />
</g>
<g style="fill:#000000; fill-opacity:0.0; 
stroke:#000000; stroke-width:39.3701; stroke-opacity:1; 
stroke-linecap:round; stroke-linejoin:round;">
</g>
<g style="fill:#000000; fill-opacity:0.0; 
stroke:#000000; stroke-width:59.0551; stroke-opacity:1; 
stroke-linecap:round; stroke-linejoin:round;">
<path d="M112575 78069
L112477 78069
L112429 78093
L112404 78117
L112356 78190
L112331 78288
L112331 78483
L112356 78532
L112380 78556
L112429 78580
L112526 78580
L112575 78556
L112599 78532
L112624 78483
L112624 78361
L112599 78312
L112575 78288
L112526 78263
L112429 78263
L112380 78288
L112356 78312
L112331 78361
" />
</g>
<g style="fill:#000000; fill-opacity:0.0; 
stroke:#000000; stroke-width:39.3701; stroke-opacity:1; 
stroke-linecap:round; stroke-linejoin:round;">
</g>
<g style="fill:#000000; fill-opacity:0.0; 
stroke:#000000; stroke-width:59.0551; stroke-opacity:1; 
stroke-linecap:round; stroke-linejoin:round;">
<path d="M3937 23622
L4724 23622
" />
</g>
<g style="fill:#000000; fill-opacity:0.0; 
stroke:#000000; stroke-width:39.3701; stroke-opacity:1; 
stroke-linecap:round; stroke-linejoin:round;">
</g>
<g style="fill:#000000; fill-opacity:0.0; 
stroke:#000000; stroke-width:59.0551; stroke-opacity:1; 
stroke-linecap:round; stroke-linejoin:round;">
<path d="M3937 43307
L4724 43307
" />
</g>
<g style="fill:#000000; fill-opacity:0.0; 
stroke:#000000; stroke-width:39.3701; stroke-opacity:1; 
stroke-linecap:round; stroke-linejoin:round;">
</g>
<g style="fill:#000000; fill-opacity:0.0; 
stroke:#000000; stroke-width:59.0551; stroke-opacity:1; 
stroke-linecap:round; stroke-linejoin:round;">
<path d="M3937 62992
L4724 62992
" />
</g>
<g style="fill:#000000; fill-opacity:0.0; 
stroke:#000000; stroke-width:39.3701; stroke-opacity:1; 
stroke-linecap:round; stroke-linejoin:round;">
</g>
<g style="fill:#000000; fill-opacity:0.0; 
stroke:#000000; stroke-width:59.0551; stroke-opacity:1; 
stroke-linecap:round; stroke-linejoin:round;">
<path d="M4208 13864
L4452 13864
" />
<path d="M4160 14011
L4330 13499
L4501 14011
" />
</g>
<g style="fill:#000000; fill-opacity:0.0; 
stroke:#000000; stroke-width:39.3701; stroke-opacity:1; 
stroke-linecap:round; stroke-linejoin:round;">
</g>
<g style="fill:#000000; fill-opacity:0.0; 
stroke:#000000; stroke-width:59.0551; stroke-opacity:1; 
stroke-linecap:round; stroke-linejoin:round;">
<path d="M4367 33428
L4440 33452
L4464 33476
L4489 33525
L4489 33598
L4464 33647
L4440 33671
L4391 33696
L4196 33696
L4196 33184
L4367 33184
L4416 33208
L4440 33233
L4464 33281
L4464 33330
L4440 33379
L4416 33403
L4367 33428
L4196 33428
" />
</g>
<g style="fill:#000000; fill-opacity:0.0; 
stroke:#000000; stroke-width:39.3701; stroke-opacity:1; 
stroke-linecap:round; stroke-linejoin:round;">
</g>
<g style="fill:#000000; fill-opacity:0.0; 
stroke:#000000; stroke-width:59.0551; stroke-opacity:1; 
stroke-linecap:round; stroke-linejoin:round;">
<path d="M4489 53332
L4464 53356
L4391 53381
L4342 53381
L4269 53356
L4221 53308
L4196 53259
L4172 53161
L4172 53088
L4196 52991
L4221 52942
L4269 52893
L4342 52869
L4391 52869
L4464 52893
L4489 52918
" />
</g>
<g style="fill:#000000; fill-opacity:0.0; 
stroke:#000000; stroke-width:39.3701; stroke-opacity:1; 
stroke-linecap:round; stroke-linejoin:round;">
</g>
<g style="fill:#000000; fill-opacity:0.0; 
stroke:#000000; stroke-width:59.0551; stroke-opacity:1; 
stroke-linecap:round; stroke-linejoin:round;">
<path d="M4196 73066
L4196 72554
L4318 72554
L4391 72578
L4440 72627
L4464 72676
L4489 72773
L4489 72846
L4464 72944
L4440 72993
L4391 73041
L4318 73066
L4196 73066
" />
</g>
<g style="fill:#000000; fill-opacity:0.0; 
stroke:#000000; stroke-width:39.3701; stroke-opacity:1; 
stroke-linecap:round; stroke-linejoin:round;">
</g>
<g style="fill:#000000; fill-opacity:0.0; 
stroke:#000000; stroke-width:59.0551; stroke-opacity:1; 
stroke-linecap:round; stroke-linejoin:round;">
<path d="M112992 23622
L112205 23622
" />
</g>
<g style="fill:#000000; fill-opacity:0.0; 
stroke:#000000; stroke-width:39.3701; stroke-opacity:1; 
stroke-linecap:round; stroke-linejoin:round;">
</g>
<g style="fill:#000000; fill-opacity:0.0; 
stroke:#000000; stroke-width:59.0551; stroke-opacity:1; 
stroke-linecap:round; stroke-linejoin:round;">
<path d="M112992 43307
L112205 43307
" />
</g>
<g style="fill:#000000; fill-opacity:0.0; 
stroke:#000000; stroke-width:39.3701; stroke-opacity:1; 
stroke-linecap:round; stroke-linejoin:round;">
</g>
<g style="fill:#000000; fill-opacity:0.0; 
stroke:#000000; stroke-width:59.0551; stroke-opacity:1; 
stroke-linecap:round; stroke-linejoin:round;">
<path d="M112992 62992
L112205 62992
" />
</g>
<g style="fill:#000000; fill-opacity:0.0; 
stroke:#000000; stroke-width:39.3701; stroke-opacity:1; 
stroke-linecap:round; stroke-linejoin:round;">
</g>
<g style="fill:#000000; fill-opacity:0.0; 
stroke:#000000; stroke-width:59.0551; stroke-opacity:1; 
stroke-linecap:round; stroke-linejoin:round;">
<path d="M112477 13864
L112721 13864
" />
<path d="M112428 14011
L112599 13499
L112769 14011
" />
</g>
<g style="fill:#000000; fill-opacity:0.0; 
stroke:#000000; stroke-width:39.3701; stroke-opacity:1; 
stroke-linecap:round; stroke-linejoin:round;">
</g>
<g style="fill:#000000; fill-opacity:0.0; 
stroke:#000000; stroke-width:59.0551; stroke-opacity:1; 
stroke-linecap:round; stroke-linejoin:round;">
<path d="M112635 33428
L112708 33452
L112733 33476
L112757 33525
L112757 33598
L112733 33647
L112708 33671
L112660 33696
L112465 33696
L112465 33184
L112635 33184
L112684 33208
L112708 33233
L112733 33281
L112733 33330
L112708 33379
L112684 33403
L112635 33428
L112465 33428
" />
</g>
<g style="fill:#000000; fill-opacity:0.0; 
stroke:#000000; stroke-width:39.3701; stroke-opacity:1; 
stroke-linecap:round; stroke-linejoin:round;">
</g>
<g style="fill:#000000; fill-opacity:0.0; 
stroke:#000000; stroke-width:59.0551; stroke-opacity:1; 
stroke-linecap:round; stroke-linejoin:round;">
<path d="M112757 53332
L112733 53356
L112660 53381
L112611 53381
L112538 53356
L112489 53308
L112465 53259
L112440 53161
L112440 53088
L112465 52991
L112489 52942
L112538 52893
L112611 52869
L112660 52869
L112733 52893
L112757 52918
" />
</g>
<g style="fill:#000000; fill-opacity:0.0; 
stroke:#000000; stroke-width:39.3701; stroke-opacity:1; 
stroke-linecap:round; stroke-linejoin:round;">
</g>
<g style="fill:#000000; fill-opacity:0.0; 
stroke:#000000; stroke-width:59.0551; stroke-opacity:1; 
stroke-linecap:round; stroke-linejoin:round;">
<path d="M112465 73066
L112465 72554
L112587 72554
L112660 72578
L112708 72627
L112733 72676
L112757 72773
L112757 72846
L112733 72944
L112708 72993
L112660 73041
L112587 73066
L112465 73066
" />
</g>
<g style="fill:#000000; fill-opacity:0.0; 
stroke:#000000; stroke-width:39.3701; stroke-opacity:1; 
stroke-linecap:round; stroke-linejoin:round;">
</g>
<g style="fill:#000000; fill-opacity:0.0; 
stroke:#000000; stroke-width:59.0551; stroke-opacity:1; 
stroke-linecap:round; stroke-linejoin:round;">
<path d="M78911 76293
L78911 75703
L79051 75703
L79136 75731
L79192 75787
L79220 75843
L79248 75956
L79248 76040
L79220 76153
L79192 76209
L79136 76265
L79051 76293
L78911 76293
" />
<path d="M79754 76293
L79754 75984
L79726 75928
L79670 75899
L79557 75899
L79501 75928
" />
<path d="M79754 76265
L79698 76293
L79557 76293
L79501 76265
L79473 76209
L79473 76153
L79501 76096
L79557 76068
L79698 76068
L79754 76040
" />
<path d="M79951 75899
L80176 75899
" />
<path d="M80036 75703
L80036 76209
L80064 76265
L80120 76293
L80176 76293
" />
<path d="M80598 76265
L80542 76293
L80429 76293
L80373 76265
L80345 76209
L80345 75984
L80373 75928
L80429 75899
L80542 75899
L80598 75928
L80626 75984
L80626 76040
L80345 76096
" />
<path d="M80879 76237
L80907 76265
L80879 76293
L80851 76265
L80879 76237
L80879 76293
" />
<path d="M80879 75928
L80907 75956
L80879 75984
L80851 75956
L80879 75928
L80879 75984
" />
</g>
<g style="fill:#000000; fill-opacity:0.0; 
stroke:#000000; stroke-width:39.3701; stroke-opacity:1; 
stroke-linecap:round; stroke-linejoin:round;">
</g>
<g style="fill:#000000; fill-opacity:0.0; 
stroke:#000000; stroke-width:59.0551; stroke-opacity:1; 
stroke-linecap:round; stroke-linejoin:round;">
<path d="M69685 76577
L112205 76577
" />
</g>
<g style="fill:#000000; fill-opacity:0.0; 
stroke:#000000; stroke-width:39.3701; stroke-opacity:1; 
stroke-linecap:round; stroke-linejoin:round;">
</g>
<g style="fill:#000000; fill-opacity:0.0; 
stroke:#000000; stroke-width:59.0551; stroke-opacity:1; 
stroke-linecap:round; stroke-linejoin:round;">
<path d="M70249 77395
L70249 76805
" />
<path d="M70587 77395
L70334 77058
" />
<path d="M70587 76805
L70249 77142
" />
<path d="M70840 77395
L70840 77002
" />
<path d="M70840 76805
L70812 76833
L70840 76861
L70868 76833
L70840 76805
L70840 76861
" />
<path d="M71458 77339
L71430 77367
L71346 77395
L71290 77395
L71205 77367
L71149 77311
L71121 77255
L71093 77142
L71093 77058
L71121 76946
L71149 76889
L71205 76833
L71290 76805
L71346 76805
L71430 76833
L71458 76861
" />
<path d="M71965 77395
L71965 77086
L71937 77030
L71880 77002
L71768 77002
L71712 77030
" />
<path d="M71965 77367
L71908 77395
L71768 77395
L71712 77367
L71683 77311
L71683 77255
L71712 77199
L71768 77171
L71908 77171
L71965 77142
" />
<path d="M72499 77395
L72499 76805
" />
<path d="M72499 77367
L72443 77395
L72330 77395
L72274 77367
L72246 77339
L72218 77283
L72218 77114
L72246 77058
L72274 77030
L72330 77002
L72443 77002
L72499 77030
" />
<path d="M73230 77086
L73427 77086
" />
<path d="M73511 77395
L73230 77395
L73230 76805
L73511 76805
" />
<path d="M73764 77339
L73793 77367
L73764 77395
L73736 77367
L73764 77339
L73764 77395
" />
<path d="M74046 77395
L74046 76805
L74186 76805
L74271 76833
L74327 76889
L74355 76946
L74383 77058
L74383 77142
L74355 77255
L74327 77311
L74271 77367
L74186 77395
L74046 77395
" />
<path d="M74636 77339
L74664 77367
L74636 77395
L74608 77367
L74636 77339
L74636 77395
" />
<path d="M74889 77227
L75171 77227
" />
<path d="M74833 77395
L75030 76805
L75227 77395
" />
<path d="M75424 77339
L75452 77367
L75424 77395
L75395 77367
L75424 77339
L75424 77395
" />
<path d="M76605 77395
L76605 76805
" />
<path d="M76661 77171
L76830 77395
" />
<path d="M76830 77002
L76605 77227
" />
<path d="M77083 77395
L77083 77002
" />
<path d="M77083 76805
L77055 76833
L77083 76861
L77111 76833
L77083 76805
L77083 76861
" />
<path d="M77617 77367
L77561 77395
L77448 77395
L77392 77367
L77364 77339
L77336 77283
L77336 77114
L77364 77058
L77392 77030
L77448 77002
L77561 77002
L77617 77030
" />
<path d="M78123 77395
L78123 77086
L78095 77030
L78039 77002
L77926 77002
L77870 77030
" />
<path d="M78123 77367
L78067 77395
L77926 77395
L77870 77367
L77842 77311
L77842 77255
L77870 77199
L77926 77171
L78067 77171
L78123 77142
" />
<path d="M78658 77395
L78658 76805
" />
<path d="M78658 77367
L78601 77395
L78489 77395
L78433 77367
L78404 77339
L78376 77283
L78376 77114
L78404 77058
L78433 77030
L78489 77002
L78601 77002
L78658 77030
" />
<path d="M79670 76805
L79389 76805
L79361 77086
L79389 77058
L79445 77030
L79586 77030
L79642 77058
L79670 77086
L79698 77142
L79698 77283
L79670 77339
L79642 77367
L79586 77395
L79445 77395
L79389 77367
L79361 77339
" />
<path d="M79951 77339
L79979 77367
L79951 77395
L79923 77367
L79951 77339
L79951 77395
" />
<path d="M80542 77395
L80204 77395
" />
<path d="M80373 77395
L80373 76805
L80317 76889
L80260 76946
L80204 76974
" />
<path d="M80795 77339
L80823 77367
L80795 77395
L80767 77367
L80795 77339
L80795 77395
" />
<path d="M81329 77002
L81329 77395
" />
<path d="M81188 76777
L81048 77199
L81413 77199
" />
<path d="M81638 77171
L82088 77171
" />
<path d="M82595 77367
L82538 77395
L82426 77395
L82370 77367
L82341 77311
L82341 77086
L82370 77030
L82426 77002
L82538 77002
L82595 77030
L82623 77086
L82623 77142
L82341 77199
" />
<path d="M83129 76805
L83016 76805
L82960 76833
L82932 76861
L82876 76946
L82848 77058
L82848 77283
L82876 77339
L82904 77367
L82960 77395
L83073 77395
L83129 77367
L83157 77339
L83185 77283
L83185 77142
L83157 77086
L83129 77058
L83073 77030
L82960 77030
L82904 77058
L82876 77086
L82848 77142
" />
<path d="M83551 76805
L83607 76805
L83663 76833
L83691 76861
L83719 76917
L83748 77030
L83748 77171
L83719 77283
L83691 77339
L83663 77367
L83607 77395
L83551 77395
L83494 77367
L83466 77339
L83438 77283
L83410 77171
L83410 77030
L83438 76917
L83466 76861
L83494 76833
L83551 76805
" />
<path d="M84001 77395
L84001 76805
" />
<path d="M84001 77030
L84057 77002
L84169 77002
L84226 77030
L84254 77058
L84282 77114
L84282 77283
L84254 77339
L84226 77367
L84169 77395
L84057 77395
L84001 77367
" />
<path d="M84507 76861
L84535 76833
L84591 76805
L84732 76805
L84788 76833
L84816 76861
L84844 76917
L84844 76974
L84816 77058
L84479 77395
L84844 77395
" />
<path d="M85350 76805
L85238 76805
L85182 76833
L85154 76861
L85097 76946
L85069 77058
L85069 77283
L85097 77339
L85126 77367
L85182 77395
L85294 77395
L85350 77367
L85379 77339
L85407 77283
L85407 77142
L85379 77086
L85350 77058
L85294 77030
L85182 77030
L85126 77058
L85097 77086
L85069 77142
" />
<path d="M85913 76805
L85800 76805
L85744 76833
L85716 76861
L85660 76946
L85632 77058
L85632 77283
L85660 77339
L85688 77367
L85744 77395
L85857 77395
L85913 77367
L85941 77339
L85969 77283
L85969 77142
L85941 77086
L85913 77058
L85857 77030
L85744 77030
L85688 77058
L85660 77086
L85632 77142
" />
<path d="M86082 76644
L86644 76644
" />
<path d="M86307 77058
L86250 77030
L86222 77002
L86194 76946
L86194 76917
L86222 76861
L86250 76833
L86307 76805
L86419 76805
L86475 76833
L86503 76861
L86532 76917
L86532 76946
L86503 77002
L86475 77030
L86419 77058
L86307 77058
L86250 77086
L86222 77114
L86194 77171
L86194 77283
L86222 77339
L86250 77367
L86307 77395
L86419 77395
L86475 77367
L86503 77339
L86532 77283
L86532 77171
L86503 77114
L86475 77086
L86419 77058
" />
<path d="M86644 76644
L87206 76644
" />
<path d="M87038 77002
L87038 77395
" />
<path d="M86897 76777
L86757 77199
L87122 77199
" />
<path d="M87600 77002
L87600 77395
" />
<path d="M87347 77002
L87347 77311
L87375 77367
L87431 77395
L87516 77395
L87572 77367
L87600 77339
" />
<path d="M87881 77395
L87881 76805
" />
<path d="M87881 77030
L87938 77002
L88050 77002
L88106 77030
L88135 77058
L88163 77114
L88163 77283
L88135 77339
L88106 77367
L88050 77395
L87938 77395
L87881 77367
" />
<path d="M88669 77002
L88669 77395
" />
<path d="M88416 77002
L88416 77311
L88444 77367
L88500 77395
L88584 77395
L88641 77367
L88669 77339
" />
<path d="M88950 77002
L88950 77395
" />
<path d="M88950 77058
L88978 77030
L89034 77002
L89119 77002
L89175 77030
L89203 77086
L89203 77395
" />
<path d="M89400 77002
L89625 77002
" />
<path d="M89484 76805
L89484 77311
L89512 77367
L89569 77395
L89625 77395
" />
<path d="M90075 77002
L90075 77395
" />
<path d="M89822 77002
L89822 77311
L89850 77367
L89906 77395
L89991 77395
L90047 77367
L90075 77339
" />
<path d="M90665 77395
L90328 77395
" />
<path d="M90497 77395
L90497 76805
L90440 76889
L90384 76946
L90328 76974
" />
<path d="M91003 77058
L90947 77030
L90919 77002
L90890 76946
L90890 76917
L90919 76861
L90947 76833
L91003 76805
L91115 76805
L91172 76833
L91200 76861
L91228 76917
L91228 76946
L91200 77002
L91172 77030
L91115 77058
L91003 77058
L90947 77086
L90919 77114
L90890 77171
L90890 77283
L90919 77339
L90947 77367
L91003 77395
L91115 77395
L91172 77367
L91200 77339
L91228 77283
L91228 77171
L91200 77114
L91172 77086
L91115 77058
" />
<path d="M91481 77339
L91509 77367
L91481 77395
L91453 77367
L91481 77339
L91481 77395
" />
<path d="M91875 76805
L91931 76805
L91987 76833
L92015 76861
L92043 76917
L92072 77030
L92072 77171
L92043 77283
L92015 77339
L91987 77367
L91931 77395
L91875 77395
L91818 77367
L91790 77339
L91762 77283
L91734 77171
L91734 77030
L91762 76917
L91790 76861
L91818 76833
L91875 76805
" />
<path d="M92578 77002
L92578 77395
" />
<path d="M92437 76777
L92296 77199
L92662 77199
" />
<path d="M92887 77339
L92915 77367
L92887 77395
L92859 77367
L92887 77339
L92887 77395
" />
<path d="M93478 77395
L93140 77395
" />
<path d="M93309 77395
L93309 76805
L93253 76889
L93196 76946
L93140 76974
" />
</g>
<g style="fill:#000000; fill-opacity:0.0; 
stroke:#000000; stroke-width:39.3701; stroke-opacity:1; 
stroke-linecap:round; stroke-linejoin:round;">
</g>
<g style="fill:#000000; fill-opacity:0.0; 
stroke:#000000; stroke-width:59.0551; stroke-opacity:1; 
stroke-linecap:round; stroke-linejoin:round;">
<path d="M69685 75396
L112205 75396
" />
</g>
<g style="fill:#000000; fill-opacity:0.0; 
stroke:#000000; stroke-width:39.3701; stroke-opacity:1; 
stroke-linecap:round; stroke-linejoin:round;">
</g>
<g style="fill:#000000; fill-opacity:0.0; 
stroke:#000000; stroke-width:118.11; stroke-opacity:1; 
stroke-linecap:round; stroke-linejoin:round;">
<path d="M104099 76293
L103902 76012
" />
<path d="M103761 76293
L103761 75703
L103986 75703
L104042 75731
L104070 75759
L104099 75815
L104099 75899
L104070 75956
L104042 75984
L103986 76012
L103761 76012
" />
<path d="M104577 76265
L104520 76293
L104408 76293
L104352 76265
L104323 76209
L104323 75984
L104352 75928
L104408 75899
L104520 75899
L104577 75928
L104605 75984
L104605 76040
L104323 76096
" />
<path d="M104802 75899
L104942 76293
L105083 75899
" />
<path d="M105308 76237
L105336 76265
L105308 76293
L105280 76265
L105308 76237
L105308 76293
" />
<path d="M105308 75928
L105336 75956
L105308 75984
L105280 75956
L105308 75928
L105308 75984
" />
</g>
<g style="fill:#000000; fill-opacity:0.0; 
stroke:#000000; stroke-width:39.3701; stroke-opacity:1; 
stroke-linecap:round; stroke-linejoin:round;">
</g>
<g style="fill:#000000; fill-opacity:0.0; 
stroke:#000000; stroke-width:59.0551; stroke-opacity:1; 
stroke-linecap:round; stroke-linejoin:round;">
<path d="M70221 76265
L70305 76293
L70446 76293
L70502 76265
L70530 76237
L70559 76181
L70559 76124
L70530 76068
L70502 76040
L70446 76012
L70334 75984
L70277 75956
L70249 75928
L70221 75871
L70221 75815
L70249 75759
L70277 75731
L70334 75703
L70474 75703
L70559 75731
" />
<path d="M70812 76293
L70812 75899
" />
<path d="M70812 75703
L70784 75731
L70812 75759
L70840 75731
L70812 75703
L70812 75759
" />
<path d="M71037 75899
L71346 75899
L71037 76293
L71346 76293
" />
<path d="M71796 76265
L71740 76293
L71627 76293
L71571 76265
L71543 76209
L71543 75984
L71571 75928
L71627 75899
L71740 75899
L71796 75928
L71824 75984
L71824 76040
L71543 76096
" />
<path d="M72077 76237
L72105 76265
L72077 76293
L72049 76265
L72077 76237
L72077 76293
" />
<path d="M72077 75928
L72105 75956
L72077 75984
L72049 75956
L72077 75928
L72077 75984
" />
<path d="M72780 76124
L73061 76124
" />
<path d="M72724 76293
L72921 75703
L73118 76293
" />
<path d="M73568 75899
L73568 76293
" />
<path d="M73427 75674
L73286 76096
L73652 76096
" />
</g>
<g style="fill:#000000; fill-opacity:0.0; 
stroke:#000000; stroke-width:39.3701; stroke-opacity:1; 
stroke-linecap:round; stroke-linejoin:round;">
</g>
<g style="fill:#000000; fill-opacity:0.0; 
stroke:#000000; stroke-width:59.0551; stroke-opacity:1; 
stroke-linecap:round; stroke-linejoin:round;">
<path d="M103714 77395
L103714 76805
" />
<path d="M104248 77395
L104248 76805
" />
<path d="M104248 77367
L104192 77395
L104079 77395
L104023 77367
L103995 77339
L103967 77283
L103967 77114
L103995 77058
L104023 77030
L104079 77002
L104192 77002
L104248 77030
" />
<path d="M104529 77339
L104557 77367
L104529 77395
L104501 77367
L104529 77339
L104529 77395
" />
<path d="M104529 77030
L104557 77058
L104529 77086
L104501 77058
L104529 77030
L104529 77086
" />
<path d="M105570 77395
L105232 77395
" />
<path d="M105401 77395
L105401 76805
L105345 76889
L105289 76946
L105232 76974
" />
<path d="M106245 76777
L105739 77536
" />
<path d="M106751 77395
L106413 77395
" />
<path d="M106582 77395
L106582 76805
L106526 76889
L106470 76946
L106413 76974
" />
</g>
<g style="fill:#000000; fill-opacity:0.0; 
stroke:#000000; stroke-width:39.3701; stroke-opacity:1; 
stroke-linecap:round; stroke-linejoin:round;">
</g>
<g style="fill:#000000; fill-opacity:0.0; 
stroke:#000000; stroke-width:59.0551; stroke-opacity:1; 
stroke-linecap:round; stroke-linejoin:round;">
<path d="M69685 73821
L112205 73821
" />
</g>
<g style="fill:#000000; fill-opacity:0.0; 
stroke:#000000; stroke-width:39.3701; stroke-opacity:1; 
stroke-linecap:round; stroke-linejoin:round;">
</g>
<g style="fill:#000000; fill-opacity:0.0; 
stroke:#000000; stroke-width:157.48; stroke-opacity:1; 
stroke-linecap:round; stroke-linejoin:round;">
<path d="M70360 74099
L70810 74099
" />
<path d="M70486 74886
L70585 74099
" />
<path d="M70974 74886
L71039 74361
" />
<path d="M71072 74099
L71030 74136
L71063 74174
L71105 74136
L71072 74099
L71063 74174
" />
<path d="M71302 74361
L71602 74361
" />
<path d="M71447 74099
L71363 74774
L71391 74849
L71461 74886
L71536 74886
" />
<path d="M71911 74886
L71841 74849
L71813 74774
L71897 74099
" />
<path d="M72516 74849
L72436 74886
L72286 74886
L72216 74849
L72187 74774
L72225 74474
L72272 74399
L72352 74361
L72501 74361
L72572 74399
L72600 74474
L72591 74549
L72206 74624
" />
<path d="M72895 74811
L72928 74849
L72886 74886
L72853 74849
L72895 74811
L72886 74886
" />
<path d="M72947 74399
L72980 74436
L72937 74474
L72905 74436
L72947 74399
L72937 74474
" />
</g>
<g style="fill:#000000; fill-opacity:0.0; 
stroke:#000000; stroke-width:39.3701; stroke-opacity:1; 
stroke-linecap:round; stroke-linejoin:round;">
</g>
<g style="fill:#000000; fill-opacity:0.0; 
stroke:#000000; stroke-width:59.0551; stroke-opacity:1; 
stroke-linecap:round; stroke-linejoin:round;">
<path d="M70446 73070
L70249 73070
" />
<path d="M70249 73380
L70249 72789
L70530 72789
" />
<path d="M70755 73380
L70755 72986
" />
<path d="M70755 72789
L70727 72817
L70755 72845
L70784 72817
L70755 72789
L70755 72845
" />
<path d="M71121 73380
L71065 73352
L71037 73295
L71037 72789
" />
<path d="M71571 73352
L71515 73380
L71402 73380
L71346 73352
L71318 73295
L71318 73070
L71346 73014
L71402 72986
L71515 72986
L71571 73014
L71599 73070
L71599 73127
L71318 73183
" />
<path d="M71852 73323
L71880 73352
L71852 73380
L71824 73352
L71852 73323
L71852 73380
" />
<path d="M71852 73014
L71880 73042
L71852 73070
L71824 73042
L71852 73014
L71852 73070
" />
<path d="M72527 72789
L72668 73380
L72780 72958
L72893 73380
L73033 72789
" />
<path d="M73483 73352
L73427 73380
L73314 73380
L73258 73352
L73230 73295
L73230 73070
L73258 73014
L73314 72986
L73427 72986
L73483 73014
L73511 73070
L73511 73127
L73230 73183
" />
<path d="M73764 73380
L73764 72986
" />
<path d="M73764 73042
L73793 73014
L73849 72986
L73933 72986
L73989 73014
L74018 73070
L74018 73380
" />
<path d="M74018 73070
L74046 73014
L74102 72986
L74186 72986
L74242 73014
L74271 73070
L74271 73380
" />
<path d="M74636 73380
L74580 73352
L74552 73323
L74524 73267
L74524 73099
L74552 73042
L74580 73014
L74636 72986
L74721 72986
L74777 73014
L74805 73042
L74833 73099
L74833 73267
L74805 73323
L74777 73352
L74721 73380
L74636 73380
" />
<path d="M75058 73352
L75114 73380
L75227 73380
L75283 73352
L75311 73295
L75311 73267
L75283 73211
L75227 73183
L75142 73183
L75086 73155
L75058 73099
L75058 73070
L75086 73014
L75142 72986
L75227 72986
L75283 73014
" />
<path d="M75902 73323
L75874 73352
L75789 73380
L75733 73380
L75649 73352
L75592 73295
L75564 73239
L75536 73127
L75536 73042
L75564 72930
L75592 72874
L75649 72817
L75733 72789
L75789 72789
L75874 72817
L75902 72845
" />
<path d="M76239 73380
L76183 73352
L76155 73295
L76155 72789
" />
<path d="M76548 73380
L76492 73352
L76464 73323
L76436 73267
L76436 73099
L76464 73042
L76492 73014
L76548 72986
L76633 72986
L76689 73014
L76717 73042
L76745 73099
L76745 73267
L76717 73323
L76689 73352
L76633 73380
L76548 73380
" />
<path d="M77251 73352
L77195 73380
L77083 73380
L77027 73352
L76998 73323
L76970 73267
L76970 73099
L76998 73042
L77027 73014
L77083 72986
L77195 72986
L77251 73014
" />
<path d="M77505 73380
L77505 72789
" />
<path d="M77561 73155
L77730 73380
" />
<path d="M77730 72986
L77505 73211
" />
<path d="M77983 73323
L78011 73352
L77983 73380
L77955 73352
L77983 73323
L77983 73380
" />
<path d="M78264 73380
L78264 72789
" />
<path d="M78320 73155
L78489 73380
" />
<path d="M78489 72986
L78264 73211
" />
<path d="M78742 73380
L78742 72986
" />
<path d="M78742 72789
L78714 72817
L78742 72845
L78770 72817
L78742 72789
L78742 72845
" />
<path d="M79276 73352
L79220 73380
L79108 73380
L79051 73352
L79023 73323
L78995 73267
L78995 73099
L79023 73042
L79051 73014
L79108 72986
L79220 72986
L79276 73014
" />
<path d="M79782 73380
L79782 73070
L79754 73014
L79698 72986
L79586 72986
L79529 73014
" />
<path d="M79782 73352
L79726 73380
L79586 73380
L79529 73352
L79501 73295
L79501 73239
L79529 73183
L79586 73155
L79726 73155
L79782 73127
" />
<path d="M80317 73380
L80317 72789
" />
<path d="M80317 73352
L80260 73380
L80148 73380
L80092 73352
L80064 73323
L80036 73267
L80036 73099
L80064 73042
L80092 73014
L80148 72986
L80260 72986
L80317 73014
" />
<path d="M80457 73436
L80907 73436
" />
<path d="M81048 72986
L81048 73577
" />
<path d="M81048 73014
L81104 72986
L81217 72986
L81273 73014
L81301 73042
L81329 73099
L81329 73267
L81301 73323
L81273 73352
L81217 73380
L81104 73380
L81048 73352
" />
<path d="M81835 73352
L81779 73380
L81667 73380
L81610 73352
L81582 73323
L81554 73267
L81554 73099
L81582 73042
L81610 73014
L81667 72986
L81779 72986
L81835 73014
" />
<path d="M82088 73380
L82088 72789
" />
<path d="M82088 73014
L82145 72986
L82257 72986
L82313 73014
L82341 73042
L82370 73099
L82370 73267
L82341 73323
L82313 73352
L82257 73380
L82145 73380
L82088 73352
" />
</g>
<g style="fill:#000000; fill-opacity:0.0; 
stroke:#000000; stroke-width:39.3701; stroke-opacity:1; 
stroke-linecap:round; stroke-linejoin:round;">
</g>
<g style="fill:#000000; fill-opacity:0.0; 
stroke:#000000; stroke-width:59.0551; stroke-opacity:1; 
stroke-linecap:round; stroke-linejoin:round;">
<path d="M69685 71459
L112205 71459
" />
</g>
<g style="fill:#000000; fill-opacity:0.0; 
stroke:#000000; stroke-width:39.3701; stroke-opacity:1; 
stroke-linecap:round; stroke-linejoin:round;">
</g>
<g style="fill:#000000; fill-opacity:0.0; 
stroke:#000000; stroke-width:59.0551; stroke-opacity:1; 
stroke-linecap:round; stroke-linejoin:round;">
<path d="M70221 72289
L70305 72317
L70446 72317
L70502 72289
L70530 72260
L70559 72204
L70559 72148
L70530 72092
L70502 72064
L70446 72036
L70334 72007
L70277 71979
L70249 71951
L70221 71895
L70221 71839
L70249 71782
L70277 71754
L70334 71726
L70474 71726
L70559 71754
" />
<path d="M70812 72317
L70812 71726
" />
<path d="M71065 72317
L71065 72007
L71037 71951
L70980 71923
L70896 71923
L70840 71951
L70812 71979
" />
<path d="M71571 72289
L71515 72317
L71402 72317
L71346 72289
L71318 72232
L71318 72007
L71346 71951
L71402 71923
L71515 71923
L71571 71951
L71599 72007
L71599 72064
L71318 72120
" />
<path d="M72077 72289
L72021 72317
L71908 72317
L71852 72289
L71824 72232
L71824 72007
L71852 71951
L71908 71923
L72021 71923
L72077 71951
L72105 72007
L72105 72064
L71824 72120
" />
<path d="M72274 71923
L72499 71923
" />
<path d="M72358 71726
L72358 72232
L72386 72289
L72443 72317
L72499 72317
" />
<path d="M72696 72260
L72724 72289
L72696 72317
L72668 72289
L72696 72260
L72696 72317
" />
<path d="M72696 71951
L72724 71979
L72696 72007
L72668 71979
L72696 71951
L72696 72007
" />
</g>
<g style="fill:#000000; fill-opacity:0.0; 
stroke:#000000; stroke-width:39.3701; stroke-opacity:1; 
stroke-linecap:round; stroke-linejoin:round;">
</g>
<g style="fill:#000000; fill-opacity:0.0; 
stroke:#000000; stroke-width:59.0551; stroke-opacity:1; 
stroke-linecap:round; stroke-linejoin:round;">
<path d="M77559 75396
L77559 76577
" />
</g>
<g style="fill:#000000; fill-opacity:0.0; 
stroke:#000000; stroke-width:39.3701; stroke-opacity:1; 
stroke-linecap:round; stroke-linejoin:round;">
</g>
<g style="fill:#000000; fill-opacity:0.0; 
stroke:#000000; stroke-width:59.0551; stroke-opacity:1; 
stroke-linecap:round; stroke-linejoin:round;">
<path d="M102756 75396
L102756 77955
" />
</g>
<g style="fill:#848484; fill-opacity:0.0; 
stroke:#848484; stroke-width:59.0551; stroke-opacity:1; 
stroke-linecap:round; stroke-linejoin:round;">
</g>
<g style="fill:#848484; fill-opacity:0.0; 
stroke:#848484; stroke-width:39.3701; stroke-opacity:1; 
stroke-linecap:round; stroke-linejoin:round;">
<path d="M45237 38339.4 A787.441 787.441 0.0 0 0 46032.3 37559.8 " />
<path d="M46032.3 29048 A787.402 787.402 0.0 0 0 45244.9 28260.6 " />
<path d="M42800 28654
L43193 28260
" />
<path d="M42406 28260
L42800 28654
" />
<path d="M45244 28260
L43193 28260
" />
<path d="M35284 29260
L32567 29260
" />
<path d="M35284 28260
L35284 29260
" />
<path d="M42406 28260
L35284 28260
" />
<path d="M46032 37551
L46032 29048
" />
<path d="M32567 38339
L45244 38339
" />
<path d="M32567 29260
L32567 38339
" />
<path d="M97723 22231
L97723 26168
" />
<path d="M100676 22231
L97723 22231
" />
<path d="M100676 26168
L100676 22231
" />
<path d="M97723 26168
L100676 26168
" />
<path d="M100203 26148
L100203 22251
" />
<path d="M100640 32831
L98907 32831
" />
<path d="M98907 32831
L98907 36768
" />
<path d="M98907 36768
L100640 36768
" />
<path d="M100640 36768
L100640 32831
" />
<path d="M100140 32831
L100140 36768
" />
<path d="M100640 34071
L100140 34071
" />
<path d="M100640 35528
L100140 35528
" />
<path d="M95107 38658
L95107 38264
" />
<path d="M95304 38461
L94910 38461
" />
<circle cx="93615.7" cy="37600" r="1968.5" /> 
<path d="M35600 35400
L35600 34640
" />
<path d="M35600 31400
L35600 32159
" />
<path d="M36092 34640
L36092 32159
" />
<path d="M35107 34640
L36092 34640
" />
<path d="M35107 32159
L35107 34640
" />
<path d="M36092 32159
L35107 32159
" />
<path d="M37400 33400
L38159 33400
" />
<path d="M41400 33400
L40640 33400
" />
<path d="M38159 33892
L40640 33892
" />
<path d="M38159 32907
L38159 33892
" />
<path d="M40640 32907
L38159 32907
" />
<path d="M40640 33892
L40640 32907
" />
<path d="M52692 26200
L53452 26200
" />
<path d="M56692 26200
L55933 26200
" />
<path d="M53452 26692
L55933 26692
" />
<path d="M53452 25707
L53452 26692
" />
<path d="M55933 25707
L53452 25707
" />
<path d="M55933 26692
L55933 25707
" />
<path d="M47574 26200
L48334 26200
" />
<path d="M51574 26200
L50814 26200
" />
<path d="M48334 26692
L50814 26692
" />
<path d="M48334 25707
L48334 26692
" />
<path d="M50814 25707
L48334 25707
" />
<path d="M50814 26692
L50814 25707
" />
<path d="M42400 26200
L43159 26200
" />
<path d="M46400 26200
L45640 26200
" />
<path d="M43159 26692
L45640 26692
" />
<path d="M43159 25707
L43159 26692
" />
<path d="M45640 25707
L43159 25707
" />
<path d="M45640 26692
L45640 25707
" />
<path d="M37200 26200
L37959 26200
" />
<path d="M41200 26200
L40440 26200
" />
<path d="M37959 26692
L40440 26692
" />
<path d="M37959 25707
L37959 26692
" />
<path d="M40440 25707
L37959 25707
" />
<path d="M40440 26692
L40440 25707
" />
<path d="M32000 26200
L32759 26200
" />
<path d="M36000 26200
L35240 26200
" />
<path d="M32759 26692
L35240 26692
" />
<path d="M32759 25707
L32759 26692
" />
<path d="M35240 25707
L32759 25707
" />
<path d="M35240 26692
L35240 25707
" />
<path d="M26800 26200
L27559 26200
" />
<path d="M30800 26200
L30040 26200
" />
<path d="M27559 26692
L30040 26692
" />
<path d="M27559 25707
L27559 26692
" />
<path d="M30040 25707
L27559 25707
" />
<path d="M30040 26692
L30040 25707
" />
<path d="M21600 26200
L22359 26200
" />
<path d="M25600 26200
L24840 26200
" />
<path d="M22359 26692
L24840 26692
" />
<path d="M22359 25707
L22359 26692
" />
<path d="M24840 25707
L22359 25707
" />
<path d="M24840 26692
L24840 25707
" />
<path d="M76392 32990
L75632 32990
" />
<path d="M72392 32990
L73151 32990
" />
<path d="M75632 32498
L73151 32498
" />
<path d="M75632 33482
L75632 32498
" />
<path d="M73151 33482
L75632 33482
" />
<path d="M73151 32498
L73151 33482
" />
<path d="M72392 29790
L73151 29790
" />
<path d="M76392 29790
L75632 29790
" />
<path d="M73151 30282
L75632 30282
" />
<path d="M73151 29298
L73151 30282
" />
<path d="M75632 29298
L73151 29298
" />
<path d="M75632 30282
L75632 29298
" />
<path d="M72400 31400
L73159 31400
" />
<path d="M76400 31400
L75640 31400
" />
<path d="M73159 31892
L75640 31892
" />
<path d="M73159 30907
L73159 31892
" />
<path d="M75640 30907
L73159 30907
" />
<path d="M75640 31892
L75640 30907
" />
<path d="M76392 38190
L75632 38190
" />
<path d="M72392 38190
L73151 38190
" />
<path d="M75632 37698
L73151 37698
" />
<path d="M75632 38682
L75632 37698
" />
<path d="M73151 38682
L75632 38682
" />
<path d="M73151 37698
L73151 38682
" />
<path d="M72392 34990
L73151 34990
" />
<path d="M76392 34990
L75632 34990
" />
<path d="M73151 35482
L75632 35482
" />
<path d="M73151 34498
L73151 35482
" />
<path d="M75632 34498
L73151 34498
" />
<path d="M75632 35482
L75632 34498
" />
<path d="M72392 36590
L73151 36590
" />
<path d="M76392 36590
L75632 36590
" />
<path d="M73151 37082
L75632 37082
" />
<path d="M73151 36098
L73151 37082
" />
<path d="M75632 36098
L73151 36098
" />
<path d="M75632 37082
L75632 36098
" />
<path d="M76392 22790
L75632 22790
" />
<path d="M72392 22790
L73151 22790
" />
<path d="M75632 22298
L73151 22298
" />
<path d="M75632 23282
L75632 22298
" />
<path d="M73151 23282
L75632 23282
" />
<path d="M73151 22298
L73151 23282
" />
<path d="M72392 19625
L73151 19625
" />
<path d="M76392 19625
L75632 19625
" />
<path d="M73151 20117
L75632 20117
" />
<path d="M73151 19133
L73151 20117
" />
<path d="M75632 19133
L73151 19133
" />
<path d="M75632 20117
L75632 19133
" />
<path d="M72392 21200
L73151 21200
" />
<path d="M76392 21200
L75632 21200
" />
<path d="M73151 21692
L75632 21692
" />
<path d="M73151 20707
L73151 21692
" />
<path d="M75632 20707
L73151 20707
" />
<path d="M75632 21692
L75632 20707
" />
<path d="M76392 28000
L75632 28000
" />
<path d="M72392 28000
L73151 28000
" />
<path d="M75632 27507
L73151 27507
" />
<path d="M75632 28492
L75632 27507
" />
<path d="M73151 28492
L75632 28492
" />
<path d="M73151 27507
L73151 28492
" />
<path d="M72392 24790
L73151 24790
" />
<path d="M76392 24790
L75632 24790
" />
<path d="M73151 25282
L75632 25282
" />
<path d="M73151 24298
L73151 25282
" />
<path d="M75632 24298
L73151 24298
" />
<path d="M75632 25282
L75632 24298
" />
<path d="M72392 26390
L73151 26390
" />
<path d="M76392 26390
L75632 26390
" />
<path d="M73151 26882
L75632 26882
" />
<path d="M73151 25898
L73151 26882
" />
<path d="M75632 25898
L73151 25898
" />
<path d="M75632 26882
L75632 25898
" />
<path d="M56040 21092
L56040 20107
" />
<path d="M56040 20107
L53559 20107
" />
<path d="M53559 20107
L53559 21092
" />
<path d="M53559 21092
L56040 21092
" />
<path d="M56800 20600
L56040 20600
" />
<path d="M52800 20600
L53559 20600
" />
<path d="M47600 20600
L48359 20600
" />
<path d="M51600 20600
L50840 20600
" />
<path d="M48359 21092
L50840 21092
" />
<path d="M48359 20107
L48359 21092
" />
<path d="M50840 20107
L48359 20107
" />
<path d="M50840 21092
L50840 20107
" />
<path d="M46400 20600
L45640 20600
" />
<path d="M42400 20600
L43159 20600
" />
<path d="M45640 20107
L43159 20107
" />
<path d="M45640 21092
L45640 20107
" />
<path d="M43159 21092
L45640 21092
" />
<path d="M43159 20107
L43159 21092
" />
<path d="M37200 20600
L37959 20600
" />
<path d="M41200 20600
L40440 20600
" />
<path d="M37959 21092
L40440 21092
" />
<path d="M37959 20107
L37959 21092
" />
<path d="M40440 20107
L37959 20107
" />
<path d="M40440 21092
L40440 20107
" />
<path d="M32000 20600
L32759 20600
" />
<path d="M36000 20600
L35240 20600
" />
<path d="M32759 21092
L35240 21092
" />
<path d="M32759 20107
L32759 21092
" />
<path d="M35240 20107
L32759 20107
" />
<path d="M35240 21092
L35240 20107
" />
<path d="M30800 20600
L30040 20600
" />
<path d="M26800 20600
L27559 20600
" />
<path d="M30040 20107
L27559 20107
" />
<path d="M30040 21092
L30040 20107
" />
<path d="M27559 21092
L30040 21092
" />
<path d="M27559 20107
L27559 21092
" />
<path d="M22359 20107
L22359 21092
" />
<path d="M22359 21092
L24840 21092
" />
<path d="M24840 21092
L24840 20107
" />
<path d="M24840 20107
L22359 20107
" />
<path d="M21600 20600
L22359 20600
" />
<path d="M25600 20600
L24840 20600
" />
<path d="M67157.5 31480.3 A976.378 976.378 0.0 0 0 68764.7 32225.5 " />
<path d="M68760.8 30731.8 A976.378 976.378 0.0 0 0 67157.5 31480.3 " />
<path d="M68763 32224
L68763 30748
" />
<path d="M67157.5 36598.4 A976.378 976.378 0.0 0 0 68764.7 37343.6 " />
<path d="M68760.8 35850 A976.378 976.378 0.0 0 0 67157.5 36598.4 " />
<path d="M68763 37342
L68763 35866
" />
<path d="M67157.5 21244.1 A976.378 976.378 0.0 0 0 68764.7 21989.3 " />
<path d="M68760.8 20495.6 A976.378 976.378 0.0 0 0 67157.5 21244.1 " />
<path d="M68763 21988
L68763 20511
" />
<path d="M67157.5 26362.2 A976.378 976.378 0.0 0 0 68764.7 27107.4 " />
<path d="M68760.8 25613.7 A976.378 976.378 0.0 0 0 67157.5 26362.2 " />
<path d="M68763 27106
L68763 25629
" />
<path d="M79755.9 31480.3 A976.378 976.378 0.0 0 0 81363.1 32225.5 " />
<path d="M81359.3 30731.8 A976.378 976.378 0.0 0 0 79755.9 31480.3 " />
<path d="M81362 32224
L81362 30748
" />
<path d="M81362 37342
L81362 35866
" />
<path d="M81359.3 35850 A976.378 976.378 0.0 0 0 79755.9 36598.4 " />
<path d="M79755.9 36598.4 A976.378 976.378 0.0 0 0 81363.1 37343.6 " />
<path d="M79755.9 21244.1 A976.378 976.378 0.0 0 0 81363.1 21989.3 " />
<path d="M81359.3 20495.6 A976.378 976.378 0.0 0 0 79755.9 21244.1 " />
<path d="M81362 21988
L81362 20511
" />
<path d="M79755.9 26362.2 A976.378 976.378 0.0 0 0 81363.1 27107.4 " />
<path d="M81359.3 25613.7 A976.378 976.378 0.0 0 0 79755.9 26362.2 " />
<path d="M81362 27106
L81362 25629
" />
<path d="M54800 22623.6 A976.378 976.378 0.0 0 0 54054.8 24230.9 " />
<path d="M55548.5 24227 A976.378 976.378 0.0 0 0 54800 22623.6 " />
<path d="M54055 24229
L55532 24229
" />
<path d="M49600 22623.6 A976.378 976.378 0.0 0 0 48854.8 24230.9 " />
<path d="M50348.5 24227 A976.378 976.378 0.0 0 0 49600 22623.6 " />
<path d="M48855 24229
L50332 24229
" />
<path d="M44400 22623.6 A976.378 976.378 0.0 0 0 43654.8 24230.9 " />
<path d="M45148.5 24227 A976.378 976.378 0.0 0 0 44400 22623.6 " />
<path d="M43655 24229
L45132 24229
" />
<path d="M39200 22623.6 A976.378 976.378 0.0 0 0 38454.8 24230.9 " />
<path d="M39948.5 24227 A976.378 976.378 0.0 0 0 39200 22623.6 " />
<path d="M38455 24229
L39932 24229
" />
<path d="M34200 22623.6 A976.378 976.378 0.0 0 0 33454.8 24230.9 " />
<path d="M34948.5 24227 A976.378 976.378 0.0 0 0 34200 22623.6 " />
<path d="M33455 24229
L34932 24229
" />
<path d="M28800 22623.6 A976.378 976.378 0.0 0 0 28054.8 24230.9 " />
<path d="M29548.5 24227 A976.378 976.378 0.0 0 0 28800 22623.6 " />
<path d="M28055 24229
L29532 24229
" />
<path d="M23600 22623.6 A976.378 976.378 0.0 0 0 22854.8 24230.9 " />
<path d="M24348.5 24227 A976.378 976.378 0.0 0 0 23600 22623.6 " />
<path d="M22855 24229
L24332 24229
" />
<g >
</g>
<g >
</g>
<g >
</g>
<g >
</g>
<g >
</g>
<g >
</g>
<g >
</g>
<g >
</g>
<g >
</g>
<g >
</g>
<g >
</g>
<g >
</g>
<g >
</g>
<g >
</g>
<g >
</g>
<g >
</g>
<g >
</g>
<g >
</g>
<g >
</g>
<g >
</g>
<g >
</g>
<g >
</g>
<g >
</g>
<g >
</g>
<g >
</g>
<g >
</g>
<g >
</g>
<g >
</g>
<g >
</g>
<g >
</g>
<g >
</g>
<g >
</g>
<g >
</g>
<g >
</g>
<g >
</g>
<g >
</g>
<g >
</g>
<g >
</g>
<g >
</g>
<g >
</g>
<g >
</g>
<g >
</g>
<g >
</g>
<g >
</g>
<g >
</g>
<g >
</g>
<g >
</g>
<g >
</g>
<g >
</g>
<g >
</g>
<g >
</g>
<g >
</g>
<g >
</g>
<g >
</g>
<g >
</g>
<g >
</g>
<g >
</g>
<g >
</g>
<g >
</g>
<g >
</g>
<g >
</g>
<g >
</g>
<g >
</g>
</g>
<g style="fill:#848484; fill-opacity:0.0; 
stroke:#848484; stroke-width:39.3701; stroke-opacity:1; 
stroke-linecap:round; stroke-linejoin:round;">
</g>
<g style="fill:#848484; fill-opacity:0.0; 
stroke:#848484; stroke-width:59.0551; stroke-opacity:1; 
stroke-linecap:round; stroke-linejoin:round;">
<path d="M42584 35618
L42978 35524
L42696 35449
L42978 35374
L42584 35281
" />
<path d="M42959 34981
L42978 35018
L42978 35093
L42959 35131
L42921 35149
L42771 35149
L42734 35131
L42715 35093
L42715 35018
L42734 34981
L42771 34962
L42809 34962
L42846 35149
" />
<path d="M42978 34793
L42584 34793
L42865 34662
L42584 34531
L42978 34531
" />
<path d="M42978 34287
L42959 34324
L42940 34343
L42903 34362
L42790 34362
L42753 34343
L42734 34324
L42715 34287
L42715 34231
L42734 34193
L42753 34174
L42790 34156
L42903 34156
L42940 34174
L42959 34193
L42978 34231
L42978 34287
" />
<path d="M42959 34006
L42978 33968
L42978 33893
L42959 33856
L42921 33837
L42903 33837
L42865 33856
L42846 33893
L42846 33949
L42828 33987
L42790 34006
L42771 34006
L42734 33987
L42715 33949
L42715 33893
L42734 33856
" />
<path d="M42978 33368
L42584 33368
L42584 33275
L42603 33218
L42640 33181
L42678 33162
L42753 33143
L42809 33143
L42884 33162
L42921 33181
L42959 33218
L42978 33275
L42978 33368
" />
<path d="M42978 32768
L42978 32993
" />
<path d="M42978 32881
L42584 32881
L42640 32918
L42678 32956
L42696 32993
" />
<path d="M42978 32300
L42715 32300
" />
<path d="M42753 32300
L42734 32281
L42715 32243
L42715 32187
L42734 32150
L42771 32131
L42978 32131
" />
<path d="M42771 32131
L42734 32112
L42715 32075
L42715 32018
L42734 31981
L42771 31962
L42978 31962
" />
<path d="M42978 31775
L42715 31775
" />
<path d="M42584 31775
L42603 31794
L42621 31775
L42603 31756
L42584 31775
L42621 31775
" />
<path d="M42715 31587
L42978 31587
" />
<path d="M42753 31587
L42734 31569
L42715 31531
L42715 31475
L42734 31437
L42771 31419
L42978 31419
" />
<path d="M42978 31231
L42715 31231
" />
<path d="M42584 31231
L42603 31250
L42621 31231
L42603 31212
L42584 31231
L42621 31231
" />
</g>
<g style="fill:#848484; fill-opacity:0.0; 
stroke:#848484; stroke-width:62.9921; stroke-opacity:1; 
stroke-linecap:round; stroke-linejoin:round;">
<path d="M93537 37768
L93514 37791
L93447 37813
L93402 37813
L93334 37791
L93289 37746
L93267 37701
L93244 37611
L93244 37543
L93267 37453
L93289 37408
L93334 37363
L93402 37341
L93447 37341
L93514 37363
L93537 37386
" />
<path d="M93986 37813
L93716 37813
" />
<path d="M93851 37813
L93851 37341
L93806 37408
L93761 37453
L93716 37476
" />
<path d="M35813 33703
L35588 33861
" />
<path d="M35813 33973
L35341 33973
L35341 33793
L35363 33748
L35386 33726
L35431 33703
L35498 33703
L35543 33726
L35566 33748
L35588 33793
L35588 33973
" />
<path d="M35386 33523
L35363 33501
L35341 33456
L35341 33343
L35363 33298
L35386 33276
L35431 33253
L35476 33253
L35543 33276
L35813 33546
L35813 33253
" />
<path d="M35543 32983
L35521 33028
L35498 33051
L35453 33073
L35431 33073
L35386 33051
L35363 33028
L35341 32983
L35341 32893
L35363 32848
L35386 32826
L35431 32803
L35453 32803
L35498 32826
L35521 32848
L35543 32893
L35543 32983
L35566 33028
L35588 33051
L35633 33073
L35723 33073
L35768 33051
L35791 33028
L35813 32983
L35813 32893
L35791 32848
L35768 32826
L35723 32803
L35633 32803
L35588 32826
L35566 32848
L35543 32893
" />
<path d="M39096 33613
L38938 33388
" />
<path d="M38826 33613
L38826 33141
L39006 33141
L39051 33163
L39073 33186
L39096 33231
L39096 33298
L39073 33343
L39051 33366
L39006 33388
L38826 33388
" />
<path d="M39276 33186
L39298 33163
L39343 33141
L39456 33141
L39501 33163
L39523 33186
L39546 33231
L39546 33276
L39523 33343
L39253 33613
L39546 33613
" />
<path d="M39703 33141
L40018 33141
L39816 33613
" />
<path d="M54389 26413
L54231 26188
" />
<path d="M54119 26413
L54119 25941
L54299 25941
L54344 25963
L54366 25986
L54389 26031
L54389 26098
L54366 26143
L54344 26166
L54299 26188
L54119 26188
" />
<path d="M54569 25986
L54591 25963
L54636 25941
L54749 25941
L54794 25963
L54816 25986
L54839 26031
L54839 26076
L54816 26143
L54546 26413
L54839 26413
" />
<path d="M55244 25941
L55154 25941
L55109 25963
L55086 25986
L55041 26053
L55019 26143
L55019 26323
L55041 26368
L55064 26391
L55109 26413
L55199 26413
L55244 26391
L55266 26368
L55289 26323
L55289 26211
L55266 26166
L55244 26143
L55199 26121
L55109 26121
L55064 26143
L55041 26166
L55019 26211
" />
<path d="M49271 26413
L49113 26188
" />
<path d="M49001 26413
L49001 25941
L49181 25941
L49226 25963
L49248 25986
L49271 26031
L49271 26098
L49248 26143
L49226 26166
L49181 26188
L49001 26188
" />
<path d="M49451 25986
L49473 25963
L49518 25941
L49631 25941
L49676 25963
L49698 25986
L49721 26031
L49721 26076
L49698 26143
L49428 26413
L49721 26413
" />
<path d="M50148 25941
L49923 25941
L49901 26166
L49923 26143
L49968 26121
L50080 26121
L50125 26143
L50148 26166
L50170 26211
L50170 26323
L50148 26368
L50125 26391
L50080 26413
L49968 26413
L49923 26391
L49901 26368
" />
<path d="M44096 26413
L43938 26188
" />
<path d="M43826 26413
L43826 25941
L44006 25941
L44051 25963
L44073 25986
L44096 26031
L44096 26098
L44073 26143
L44051 26166
L44006 26188
L43826 26188
" />
<path d="M44276 25986
L44298 25963
L44343 25941
L44456 25941
L44501 25963
L44523 25986
L44546 26031
L44546 26076
L44523 26143
L44253 26413
L44546 26413
" />
<path d="M44951 26098
L44951 26413
" />
<path d="M44838 25918
L44726 26256
L45018 26256
" />
<path d="M38896 26413
L38738 26188
" />
<path d="M38626 26413
L38626 25941
L38806 25941
L38851 25963
L38873 25986
L38896 26031
L38896 26098
L38873 26143
L38851 26166
L38806 26188
L38626 26188
" />
<path d="M39076 25986
L39098 25963
L39143 25941
L39256 25941
L39301 25963
L39323 25986
L39346 26031
L39346 26076
L39323 26143
L39053 26413
L39346 26413
" />
<path d="M39503 25941
L39796 25941
L39638 26121
L39706 26121
L39751 26143
L39773 26166
L39796 26211
L39796 26323
L39773 26368
L39751 26391
L39706 26413
L39571 26413
L39526 26391
L39503 26368
" />
<path d="M33696 26413
L33538 26188
" />
<path d="M33426 26413
L33426 25941
L33606 25941
L33651 25963
L33673 25986
L33696 26031
L33696 26098
L33673 26143
L33651 26166
L33606 26188
L33426 26188
" />
<path d="M33876 25986
L33898 25963
L33943 25941
L34056 25941
L34101 25963
L34123 25986
L34146 26031
L34146 26076
L34123 26143
L33853 26413
L34146 26413
" />
<path d="M34326 25986
L34348 25963
L34393 25941
L34506 25941
L34551 25963
L34573 25986
L34596 26031
L34596 26076
L34573 26143
L34303 26413
L34596 26413
" />
<path d="M28642 26413
L28485 26188
" />
<path d="M28372 26413
L28372 25941
L28552 25941
L28597 25963
L28620 25986
L28642 26031
L28642 26098
L28620 26143
L28597 26166
L28552 26188
L28372 26188
" />
<path d="M28822 25986
L28845 25963
L28890 25941
L29002 25941
L29047 25963
L29070 25986
L29092 26031
L29092 26076
L29070 26143
L28800 26413
L29092 26413
" />
<path d="M29542 26413
L29272 26413
" />
<path d="M29407 26413
L29407 25941
L29362 26008
L29317 26053
L29272 26076
" />
<path d="M23296 26413
L23138 26188
" />
<path d="M23026 26413
L23026 25941
L23206 25941
L23251 25963
L23273 25986
L23296 26031
L23296 26098
L23273 26143
L23251 26166
L23206 26188
L23026 26188
" />
<path d="M23476 25986
L23498 25963
L23543 25941
L23656 25941
L23701 25963
L23723 25986
L23746 26031
L23746 26076
L23723 26143
L23453 26413
L23746 26413
" />
<path d="M24038 25941
L24083 25941
L24128 25963
L24151 25986
L24173 26031
L24196 26121
L24196 26233
L24173 26323
L24151 26368
L24128 26391
L24083 26413
L24038 26413
L23993 26391
L23971 26368
L23948 26323
L23926 26233
L23926 26121
L23948 26031
L23971 25986
L23993 25963
L24038 25941
" />
<path d="M74088 33204
L73930 32979
" />
<path d="M73818 33204
L73818 32731
L73998 32731
L74043 32754
L74065 32776
L74088 32821
L74088 32889
L74065 32934
L74043 32956
L73998 32979
L73818 32979
" />
<path d="M74538 33204
L74268 33204
" />
<path d="M74403 33204
L74403 32731
L74358 32799
L74313 32844
L74268 32866
" />
<path d="M74763 33204
L74853 33204
L74898 33181
L74920 33159
L74965 33091
L74988 33001
L74988 32821
L74965 32776
L74943 32754
L74898 32731
L74808 32731
L74763 32754
L74740 32776
L74718 32821
L74718 32934
L74740 32979
L74763 33001
L74808 33024
L74898 33024
L74943 33001
L74965 32979
L74988 32934
" />
<path d="M74088 30004
L73930 29779
" />
<path d="M73818 30004
L73818 29531
L73998 29531
L74043 29554
L74065 29576
L74088 29621
L74088 29689
L74065 29734
L74043 29756
L73998 29779
L73818 29779
" />
<path d="M74538 30004
L74268 30004
" />
<path d="M74403 30004
L74403 29531
L74358 29599
L74313 29644
L74268 29666
" />
<path d="M74808 29734
L74763 29711
L74740 29689
L74718 29644
L74718 29621
L74740 29576
L74763 29554
L74808 29531
L74898 29531
L74943 29554
L74965 29576
L74988 29621
L74988 29644
L74965 29689
L74943 29711
L74898 29734
L74808 29734
L74763 29756
L74740 29779
L74718 29824
L74718 29914
L74740 29959
L74763 29981
L74808 30004
L74898 30004
L74943 29981
L74965 29959
L74988 29914
L74988 29824
L74965 29779
L74943 29756
L74898 29734
" />
<path d="M74096 31613
L73938 31388
" />
<path d="M73826 31613
L73826 31141
L74006 31141
L74051 31163
L74073 31186
L74096 31231
L74096 31298
L74073 31343
L74051 31366
L74006 31388
L73826 31388
" />
<path d="M74546 31613
L74276 31613
" />
<path d="M74411 31613
L74411 31141
L74366 31208
L74321 31253
L74276 31276
" />
<path d="M74703 31141
L75018 31141
L74816 31613
" />
<path d="M74088 38404
L73930 38179
" />
<path d="M73818 38404
L73818 37931
L73998 37931
L74043 37954
L74065 37976
L74088 38021
L74088 38089
L74065 38134
L74043 38156
L73998 38179
L73818 38179
" />
<path d="M74538 38404
L74268 38404
" />
<path d="M74403 38404
L74403 37931
L74358 37999
L74313 38044
L74268 38066
" />
<path d="M74943 37931
L74853 37931
L74808 37954
L74785 37976
L74740 38044
L74718 38134
L74718 38314
L74740 38359
L74763 38381
L74808 38404
L74898 38404
L74943 38381
L74965 38359
L74988 38314
L74988 38201
L74965 38156
L74943 38134
L74898 38111
L74808 38111
L74763 38134
L74740 38156
L74718 38201
" />
<path d="M74088 35204
L73930 34979
" />
<path d="M73818 35204
L73818 34731
L73998 34731
L74043 34754
L74065 34776
L74088 34821
L74088 34889
L74065 34934
L74043 34956
L73998 34979
L73818 34979
" />
<path d="M74538 35204
L74268 35204
" />
<path d="M74403 35204
L74403 34731
L74358 34799
L74313 34844
L74268 34866
" />
<path d="M74965 34731
L74740 34731
L74718 34956
L74740 34934
L74785 34911
L74898 34911
L74943 34934
L74965 34956
L74988 35001
L74988 35114
L74965 35159
L74943 35181
L74898 35204
L74785 35204
L74740 35181
L74718 35159
" />
<path d="M74088 36804
L73930 36579
" />
<path d="M73818 36804
L73818 36331
L73998 36331
L74043 36354
L74065 36376
L74088 36421
L74088 36489
L74065 36534
L74043 36556
L73998 36579
L73818 36579
" />
<path d="M74538 36804
L74268 36804
" />
<path d="M74403 36804
L74403 36331
L74358 36399
L74313 36444
L74268 36466
" />
<path d="M74943 36489
L74943 36804
" />
<path d="M74830 36309
L74718 36646
L75010 36646
" />
<path d="M74088 23004
L73930 22779
" />
<path d="M73818 23004
L73818 22531
L73998 22531
L74043 22554
L74065 22576
L74088 22621
L74088 22689
L74065 22734
L74043 22756
L73998 22779
L73818 22779
" />
<path d="M74538 23004
L74268 23004
" />
<path d="M74403 23004
L74403 22531
L74358 22599
L74313 22644
L74268 22666
" />
<path d="M74695 22531
L74988 22531
L74830 22711
L74898 22711
L74943 22734
L74965 22756
L74988 22801
L74988 22914
L74965 22959
L74943 22981
L74898 23004
L74763 23004
L74718 22981
L74695 22959
" />
<path d="M74088 19838
L73930 19613
" />
<path d="M73818 19838
L73818 19366
L73998 19366
L74043 19388
L74065 19411
L74088 19456
L74088 19523
L74065 19568
L74043 19591
L73998 19613
L73818 19613
" />
<path d="M74538 19838
L74268 19838
" />
<path d="M74403 19838
L74403 19366
L74358 19433
L74313 19478
L74268 19501
" />
<path d="M74718 19411
L74740 19388
L74785 19366
L74898 19366
L74943 19388
L74965 19411
L74988 19456
L74988 19501
L74965 19568
L74695 19838
L74988 19838
" />
<path d="M74088 21413
L73930 21188
" />
<path d="M73818 21413
L73818 20941
L73998 20941
L74043 20963
L74065 20986
L74088 21031
L74088 21098
L74065 21143
L74043 21166
L73998 21188
L73818 21188
" />
<path d="M74538 21413
L74268 21413
" />
<path d="M74403 21413
L74403 20941
L74358 21008
L74313 21053
L74268 21076
" />
<path d="M74988 21413
L74718 21413
" />
<path d="M74853 21413
L74853 20941
L74808 21008
L74763 21053
L74718 21076
" />
<path d="M74088 28213
L73930 27988
" />
<path d="M73818 28213
L73818 27741
L73998 27741
L74043 27763
L74065 27786
L74088 27831
L74088 27898
L74065 27943
L74043 27966
L73998 27988
L73818 27988
" />
<path d="M74538 28213
L74268 28213
" />
<path d="M74403 28213
L74403 27741
L74358 27808
L74313 27853
L74268 27876
" />
<path d="M74830 27741
L74875 27741
L74920 27763
L74943 27786
L74965 27831
L74988 27921
L74988 28033
L74965 28123
L74943 28168
L74920 28191
L74875 28213
L74830 28213
L74785 28191
L74763 28168
L74740 28123
L74718 28033
L74718 27921
L74740 27831
L74763 27786
L74785 27763
L74830 27741
" />
<path d="M74313 25004
L74155 24779
" />
<path d="M74043 25004
L74043 24531
L74223 24531
L74268 24554
L74290 24576
L74313 24621
L74313 24689
L74290 24734
L74268 24756
L74223 24779
L74043 24779
" />
<path d="M74538 25004
L74628 25004
L74673 24981
L74695 24959
L74740 24891
L74763 24801
L74763 24621
L74740 24576
L74718 24554
L74673 24531
L74583 24531
L74538 24554
L74515 24576
L74493 24621
L74493 24734
L74515 24779
L74538 24801
L74583 24824
L74673 24824
L74718 24801
L74740 24779
L74763 24734
" />
<path d="M74313 26604
L74155 26379
" />
<path d="M74043 26604
L74043 26131
L74223 26131
L74268 26154
L74290 26176
L74313 26221
L74313 26289
L74290 26334
L74268 26356
L74223 26379
L74043 26379
" />
<path d="M74583 26334
L74538 26311
L74515 26289
L74493 26244
L74493 26221
L74515 26176
L74538 26154
L74583 26131
L74673 26131
L74718 26154
L74740 26176
L74763 26221
L74763 26244
L74740 26289
L74718 26311
L74673 26334
L74583 26334
L74538 26356
L74515 26379
L74493 26424
L74493 26514
L74515 26559
L74538 26581
L74583 26604
L74673 26604
L74718 26581
L74740 26559
L74763 26514
L74763 26424
L74740 26379
L74718 26356
L74673 26334
" />
<path d="M54721 20813
L54563 20588
" />
<path d="M54451 20813
L54451 20341
L54631 20341
L54676 20363
L54698 20386
L54721 20431
L54721 20498
L54698 20543
L54676 20566
L54631 20588
L54451 20588
" />
<path d="M54878 20341
L55193 20341
L54991 20813
" />
<path d="M49521 20813
L49363 20588
" />
<path d="M49251 20813
L49251 20341
L49431 20341
L49476 20363
L49498 20386
L49521 20431
L49521 20498
L49498 20543
L49476 20566
L49431 20588
L49251 20588
" />
<path d="M49926 20341
L49836 20341
L49791 20363
L49768 20386
L49723 20453
L49701 20543
L49701 20723
L49723 20768
L49746 20791
L49791 20813
L49881 20813
L49926 20791
L49948 20768
L49971 20723
L49971 20611
L49948 20566
L49926 20543
L49881 20521
L49791 20521
L49746 20543
L49723 20566
L49701 20611
" />
<path d="M44321 20813
L44163 20588
" />
<path d="M44051 20813
L44051 20341
L44231 20341
L44276 20363
L44298 20386
L44321 20431
L44321 20498
L44298 20543
L44276 20566
L44231 20588
L44051 20588
" />
<path d="M44748 20341
L44523 20341
L44501 20566
L44523 20543
L44568 20521
L44681 20521
L44726 20543
L44748 20566
L44771 20611
L44771 20723
L44748 20768
L44726 20791
L44681 20813
L44568 20813
L44523 20791
L44501 20768
" />
<path d="M39121 20813
L38963 20588
" />
<path d="M38851 20813
L38851 20341
L39031 20341
L39076 20363
L39098 20386
L39121 20431
L39121 20498
L39098 20543
L39076 20566
L39031 20588
L38851 20588
" />
<path d="M39526 20498
L39526 20813
" />
<path d="M39413 20318
L39301 20656
L39593 20656
" />
<path d="M33921 20813
L33763 20588
" />
<path d="M33651 20813
L33651 20341
L33831 20341
L33876 20363
L33898 20386
L33921 20431
L33921 20498
L33898 20543
L33876 20566
L33831 20588
L33651 20588
" />
<path d="M34078 20341
L34371 20341
L34213 20521
L34281 20521
L34326 20543
L34348 20566
L34371 20611
L34371 20723
L34348 20768
L34326 20791
L34281 20813
L34146 20813
L34101 20791
L34078 20768
" />
<path d="M28737 20827
L28580 20603
" />
<path d="M28467 20827
L28467 20355
L28647 20355
L28692 20378
L28715 20400
L28737 20445
L28737 20513
L28715 20558
L28692 20580
L28647 20603
L28467 20603
" />
<path d="M28917 20400
L28940 20378
L28985 20355
L29097 20355
L29142 20378
L29165 20400
L29187 20445
L29187 20490
L29165 20558
L28895 20827
L29187 20827
" />
<path d="M23521 20813
L23363 20588
" />
<path d="M23251 20813
L23251 20341
L23431 20341
L23476 20363
L23498 20386
L23521 20431
L23521 20498
L23498 20543
L23476 20566
L23431 20588
L23251 20588
" />
<path d="M23971 20813
L23701 20813
" />
<path d="M23836 20813
L23836 20341
L23791 20408
L23746 20453
L23701 20476
" />
<path d="M66991 31750
L66968 31795
L66923 31840
L66856 31907
L66833 31952
L66833 31997
" />
<path d="M66946 31975
L66923 32020
L66878 32065
L66788 32087
L66631 32087
L66541 32065
L66496 32020
L66473 31975
L66473 31885
L66496 31840
L66541 31795
L66631 31772
L66788 31772
L66878 31795
L66923 31840
L66946 31885
L66946 31975
" />
<path d="M66946 31322
L66946 31592
" />
<path d="M66946 31457
L66473 31457
L66541 31502
L66586 31547
L66608 31592
" />
<path d="M66473 30895
L66473 31120
L66698 31142
L66676 31120
L66653 31075
L66653 30962
L66676 30917
L66698 30895
L66743 30872
L66856 30872
L66901 30895
L66923 30917
L66946 30962
L66946 31075
L66923 31120
L66901 31142
" />
<path d="M66991 36868
L66968 36913
L66923 36958
L66856 37025
L66833 37070
L66833 37115
" />
<path d="M66946 37093
L66923 37138
L66878 37183
L66788 37205
L66631 37205
L66541 37183
L66496 37138
L66473 37093
L66473 37003
L66496 36958
L66541 36913
L66631 36890
L66788 36890
L66878 36913
L66923 36958
L66946 37003
L66946 37093
" />
<path d="M66946 36440
L66946 36710
" />
<path d="M66946 36575
L66473 36575
L66541 36620
L66586 36665
L66608 36710
" />
<path d="M66631 36035
L66946 36035
" />
<path d="M66451 36148
L66788 36260
L66788 35968
" />
<path d="M66991 21514
L66968 21559
L66923 21604
L66856 21671
L66833 21716
L66833 21761
" />
<path d="M66946 21739
L66923 21784
L66878 21829
L66788 21851
L66631 21851
L66541 21829
L66496 21784
L66473 21739
L66473 21649
L66496 21604
L66541 21559
L66631 21536
L66788 21536
L66878 21559
L66923 21604
L66946 21649
L66946 21739
" />
<path d="M66946 21086
L66946 21356
" />
<path d="M66946 21221
L66473 21221
L66541 21266
L66586 21311
L66608 21356
" />
<path d="M66473 20929
L66473 20636
L66653 20794
L66653 20726
L66676 20681
L66698 20659
L66743 20636
L66856 20636
L66901 20659
L66923 20681
L66946 20726
L66946 20861
L66923 20906
L66901 20929
" />
<path d="M66991 26632
L66968 26677
L66923 26722
L66856 26789
L66833 26834
L66833 26879
" />
<path d="M66946 26857
L66923 26902
L66878 26947
L66788 26969
L66631 26969
L66541 26947
L66496 26902
L66473 26857
L66473 26767
L66496 26722
L66541 26677
L66631 26654
L66788 26654
L66878 26677
L66923 26722
L66946 26767
L66946 26857
" />
<path d="M66946 26204
L66946 26474
" />
<path d="M66946 26339
L66473 26339
L66541 26384
L66586 26429
L66608 26474
" />
<path d="M66518 26024
L66496 26002
L66473 25957
L66473 25844
L66496 25799
L66518 25777
L66563 25754
L66608 25754
L66676 25777
L66946 26047
L66946 25754
" />
<path d="M79589 31750
L79566 31795
L79521 31840
L79454 31907
L79431 31952
L79431 31997
" />
<path d="M79544 31975
L79521 32020
L79476 32065
L79386 32087
L79229 32087
L79139 32065
L79094 32020
L79071 31975
L79071 31885
L79094 31840
L79139 31795
L79229 31772
L79386 31772
L79476 31795
L79521 31840
L79544 31885
L79544 31975
" />
<path d="M79544 31322
L79544 31592
" />
<path d="M79544 31457
L79071 31457
L79139 31502
L79184 31547
L79206 31592
" />
<path d="M79544 30872
L79544 31142
" />
<path d="M79544 31007
L79071 31007
L79139 31052
L79184 31097
L79206 31142
" />
<path d="M79589 36868
L79566 36913
L79521 36958
L79454 37025
L79431 37070
L79431 37115
" />
<path d="M79544 37093
L79521 37138
L79476 37183
L79386 37205
L79229 37205
L79139 37183
L79094 37138
L79071 37093
L79071 37003
L79094 36958
L79139 36913
L79229 36890
L79386 36890
L79476 36913
L79521 36958
L79544 37003
L79544 37093
" />
<path d="M79544 36440
L79544 36710
" />
<path d="M79544 36575
L79071 36575
L79139 36620
L79184 36665
L79206 36710
" />
<path d="M79071 36148
L79071 36103
L79094 36058
L79116 36035
L79161 36013
L79251 35991
L79364 35991
L79454 36013
L79499 36035
L79521 36058
L79544 36103
L79544 36148
L79521 36193
L79499 36215
L79454 36238
L79364 36260
L79251 36260
L79161 36238
L79116 36215
L79094 36193
L79071 36148
" />
<path d="M79589 21289
L79566 21334
L79521 21379
L79454 21446
L79431 21491
L79431 21536
" />
<path d="M79544 21514
L79521 21559
L79476 21604
L79386 21626
L79229 21626
L79139 21604
L79094 21559
L79071 21514
L79071 21424
L79094 21379
L79139 21334
L79229 21311
L79386 21311
L79476 21334
L79521 21379
L79544 21424
L79544 21514
" />
<path d="M79544 21086
L79544 20996
L79521 20951
L79499 20929
L79431 20884
L79341 20861
L79161 20861
L79116 20884
L79094 20906
L79071 20951
L79071 21041
L79094 21086
L79116 21109
L79161 21131
L79274 21131
L79319 21109
L79341 21086
L79364 21041
L79364 20951
L79341 20906
L79319 20884
L79274 20861
" />
<path d="M79589 26407
L79566 26452
L79521 26497
L79454 26564
L79431 26609
L79431 26654
" />
<path d="M79544 26632
L79521 26677
L79476 26722
L79386 26744
L79229 26744
L79139 26722
L79094 26677
L79071 26632
L79071 26542
L79094 26497
L79139 26452
L79229 26429
L79386 26429
L79476 26452
L79521 26497
L79544 26542
L79544 26632
" />
<path d="M79274 26159
L79251 26204
L79229 26227
L79184 26249
L79161 26249
L79116 26227
L79094 26204
L79071 26159
L79071 26069
L79094 26024
L79116 26002
L79161 25979
L79184 25979
L79229 26002
L79251 26024
L79274 26069
L79274 26159
L79296 26204
L79319 26227
L79364 26249
L79454 26249
L79499 26227
L79521 26204
L79544 26159
L79544 26069
L79521 26024
L79499 26002
L79454 25979
L79364 25979
L79319 26002
L79296 26024
L79274 26069
" />
<path d="M54755 22457
L54710 22434
L54665 22389
L54597 22322
L54552 22299
L54507 22299
" />
<path d="M54530 22412
L54485 22389
L54440 22344
L54417 22254
L54417 22097
L54440 22007
L54485 21962
L54530 21939
L54620 21939
L54665 21962
L54710 22007
L54732 22097
L54732 22254
L54710 22344
L54665 22389
L54620 22412
L54530 22412
" />
<path d="M54889 21939
L55204 21939
L55002 22412
" />
<path d="M49555 22457
L49510 22434
L49465 22389
L49397 22322
L49352 22299
L49307 22299
" />
<path d="M49330 22412
L49285 22389
L49240 22344
L49217 22254
L49217 22097
L49240 22007
L49285 21962
L49330 21939
L49420 21939
L49465 21962
L49510 22007
L49532 22097
L49532 22254
L49510 22344
L49465 22389
L49420 22412
L49330 22412
" />
<path d="M49937 21939
L49847 21939
L49802 21962
L49779 21984
L49734 22052
L49712 22142
L49712 22322
L49734 22367
L49757 22389
L49802 22412
L49892 22412
L49937 22389
L49959 22367
L49982 22322
L49982 22209
L49959 22164
L49937 22142
L49892 22119
L49802 22119
L49757 22142
L49734 22164
L49712 22209
" />
<path d="M44355 22457
L44310 22434
L44265 22389
L44197 22322
L44152 22299
L44107 22299
" />
<path d="M44130 22412
L44085 22389
L44040 22344
L44017 22254
L44017 22097
L44040 22007
L44085 21962
L44130 21939
L44220 21939
L44265 21962
L44310 22007
L44332 22097
L44332 22254
L44310 22344
L44265 22389
L44220 22412
L44130 22412
" />
<path d="M44759 21939
L44534 21939
L44512 22164
L44534 22142
L44579 22119
L44692 22119
L44737 22142
L44759 22164
L44782 22209
L44782 22322
L44759 22367
L44737 22389
L44692 22412
L44579 22412
L44534 22389
L44512 22367
" />
<path d="M39155 22457
L39110 22434
L39065 22389
L38997 22322
L38952 22299
L38907 22299
" />
<path d="M38930 22412
L38885 22389
L38840 22344
L38817 22254
L38817 22097
L38840 22007
L38885 21962
L38930 21939
L39020 21939
L39065 21962
L39110 22007
L39132 22097
L39132 22254
L39110 22344
L39065 22389
L39020 22412
L38930 22412
" />
<path d="M39537 22097
L39537 22412
" />
<path d="M39424 21917
L39312 22254
L39604 22254
" />
<path d="M34155 22457
L34110 22434
L34065 22389
L33997 22322
L33952 22299
L33907 22299
" />
<path d="M33930 22412
L33885 22389
L33840 22344
L33817 22254
L33817 22097
L33840 22007
L33885 21962
L33930 21939
L34020 21939
L34065 21962
L34110 22007
L34132 22097
L34132 22254
L34110 22344
L34065 22389
L34020 22412
L33930 22412
" />
<path d="M34289 21939
L34582 21939
L34424 22119
L34492 22119
L34537 22142
L34559 22164
L34582 22209
L34582 22322
L34559 22367
L34537 22389
L34492 22412
L34357 22412
L34312 22389
L34289 22367
" />
<path d="M28755 22457
L28710 22434
L28665 22389
L28597 22322
L28552 22299
L28507 22299
" />
<path d="M28530 22412
L28485 22389
L28440 22344
L28417 22254
L28417 22097
L28440 22007
L28485 21962
L28530 21939
L28620 21939
L28665 21962
L28710 22007
L28732 22097
L28732 22254
L28710 22344
L28665 22389
L28620 22412
L28530 22412
" />
<path d="M28912 21984
L28934 21962
L28979 21939
L29092 21939
L29137 21962
L29159 21984
L29182 22029
L29182 22074
L29159 22142
L28889 22412
L29182 22412
" />
<g >
</g>
</g>
<g style="fill:#000000; fill-opacity:0.0; 
stroke:#000000; stroke-width:62.9921; stroke-opacity:1; 
stroke-linecap:round; stroke-linejoin:round;">
</g>
<g style="fill:#C2C200; fill-opacity:0.0; 
stroke:#C2C200; stroke-width:62.9921; stroke-opacity:1; 
stroke-linecap:round; stroke-linejoin:round;">
</g>
<g style="fill:#C2C200; fill-opacity:0.0; 
stroke:#C2C200; stroke-width:19.685; stroke-opacity:1; 
stroke-linecap:round; stroke-linejoin:round;">
<path d="M16910 43305
L23209 43305
" />
<path d="M106281 42517
L106280 43306
" />
<path d="M23209 43305
L106280 43306
" />
<path d="M16912 14960
L16910 43305
" />
<path d="M99981 14962
L106280 14960
" />
<path d="M106280 14960
L106281 42517
" />
<path d="M16912 14960
L99981 14962
" />
<g >
</g>
<g >
</g>
<g >
</g>
<g >
</g>
<g >
</g>
<g >
</g>
<g >
</g>
<g >
</g>
<g >
</g>
<g >
</g>
<g >
</g>
<g >
</g>
<g >
</g>
<g >
</g>
<g >
</g>
<g >
</g>
<g >
</g>
<g >
</g>
<g >
</g>
<g >
</g>
<g >
</g>
<g >
</g>
<g >
</g>
<g >
</g>
<g >
</g>
<g >
</g>
<g >
</g>
<g >
</g>
<g >
</g>
<g >
</g>
<g >
</g>
<g >
</g>
<g >
</g>
<g >
</g>
<g >
</g>
<g >
</g>
<g >
</g>
<g >
</g>
<g >
</g>
<g >
</g>
<g >
</g>
<g >
</g>
<g >
</g>
<g >
</g>
<g >
</g>
<g >
</g>
<g >
</g>
<g >
</g>
<g >
</g>
<g >
</g>
<g >
</g>
<g >
</g>
<g >
</g>
<g >
</g>
<g >
</g>
<g >
</g>
<g >
</g>
<g >
</g>
<g >
</g>
<g >
</g>
<g >
</g>
<g >
</g>
<g >
</g>
<g >
</g>
</g> 
</svg>
