<?xml version="1.0" standalone="no"?>
 <!DOCTYPE svg PUBLIC "-//W3C//DTD SVG 1.1//EN" 
 "http://www.w3.org/Graphics/SVG/1.1/DTD/svg11.dtd"> 
<svg xmlns="http://www.w3.org/2000/svg" version="1.1" 
    width="29.7002cm" height="21.0007cm" viewBox="0 0 116930 82680 ">
<title>SVG Picture created as WemosClock-B_SilkS.svg date 2019/11/03 21:08:51 </title>
  <desc>Picture generated by PCBNEW </desc>
<g style="fill:#000000; fill-opacity:1;stroke:#000000; stroke-opacity:1;
stroke-linecap:round; stroke-linejoin:round; "
 transform="translate(0 0) scale(1 1)">
</g>
<g style="fill:#000000; fill-opacity:0.0; 
stroke:#000000; stroke-width:-0.000393701; stroke-opacity:1; 
stroke-linecap:round; stroke-linejoin:round;">
</g>
<g style="fill:#000000; fill-opacity:0.0; 
stroke:#000000; stroke-width:39.3701; stroke-opacity:1; 
stroke-linecap:round; stroke-linejoin:round;">
</g>
<g style="fill:#000000; fill-opacity:0.0; 
stroke:#000000; stroke-width:59.0551; stroke-opacity:1; 
stroke-linecap:round; stroke-linejoin:round;">
<rect x="69685.9" y="65357.2" width="42519.7" height="12598.4" rx="0" />
</g>
<g style="fill:#000000; fill-opacity:0.0; 
stroke:#000000; stroke-width:39.3701; stroke-opacity:1; 
stroke-linecap:round; stroke-linejoin:round;">
</g>
<g style="fill:#000000; fill-opacity:0.0; 
stroke:#000000; stroke-width:59.0551; stroke-opacity:1; 
stroke-linecap:round; stroke-linejoin:round;">
<rect x="3937.01" y="3937.01" width="109056" height="74806" rx="0" />
</g>
<g style="fill:#000000; fill-opacity:0.0; 
stroke:#000000; stroke-width:39.3701; stroke-opacity:1; 
stroke-linecap:round; stroke-linejoin:round;">
</g>
<g style="fill:#000000; fill-opacity:0.0; 
stroke:#000000; stroke-width:59.0551; stroke-opacity:1; 
stroke-linecap:round; stroke-linejoin:round;">
<rect x="4724.41" y="4724.41" width="107481" height="73231.2" rx="0" />
</g>
<g style="fill:#000000; fill-opacity:0.0; 
stroke:#000000; stroke-width:39.3701; stroke-opacity:1; 
stroke-linecap:round; stroke-linejoin:round;">
</g>
<g style="fill:#000000; fill-opacity:0.0; 
stroke:#000000; stroke-width:59.0551; stroke-opacity:1; 
stroke-linecap:round; stroke-linejoin:round;">
<path d="M23622 4724
L23622 3937
" />
</g>
<g style="fill:#000000; fill-opacity:0.0; 
stroke:#000000; stroke-width:39.3701; stroke-opacity:1; 
stroke-linecap:round; stroke-linejoin:round;">
</g>
<g style="fill:#000000; fill-opacity:0.0; 
stroke:#000000; stroke-width:59.0551; stroke-opacity:1; 
stroke-linecap:round; stroke-linejoin:round;">
<path d="M43307 4724
L43307 3937
" />
</g>
<g style="fill:#000000; fill-opacity:0.0; 
stroke:#000000; stroke-width:39.3701; stroke-opacity:1; 
stroke-linecap:round; stroke-linejoin:round;">
</g>
<g style="fill:#000000; fill-opacity:0.0; 
stroke:#000000; stroke-width:59.0551; stroke-opacity:1; 
stroke-linecap:round; stroke-linejoin:round;">
<path d="M62992 4724
L62992 3937
" />
</g>
<g style="fill:#000000; fill-opacity:0.0; 
stroke:#000000; stroke-width:39.3701; stroke-opacity:1; 
stroke-linecap:round; stroke-linejoin:round;">
</g>
<g style="fill:#000000; fill-opacity:0.0; 
stroke:#000000; stroke-width:59.0551; stroke-opacity:1; 
stroke-linecap:round; stroke-linejoin:round;">
<path d="M82677 4724
L82677 3937
" />
</g>
<g style="fill:#000000; fill-opacity:0.0; 
stroke:#000000; stroke-width:39.3701; stroke-opacity:1; 
stroke-linecap:round; stroke-linejoin:round;">
</g>
<g style="fill:#000000; fill-opacity:0.0; 
stroke:#000000; stroke-width:59.0551; stroke-opacity:1; 
stroke-linecap:round; stroke-linejoin:round;">
<path d="M102362 4724
L102362 3937
" />
</g>
<g style="fill:#000000; fill-opacity:0.0; 
stroke:#000000; stroke-width:39.3701; stroke-opacity:1; 
stroke-linecap:round; stroke-linejoin:round;">
</g>
<g style="fill:#000000; fill-opacity:0.0; 
stroke:#000000; stroke-width:59.0551; stroke-opacity:1; 
stroke-linecap:round; stroke-linejoin:round;">
<path d="M14199 4562
L13906 4562
" />
<path d="M14052 4562
L14052 4050
L14004 4123
L13955 4172
L13906 4196
" />
</g>
<g style="fill:#000000; fill-opacity:0.0; 
stroke:#000000; stroke-width:39.3701; stroke-opacity:1; 
stroke-linecap:round; stroke-linejoin:round;">
</g>
<g style="fill:#000000; fill-opacity:0.0; 
stroke:#000000; stroke-width:59.0551; stroke-opacity:1; 
stroke-linecap:round; stroke-linejoin:round;">
<path d="M33591 4099
L33615 4074
L33664 4050
L33786 4050
L33835 4074
L33859 4099
L33884 4147
L33884 4196
L33859 4269
L33567 4562
L33884 4562
" />
</g>
<g style="fill:#000000; fill-opacity:0.0; 
stroke:#000000; stroke-width:39.3701; stroke-opacity:1; 
stroke-linecap:round; stroke-linejoin:round;">
</g>
<g style="fill:#000000; fill-opacity:0.0; 
stroke:#000000; stroke-width:59.0551; stroke-opacity:1; 
stroke-linecap:round; stroke-linejoin:round;">
<path d="M53252 4050
L53569 4050
L53398 4245
L53471 4245
L53520 4269
L53544 4294
L53569 4342
L53569 4464
L53544 4513
L53520 4537
L53471 4562
L53325 4562
L53276 4537
L53252 4513
" />
</g>
<g style="fill:#000000; fill-opacity:0.0; 
stroke:#000000; stroke-width:39.3701; stroke-opacity:1; 
stroke-linecap:round; stroke-linejoin:round;">
</g>
<g style="fill:#000000; fill-opacity:0.0; 
stroke:#000000; stroke-width:59.0551; stroke-opacity:1; 
stroke-linecap:round; stroke-linejoin:round;">
<path d="M73205 4221
L73205 4562
" />
<path d="M73083 4026
L72961 4391
L73278 4391
" />
</g>
<g style="fill:#000000; fill-opacity:0.0; 
stroke:#000000; stroke-width:39.3701; stroke-opacity:1; 
stroke-linecap:round; stroke-linejoin:round;">
</g>
<g style="fill:#000000; fill-opacity:0.0; 
stroke:#000000; stroke-width:59.0551; stroke-opacity:1; 
stroke-linecap:round; stroke-linejoin:round;">
<path d="M92914 4050
L92671 4050
L92646 4294
L92671 4269
L92719 4245
L92841 4245
L92890 4269
L92914 4294
L92939 4342
L92939 4464
L92914 4513
L92890 4537
L92841 4562
L92719 4562
L92671 4537
L92646 4513
" />
</g>
<g style="fill:#000000; fill-opacity:0.0; 
stroke:#000000; stroke-width:39.3701; stroke-opacity:1; 
stroke-linecap:round; stroke-linejoin:round;">
</g>
<g style="fill:#000000; fill-opacity:0.0; 
stroke:#000000; stroke-width:59.0551; stroke-opacity:1; 
stroke-linecap:round; stroke-linejoin:round;">
<path d="M112575 4050
L112477 4050
L112429 4074
L112404 4099
L112356 4172
L112331 4269
L112331 4464
L112356 4513
L112380 4537
L112429 4562
L112526 4562
L112575 4537
L112599 4513
L112624 4464
L112624 4342
L112599 4294
L112575 4269
L112526 4245
L112429 4245
L112380 4269
L112356 4294
L112331 4342
" />
</g>
<g style="fill:#000000; fill-opacity:0.0; 
stroke:#000000; stroke-width:39.3701; stroke-opacity:1; 
stroke-linecap:round; stroke-linejoin:round;">
</g>
<g style="fill:#000000; fill-opacity:0.0; 
stroke:#000000; stroke-width:59.0551; stroke-opacity:1; 
stroke-linecap:round; stroke-linejoin:round;">
<path d="M23622 77955
L23622 78742
" />
</g>
<g style="fill:#000000; fill-opacity:0.0; 
stroke:#000000; stroke-width:39.3701; stroke-opacity:1; 
stroke-linecap:round; stroke-linejoin:round;">
</g>
<g style="fill:#000000; fill-opacity:0.0; 
stroke:#000000; stroke-width:59.0551; stroke-opacity:1; 
stroke-linecap:round; stroke-linejoin:round;">
<path d="M43307 77955
L43307 78742
" />
</g>
<g style="fill:#000000; fill-opacity:0.0; 
stroke:#000000; stroke-width:39.3701; stroke-opacity:1; 
stroke-linecap:round; stroke-linejoin:round;">
</g>
<g style="fill:#000000; fill-opacity:0.0; 
stroke:#000000; stroke-width:59.0551; stroke-opacity:1; 
stroke-linecap:round; stroke-linejoin:round;">
<path d="M62992 77955
L62992 78742
" />
</g>
<g style="fill:#000000; fill-opacity:0.0; 
stroke:#000000; stroke-width:39.3701; stroke-opacity:1; 
stroke-linecap:round; stroke-linejoin:round;">
</g>
<g style="fill:#000000; fill-opacity:0.0; 
stroke:#000000; stroke-width:59.0551; stroke-opacity:1; 
stroke-linecap:round; stroke-linejoin:round;">
<path d="M82677 77955
L82677 78742
" />
</g>
<g style="fill:#000000; fill-opacity:0.0; 
stroke:#000000; stroke-width:39.3701; stroke-opacity:1; 
stroke-linecap:round; stroke-linejoin:round;">
</g>
<g style="fill:#000000; fill-opacity:0.0; 
stroke:#000000; stroke-width:59.0551; stroke-opacity:1; 
stroke-linecap:round; stroke-linejoin:round;">
<path d="M102362 77955
L102362 78742
" />
</g>
<g style="fill:#000000; fill-opacity:0.0; 
stroke:#000000; stroke-width:39.3701; stroke-opacity:1; 
stroke-linecap:round; stroke-linejoin:round;">
</g>
<g style="fill:#000000; fill-opacity:0.0; 
stroke:#000000; stroke-width:59.0551; stroke-opacity:1; 
stroke-linecap:round; stroke-linejoin:round;">
<path d="M14199 78580
L13906 78580
" />
<path d="M14052 78580
L14052 78069
L14004 78142
L13955 78190
L13906 78215
" />
</g>
<g style="fill:#000000; fill-opacity:0.0; 
stroke:#000000; stroke-width:39.3701; stroke-opacity:1; 
stroke-linecap:round; stroke-linejoin:round;">
</g>
<g style="fill:#000000; fill-opacity:0.0; 
stroke:#000000; stroke-width:59.0551; stroke-opacity:1; 
stroke-linecap:round; stroke-linejoin:round;">
<path d="M33591 78117
L33615 78093
L33664 78069
L33786 78069
L33835 78093
L33859 78117
L33884 78166
L33884 78215
L33859 78288
L33567 78580
L33884 78580
" />
</g>
<g style="fill:#000000; fill-opacity:0.0; 
stroke:#000000; stroke-width:39.3701; stroke-opacity:1; 
stroke-linecap:round; stroke-linejoin:round;">
</g>
<g style="fill:#000000; fill-opacity:0.0; 
stroke:#000000; stroke-width:59.0551; stroke-opacity:1; 
stroke-linecap:round; stroke-linejoin:round;">
<path d="M53252 78069
L53569 78069
L53398 78263
L53471 78263
L53520 78288
L53544 78312
L53569 78361
L53569 78483
L53544 78532
L53520 78556
L53471 78580
L53325 78580
L53276 78556
L53252 78532
" />
</g>
<g style="fill:#000000; fill-opacity:0.0; 
stroke:#000000; stroke-width:39.3701; stroke-opacity:1; 
stroke-linecap:round; stroke-linejoin:round;">
</g>
<g style="fill:#000000; fill-opacity:0.0; 
stroke:#000000; stroke-width:59.0551; stroke-opacity:1; 
stroke-linecap:round; stroke-linejoin:round;">
<path d="M73205 78239
L73205 78580
" />
<path d="M73083 78044
L72961 78410
L73278 78410
" />
</g>
<g style="fill:#000000; fill-opacity:0.0; 
stroke:#000000; stroke-width:39.3701; stroke-opacity:1; 
stroke-linecap:round; stroke-linejoin:round;">
</g>
<g style="fill:#000000; fill-opacity:0.0; 
stroke:#000000; stroke-width:59.0551; stroke-opacity:1; 
stroke-linecap:round; stroke-linejoin:round;">
<path d="M92914 78069
L92671 78069
L92646 78312
L92671 78288
L92719 78263
L92841 78263
L92890 78288
L92914 78312
L92939 78361
L92939 78483
L92914 78532
L92890 78556
L92841 78580
L92719 78580
L92671 78556
L92646 78532
" />
</g>
<g style="fill:#000000; fill-opacity:0.0; 
stroke:#000000; stroke-width:39.3701; stroke-opacity:1; 
stroke-linecap:round; stroke-linejoin:round;">
</g>
<g style="fill:#000000; fill-opacity:0.0; 
stroke:#000000; stroke-width:59.0551; stroke-opacity:1; 
stroke-linecap:round; stroke-linejoin:round;">
<path d="M112575 78069
L112477 78069
L112429 78093
L112404 78117
L112356 78190
L112331 78288
L112331 78483
L112356 78532
L112380 78556
L112429 78580
L112526 78580
L112575 78556
L112599 78532
L112624 78483
L112624 78361
L112599 78312
L112575 78288
L112526 78263
L112429 78263
L112380 78288
L112356 78312
L112331 78361
" />
</g>
<g style="fill:#000000; fill-opacity:0.0; 
stroke:#000000; stroke-width:39.3701; stroke-opacity:1; 
stroke-linecap:round; stroke-linejoin:round;">
</g>
<g style="fill:#000000; fill-opacity:0.0; 
stroke:#000000; stroke-width:59.0551; stroke-opacity:1; 
stroke-linecap:round; stroke-linejoin:round;">
<path d="M3937 23622
L4724 23622
" />
</g>
<g style="fill:#000000; fill-opacity:0.0; 
stroke:#000000; stroke-width:39.3701; stroke-opacity:1; 
stroke-linecap:round; stroke-linejoin:round;">
</g>
<g style="fill:#000000; fill-opacity:0.0; 
stroke:#000000; stroke-width:59.0551; stroke-opacity:1; 
stroke-linecap:round; stroke-linejoin:round;">
<path d="M3937 43307
L4724 43307
" />
</g>
<g style="fill:#000000; fill-opacity:0.0; 
stroke:#000000; stroke-width:39.3701; stroke-opacity:1; 
stroke-linecap:round; stroke-linejoin:round;">
</g>
<g style="fill:#000000; fill-opacity:0.0; 
stroke:#000000; stroke-width:59.0551; stroke-opacity:1; 
stroke-linecap:round; stroke-linejoin:round;">
<path d="M3937 62992
L4724 62992
" />
</g>
<g style="fill:#000000; fill-opacity:0.0; 
stroke:#000000; stroke-width:39.3701; stroke-opacity:1; 
stroke-linecap:round; stroke-linejoin:round;">
</g>
<g style="fill:#000000; fill-opacity:0.0; 
stroke:#000000; stroke-width:59.0551; stroke-opacity:1; 
stroke-linecap:round; stroke-linejoin:round;">
<path d="M4208 13864
L4452 13864
" />
<path d="M4160 14011
L4330 13499
L4501 14011
" />
</g>
<g style="fill:#000000; fill-opacity:0.0; 
stroke:#000000; stroke-width:39.3701; stroke-opacity:1; 
stroke-linecap:round; stroke-linejoin:round;">
</g>
<g style="fill:#000000; fill-opacity:0.0; 
stroke:#000000; stroke-width:59.0551; stroke-opacity:1; 
stroke-linecap:round; stroke-linejoin:round;">
<path d="M4367 33428
L4440 33452
L4464 33476
L4489 33525
L4489 33598
L4464 33647
L4440 33671
L4391 33696
L4196 33696
L4196 33184
L4367 33184
L4416 33208
L4440 33233
L4464 33281
L4464 33330
L4440 33379
L4416 33403
L4367 33428
L4196 33428
" />
</g>
<g style="fill:#000000; fill-opacity:0.0; 
stroke:#000000; stroke-width:39.3701; stroke-opacity:1; 
stroke-linecap:round; stroke-linejoin:round;">
</g>
<g style="fill:#000000; fill-opacity:0.0; 
stroke:#000000; stroke-width:59.0551; stroke-opacity:1; 
stroke-linecap:round; stroke-linejoin:round;">
<path d="M4489 53332
L4464 53356
L4391 53381
L4342 53381
L4269 53356
L4221 53308
L4196 53259
L4172 53161
L4172 53088
L4196 52991
L4221 52942
L4269 52893
L4342 52869
L4391 52869
L4464 52893
L4489 52918
" />
</g>
<g style="fill:#000000; fill-opacity:0.0; 
stroke:#000000; stroke-width:39.3701; stroke-opacity:1; 
stroke-linecap:round; stroke-linejoin:round;">
</g>
<g style="fill:#000000; fill-opacity:0.0; 
stroke:#000000; stroke-width:59.0551; stroke-opacity:1; 
stroke-linecap:round; stroke-linejoin:round;">
<path d="M4196 73066
L4196 72554
L4318 72554
L4391 72578
L4440 72627
L4464 72676
L4489 72773
L4489 72846
L4464 72944
L4440 72993
L4391 73041
L4318 73066
L4196 73066
" />
</g>
<g style="fill:#000000; fill-opacity:0.0; 
stroke:#000000; stroke-width:39.3701; stroke-opacity:1; 
stroke-linecap:round; stroke-linejoin:round;">
</g>
<g style="fill:#000000; fill-opacity:0.0; 
stroke:#000000; stroke-width:59.0551; stroke-opacity:1; 
stroke-linecap:round; stroke-linejoin:round;">
<path d="M112992 23622
L112205 23622
" />
</g>
<g style="fill:#000000; fill-opacity:0.0; 
stroke:#000000; stroke-width:39.3701; stroke-opacity:1; 
stroke-linecap:round; stroke-linejoin:round;">
</g>
<g style="fill:#000000; fill-opacity:0.0; 
stroke:#000000; stroke-width:59.0551; stroke-opacity:1; 
stroke-linecap:round; stroke-linejoin:round;">
<path d="M112992 43307
L112205 43307
" />
</g>
<g style="fill:#000000; fill-opacity:0.0; 
stroke:#000000; stroke-width:39.3701; stroke-opacity:1; 
stroke-linecap:round; stroke-linejoin:round;">
</g>
<g style="fill:#000000; fill-opacity:0.0; 
stroke:#000000; stroke-width:59.0551; stroke-opacity:1; 
stroke-linecap:round; stroke-linejoin:round;">
<path d="M112992 62992
L112205 62992
" />
</g>
<g style="fill:#000000; fill-opacity:0.0; 
stroke:#000000; stroke-width:39.3701; stroke-opacity:1; 
stroke-linecap:round; stroke-linejoin:round;">
</g>
<g style="fill:#000000; fill-opacity:0.0; 
stroke:#000000; stroke-width:59.0551; stroke-opacity:1; 
stroke-linecap:round; stroke-linejoin:round;">
<path d="M112477 13864
L112721 13864
" />
<path d="M112428 14011
L112599 13499
L112769 14011
" />
</g>
<g style="fill:#000000; fill-opacity:0.0; 
stroke:#000000; stroke-width:39.3701; stroke-opacity:1; 
stroke-linecap:round; stroke-linejoin:round;">
</g>
<g style="fill:#000000; fill-opacity:0.0; 
stroke:#000000; stroke-width:59.0551; stroke-opacity:1; 
stroke-linecap:round; stroke-linejoin:round;">
<path d="M112635 33428
L112708 33452
L112733 33476
L112757 33525
L112757 33598
L112733 33647
L112708 33671
L112660 33696
L112465 33696
L112465 33184
L112635 33184
L112684 33208
L112708 33233
L112733 33281
L112733 33330
L112708 33379
L112684 33403
L112635 33428
L112465 33428
" />
</g>
<g style="fill:#000000; fill-opacity:0.0; 
stroke:#000000; stroke-width:39.3701; stroke-opacity:1; 
stroke-linecap:round; stroke-linejoin:round;">
</g>
<g style="fill:#000000; fill-opacity:0.0; 
stroke:#000000; stroke-width:59.0551; stroke-opacity:1; 
stroke-linecap:round; stroke-linejoin:round;">
<path d="M112757 53332
L112733 53356
L112660 53381
L112611 53381
L112538 53356
L112489 53308
L112465 53259
L112440 53161
L112440 53088
L112465 52991
L112489 52942
L112538 52893
L112611 52869
L112660 52869
L112733 52893
L112757 52918
" />
</g>
<g style="fill:#000000; fill-opacity:0.0; 
stroke:#000000; stroke-width:39.3701; stroke-opacity:1; 
stroke-linecap:round; stroke-linejoin:round;">
</g>
<g style="fill:#000000; fill-opacity:0.0; 
stroke:#000000; stroke-width:59.0551; stroke-opacity:1; 
stroke-linecap:round; stroke-linejoin:round;">
<path d="M112465 73066
L112465 72554
L112587 72554
L112660 72578
L112708 72627
L112733 72676
L112757 72773
L112757 72846
L112733 72944
L112708 72993
L112660 73041
L112587 73066
L112465 73066
" />
</g>
<g style="fill:#000000; fill-opacity:0.0; 
stroke:#000000; stroke-width:39.3701; stroke-opacity:1; 
stroke-linecap:round; stroke-linejoin:round;">
</g>
<g style="fill:#000000; fill-opacity:0.0; 
stroke:#000000; stroke-width:59.0551; stroke-opacity:1; 
stroke-linecap:round; stroke-linejoin:round;">
<path d="M78911 76293
L78911 75703
L79051 75703
L79136 75731
L79192 75787
L79220 75843
L79248 75956
L79248 76040
L79220 76153
L79192 76209
L79136 76265
L79051 76293
L78911 76293
" />
<path d="M79754 76293
L79754 75984
L79726 75928
L79670 75899
L79557 75899
L79501 75928
" />
<path d="M79754 76265
L79698 76293
L79557 76293
L79501 76265
L79473 76209
L79473 76153
L79501 76096
L79557 76068
L79698 76068
L79754 76040
" />
<path d="M79951 75899
L80176 75899
" />
<path d="M80036 75703
L80036 76209
L80064 76265
L80120 76293
L80176 76293
" />
<path d="M80598 76265
L80542 76293
L80429 76293
L80373 76265
L80345 76209
L80345 75984
L80373 75928
L80429 75899
L80542 75899
L80598 75928
L80626 75984
L80626 76040
L80345 76096
" />
<path d="M80879 76237
L80907 76265
L80879 76293
L80851 76265
L80879 76237
L80879 76293
" />
<path d="M80879 75928
L80907 75956
L80879 75984
L80851 75956
L80879 75928
L80879 75984
" />
</g>
<g style="fill:#000000; fill-opacity:0.0; 
stroke:#000000; stroke-width:39.3701; stroke-opacity:1; 
stroke-linecap:round; stroke-linejoin:round;">
</g>
<g style="fill:#000000; fill-opacity:0.0; 
stroke:#000000; stroke-width:59.0551; stroke-opacity:1; 
stroke-linecap:round; stroke-linejoin:round;">
<path d="M69685 76577
L112205 76577
" />
</g>
<g style="fill:#000000; fill-opacity:0.0; 
stroke:#000000; stroke-width:39.3701; stroke-opacity:1; 
stroke-linecap:round; stroke-linejoin:round;">
</g>
<g style="fill:#000000; fill-opacity:0.0; 
stroke:#000000; stroke-width:59.0551; stroke-opacity:1; 
stroke-linecap:round; stroke-linejoin:round;">
<path d="M70249 77395
L70249 76805
" />
<path d="M70587 77395
L70334 77058
" />
<path d="M70587 76805
L70249 77142
" />
<path d="M70840 77395
L70840 77002
" />
<path d="M70840 76805
L70812 76833
L70840 76861
L70868 76833
L70840 76805
L70840 76861
" />
<path d="M71458 77339
L71430 77367
L71346 77395
L71290 77395
L71205 77367
L71149 77311
L71121 77255
L71093 77142
L71093 77058
L71121 76946
L71149 76889
L71205 76833
L71290 76805
L71346 76805
L71430 76833
L71458 76861
" />
<path d="M71965 77395
L71965 77086
L71937 77030
L71880 77002
L71768 77002
L71712 77030
" />
<path d="M71965 77367
L71908 77395
L71768 77395
L71712 77367
L71683 77311
L71683 77255
L71712 77199
L71768 77171
L71908 77171
L71965 77142
" />
<path d="M72499 77395
L72499 76805
" />
<path d="M72499 77367
L72443 77395
L72330 77395
L72274 77367
L72246 77339
L72218 77283
L72218 77114
L72246 77058
L72274 77030
L72330 77002
L72443 77002
L72499 77030
" />
<path d="M73230 77086
L73427 77086
" />
<path d="M73511 77395
L73230 77395
L73230 76805
L73511 76805
" />
<path d="M73764 77339
L73793 77367
L73764 77395
L73736 77367
L73764 77339
L73764 77395
" />
<path d="M74046 77395
L74046 76805
L74186 76805
L74271 76833
L74327 76889
L74355 76946
L74383 77058
L74383 77142
L74355 77255
L74327 77311
L74271 77367
L74186 77395
L74046 77395
" />
<path d="M74636 77339
L74664 77367
L74636 77395
L74608 77367
L74636 77339
L74636 77395
" />
<path d="M74889 77227
L75171 77227
" />
<path d="M74833 77395
L75030 76805
L75227 77395
" />
<path d="M75424 77339
L75452 77367
L75424 77395
L75395 77367
L75424 77339
L75424 77395
" />
<path d="M76605 77395
L76605 76805
" />
<path d="M76661 77171
L76830 77395
" />
<path d="M76830 77002
L76605 77227
" />
<path d="M77083 77395
L77083 77002
" />
<path d="M77083 76805
L77055 76833
L77083 76861
L77111 76833
L77083 76805
L77083 76861
" />
<path d="M77617 77367
L77561 77395
L77448 77395
L77392 77367
L77364 77339
L77336 77283
L77336 77114
L77364 77058
L77392 77030
L77448 77002
L77561 77002
L77617 77030
" />
<path d="M78123 77395
L78123 77086
L78095 77030
L78039 77002
L77926 77002
L77870 77030
" />
<path d="M78123 77367
L78067 77395
L77926 77395
L77870 77367
L77842 77311
L77842 77255
L77870 77199
L77926 77171
L78067 77171
L78123 77142
" />
<path d="M78658 77395
L78658 76805
" />
<path d="M78658 77367
L78601 77395
L78489 77395
L78433 77367
L78404 77339
L78376 77283
L78376 77114
L78404 77058
L78433 77030
L78489 77002
L78601 77002
L78658 77030
" />
<path d="M79670 76805
L79389 76805
L79361 77086
L79389 77058
L79445 77030
L79586 77030
L79642 77058
L79670 77086
L79698 77142
L79698 77283
L79670 77339
L79642 77367
L79586 77395
L79445 77395
L79389 77367
L79361 77339
" />
<path d="M79951 77339
L79979 77367
L79951 77395
L79923 77367
L79951 77339
L79951 77395
" />
<path d="M80542 77395
L80204 77395
" />
<path d="M80373 77395
L80373 76805
L80317 76889
L80260 76946
L80204 76974
" />
<path d="M80795 77339
L80823 77367
L80795 77395
L80767 77367
L80795 77339
L80795 77395
" />
<path d="M81329 77002
L81329 77395
" />
<path d="M81188 76777
L81048 77199
L81413 77199
" />
<path d="M81638 77171
L82088 77171
" />
<path d="M82595 77367
L82538 77395
L82426 77395
L82370 77367
L82341 77311
L82341 77086
L82370 77030
L82426 77002
L82538 77002
L82595 77030
L82623 77086
L82623 77142
L82341 77199
" />
<path d="M83129 76805
L83016 76805
L82960 76833
L82932 76861
L82876 76946
L82848 77058
L82848 77283
L82876 77339
L82904 77367
L82960 77395
L83073 77395
L83129 77367
L83157 77339
L83185 77283
L83185 77142
L83157 77086
L83129 77058
L83073 77030
L82960 77030
L82904 77058
L82876 77086
L82848 77142
" />
<path d="M83551 76805
L83607 76805
L83663 76833
L83691 76861
L83719 76917
L83748 77030
L83748 77171
L83719 77283
L83691 77339
L83663 77367
L83607 77395
L83551 77395
L83494 77367
L83466 77339
L83438 77283
L83410 77171
L83410 77030
L83438 76917
L83466 76861
L83494 76833
L83551 76805
" />
<path d="M84001 77395
L84001 76805
" />
<path d="M84001 77030
L84057 77002
L84169 77002
L84226 77030
L84254 77058
L84282 77114
L84282 77283
L84254 77339
L84226 77367
L84169 77395
L84057 77395
L84001 77367
" />
<path d="M84507 76861
L84535 76833
L84591 76805
L84732 76805
L84788 76833
L84816 76861
L84844 76917
L84844 76974
L84816 77058
L84479 77395
L84844 77395
" />
<path d="M85350 76805
L85238 76805
L85182 76833
L85154 76861
L85097 76946
L85069 77058
L85069 77283
L85097 77339
L85126 77367
L85182 77395
L85294 77395
L85350 77367
L85379 77339
L85407 77283
L85407 77142
L85379 77086
L85350 77058
L85294 77030
L85182 77030
L85126 77058
L85097 77086
L85069 77142
" />
<path d="M85913 76805
L85800 76805
L85744 76833
L85716 76861
L85660 76946
L85632 77058
L85632 77283
L85660 77339
L85688 77367
L85744 77395
L85857 77395
L85913 77367
L85941 77339
L85969 77283
L85969 77142
L85941 77086
L85913 77058
L85857 77030
L85744 77030
L85688 77058
L85660 77086
L85632 77142
" />
<path d="M86082 76644
L86644 76644
" />
<path d="M86307 77058
L86250 77030
L86222 77002
L86194 76946
L86194 76917
L86222 76861
L86250 76833
L86307 76805
L86419 76805
L86475 76833
L86503 76861
L86532 76917
L86532 76946
L86503 77002
L86475 77030
L86419 77058
L86307 77058
L86250 77086
L86222 77114
L86194 77171
L86194 77283
L86222 77339
L86250 77367
L86307 77395
L86419 77395
L86475 77367
L86503 77339
L86532 77283
L86532 77171
L86503 77114
L86475 77086
L86419 77058
" />
<path d="M86644 76644
L87206 76644
" />
<path d="M87038 77002
L87038 77395
" />
<path d="M86897 76777
L86757 77199
L87122 77199
" />
<path d="M87600 77002
L87600 77395
" />
<path d="M87347 77002
L87347 77311
L87375 77367
L87431 77395
L87516 77395
L87572 77367
L87600 77339
" />
<path d="M87881 77395
L87881 76805
" />
<path d="M87881 77030
L87938 77002
L88050 77002
L88106 77030
L88135 77058
L88163 77114
L88163 77283
L88135 77339
L88106 77367
L88050 77395
L87938 77395
L87881 77367
" />
<path d="M88669 77002
L88669 77395
" />
<path d="M88416 77002
L88416 77311
L88444 77367
L88500 77395
L88584 77395
L88641 77367
L88669 77339
" />
<path d="M88950 77002
L88950 77395
" />
<path d="M88950 77058
L88978 77030
L89034 77002
L89119 77002
L89175 77030
L89203 77086
L89203 77395
" />
<path d="M89400 77002
L89625 77002
" />
<path d="M89484 76805
L89484 77311
L89512 77367
L89569 77395
L89625 77395
" />
<path d="M90075 77002
L90075 77395
" />
<path d="M89822 77002
L89822 77311
L89850 77367
L89906 77395
L89991 77395
L90047 77367
L90075 77339
" />
<path d="M90665 77395
L90328 77395
" />
<path d="M90497 77395
L90497 76805
L90440 76889
L90384 76946
L90328 76974
" />
<path d="M91003 77058
L90947 77030
L90919 77002
L90890 76946
L90890 76917
L90919 76861
L90947 76833
L91003 76805
L91115 76805
L91172 76833
L91200 76861
L91228 76917
L91228 76946
L91200 77002
L91172 77030
L91115 77058
L91003 77058
L90947 77086
L90919 77114
L90890 77171
L90890 77283
L90919 77339
L90947 77367
L91003 77395
L91115 77395
L91172 77367
L91200 77339
L91228 77283
L91228 77171
L91200 77114
L91172 77086
L91115 77058
" />
<path d="M91481 77339
L91509 77367
L91481 77395
L91453 77367
L91481 77339
L91481 77395
" />
<path d="M91875 76805
L91931 76805
L91987 76833
L92015 76861
L92043 76917
L92072 77030
L92072 77171
L92043 77283
L92015 77339
L91987 77367
L91931 77395
L91875 77395
L91818 77367
L91790 77339
L91762 77283
L91734 77171
L91734 77030
L91762 76917
L91790 76861
L91818 76833
L91875 76805
" />
<path d="M92578 77002
L92578 77395
" />
<path d="M92437 76777
L92296 77199
L92662 77199
" />
<path d="M92887 77339
L92915 77367
L92887 77395
L92859 77367
L92887 77339
L92887 77395
" />
<path d="M93478 77395
L93140 77395
" />
<path d="M93309 77395
L93309 76805
L93253 76889
L93196 76946
L93140 76974
" />
</g>
<g style="fill:#000000; fill-opacity:0.0; 
stroke:#000000; stroke-width:39.3701; stroke-opacity:1; 
stroke-linecap:round; stroke-linejoin:round;">
</g>
<g style="fill:#000000; fill-opacity:0.0; 
stroke:#000000; stroke-width:59.0551; stroke-opacity:1; 
stroke-linecap:round; stroke-linejoin:round;">
<path d="M69685 75396
L112205 75396
" />
</g>
<g style="fill:#000000; fill-opacity:0.0; 
stroke:#000000; stroke-width:39.3701; stroke-opacity:1; 
stroke-linecap:round; stroke-linejoin:round;">
</g>
<g style="fill:#000000; fill-opacity:0.0; 
stroke:#000000; stroke-width:118.11; stroke-opacity:1; 
stroke-linecap:round; stroke-linejoin:round;">
<path d="M104099 76293
L103902 76012
" />
<path d="M103761 76293
L103761 75703
L103986 75703
L104042 75731
L104070 75759
L104099 75815
L104099 75899
L104070 75956
L104042 75984
L103986 76012
L103761 76012
" />
<path d="M104577 76265
L104520 76293
L104408 76293
L104352 76265
L104323 76209
L104323 75984
L104352 75928
L104408 75899
L104520 75899
L104577 75928
L104605 75984
L104605 76040
L104323 76096
" />
<path d="M104802 75899
L104942 76293
L105083 75899
" />
<path d="M105308 76237
L105336 76265
L105308 76293
L105280 76265
L105308 76237
L105308 76293
" />
<path d="M105308 75928
L105336 75956
L105308 75984
L105280 75956
L105308 75928
L105308 75984
" />
</g>
<g style="fill:#000000; fill-opacity:0.0; 
stroke:#000000; stroke-width:39.3701; stroke-opacity:1; 
stroke-linecap:round; stroke-linejoin:round;">
</g>
<g style="fill:#000000; fill-opacity:0.0; 
stroke:#000000; stroke-width:59.0551; stroke-opacity:1; 
stroke-linecap:round; stroke-linejoin:round;">
<path d="M70221 76265
L70305 76293
L70446 76293
L70502 76265
L70530 76237
L70559 76181
L70559 76124
L70530 76068
L70502 76040
L70446 76012
L70334 75984
L70277 75956
L70249 75928
L70221 75871
L70221 75815
L70249 75759
L70277 75731
L70334 75703
L70474 75703
L70559 75731
" />
<path d="M70812 76293
L70812 75899
" />
<path d="M70812 75703
L70784 75731
L70812 75759
L70840 75731
L70812 75703
L70812 75759
" />
<path d="M71037 75899
L71346 75899
L71037 76293
L71346 76293
" />
<path d="M71796 76265
L71740 76293
L71627 76293
L71571 76265
L71543 76209
L71543 75984
L71571 75928
L71627 75899
L71740 75899
L71796 75928
L71824 75984
L71824 76040
L71543 76096
" />
<path d="M72077 76237
L72105 76265
L72077 76293
L72049 76265
L72077 76237
L72077 76293
" />
<path d="M72077 75928
L72105 75956
L72077 75984
L72049 75956
L72077 75928
L72077 75984
" />
<path d="M72780 76124
L73061 76124
" />
<path d="M72724 76293
L72921 75703
L73118 76293
" />
<path d="M73568 75899
L73568 76293
" />
<path d="M73427 75674
L73286 76096
L73652 76096
" />
</g>
<g style="fill:#000000; fill-opacity:0.0; 
stroke:#000000; stroke-width:39.3701; stroke-opacity:1; 
stroke-linecap:round; stroke-linejoin:round;">
</g>
<g style="fill:#000000; fill-opacity:0.0; 
stroke:#000000; stroke-width:59.0551; stroke-opacity:1; 
stroke-linecap:round; stroke-linejoin:round;">
<path d="M103714 77395
L103714 76805
" />
<path d="M104248 77395
L104248 76805
" />
<path d="M104248 77367
L104192 77395
L104079 77395
L104023 77367
L103995 77339
L103967 77283
L103967 77114
L103995 77058
L104023 77030
L104079 77002
L104192 77002
L104248 77030
" />
<path d="M104529 77339
L104557 77367
L104529 77395
L104501 77367
L104529 77339
L104529 77395
" />
<path d="M104529 77030
L104557 77058
L104529 77086
L104501 77058
L104529 77030
L104529 77086
" />
<path d="M105570 77395
L105232 77395
" />
<path d="M105401 77395
L105401 76805
L105345 76889
L105289 76946
L105232 76974
" />
<path d="M106245 76777
L105739 77536
" />
<path d="M106751 77395
L106413 77395
" />
<path d="M106582 77395
L106582 76805
L106526 76889
L106470 76946
L106413 76974
" />
</g>
<g style="fill:#000000; fill-opacity:0.0; 
stroke:#000000; stroke-width:39.3701; stroke-opacity:1; 
stroke-linecap:round; stroke-linejoin:round;">
</g>
<g style="fill:#000000; fill-opacity:0.0; 
stroke:#000000; stroke-width:59.0551; stroke-opacity:1; 
stroke-linecap:round; stroke-linejoin:round;">
<path d="M69685 73821
L112205 73821
" />
</g>
<g style="fill:#000000; fill-opacity:0.0; 
stroke:#000000; stroke-width:39.3701; stroke-opacity:1; 
stroke-linecap:round; stroke-linejoin:round;">
</g>
<g style="fill:#000000; fill-opacity:0.0; 
stroke:#000000; stroke-width:157.48; stroke-opacity:1; 
stroke-linecap:round; stroke-linejoin:round;">
<path d="M70360 74099
L70810 74099
" />
<path d="M70486 74886
L70585 74099
" />
<path d="M70974 74886
L71039 74361
" />
<path d="M71072 74099
L71030 74136
L71063 74174
L71105 74136
L71072 74099
L71063 74174
" />
<path d="M71302 74361
L71602 74361
" />
<path d="M71447 74099
L71363 74774
L71391 74849
L71461 74886
L71536 74886
" />
<path d="M71911 74886
L71841 74849
L71813 74774
L71897 74099
" />
<path d="M72516 74849
L72436 74886
L72286 74886
L72216 74849
L72187 74774
L72225 74474
L72272 74399
L72352 74361
L72501 74361
L72572 74399
L72600 74474
L72591 74549
L72206 74624
" />
<path d="M72895 74811
L72928 74849
L72886 74886
L72853 74849
L72895 74811
L72886 74886
" />
<path d="M72947 74399
L72980 74436
L72937 74474
L72905 74436
L72947 74399
L72937 74474
" />
</g>
<g style="fill:#000000; fill-opacity:0.0; 
stroke:#000000; stroke-width:39.3701; stroke-opacity:1; 
stroke-linecap:round; stroke-linejoin:round;">
</g>
<g style="fill:#000000; fill-opacity:0.0; 
stroke:#000000; stroke-width:59.0551; stroke-opacity:1; 
stroke-linecap:round; stroke-linejoin:round;">
<path d="M70446 73070
L70249 73070
" />
<path d="M70249 73380
L70249 72789
L70530 72789
" />
<path d="M70755 73380
L70755 72986
" />
<path d="M70755 72789
L70727 72817
L70755 72845
L70784 72817
L70755 72789
L70755 72845
" />
<path d="M71121 73380
L71065 73352
L71037 73295
L71037 72789
" />
<path d="M71571 73352
L71515 73380
L71402 73380
L71346 73352
L71318 73295
L71318 73070
L71346 73014
L71402 72986
L71515 72986
L71571 73014
L71599 73070
L71599 73127
L71318 73183
" />
<path d="M71852 73323
L71880 73352
L71852 73380
L71824 73352
L71852 73323
L71852 73380
" />
<path d="M71852 73014
L71880 73042
L71852 73070
L71824 73042
L71852 73014
L71852 73070
" />
<path d="M72527 72789
L72668 73380
L72780 72958
L72893 73380
L73033 72789
" />
<path d="M73483 73352
L73427 73380
L73314 73380
L73258 73352
L73230 73295
L73230 73070
L73258 73014
L73314 72986
L73427 72986
L73483 73014
L73511 73070
L73511 73127
L73230 73183
" />
<path d="M73764 73380
L73764 72986
" />
<path d="M73764 73042
L73793 73014
L73849 72986
L73933 72986
L73989 73014
L74018 73070
L74018 73380
" />
<path d="M74018 73070
L74046 73014
L74102 72986
L74186 72986
L74242 73014
L74271 73070
L74271 73380
" />
<path d="M74636 73380
L74580 73352
L74552 73323
L74524 73267
L74524 73099
L74552 73042
L74580 73014
L74636 72986
L74721 72986
L74777 73014
L74805 73042
L74833 73099
L74833 73267
L74805 73323
L74777 73352
L74721 73380
L74636 73380
" />
<path d="M75058 73352
L75114 73380
L75227 73380
L75283 73352
L75311 73295
L75311 73267
L75283 73211
L75227 73183
L75142 73183
L75086 73155
L75058 73099
L75058 73070
L75086 73014
L75142 72986
L75227 72986
L75283 73014
" />
<path d="M75902 73323
L75874 73352
L75789 73380
L75733 73380
L75649 73352
L75592 73295
L75564 73239
L75536 73127
L75536 73042
L75564 72930
L75592 72874
L75649 72817
L75733 72789
L75789 72789
L75874 72817
L75902 72845
" />
<path d="M76239 73380
L76183 73352
L76155 73295
L76155 72789
" />
<path d="M76548 73380
L76492 73352
L76464 73323
L76436 73267
L76436 73099
L76464 73042
L76492 73014
L76548 72986
L76633 72986
L76689 73014
L76717 73042
L76745 73099
L76745 73267
L76717 73323
L76689 73352
L76633 73380
L76548 73380
" />
<path d="M77251 73352
L77195 73380
L77083 73380
L77027 73352
L76998 73323
L76970 73267
L76970 73099
L76998 73042
L77027 73014
L77083 72986
L77195 72986
L77251 73014
" />
<path d="M77505 73380
L77505 72789
" />
<path d="M77561 73155
L77730 73380
" />
<path d="M77730 72986
L77505 73211
" />
<path d="M77983 73323
L78011 73352
L77983 73380
L77955 73352
L77983 73323
L77983 73380
" />
<path d="M78264 73380
L78264 72789
" />
<path d="M78320 73155
L78489 73380
" />
<path d="M78489 72986
L78264 73211
" />
<path d="M78742 73380
L78742 72986
" />
<path d="M78742 72789
L78714 72817
L78742 72845
L78770 72817
L78742 72789
L78742 72845
" />
<path d="M79276 73352
L79220 73380
L79108 73380
L79051 73352
L79023 73323
L78995 73267
L78995 73099
L79023 73042
L79051 73014
L79108 72986
L79220 72986
L79276 73014
" />
<path d="M79782 73380
L79782 73070
L79754 73014
L79698 72986
L79586 72986
L79529 73014
" />
<path d="M79782 73352
L79726 73380
L79586 73380
L79529 73352
L79501 73295
L79501 73239
L79529 73183
L79586 73155
L79726 73155
L79782 73127
" />
<path d="M80317 73380
L80317 72789
" />
<path d="M80317 73352
L80260 73380
L80148 73380
L80092 73352
L80064 73323
L80036 73267
L80036 73099
L80064 73042
L80092 73014
L80148 72986
L80260 72986
L80317 73014
" />
<path d="M80457 73436
L80907 73436
" />
<path d="M81048 72986
L81048 73577
" />
<path d="M81048 73014
L81104 72986
L81217 72986
L81273 73014
L81301 73042
L81329 73099
L81329 73267
L81301 73323
L81273 73352
L81217 73380
L81104 73380
L81048 73352
" />
<path d="M81835 73352
L81779 73380
L81667 73380
L81610 73352
L81582 73323
L81554 73267
L81554 73099
L81582 73042
L81610 73014
L81667 72986
L81779 72986
L81835 73014
" />
<path d="M82088 73380
L82088 72789
" />
<path d="M82088 73014
L82145 72986
L82257 72986
L82313 73014
L82341 73042
L82370 73099
L82370 73267
L82341 73323
L82313 73352
L82257 73380
L82145 73380
L82088 73352
" />
</g>
<g style="fill:#000000; fill-opacity:0.0; 
stroke:#000000; stroke-width:39.3701; stroke-opacity:1; 
stroke-linecap:round; stroke-linejoin:round;">
</g>
<g style="fill:#000000; fill-opacity:0.0; 
stroke:#000000; stroke-width:59.0551; stroke-opacity:1; 
stroke-linecap:round; stroke-linejoin:round;">
<path d="M69685 71459
L112205 71459
" />
</g>
<g style="fill:#000000; fill-opacity:0.0; 
stroke:#000000; stroke-width:39.3701; stroke-opacity:1; 
stroke-linecap:round; stroke-linejoin:round;">
</g>
<g style="fill:#000000; fill-opacity:0.0; 
stroke:#000000; stroke-width:59.0551; stroke-opacity:1; 
stroke-linecap:round; stroke-linejoin:round;">
<path d="M70221 72289
L70305 72317
L70446 72317
L70502 72289
L70530 72260
L70559 72204
L70559 72148
L70530 72092
L70502 72064
L70446 72036
L70334 72007
L70277 71979
L70249 71951
L70221 71895
L70221 71839
L70249 71782
L70277 71754
L70334 71726
L70474 71726
L70559 71754
" />
<path d="M70812 72317
L70812 71726
" />
<path d="M71065 72317
L71065 72007
L71037 71951
L70980 71923
L70896 71923
L70840 71951
L70812 71979
" />
<path d="M71571 72289
L71515 72317
L71402 72317
L71346 72289
L71318 72232
L71318 72007
L71346 71951
L71402 71923
L71515 71923
L71571 71951
L71599 72007
L71599 72064
L71318 72120
" />
<path d="M72077 72289
L72021 72317
L71908 72317
L71852 72289
L71824 72232
L71824 72007
L71852 71951
L71908 71923
L72021 71923
L72077 71951
L72105 72007
L72105 72064
L71824 72120
" />
<path d="M72274 71923
L72499 71923
" />
<path d="M72358 71726
L72358 72232
L72386 72289
L72443 72317
L72499 72317
" />
<path d="M72696 72260
L72724 72289
L72696 72317
L72668 72289
L72696 72260
L72696 72317
" />
<path d="M72696 71951
L72724 71979
L72696 72007
L72668 71979
L72696 71951
L72696 72007
" />
</g>
<g style="fill:#000000; fill-opacity:0.0; 
stroke:#000000; stroke-width:39.3701; stroke-opacity:1; 
stroke-linecap:round; stroke-linejoin:round;">
</g>
<g style="fill:#000000; fill-opacity:0.0; 
stroke:#000000; stroke-width:59.0551; stroke-opacity:1; 
stroke-linecap:round; stroke-linejoin:round;">
<path d="M77559 75396
L77559 76577
" />
</g>
<g style="fill:#000000; fill-opacity:0.0; 
stroke:#000000; stroke-width:39.3701; stroke-opacity:1; 
stroke-linecap:round; stroke-linejoin:round;">
</g>
<g style="fill:#000000; fill-opacity:0.0; 
stroke:#000000; stroke-width:59.0551; stroke-opacity:1; 
stroke-linecap:round; stroke-linejoin:round;">
<path d="M102756 75396
L102756 77955
" />
</g>
<g style="fill:#840084; fill-opacity:0.0; 
stroke:#840084; stroke-width:59.0551; stroke-opacity:1; 
stroke-linecap:round; stroke-linejoin:round;">
</g>
<g style="fill:#840084; fill-opacity:0.0; 
stroke:#840084; stroke-width:118.11; stroke-opacity:1; 
stroke-linecap:round; stroke-linejoin:round;">
<path d="M97354 23238
L97326 23210
L97270 23182
L97157 23238
L97101 23210
L97073 23182
" />
<path d="M97354 25246
L97326 25217
L97270 25189
L97157 25246
L97101 25217
L97073 25189
" />
<path d="M101442 22736
L101414 22708
L101357 22680
L101245 22736
L101189 22708
L101161 22680
" />
<path d="M103157 23430
L103129 23402
L103073 23374
L102932 23374
L102876 23402
L102848 23430
L102820 23487
L102820 23543
L102848 23627
L103185 23965
L102820 23965
" />
<path d="M102623 23374
L102257 23374
L102454 23599
L102370 23599
L102314 23627
L102285 23655
L102257 23712
L102257 23852
L102285 23908
L102314 23937
L102370 23965
L102539 23965
L102595 23937
L102623 23908
" />
<path d="M101892 23374
L101836 23374
L101779 23402
L101751 23430
L101723 23487
L101695 23599
L101695 23740
L101723 23852
L101751 23908
L101779 23937
L101836 23965
L101892 23965
L101948 23937
L101976 23908
L102004 23852
L102032 23740
L102032 23599
L102004 23487
L101976 23430
L101948 23402
L101892 23374
" />
<path d="M101526 23374
L101329 23965
L101133 23374
" />
<path d="M102061 24800
L101779 24800
" />
<path d="M102117 24969
L101920 24378
L101723 24969
" />
<path d="M101189 24912
L101217 24941
L101301 24969
L101357 24969
L101442 24941
L101498 24884
L101526 24828
L101554 24716
L101554 24631
L101526 24519
L101498 24462
L101442 24406
L101357 24378
L101301 24378
L101217 24406
L101189 24434
" />
<path d="M101442 25748
L101414 25719
L101357 25691
L101245 25748
L101189 25719
L101161 25691
" />
</g>
<g style="fill:#840084; fill-opacity:0.0; 
stroke:#840084; stroke-width:147.638; stroke-opacity:1; 
stroke-linecap:round; stroke-linejoin:round;">
<path d="M88560 17667
L88898 17667
" />
<path d="M88729 17667
L88729 17076
L88785 17160
L88841 17217
L88898 17245
" />
<path d="M88195 17076
L88138 17076
L88082 17104
L88054 17132
L88026 17189
L87998 17301
L87998 17442
L88026 17554
L88054 17610
L88082 17639
L88138 17667
L88195 17667
L88251 17639
L88279 17610
L88307 17554
L88335 17442
L88335 17301
L88307 17189
L88279 17132
L88251 17104
L88195 17076
" />
<path d="M87295 17667
L87295 17076
" />
<path d="M87295 17357
L86957 17357
" />
<path d="M86957 17667
L86957 17076
" />
<path d="M86564 17076
L86451 17076
L86395 17104
L86339 17160
L86311 17273
L86311 17470
L86339 17582
L86395 17639
L86451 17667
L86564 17667
L86620 17639
L86676 17582
L86704 17470
L86704 17273
L86676 17160
L86620 17104
L86564 17076
" />
<path d="M86057 17076
L86057 17554
L86029 17610
L86001 17639
L85945 17667
L85832 17667
L85776 17639
L85748 17610
L85720 17554
L85720 17076
" />
<path d="M85101 17667
L85298 17385
" />
<path d="M85439 17667
L85439 17076
L85214 17076
L85158 17104
L85129 17132
L85101 17189
L85101 17273
L85129 17329
L85158 17357
L85214 17385
L85439 17385
" />
<path d="M67882 17667
L67882 17076
" />
<path d="M67882 17357
L67545 17357
" />
<path d="M67545 17667
L67545 17076
" />
<path d="M67151 17076
L67039 17076
L66982 17104
L66926 17160
L66898 17273
L66898 17470
L66926 17582
L66982 17639
L67039 17667
L67151 17667
L67207 17639
L67264 17582
L67292 17470
L67292 17273
L67264 17160
L67207 17104
L67151 17076
" />
<path d="M66645 17076
L66645 17554
L66617 17610
L66589 17639
L66532 17667
L66420 17667
L66364 17639
L66335 17610
L66307 17554
L66307 17076
" />
<path d="M65689 17667
L65886 17385
" />
<path d="M66026 17667
L66026 17076
L65801 17076
L65745 17104
L65717 17132
L65689 17189
L65689 17273
L65717 17329
L65745 17357
L65801 17385
L66026 17385
" />
<path d="M42724 17667
L43062 17667
" />
<path d="M42893 17667
L42893 17076
L42949 17160
L43006 17217
L43062 17245
" />
<path d="M42359 17076
L42303 17076
L42246 17104
L42218 17132
L42190 17189
L42162 17301
L42162 17442
L42190 17554
L42218 17610
L42246 17639
L42303 17667
L42359 17667
L42415 17639
L42443 17610
L42471 17554
L42499 17442
L42499 17301
L42471 17189
L42443 17132
L42415 17104
L42359 17076
" />
<path d="M41459 17667
L41459 17076
L41262 17498
L41065 17076
L41065 17667
" />
<path d="M40784 17667
L40784 17076
" />
<path d="M40503 17667
L40503 17076
L40165 17667
L40165 17076
" />
<path d="M22246 17667
L22246 17076
L22049 17498
L21853 17076
L21853 17667
" />
<path d="M21571 17667
L21571 17076
" />
<path d="M21290 17667
L21290 17076
L20953 17667
L20953 17076
" />
</g>
<g style="fill:#840084; fill-opacity:0.0; 
stroke:#840084; stroke-width:98.4252; stroke-opacity:1; 
stroke-linecap:round; stroke-linejoin:round;">
<path d="M99238 29017
L99294 28989
L99407 28989
L99463 29017
L99519 29073
L99547 29129
L99547 29242
L99519 29298
L99463 29354
L99407 29382
L99294 29382
L99238 29354
" />
<path d="M99350 28792
L99491 28820
L99632 28904
L99716 29045
L99744 29185
L99716 29326
L99632 29467
L99491 29551
L99350 29579
L99210 29551
L99069 29467
L98985 29326
L98957 29185
L98985 29045
L99069 28904
L99210 28820
L99350 28792
" />
<path d="M97832 28932
L97804 28904
L97747 28876
L97607 28876
L97551 28904
L97522 28932
L97494 28989
L97494 29045
L97522 29129
L97860 29467
L97494 29467
" />
<path d="M97129 28876
L97073 28876
L97016 28904
L96988 28932
L96960 28989
L96932 29101
L96932 29242
L96960 29354
L96988 29410
L97016 29439
L97073 29467
L97129 29467
L97185 29439
L97213 29410
L97241 29354
L97269 29242
L97269 29101
L97241 28989
L97213 28932
L97185 28904
L97129 28876
" />
<path d="M96369 29467
L96707 29467
" />
<path d="M96538 29467
L96538 28876
L96594 28960
L96651 29017
L96707 29045
" />
<path d="M96088 29467
L95976 29467
L95920 29439
L95891 29410
L95835 29326
L95807 29214
L95807 28989
L95835 28932
L95863 28904
L95920 28876
L96032 28876
L96088 28904
L96116 28932
L96144 28989
L96144 29129
L96116 29185
L96088 29214
L96032 29242
L95920 29242
L95863 29214
L95835 29185
L95807 29129
" />
<path d="M94682 29298
L94401 29298
" />
<path d="M94738 29467
L94542 28876
L94345 29467
" />
<path d="M94148 29073
L94148 29579
L94176 29635
L94232 29664
L94260 29664
" />
<path d="M94148 28876
L94176 28904
L94148 28932
L94120 28904
L94148 28876
L94148 28932
" />
<path d="M93867 29467
L93867 29073
" />
<path d="M93867 28876
L93895 28904
L93867 28932
L93839 28904
L93867 28876
L93867 28932
" />
<path d="M93670 29073
L93445 29073
" />
<path d="M93585 28876
L93585 29382
L93557 29439
L93501 29467
L93445 29467
" />
<path d="M93248 29467
L93248 28876
" />
<path d="M92995 29467
L92995 29157
L93023 29101
L93079 29073
L93164 29073
L93220 29101
L93248 29129
" />
<path d="M91898 28876
L91701 29467
L91504 28876
" />
<path d="M91055 29467
L91055 29157
L91083 29101
L91139 29073
L91251 29073
L91308 29101
" />
<path d="M91055 29439
L91111 29467
L91251 29467
L91308 29439
L91336 29382
L91336 29326
L91308 29270
L91251 29242
L91111 29242
L91055 29214
" />
<path d="M90801 29439
L90745 29467
L90633 29467
L90576 29439
L90548 29382
L90548 29354
L90576 29298
L90633 29270
L90717 29270
L90773 29242
L90801 29185
L90801 29157
L90773 29101
L90717 29073
L90633 29073
L90576 29101
" />
<path d="M90042 29073
L90042 29467
" />
<path d="M90295 29073
L90295 29382
L90267 29439
L90211 29467
L90126 29467
L90070 29439
L90042 29410
" />
<path d="M89508 29467
L89508 28876
" />
<path d="M89508 29439
L89564 29467
L89677 29467
L89733 29439
L89761 29410
L89789 29354
L89789 29185
L89761 29129
L89733 29101
L89677 29073
L89564 29073
L89508 29101
" />
<path d="M89002 29439
L89058 29467
L89170 29467
L89227 29439
L89255 29382
L89255 29157
L89227 29101
L89170 29073
L89058 29073
L89002 29101
L88974 29157
L88974 29214
L89255 29270
" />
<path d="M88777 29073
L88636 29467
L88495 29073
" />
<path d="M88017 29467
L88017 29157
L88046 29101
L88102 29073
L88214 29073
L88270 29101
" />
<path d="M88017 29439
L88074 29467
L88214 29467
L88270 29439
L88299 29382
L88299 29326
L88270 29270
L88214 29242
L88074 29242
L88017 29214
" />
<path d="M87736 29073
L87736 29467
" />
<path d="M87736 29129
L87708 29101
L87652 29073
L87567 29073
L87511 29101
L87483 29157
L87483 29467
" />
</g>
<g style="fill:#840084; fill-opacity:0.0; 
stroke:#840084; stroke-width:47.2441; stroke-opacity:1; 
stroke-linecap:round; stroke-linejoin:round;">
<path d="M103131 15354
L103131 42913
" />
<path d="M84233 15354
L103131 15354
" />
<path d="M84233 42913
L84233 15354
" />
<path d="M103131 42913
L84233 42913
" />
<path d="M83840 15354
L83840 42913
" />
<path d="M64943 15354
L83840 15354
" />
<path d="M64943 42913
L64943 15354
" />
<path d="M83840 42913
L64943 42913
" />
<path d="M58248 15354
L58248 42913
" />
<path d="M39351 15354
L58248 15354
" />
<path d="M39351 42913
L39351 15354
" />
<path d="M58248 42913
L39351 42913
" />
<path d="M38958 15354
L38958 42913
" />
<path d="M20061 15354
L38958 15354
" />
<path d="M20061 42913
L20061 15354
" />
<path d="M38958 42913
L20061 42913
" />
<path d="M59492 23392
L59492 22175
" />
<circle cx="60500" cy="22784.3" r="984.252" /> 
<path d="M61677.2 22784.4 A1177.17 1177.17 0.0 0 0 59492.1 22176.1 " />
<path d="M59492.1 23392.5 A1177.17 1177.17 0.0 0 0 61677.2 22784.1 " />
<path d="M61492 36024
L61492 34807
" />
<circle cx="62500" cy="35415.7" r="984.252" /> 
<path d="M63677.2 35415.9 A1177.17 1177.17 0.0 0 0 61492.1 34807.5 " />
<path d="M61492.1 36023.9 A1177.17 1177.17 0.0 0 0 63677.2 35415.6 " />
<g >
</g>
</g>
<g style="fill:#000000; fill-opacity:0.0; 
stroke:#000000; stroke-width:47.2441; stroke-opacity:1; 
stroke-linecap:round; stroke-linejoin:round;">
</g>
<g style="fill:#C2C200; fill-opacity:0.0; 
stroke:#C2C200; stroke-width:47.2441; stroke-opacity:1; 
stroke-linecap:round; stroke-linejoin:round;">
</g>
<g style="fill:#C2C200; fill-opacity:0.0; 
stroke:#C2C200; stroke-width:19.685; stroke-opacity:1; 
stroke-linecap:round; stroke-linejoin:round;">
<path d="M16910 43305
L23209 43305
" />
<path d="M106281 42517
L106280 43306
" />
<path d="M23209 43305
L106280 43306
" />
<path d="M16912 14960
L16910 43305
" />
<path d="M99981 14962
L106280 14960
" />
<path d="M106280 14960
L106281 42517
" />
<path d="M16912 14960
L99981 14962
" />
<g >
</g>
<g >
</g>
<g >
</g>
<g >
</g>
<g >
</g>
<g >
</g>
<g >
</g>
<g >
</g>
<g >
</g>
<g >
</g>
<g >
</g>
<g >
</g>
<g >
</g>
<g >
</g>
<g >
</g>
<g >
</g>
<g >
</g>
<g >
</g>
<g >
</g>
<g >
</g>
<g >
</g>
<g >
</g>
<g >
</g>
<g >
</g>
<g >
</g>
<g >
</g>
<g >
</g>
<g >
</g>
<g >
</g>
<g >
</g>
<g >
</g>
<g >
</g>
<g >
</g>
<g >
</g>
<g >
</g>
<g >
</g>
<g >
</g>
<g >
</g>
<g >
</g>
<g >
</g>
<g >
</g>
<g >
</g>
<g >
</g>
<g >
</g>
<g >
</g>
<g >
</g>
<g >
</g>
<g >
</g>
<g >
</g>
<g >
</g>
<g >
</g>
<g >
</g>
<g >
</g>
<g >
</g>
<g >
</g>
<g >
</g>
<g >
</g>
<g >
</g>
<g >
</g>
<g >
</g>
<g >
</g>
<g >
</g>
<g >
</g>
<g >
</g>
</g> 
</svg>
