<?xml version="1.0" standalone="no"?>
 <!DOCTYPE svg PUBLIC "-//W3C//DTD SVG 1.1//EN" 
 "http://www.w3.org/Graphics/SVG/1.1/DTD/svg11.dtd"> 
<svg xmlns="http://www.w3.org/2000/svg" version="1.1" 
    width="29.7002cm" height="21.0007cm" viewBox="0 0 116930 82680 ">
<title>SVG Picture created as WemosClock-B_Fab.svg date 2019/11/03 21:08:51 </title>
  <desc>Picture generated by PCBNEW </desc>
<g style="fill:#000000; fill-opacity:1;stroke:#000000; stroke-opacity:1;
stroke-linecap:round; stroke-linejoin:round; "
 transform="translate(0 0) scale(1 1)">
</g>
<g style="fill:#000000; fill-opacity:0.0; 
stroke:#000000; stroke-width:-0.000393701; stroke-opacity:1; 
stroke-linecap:round; stroke-linejoin:round;">
</g>
<g style="fill:#000000; fill-opacity:0.0; 
stroke:#000000; stroke-width:39.3701; stroke-opacity:1; 
stroke-linecap:round; stroke-linejoin:round;">
</g>
<g style="fill:#000000; fill-opacity:0.0; 
stroke:#000000; stroke-width:59.0551; stroke-opacity:1; 
stroke-linecap:round; stroke-linejoin:round;">
<rect x="69685.9" y="65357.2" width="42519.7" height="12598.4" rx="0" />
</g>
<g style="fill:#000000; fill-opacity:0.0; 
stroke:#000000; stroke-width:39.3701; stroke-opacity:1; 
stroke-linecap:round; stroke-linejoin:round;">
</g>
<g style="fill:#000000; fill-opacity:0.0; 
stroke:#000000; stroke-width:59.0551; stroke-opacity:1; 
stroke-linecap:round; stroke-linejoin:round;">
<rect x="3937.01" y="3937.01" width="109056" height="74806" rx="0" />
</g>
<g style="fill:#000000; fill-opacity:0.0; 
stroke:#000000; stroke-width:39.3701; stroke-opacity:1; 
stroke-linecap:round; stroke-linejoin:round;">
</g>
<g style="fill:#000000; fill-opacity:0.0; 
stroke:#000000; stroke-width:59.0551; stroke-opacity:1; 
stroke-linecap:round; stroke-linejoin:round;">
<rect x="4724.41" y="4724.41" width="107481" height="73231.2" rx="0" />
</g>
<g style="fill:#000000; fill-opacity:0.0; 
stroke:#000000; stroke-width:39.3701; stroke-opacity:1; 
stroke-linecap:round; stroke-linejoin:round;">
</g>
<g style="fill:#000000; fill-opacity:0.0; 
stroke:#000000; stroke-width:59.0551; stroke-opacity:1; 
stroke-linecap:round; stroke-linejoin:round;">
<path d="M23622 4724
L23622 3937
" />
</g>
<g style="fill:#000000; fill-opacity:0.0; 
stroke:#000000; stroke-width:39.3701; stroke-opacity:1; 
stroke-linecap:round; stroke-linejoin:round;">
</g>
<g style="fill:#000000; fill-opacity:0.0; 
stroke:#000000; stroke-width:59.0551; stroke-opacity:1; 
stroke-linecap:round; stroke-linejoin:round;">
<path d="M43307 4724
L43307 3937
" />
</g>
<g style="fill:#000000; fill-opacity:0.0; 
stroke:#000000; stroke-width:39.3701; stroke-opacity:1; 
stroke-linecap:round; stroke-linejoin:round;">
</g>
<g style="fill:#000000; fill-opacity:0.0; 
stroke:#000000; stroke-width:59.0551; stroke-opacity:1; 
stroke-linecap:round; stroke-linejoin:round;">
<path d="M62992 4724
L62992 3937
" />
</g>
<g style="fill:#000000; fill-opacity:0.0; 
stroke:#000000; stroke-width:39.3701; stroke-opacity:1; 
stroke-linecap:round; stroke-linejoin:round;">
</g>
<g style="fill:#000000; fill-opacity:0.0; 
stroke:#000000; stroke-width:59.0551; stroke-opacity:1; 
stroke-linecap:round; stroke-linejoin:round;">
<path d="M82677 4724
L82677 3937
" />
</g>
<g style="fill:#000000; fill-opacity:0.0; 
stroke:#000000; stroke-width:39.3701; stroke-opacity:1; 
stroke-linecap:round; stroke-linejoin:round;">
</g>
<g style="fill:#000000; fill-opacity:0.0; 
stroke:#000000; stroke-width:59.0551; stroke-opacity:1; 
stroke-linecap:round; stroke-linejoin:round;">
<path d="M102362 4724
L102362 3937
" />
</g>
<g style="fill:#000000; fill-opacity:0.0; 
stroke:#000000; stroke-width:39.3701; stroke-opacity:1; 
stroke-linecap:round; stroke-linejoin:round;">
</g>
<g style="fill:#000000; fill-opacity:0.0; 
stroke:#000000; stroke-width:59.0551; stroke-opacity:1; 
stroke-linecap:round; stroke-linejoin:round;">
<path d="M14199 4562
L13906 4562
" />
<path d="M14052 4562
L14052 4050
L14004 4123
L13955 4172
L13906 4196
" />
</g>
<g style="fill:#000000; fill-opacity:0.0; 
stroke:#000000; stroke-width:39.3701; stroke-opacity:1; 
stroke-linecap:round; stroke-linejoin:round;">
</g>
<g style="fill:#000000; fill-opacity:0.0; 
stroke:#000000; stroke-width:59.0551; stroke-opacity:1; 
stroke-linecap:round; stroke-linejoin:round;">
<path d="M33591 4099
L33615 4074
L33664 4050
L33786 4050
L33835 4074
L33859 4099
L33884 4147
L33884 4196
L33859 4269
L33567 4562
L33884 4562
" />
</g>
<g style="fill:#000000; fill-opacity:0.0; 
stroke:#000000; stroke-width:39.3701; stroke-opacity:1; 
stroke-linecap:round; stroke-linejoin:round;">
</g>
<g style="fill:#000000; fill-opacity:0.0; 
stroke:#000000; stroke-width:59.0551; stroke-opacity:1; 
stroke-linecap:round; stroke-linejoin:round;">
<path d="M53252 4050
L53569 4050
L53398 4245
L53471 4245
L53520 4269
L53544 4294
L53569 4342
L53569 4464
L53544 4513
L53520 4537
L53471 4562
L53325 4562
L53276 4537
L53252 4513
" />
</g>
<g style="fill:#000000; fill-opacity:0.0; 
stroke:#000000; stroke-width:39.3701; stroke-opacity:1; 
stroke-linecap:round; stroke-linejoin:round;">
</g>
<g style="fill:#000000; fill-opacity:0.0; 
stroke:#000000; stroke-width:59.0551; stroke-opacity:1; 
stroke-linecap:round; stroke-linejoin:round;">
<path d="M73205 4221
L73205 4562
" />
<path d="M73083 4026
L72961 4391
L73278 4391
" />
</g>
<g style="fill:#000000; fill-opacity:0.0; 
stroke:#000000; stroke-width:39.3701; stroke-opacity:1; 
stroke-linecap:round; stroke-linejoin:round;">
</g>
<g style="fill:#000000; fill-opacity:0.0; 
stroke:#000000; stroke-width:59.0551; stroke-opacity:1; 
stroke-linecap:round; stroke-linejoin:round;">
<path d="M92914 4050
L92671 4050
L92646 4294
L92671 4269
L92719 4245
L92841 4245
L92890 4269
L92914 4294
L92939 4342
L92939 4464
L92914 4513
L92890 4537
L92841 4562
L92719 4562
L92671 4537
L92646 4513
" />
</g>
<g style="fill:#000000; fill-opacity:0.0; 
stroke:#000000; stroke-width:39.3701; stroke-opacity:1; 
stroke-linecap:round; stroke-linejoin:round;">
</g>
<g style="fill:#000000; fill-opacity:0.0; 
stroke:#000000; stroke-width:59.0551; stroke-opacity:1; 
stroke-linecap:round; stroke-linejoin:round;">
<path d="M112575 4050
L112477 4050
L112429 4074
L112404 4099
L112356 4172
L112331 4269
L112331 4464
L112356 4513
L112380 4537
L112429 4562
L112526 4562
L112575 4537
L112599 4513
L112624 4464
L112624 4342
L112599 4294
L112575 4269
L112526 4245
L112429 4245
L112380 4269
L112356 4294
L112331 4342
" />
</g>
<g style="fill:#000000; fill-opacity:0.0; 
stroke:#000000; stroke-width:39.3701; stroke-opacity:1; 
stroke-linecap:round; stroke-linejoin:round;">
</g>
<g style="fill:#000000; fill-opacity:0.0; 
stroke:#000000; stroke-width:59.0551; stroke-opacity:1; 
stroke-linecap:round; stroke-linejoin:round;">
<path d="M23622 77955
L23622 78742
" />
</g>
<g style="fill:#000000; fill-opacity:0.0; 
stroke:#000000; stroke-width:39.3701; stroke-opacity:1; 
stroke-linecap:round; stroke-linejoin:round;">
</g>
<g style="fill:#000000; fill-opacity:0.0; 
stroke:#000000; stroke-width:59.0551; stroke-opacity:1; 
stroke-linecap:round; stroke-linejoin:round;">
<path d="M43307 77955
L43307 78742
" />
</g>
<g style="fill:#000000; fill-opacity:0.0; 
stroke:#000000; stroke-width:39.3701; stroke-opacity:1; 
stroke-linecap:round; stroke-linejoin:round;">
</g>
<g style="fill:#000000; fill-opacity:0.0; 
stroke:#000000; stroke-width:59.0551; stroke-opacity:1; 
stroke-linecap:round; stroke-linejoin:round;">
<path d="M62992 77955
L62992 78742
" />
</g>
<g style="fill:#000000; fill-opacity:0.0; 
stroke:#000000; stroke-width:39.3701; stroke-opacity:1; 
stroke-linecap:round; stroke-linejoin:round;">
</g>
<g style="fill:#000000; fill-opacity:0.0; 
stroke:#000000; stroke-width:59.0551; stroke-opacity:1; 
stroke-linecap:round; stroke-linejoin:round;">
<path d="M82677 77955
L82677 78742
" />
</g>
<g style="fill:#000000; fill-opacity:0.0; 
stroke:#000000; stroke-width:39.3701; stroke-opacity:1; 
stroke-linecap:round; stroke-linejoin:round;">
</g>
<g style="fill:#000000; fill-opacity:0.0; 
stroke:#000000; stroke-width:59.0551; stroke-opacity:1; 
stroke-linecap:round; stroke-linejoin:round;">
<path d="M102362 77955
L102362 78742
" />
</g>
<g style="fill:#000000; fill-opacity:0.0; 
stroke:#000000; stroke-width:39.3701; stroke-opacity:1; 
stroke-linecap:round; stroke-linejoin:round;">
</g>
<g style="fill:#000000; fill-opacity:0.0; 
stroke:#000000; stroke-width:59.0551; stroke-opacity:1; 
stroke-linecap:round; stroke-linejoin:round;">
<path d="M14199 78580
L13906 78580
" />
<path d="M14052 78580
L14052 78069
L14004 78142
L13955 78190
L13906 78215
" />
</g>
<g style="fill:#000000; fill-opacity:0.0; 
stroke:#000000; stroke-width:39.3701; stroke-opacity:1; 
stroke-linecap:round; stroke-linejoin:round;">
</g>
<g style="fill:#000000; fill-opacity:0.0; 
stroke:#000000; stroke-width:59.0551; stroke-opacity:1; 
stroke-linecap:round; stroke-linejoin:round;">
<path d="M33591 78117
L33615 78093
L33664 78069
L33786 78069
L33835 78093
L33859 78117
L33884 78166
L33884 78215
L33859 78288
L33567 78580
L33884 78580
" />
</g>
<g style="fill:#000000; fill-opacity:0.0; 
stroke:#000000; stroke-width:39.3701; stroke-opacity:1; 
stroke-linecap:round; stroke-linejoin:round;">
</g>
<g style="fill:#000000; fill-opacity:0.0; 
stroke:#000000; stroke-width:59.0551; stroke-opacity:1; 
stroke-linecap:round; stroke-linejoin:round;">
<path d="M53252 78069
L53569 78069
L53398 78263
L53471 78263
L53520 78288
L53544 78312
L53569 78361
L53569 78483
L53544 78532
L53520 78556
L53471 78580
L53325 78580
L53276 78556
L53252 78532
" />
</g>
<g style="fill:#000000; fill-opacity:0.0; 
stroke:#000000; stroke-width:39.3701; stroke-opacity:1; 
stroke-linecap:round; stroke-linejoin:round;">
</g>
<g style="fill:#000000; fill-opacity:0.0; 
stroke:#000000; stroke-width:59.0551; stroke-opacity:1; 
stroke-linecap:round; stroke-linejoin:round;">
<path d="M73205 78239
L73205 78580
" />
<path d="M73083 78044
L72961 78410
L73278 78410
" />
</g>
<g style="fill:#000000; fill-opacity:0.0; 
stroke:#000000; stroke-width:39.3701; stroke-opacity:1; 
stroke-linecap:round; stroke-linejoin:round;">
</g>
<g style="fill:#000000; fill-opacity:0.0; 
stroke:#000000; stroke-width:59.0551; stroke-opacity:1; 
stroke-linecap:round; stroke-linejoin:round;">
<path d="M92914 78069
L92671 78069
L92646 78312
L92671 78288
L92719 78263
L92841 78263
L92890 78288
L92914 78312
L92939 78361
L92939 78483
L92914 78532
L92890 78556
L92841 78580
L92719 78580
L92671 78556
L92646 78532
" />
</g>
<g style="fill:#000000; fill-opacity:0.0; 
stroke:#000000; stroke-width:39.3701; stroke-opacity:1; 
stroke-linecap:round; stroke-linejoin:round;">
</g>
<g style="fill:#000000; fill-opacity:0.0; 
stroke:#000000; stroke-width:59.0551; stroke-opacity:1; 
stroke-linecap:round; stroke-linejoin:round;">
<path d="M112575 78069
L112477 78069
L112429 78093
L112404 78117
L112356 78190
L112331 78288
L112331 78483
L112356 78532
L112380 78556
L112429 78580
L112526 78580
L112575 78556
L112599 78532
L112624 78483
L112624 78361
L112599 78312
L112575 78288
L112526 78263
L112429 78263
L112380 78288
L112356 78312
L112331 78361
" />
</g>
<g style="fill:#000000; fill-opacity:0.0; 
stroke:#000000; stroke-width:39.3701; stroke-opacity:1; 
stroke-linecap:round; stroke-linejoin:round;">
</g>
<g style="fill:#000000; fill-opacity:0.0; 
stroke:#000000; stroke-width:59.0551; stroke-opacity:1; 
stroke-linecap:round; stroke-linejoin:round;">
<path d="M3937 23622
L4724 23622
" />
</g>
<g style="fill:#000000; fill-opacity:0.0; 
stroke:#000000; stroke-width:39.3701; stroke-opacity:1; 
stroke-linecap:round; stroke-linejoin:round;">
</g>
<g style="fill:#000000; fill-opacity:0.0; 
stroke:#000000; stroke-width:59.0551; stroke-opacity:1; 
stroke-linecap:round; stroke-linejoin:round;">
<path d="M3937 43307
L4724 43307
" />
</g>
<g style="fill:#000000; fill-opacity:0.0; 
stroke:#000000; stroke-width:39.3701; stroke-opacity:1; 
stroke-linecap:round; stroke-linejoin:round;">
</g>
<g style="fill:#000000; fill-opacity:0.0; 
stroke:#000000; stroke-width:59.0551; stroke-opacity:1; 
stroke-linecap:round; stroke-linejoin:round;">
<path d="M3937 62992
L4724 62992
" />
</g>
<g style="fill:#000000; fill-opacity:0.0; 
stroke:#000000; stroke-width:39.3701; stroke-opacity:1; 
stroke-linecap:round; stroke-linejoin:round;">
</g>
<g style="fill:#000000; fill-opacity:0.0; 
stroke:#000000; stroke-width:59.0551; stroke-opacity:1; 
stroke-linecap:round; stroke-linejoin:round;">
<path d="M4208 13864
L4452 13864
" />
<path d="M4160 14011
L4330 13499
L4501 14011
" />
</g>
<g style="fill:#000000; fill-opacity:0.0; 
stroke:#000000; stroke-width:39.3701; stroke-opacity:1; 
stroke-linecap:round; stroke-linejoin:round;">
</g>
<g style="fill:#000000; fill-opacity:0.0; 
stroke:#000000; stroke-width:59.0551; stroke-opacity:1; 
stroke-linecap:round; stroke-linejoin:round;">
<path d="M4367 33428
L4440 33452
L4464 33476
L4489 33525
L4489 33598
L4464 33647
L4440 33671
L4391 33696
L4196 33696
L4196 33184
L4367 33184
L4416 33208
L4440 33233
L4464 33281
L4464 33330
L4440 33379
L4416 33403
L4367 33428
L4196 33428
" />
</g>
<g style="fill:#000000; fill-opacity:0.0; 
stroke:#000000; stroke-width:39.3701; stroke-opacity:1; 
stroke-linecap:round; stroke-linejoin:round;">
</g>
<g style="fill:#000000; fill-opacity:0.0; 
stroke:#000000; stroke-width:59.0551; stroke-opacity:1; 
stroke-linecap:round; stroke-linejoin:round;">
<path d="M4489 53332
L4464 53356
L4391 53381
L4342 53381
L4269 53356
L4221 53308
L4196 53259
L4172 53161
L4172 53088
L4196 52991
L4221 52942
L4269 52893
L4342 52869
L4391 52869
L4464 52893
L4489 52918
" />
</g>
<g style="fill:#000000; fill-opacity:0.0; 
stroke:#000000; stroke-width:39.3701; stroke-opacity:1; 
stroke-linecap:round; stroke-linejoin:round;">
</g>
<g style="fill:#000000; fill-opacity:0.0; 
stroke:#000000; stroke-width:59.0551; stroke-opacity:1; 
stroke-linecap:round; stroke-linejoin:round;">
<path d="M4196 73066
L4196 72554
L4318 72554
L4391 72578
L4440 72627
L4464 72676
L4489 72773
L4489 72846
L4464 72944
L4440 72993
L4391 73041
L4318 73066
L4196 73066
" />
</g>
<g style="fill:#000000; fill-opacity:0.0; 
stroke:#000000; stroke-width:39.3701; stroke-opacity:1; 
stroke-linecap:round; stroke-linejoin:round;">
</g>
<g style="fill:#000000; fill-opacity:0.0; 
stroke:#000000; stroke-width:59.0551; stroke-opacity:1; 
stroke-linecap:round; stroke-linejoin:round;">
<path d="M112992 23622
L112205 23622
" />
</g>
<g style="fill:#000000; fill-opacity:0.0; 
stroke:#000000; stroke-width:39.3701; stroke-opacity:1; 
stroke-linecap:round; stroke-linejoin:round;">
</g>
<g style="fill:#000000; fill-opacity:0.0; 
stroke:#000000; stroke-width:59.0551; stroke-opacity:1; 
stroke-linecap:round; stroke-linejoin:round;">
<path d="M112992 43307
L112205 43307
" />
</g>
<g style="fill:#000000; fill-opacity:0.0; 
stroke:#000000; stroke-width:39.3701; stroke-opacity:1; 
stroke-linecap:round; stroke-linejoin:round;">
</g>
<g style="fill:#000000; fill-opacity:0.0; 
stroke:#000000; stroke-width:59.0551; stroke-opacity:1; 
stroke-linecap:round; stroke-linejoin:round;">
<path d="M112992 62992
L112205 62992
" />
</g>
<g style="fill:#000000; fill-opacity:0.0; 
stroke:#000000; stroke-width:39.3701; stroke-opacity:1; 
stroke-linecap:round; stroke-linejoin:round;">
</g>
<g style="fill:#000000; fill-opacity:0.0; 
stroke:#000000; stroke-width:59.0551; stroke-opacity:1; 
stroke-linecap:round; stroke-linejoin:round;">
<path d="M112477 13864
L112721 13864
" />
<path d="M112428 14011
L112599 13499
L112769 14011
" />
</g>
<g style="fill:#000000; fill-opacity:0.0; 
stroke:#000000; stroke-width:39.3701; stroke-opacity:1; 
stroke-linecap:round; stroke-linejoin:round;">
</g>
<g style="fill:#000000; fill-opacity:0.0; 
stroke:#000000; stroke-width:59.0551; stroke-opacity:1; 
stroke-linecap:round; stroke-linejoin:round;">
<path d="M112635 33428
L112708 33452
L112733 33476
L112757 33525
L112757 33598
L112733 33647
L112708 33671
L112660 33696
L112465 33696
L112465 33184
L112635 33184
L112684 33208
L112708 33233
L112733 33281
L112733 33330
L112708 33379
L112684 33403
L112635 33428
L112465 33428
" />
</g>
<g style="fill:#000000; fill-opacity:0.0; 
stroke:#000000; stroke-width:39.3701; stroke-opacity:1; 
stroke-linecap:round; stroke-linejoin:round;">
</g>
<g style="fill:#000000; fill-opacity:0.0; 
stroke:#000000; stroke-width:59.0551; stroke-opacity:1; 
stroke-linecap:round; stroke-linejoin:round;">
<path d="M112757 53332
L112733 53356
L112660 53381
L112611 53381
L112538 53356
L112489 53308
L112465 53259
L112440 53161
L112440 53088
L112465 52991
L112489 52942
L112538 52893
L112611 52869
L112660 52869
L112733 52893
L112757 52918
" />
</g>
<g style="fill:#000000; fill-opacity:0.0; 
stroke:#000000; stroke-width:39.3701; stroke-opacity:1; 
stroke-linecap:round; stroke-linejoin:round;">
</g>
<g style="fill:#000000; fill-opacity:0.0; 
stroke:#000000; stroke-width:59.0551; stroke-opacity:1; 
stroke-linecap:round; stroke-linejoin:round;">
<path d="M112465 73066
L112465 72554
L112587 72554
L112660 72578
L112708 72627
L112733 72676
L112757 72773
L112757 72846
L112733 72944
L112708 72993
L112660 73041
L112587 73066
L112465 73066
" />
</g>
<g style="fill:#000000; fill-opacity:0.0; 
stroke:#000000; stroke-width:39.3701; stroke-opacity:1; 
stroke-linecap:round; stroke-linejoin:round;">
</g>
<g style="fill:#000000; fill-opacity:0.0; 
stroke:#000000; stroke-width:59.0551; stroke-opacity:1; 
stroke-linecap:round; stroke-linejoin:round;">
<path d="M78911 76293
L78911 75703
L79051 75703
L79136 75731
L79192 75787
L79220 75843
L79248 75956
L79248 76040
L79220 76153
L79192 76209
L79136 76265
L79051 76293
L78911 76293
" />
<path d="M79754 76293
L79754 75984
L79726 75928
L79670 75899
L79557 75899
L79501 75928
" />
<path d="M79754 76265
L79698 76293
L79557 76293
L79501 76265
L79473 76209
L79473 76153
L79501 76096
L79557 76068
L79698 76068
L79754 76040
" />
<path d="M79951 75899
L80176 75899
" />
<path d="M80036 75703
L80036 76209
L80064 76265
L80120 76293
L80176 76293
" />
<path d="M80598 76265
L80542 76293
L80429 76293
L80373 76265
L80345 76209
L80345 75984
L80373 75928
L80429 75899
L80542 75899
L80598 75928
L80626 75984
L80626 76040
L80345 76096
" />
<path d="M80879 76237
L80907 76265
L80879 76293
L80851 76265
L80879 76237
L80879 76293
" />
<path d="M80879 75928
L80907 75956
L80879 75984
L80851 75956
L80879 75928
L80879 75984
" />
</g>
<g style="fill:#000000; fill-opacity:0.0; 
stroke:#000000; stroke-width:39.3701; stroke-opacity:1; 
stroke-linecap:round; stroke-linejoin:round;">
</g>
<g style="fill:#000000; fill-opacity:0.0; 
stroke:#000000; stroke-width:59.0551; stroke-opacity:1; 
stroke-linecap:round; stroke-linejoin:round;">
<path d="M69685 76577
L112205 76577
" />
</g>
<g style="fill:#000000; fill-opacity:0.0; 
stroke:#000000; stroke-width:39.3701; stroke-opacity:1; 
stroke-linecap:round; stroke-linejoin:round;">
</g>
<g style="fill:#000000; fill-opacity:0.0; 
stroke:#000000; stroke-width:59.0551; stroke-opacity:1; 
stroke-linecap:round; stroke-linejoin:round;">
<path d="M70249 77395
L70249 76805
" />
<path d="M70587 77395
L70334 77058
" />
<path d="M70587 76805
L70249 77142
" />
<path d="M70840 77395
L70840 77002
" />
<path d="M70840 76805
L70812 76833
L70840 76861
L70868 76833
L70840 76805
L70840 76861
" />
<path d="M71458 77339
L71430 77367
L71346 77395
L71290 77395
L71205 77367
L71149 77311
L71121 77255
L71093 77142
L71093 77058
L71121 76946
L71149 76889
L71205 76833
L71290 76805
L71346 76805
L71430 76833
L71458 76861
" />
<path d="M71965 77395
L71965 77086
L71937 77030
L71880 77002
L71768 77002
L71712 77030
" />
<path d="M71965 77367
L71908 77395
L71768 77395
L71712 77367
L71683 77311
L71683 77255
L71712 77199
L71768 77171
L71908 77171
L71965 77142
" />
<path d="M72499 77395
L72499 76805
" />
<path d="M72499 77367
L72443 77395
L72330 77395
L72274 77367
L72246 77339
L72218 77283
L72218 77114
L72246 77058
L72274 77030
L72330 77002
L72443 77002
L72499 77030
" />
<path d="M73230 77086
L73427 77086
" />
<path d="M73511 77395
L73230 77395
L73230 76805
L73511 76805
" />
<path d="M73764 77339
L73793 77367
L73764 77395
L73736 77367
L73764 77339
L73764 77395
" />
<path d="M74046 77395
L74046 76805
L74186 76805
L74271 76833
L74327 76889
L74355 76946
L74383 77058
L74383 77142
L74355 77255
L74327 77311
L74271 77367
L74186 77395
L74046 77395
" />
<path d="M74636 77339
L74664 77367
L74636 77395
L74608 77367
L74636 77339
L74636 77395
" />
<path d="M74889 77227
L75171 77227
" />
<path d="M74833 77395
L75030 76805
L75227 77395
" />
<path d="M75424 77339
L75452 77367
L75424 77395
L75395 77367
L75424 77339
L75424 77395
" />
<path d="M76605 77395
L76605 76805
" />
<path d="M76661 77171
L76830 77395
" />
<path d="M76830 77002
L76605 77227
" />
<path d="M77083 77395
L77083 77002
" />
<path d="M77083 76805
L77055 76833
L77083 76861
L77111 76833
L77083 76805
L77083 76861
" />
<path d="M77617 77367
L77561 77395
L77448 77395
L77392 77367
L77364 77339
L77336 77283
L77336 77114
L77364 77058
L77392 77030
L77448 77002
L77561 77002
L77617 77030
" />
<path d="M78123 77395
L78123 77086
L78095 77030
L78039 77002
L77926 77002
L77870 77030
" />
<path d="M78123 77367
L78067 77395
L77926 77395
L77870 77367
L77842 77311
L77842 77255
L77870 77199
L77926 77171
L78067 77171
L78123 77142
" />
<path d="M78658 77395
L78658 76805
" />
<path d="M78658 77367
L78601 77395
L78489 77395
L78433 77367
L78404 77339
L78376 77283
L78376 77114
L78404 77058
L78433 77030
L78489 77002
L78601 77002
L78658 77030
" />
<path d="M79670 76805
L79389 76805
L79361 77086
L79389 77058
L79445 77030
L79586 77030
L79642 77058
L79670 77086
L79698 77142
L79698 77283
L79670 77339
L79642 77367
L79586 77395
L79445 77395
L79389 77367
L79361 77339
" />
<path d="M79951 77339
L79979 77367
L79951 77395
L79923 77367
L79951 77339
L79951 77395
" />
<path d="M80542 77395
L80204 77395
" />
<path d="M80373 77395
L80373 76805
L80317 76889
L80260 76946
L80204 76974
" />
<path d="M80795 77339
L80823 77367
L80795 77395
L80767 77367
L80795 77339
L80795 77395
" />
<path d="M81329 77002
L81329 77395
" />
<path d="M81188 76777
L81048 77199
L81413 77199
" />
<path d="M81638 77171
L82088 77171
" />
<path d="M82595 77367
L82538 77395
L82426 77395
L82370 77367
L82341 77311
L82341 77086
L82370 77030
L82426 77002
L82538 77002
L82595 77030
L82623 77086
L82623 77142
L82341 77199
" />
<path d="M83129 76805
L83016 76805
L82960 76833
L82932 76861
L82876 76946
L82848 77058
L82848 77283
L82876 77339
L82904 77367
L82960 77395
L83073 77395
L83129 77367
L83157 77339
L83185 77283
L83185 77142
L83157 77086
L83129 77058
L83073 77030
L82960 77030
L82904 77058
L82876 77086
L82848 77142
" />
<path d="M83551 76805
L83607 76805
L83663 76833
L83691 76861
L83719 76917
L83748 77030
L83748 77171
L83719 77283
L83691 77339
L83663 77367
L83607 77395
L83551 77395
L83494 77367
L83466 77339
L83438 77283
L83410 77171
L83410 77030
L83438 76917
L83466 76861
L83494 76833
L83551 76805
" />
<path d="M84001 77395
L84001 76805
" />
<path d="M84001 77030
L84057 77002
L84169 77002
L84226 77030
L84254 77058
L84282 77114
L84282 77283
L84254 77339
L84226 77367
L84169 77395
L84057 77395
L84001 77367
" />
<path d="M84507 76861
L84535 76833
L84591 76805
L84732 76805
L84788 76833
L84816 76861
L84844 76917
L84844 76974
L84816 77058
L84479 77395
L84844 77395
" />
<path d="M85350 76805
L85238 76805
L85182 76833
L85154 76861
L85097 76946
L85069 77058
L85069 77283
L85097 77339
L85126 77367
L85182 77395
L85294 77395
L85350 77367
L85379 77339
L85407 77283
L85407 77142
L85379 77086
L85350 77058
L85294 77030
L85182 77030
L85126 77058
L85097 77086
L85069 77142
" />
<path d="M85913 76805
L85800 76805
L85744 76833
L85716 76861
L85660 76946
L85632 77058
L85632 77283
L85660 77339
L85688 77367
L85744 77395
L85857 77395
L85913 77367
L85941 77339
L85969 77283
L85969 77142
L85941 77086
L85913 77058
L85857 77030
L85744 77030
L85688 77058
L85660 77086
L85632 77142
" />
<path d="M86082 76644
L86644 76644
" />
<path d="M86307 77058
L86250 77030
L86222 77002
L86194 76946
L86194 76917
L86222 76861
L86250 76833
L86307 76805
L86419 76805
L86475 76833
L86503 76861
L86532 76917
L86532 76946
L86503 77002
L86475 77030
L86419 77058
L86307 77058
L86250 77086
L86222 77114
L86194 77171
L86194 77283
L86222 77339
L86250 77367
L86307 77395
L86419 77395
L86475 77367
L86503 77339
L86532 77283
L86532 77171
L86503 77114
L86475 77086
L86419 77058
" />
<path d="M86644 76644
L87206 76644
" />
<path d="M87038 77002
L87038 77395
" />
<path d="M86897 76777
L86757 77199
L87122 77199
" />
<path d="M87600 77002
L87600 77395
" />
<path d="M87347 77002
L87347 77311
L87375 77367
L87431 77395
L87516 77395
L87572 77367
L87600 77339
" />
<path d="M87881 77395
L87881 76805
" />
<path d="M87881 77030
L87938 77002
L88050 77002
L88106 77030
L88135 77058
L88163 77114
L88163 77283
L88135 77339
L88106 77367
L88050 77395
L87938 77395
L87881 77367
" />
<path d="M88669 77002
L88669 77395
" />
<path d="M88416 77002
L88416 77311
L88444 77367
L88500 77395
L88584 77395
L88641 77367
L88669 77339
" />
<path d="M88950 77002
L88950 77395
" />
<path d="M88950 77058
L88978 77030
L89034 77002
L89119 77002
L89175 77030
L89203 77086
L89203 77395
" />
<path d="M89400 77002
L89625 77002
" />
<path d="M89484 76805
L89484 77311
L89512 77367
L89569 77395
L89625 77395
" />
<path d="M90075 77002
L90075 77395
" />
<path d="M89822 77002
L89822 77311
L89850 77367
L89906 77395
L89991 77395
L90047 77367
L90075 77339
" />
<path d="M90665 77395
L90328 77395
" />
<path d="M90497 77395
L90497 76805
L90440 76889
L90384 76946
L90328 76974
" />
<path d="M91003 77058
L90947 77030
L90919 77002
L90890 76946
L90890 76917
L90919 76861
L90947 76833
L91003 76805
L91115 76805
L91172 76833
L91200 76861
L91228 76917
L91228 76946
L91200 77002
L91172 77030
L91115 77058
L91003 77058
L90947 77086
L90919 77114
L90890 77171
L90890 77283
L90919 77339
L90947 77367
L91003 77395
L91115 77395
L91172 77367
L91200 77339
L91228 77283
L91228 77171
L91200 77114
L91172 77086
L91115 77058
" />
<path d="M91481 77339
L91509 77367
L91481 77395
L91453 77367
L91481 77339
L91481 77395
" />
<path d="M91875 76805
L91931 76805
L91987 76833
L92015 76861
L92043 76917
L92072 77030
L92072 77171
L92043 77283
L92015 77339
L91987 77367
L91931 77395
L91875 77395
L91818 77367
L91790 77339
L91762 77283
L91734 77171
L91734 77030
L91762 76917
L91790 76861
L91818 76833
L91875 76805
" />
<path d="M92578 77002
L92578 77395
" />
<path d="M92437 76777
L92296 77199
L92662 77199
" />
<path d="M92887 77339
L92915 77367
L92887 77395
L92859 77367
L92887 77339
L92887 77395
" />
<path d="M93478 77395
L93140 77395
" />
<path d="M93309 77395
L93309 76805
L93253 76889
L93196 76946
L93140 76974
" />
</g>
<g style="fill:#000000; fill-opacity:0.0; 
stroke:#000000; stroke-width:39.3701; stroke-opacity:1; 
stroke-linecap:round; stroke-linejoin:round;">
</g>
<g style="fill:#000000; fill-opacity:0.0; 
stroke:#000000; stroke-width:59.0551; stroke-opacity:1; 
stroke-linecap:round; stroke-linejoin:round;">
<path d="M69685 75396
L112205 75396
" />
</g>
<g style="fill:#000000; fill-opacity:0.0; 
stroke:#000000; stroke-width:39.3701; stroke-opacity:1; 
stroke-linecap:round; stroke-linejoin:round;">
</g>
<g style="fill:#000000; fill-opacity:0.0; 
stroke:#000000; stroke-width:118.11; stroke-opacity:1; 
stroke-linecap:round; stroke-linejoin:round;">
<path d="M104099 76293
L103902 76012
" />
<path d="M103761 76293
L103761 75703
L103986 75703
L104042 75731
L104070 75759
L104099 75815
L104099 75899
L104070 75956
L104042 75984
L103986 76012
L103761 76012
" />
<path d="M104577 76265
L104520 76293
L104408 76293
L104352 76265
L104323 76209
L104323 75984
L104352 75928
L104408 75899
L104520 75899
L104577 75928
L104605 75984
L104605 76040
L104323 76096
" />
<path d="M104802 75899
L104942 76293
L105083 75899
" />
<path d="M105308 76237
L105336 76265
L105308 76293
L105280 76265
L105308 76237
L105308 76293
" />
<path d="M105308 75928
L105336 75956
L105308 75984
L105280 75956
L105308 75928
L105308 75984
" />
</g>
<g style="fill:#000000; fill-opacity:0.0; 
stroke:#000000; stroke-width:39.3701; stroke-opacity:1; 
stroke-linecap:round; stroke-linejoin:round;">
</g>
<g style="fill:#000000; fill-opacity:0.0; 
stroke:#000000; stroke-width:59.0551; stroke-opacity:1; 
stroke-linecap:round; stroke-linejoin:round;">
<path d="M70221 76265
L70305 76293
L70446 76293
L70502 76265
L70530 76237
L70559 76181
L70559 76124
L70530 76068
L70502 76040
L70446 76012
L70334 75984
L70277 75956
L70249 75928
L70221 75871
L70221 75815
L70249 75759
L70277 75731
L70334 75703
L70474 75703
L70559 75731
" />
<path d="M70812 76293
L70812 75899
" />
<path d="M70812 75703
L70784 75731
L70812 75759
L70840 75731
L70812 75703
L70812 75759
" />
<path d="M71037 75899
L71346 75899
L71037 76293
L71346 76293
" />
<path d="M71796 76265
L71740 76293
L71627 76293
L71571 76265
L71543 76209
L71543 75984
L71571 75928
L71627 75899
L71740 75899
L71796 75928
L71824 75984
L71824 76040
L71543 76096
" />
<path d="M72077 76237
L72105 76265
L72077 76293
L72049 76265
L72077 76237
L72077 76293
" />
<path d="M72077 75928
L72105 75956
L72077 75984
L72049 75956
L72077 75928
L72077 75984
" />
<path d="M72780 76124
L73061 76124
" />
<path d="M72724 76293
L72921 75703
L73118 76293
" />
<path d="M73568 75899
L73568 76293
" />
<path d="M73427 75674
L73286 76096
L73652 76096
" />
</g>
<g style="fill:#000000; fill-opacity:0.0; 
stroke:#000000; stroke-width:39.3701; stroke-opacity:1; 
stroke-linecap:round; stroke-linejoin:round;">
</g>
<g style="fill:#000000; fill-opacity:0.0; 
stroke:#000000; stroke-width:59.0551; stroke-opacity:1; 
stroke-linecap:round; stroke-linejoin:round;">
<path d="M103714 77395
L103714 76805
" />
<path d="M104248 77395
L104248 76805
" />
<path d="M104248 77367
L104192 77395
L104079 77395
L104023 77367
L103995 77339
L103967 77283
L103967 77114
L103995 77058
L104023 77030
L104079 77002
L104192 77002
L104248 77030
" />
<path d="M104529 77339
L104557 77367
L104529 77395
L104501 77367
L104529 77339
L104529 77395
" />
<path d="M104529 77030
L104557 77058
L104529 77086
L104501 77058
L104529 77030
L104529 77086
" />
<path d="M105570 77395
L105232 77395
" />
<path d="M105401 77395
L105401 76805
L105345 76889
L105289 76946
L105232 76974
" />
<path d="M106245 76777
L105739 77536
" />
<path d="M106751 77395
L106413 77395
" />
<path d="M106582 77395
L106582 76805
L106526 76889
L106470 76946
L106413 76974
" />
</g>
<g style="fill:#000000; fill-opacity:0.0; 
stroke:#000000; stroke-width:39.3701; stroke-opacity:1; 
stroke-linecap:round; stroke-linejoin:round;">
</g>
<g style="fill:#000000; fill-opacity:0.0; 
stroke:#000000; stroke-width:59.0551; stroke-opacity:1; 
stroke-linecap:round; stroke-linejoin:round;">
<path d="M69685 73821
L112205 73821
" />
</g>
<g style="fill:#000000; fill-opacity:0.0; 
stroke:#000000; stroke-width:39.3701; stroke-opacity:1; 
stroke-linecap:round; stroke-linejoin:round;">
</g>
<g style="fill:#000000; fill-opacity:0.0; 
stroke:#000000; stroke-width:157.48; stroke-opacity:1; 
stroke-linecap:round; stroke-linejoin:round;">
<path d="M70360 74099
L70810 74099
" />
<path d="M70486 74886
L70585 74099
" />
<path d="M70974 74886
L71039 74361
" />
<path d="M71072 74099
L71030 74136
L71063 74174
L71105 74136
L71072 74099
L71063 74174
" />
<path d="M71302 74361
L71602 74361
" />
<path d="M71447 74099
L71363 74774
L71391 74849
L71461 74886
L71536 74886
" />
<path d="M71911 74886
L71841 74849
L71813 74774
L71897 74099
" />
<path d="M72516 74849
L72436 74886
L72286 74886
L72216 74849
L72187 74774
L72225 74474
L72272 74399
L72352 74361
L72501 74361
L72572 74399
L72600 74474
L72591 74549
L72206 74624
" />
<path d="M72895 74811
L72928 74849
L72886 74886
L72853 74849
L72895 74811
L72886 74886
" />
<path d="M72947 74399
L72980 74436
L72937 74474
L72905 74436
L72947 74399
L72937 74474
" />
</g>
<g style="fill:#000000; fill-opacity:0.0; 
stroke:#000000; stroke-width:39.3701; stroke-opacity:1; 
stroke-linecap:round; stroke-linejoin:round;">
</g>
<g style="fill:#000000; fill-opacity:0.0; 
stroke:#000000; stroke-width:59.0551; stroke-opacity:1; 
stroke-linecap:round; stroke-linejoin:round;">
<path d="M70446 73070
L70249 73070
" />
<path d="M70249 73380
L70249 72789
L70530 72789
" />
<path d="M70755 73380
L70755 72986
" />
<path d="M70755 72789
L70727 72817
L70755 72845
L70784 72817
L70755 72789
L70755 72845
" />
<path d="M71121 73380
L71065 73352
L71037 73295
L71037 72789
" />
<path d="M71571 73352
L71515 73380
L71402 73380
L71346 73352
L71318 73295
L71318 73070
L71346 73014
L71402 72986
L71515 72986
L71571 73014
L71599 73070
L71599 73127
L71318 73183
" />
<path d="M71852 73323
L71880 73352
L71852 73380
L71824 73352
L71852 73323
L71852 73380
" />
<path d="M71852 73014
L71880 73042
L71852 73070
L71824 73042
L71852 73014
L71852 73070
" />
<path d="M72527 72789
L72668 73380
L72780 72958
L72893 73380
L73033 72789
" />
<path d="M73483 73352
L73427 73380
L73314 73380
L73258 73352
L73230 73295
L73230 73070
L73258 73014
L73314 72986
L73427 72986
L73483 73014
L73511 73070
L73511 73127
L73230 73183
" />
<path d="M73764 73380
L73764 72986
" />
<path d="M73764 73042
L73793 73014
L73849 72986
L73933 72986
L73989 73014
L74018 73070
L74018 73380
" />
<path d="M74018 73070
L74046 73014
L74102 72986
L74186 72986
L74242 73014
L74271 73070
L74271 73380
" />
<path d="M74636 73380
L74580 73352
L74552 73323
L74524 73267
L74524 73099
L74552 73042
L74580 73014
L74636 72986
L74721 72986
L74777 73014
L74805 73042
L74833 73099
L74833 73267
L74805 73323
L74777 73352
L74721 73380
L74636 73380
" />
<path d="M75058 73352
L75114 73380
L75227 73380
L75283 73352
L75311 73295
L75311 73267
L75283 73211
L75227 73183
L75142 73183
L75086 73155
L75058 73099
L75058 73070
L75086 73014
L75142 72986
L75227 72986
L75283 73014
" />
<path d="M75902 73323
L75874 73352
L75789 73380
L75733 73380
L75649 73352
L75592 73295
L75564 73239
L75536 73127
L75536 73042
L75564 72930
L75592 72874
L75649 72817
L75733 72789
L75789 72789
L75874 72817
L75902 72845
" />
<path d="M76239 73380
L76183 73352
L76155 73295
L76155 72789
" />
<path d="M76548 73380
L76492 73352
L76464 73323
L76436 73267
L76436 73099
L76464 73042
L76492 73014
L76548 72986
L76633 72986
L76689 73014
L76717 73042
L76745 73099
L76745 73267
L76717 73323
L76689 73352
L76633 73380
L76548 73380
" />
<path d="M77251 73352
L77195 73380
L77083 73380
L77027 73352
L76998 73323
L76970 73267
L76970 73099
L76998 73042
L77027 73014
L77083 72986
L77195 72986
L77251 73014
" />
<path d="M77505 73380
L77505 72789
" />
<path d="M77561 73155
L77730 73380
" />
<path d="M77730 72986
L77505 73211
" />
<path d="M77983 73323
L78011 73352
L77983 73380
L77955 73352
L77983 73323
L77983 73380
" />
<path d="M78264 73380
L78264 72789
" />
<path d="M78320 73155
L78489 73380
" />
<path d="M78489 72986
L78264 73211
" />
<path d="M78742 73380
L78742 72986
" />
<path d="M78742 72789
L78714 72817
L78742 72845
L78770 72817
L78742 72789
L78742 72845
" />
<path d="M79276 73352
L79220 73380
L79108 73380
L79051 73352
L79023 73323
L78995 73267
L78995 73099
L79023 73042
L79051 73014
L79108 72986
L79220 72986
L79276 73014
" />
<path d="M79782 73380
L79782 73070
L79754 73014
L79698 72986
L79586 72986
L79529 73014
" />
<path d="M79782 73352
L79726 73380
L79586 73380
L79529 73352
L79501 73295
L79501 73239
L79529 73183
L79586 73155
L79726 73155
L79782 73127
" />
<path d="M80317 73380
L80317 72789
" />
<path d="M80317 73352
L80260 73380
L80148 73380
L80092 73352
L80064 73323
L80036 73267
L80036 73099
L80064 73042
L80092 73014
L80148 72986
L80260 72986
L80317 73014
" />
<path d="M80457 73436
L80907 73436
" />
<path d="M81048 72986
L81048 73577
" />
<path d="M81048 73014
L81104 72986
L81217 72986
L81273 73014
L81301 73042
L81329 73099
L81329 73267
L81301 73323
L81273 73352
L81217 73380
L81104 73380
L81048 73352
" />
<path d="M81835 73352
L81779 73380
L81667 73380
L81610 73352
L81582 73323
L81554 73267
L81554 73099
L81582 73042
L81610 73014
L81667 72986
L81779 72986
L81835 73014
" />
<path d="M82088 73380
L82088 72789
" />
<path d="M82088 73014
L82145 72986
L82257 72986
L82313 73014
L82341 73042
L82370 73099
L82370 73267
L82341 73323
L82313 73352
L82257 73380
L82145 73380
L82088 73352
" />
</g>
<g style="fill:#000000; fill-opacity:0.0; 
stroke:#000000; stroke-width:39.3701; stroke-opacity:1; 
stroke-linecap:round; stroke-linejoin:round;">
</g>
<g style="fill:#000000; fill-opacity:0.0; 
stroke:#000000; stroke-width:59.0551; stroke-opacity:1; 
stroke-linecap:round; stroke-linejoin:round;">
<path d="M69685 71459
L112205 71459
" />
</g>
<g style="fill:#000000; fill-opacity:0.0; 
stroke:#000000; stroke-width:39.3701; stroke-opacity:1; 
stroke-linecap:round; stroke-linejoin:round;">
</g>
<g style="fill:#000000; fill-opacity:0.0; 
stroke:#000000; stroke-width:59.0551; stroke-opacity:1; 
stroke-linecap:round; stroke-linejoin:round;">
<path d="M70221 72289
L70305 72317
L70446 72317
L70502 72289
L70530 72260
L70559 72204
L70559 72148
L70530 72092
L70502 72064
L70446 72036
L70334 72007
L70277 71979
L70249 71951
L70221 71895
L70221 71839
L70249 71782
L70277 71754
L70334 71726
L70474 71726
L70559 71754
" />
<path d="M70812 72317
L70812 71726
" />
<path d="M71065 72317
L71065 72007
L71037 71951
L70980 71923
L70896 71923
L70840 71951
L70812 71979
" />
<path d="M71571 72289
L71515 72317
L71402 72317
L71346 72289
L71318 72232
L71318 72007
L71346 71951
L71402 71923
L71515 71923
L71571 71951
L71599 72007
L71599 72064
L71318 72120
" />
<path d="M72077 72289
L72021 72317
L71908 72317
L71852 72289
L71824 72232
L71824 72007
L71852 71951
L71908 71923
L72021 71923
L72077 71951
L72105 72007
L72105 72064
L71824 72120
" />
<path d="M72274 71923
L72499 71923
" />
<path d="M72358 71726
L72358 72232
L72386 72289
L72443 72317
L72499 72317
" />
<path d="M72696 72260
L72724 72289
L72696 72317
L72668 72289
L72696 72260
L72696 72317
" />
<path d="M72696 71951
L72724 71979
L72696 72007
L72668 71979
L72696 71951
L72696 72007
" />
</g>
<g style="fill:#000000; fill-opacity:0.0; 
stroke:#000000; stroke-width:39.3701; stroke-opacity:1; 
stroke-linecap:round; stroke-linejoin:round;">
</g>
<g style="fill:#000000; fill-opacity:0.0; 
stroke:#000000; stroke-width:59.0551; stroke-opacity:1; 
stroke-linecap:round; stroke-linejoin:round;">
<path d="M77559 75396
L77559 76577
" />
</g>
<g style="fill:#000000; fill-opacity:0.0; 
stroke:#000000; stroke-width:39.3701; stroke-opacity:1; 
stroke-linecap:round; stroke-linejoin:round;">
</g>
<g style="fill:#000000; fill-opacity:0.0; 
stroke:#000000; stroke-width:59.0551; stroke-opacity:1; 
stroke-linecap:round; stroke-linejoin:round;">
<path d="M102756 75396
L102756 77955
" />
</g>
<g style="fill:#000084; fill-opacity:0.0; 
stroke:#000084; stroke-width:59.0551; stroke-opacity:1; 
stroke-linecap:round; stroke-linejoin:round;">
</g>
<g style="fill:#000084; fill-opacity:0.0; 
stroke:#000084; stroke-width:39.3701; stroke-opacity:1; 
stroke-linecap:round; stroke-linejoin:round;">
<path d="M59515 23362
L59515 22205
" />
<circle cx="60500" cy="22784.3" r="984.252" /> 
<path d="M59515.7 23362.9 A1141.73 1141.73 0.0 1 0 59515.7 22205.6 " />
<path d="M61515 35994
L61515 34837
" />
<circle cx="62500" cy="35415.7" r="984.252" /> 
<path d="M61515.7 35994.4 A1141.73 1141.73 0.0 1 0 61515.7 34837.1 " />
<g >
</g>
<g >
</g>
<g >
</g>
<g >
</g>
<g >
</g>
<g >
</g>
<g >
</g>
<g >
</g>
<g >
</g>
<g >
</g>
<g >
</g>
<g >
</g>
<g >
</g>
<g >
</g>
<g >
</g>
<g >
</g>
<g >
</g>
<g >
</g>
<g >
</g>
<g >
</g>
<g >
</g>
<g >
</g>
<g >
</g>
<g >
</g>
<g >
</g>
<g >
</g>
<g >
</g>
<g >
</g>
<g >
</g>
<g >
</g>
<g >
</g>
<g >
</g>
<g >
</g>
<g >
</g>
<g >
</g>
<g >
</g>
<g >
</g>
<g >
</g>
<g >
</g>
<g >
</g>
<g >
</g>
<g >
</g>
<g >
</g>
<g >
</g>
<g >
</g>
<g >
</g>
<g >
</g>
<g >
</g>
<g >
</g>
<g >
</g>
<g >
</g>
<g >
</g>
<g >
</g>
<g >
</g>
<g >
</g>
<g >
</g>
<g >
</g>
<g >
</g>
<g >
</g>
<g >
</g>
<g >
</g>
<g >
</g>
<g >
</g>
</g>
<g style="fill:#000084; fill-opacity:0.0; 
stroke:#000084; stroke-width:39.3701; stroke-opacity:1; 
stroke-linecap:round; stroke-linejoin:round;">
</g>
<g style="fill:#000084; fill-opacity:0.0; 
stroke:#000084; stroke-width:59.0551; stroke-opacity:1; 
stroke-linecap:round; stroke-linejoin:round;">
<path d="M77907 28758
L77888 28740
L77851 28721
L77757 28721
L77719 28740
L77701 28758
L77682 28796
L77682 28833
L77701 28890
L77926 29115
L77682 29115
" />
<path d="M77513 29077
L77494 29096
L77513 29115
L77532 29096
L77513 29077
L77513 29115
" />
<path d="M77363 28721
L77119 28721
L77251 28871
L77194 28871
L77157 28890
L77138 28908
L77119 28946
L77119 29040
L77138 29077
L77157 29096
L77194 29115
L77307 29115
L77344 29096
L77363 29077
" />
<path d="M76951 29115
L76951 28852
" />
<path d="M76951 28721
L76969 28740
L76951 28758
L76932 28740
L76951 28721
L76951 28758
" />
<path d="M76763 28852
L76763 29115
" />
<path d="M76763 28890
L76744 28871
L76707 28852
L76651 28852
L76613 28871
L76594 28908
L76594 29115
" />
<path d="M76238 29096
L76276 29115
L76351 29115
L76388 29096
L76407 29077
L76426 29040
L76426 28927
L76407 28890
L76388 28871
L76351 28852
L76276 28852
L76238 28871
" />
<path d="M76070 29115
L76070 28721
" />
<path d="M75901 29115
L75901 28908
L75920 28871
L75957 28852
L76013 28852
L76051 28871
L76070 28890
" />
<path d="M75751 28721
L75488 28721
L75657 29115
" />
<path d="M75357 29096
L75301 29115
L75207 29115
L75170 29096
L75151 29077
L75132 29040
L75132 29002
L75151 28965
L75170 28946
L75207 28927
L75282 28908
L75320 28890
L75338 28871
L75357 28833
L75357 28796
L75338 28758
L75320 28740
L75282 28721
L75188 28721
L75132 28740
" />
<path d="M74813 29096
L74851 29115
L74926 29115
L74963 29096
L74982 29058
L74982 28908
L74963 28871
L74926 28852
L74851 28852
L74813 28871
L74795 28908
L74795 28946
L74982 28983
" />
<path d="M74457 28852
L74457 29171
L74476 29208
L74495 29227
L74532 29246
L74588 29246
L74626 29227
" />
<path d="M74457 29096
L74495 29115
L74570 29115
L74607 29096
L74626 29077
L74645 29040
L74645 28927
L74626 28890
L74607 28871
L74570 28852
L74495 28852
L74457 28871
" />
<path d="M74270 29115
L74270 28852
" />
<path d="M74270 28890
L74251 28871
L74214 28852
L74157 28852
L74120 28871
L74101 28908
L74101 29115
" />
<path d="M74101 28908
L74082 28871
L74045 28852
L73989 28852
L73951 28871
L73932 28908
L73932 29115
" />
<path d="M73595 29096
L73632 29115
L73707 29115
L73745 29096
L73764 29058
L73764 28908
L73745 28871
L73707 28852
L73632 28852
L73595 28871
L73576 28908
L73576 28946
L73764 28983
" />
<path d="M73407 28852
L73407 29115
" />
<path d="M73407 28890
L73389 28871
L73351 28852
L73295 28852
L73257 28871
L73239 28908
L73239 29115
" />
<path d="M73107 28852
L72957 28852
" />
<path d="M73051 28721
L73051 29058
L73032 29096
L72995 29115
L72957 29115
" />
<path d="M72826 29115
L72826 28721
L72732 28721
L72676 28740
L72639 28777
L72620 28815
L72601 28890
L72601 28946
L72620 29021
L72639 29058
L72676 29096
L72732 29115
L72826 29115
" />
<path d="M72432 29115
L72432 28852
" />
<path d="M72432 28721
L72451 28740
L72432 28758
L72414 28740
L72432 28721
L72432 28758
" />
<path d="M72264 29096
L72226 29115
L72151 29115
L72114 29096
L72095 29058
L72095 29040
L72114 29002
L72151 28983
L72208 28983
L72245 28965
L72264 28927
L72264 28908
L72245 28871
L72208 28852
L72151 28852
L72114 28871
" />
<path d="M71926 28852
L71926 29246
" />
<path d="M71926 28871
L71889 28852
L71814 28852
L71776 28871
L71758 28890
L71739 28927
L71739 29040
L71758 29077
L71776 29096
L71814 29115
L71889 29115
L71926 29096
" />
<path d="M71514 29115
L71551 29096
L71570 29058
L71570 28721
" />
<path d="M71195 29115
L71195 28908
L71214 28871
L71251 28852
L71326 28852
L71364 28871
" />
<path d="M71195 29096
L71233 29115
L71326 29115
L71364 29096
L71383 29058
L71383 29021
L71364 28983
L71326 28965
L71233 28965
L71195 28946
" />
<path d="M71045 28852
L70951 29115
" />
<path d="M70858 28852
L70951 29115
L70989 29208
L71008 29227
L71045 29246
" />
<path d="M52315 28758
L52296 28740
L52258 28721
L52165 28721
L52127 28740
L52108 28758
L52090 28796
L52090 28833
L52108 28890
L52333 29115
L52090 29115
" />
<path d="M51921 29077
L51902 29096
L51921 29115
L51940 29096
L51921 29077
L51921 29115
" />
<path d="M51771 28721
L51527 28721
L51659 28871
L51602 28871
L51565 28890
L51546 28908
L51527 28946
L51527 29040
L51546 29077
L51565 29096
L51602 29115
L51715 29115
L51752 29096
L51771 29077
" />
<path d="M51359 29115
L51359 28852
" />
<path d="M51359 28721
L51377 28740
L51359 28758
L51340 28740
L51359 28721
L51359 28758
" />
<path d="M51171 28852
L51171 29115
" />
<path d="M51171 28890
L51152 28871
L51115 28852
L51059 28852
L51021 28871
L51002 28908
L51002 29115
" />
<path d="M50646 29096
L50684 29115
L50759 29115
L50796 29096
L50815 29077
L50834 29040
L50834 28927
L50815 28890
L50796 28871
L50759 28852
L50684 28852
L50646 28871
" />
<path d="M50477 29115
L50477 28721
" />
<path d="M50309 29115
L50309 28908
L50327 28871
L50365 28852
L50421 28852
L50459 28871
L50477 28890
" />
<path d="M50159 28721
L49896 28721
L50065 29115
" />
<path d="M49765 29096
L49709 29115
L49615 29115
L49578 29096
L49559 29077
L49540 29040
L49540 29002
L49559 28965
L49578 28946
L49615 28927
L49690 28908
L49728 28890
L49746 28871
L49765 28833
L49765 28796
L49746 28758
L49728 28740
L49690 28721
L49596 28721
L49540 28740
" />
<path d="M49221 29096
L49259 29115
L49334 29115
L49371 29096
L49390 29058
L49390 28908
L49371 28871
L49334 28852
L49259 28852
L49221 28871
L49203 28908
L49203 28946
L49390 28983
" />
<path d="M48865 28852
L48865 29171
L48884 29208
L48903 29227
L48940 29246
L48996 29246
L49034 29227
" />
<path d="M48865 29096
L48903 29115
L48978 29115
L49015 29096
L49034 29077
L49053 29040
L49053 28927
L49034 28890
L49015 28871
L48978 28852
L48903 28852
L48865 28871
" />
<path d="M48678 29115
L48678 28852
" />
<path d="M48678 28890
L48659 28871
L48621 28852
L48565 28852
L48528 28871
L48509 28908
L48509 29115
" />
<path d="M48509 28908
L48490 28871
L48453 28852
L48396 28852
L48359 28871
L48340 28908
L48340 29115
" />
<path d="M48003 29096
L48040 29115
L48115 29115
L48153 29096
L48171 29058
L48171 28908
L48153 28871
L48115 28852
L48040 28852
L48003 28871
L47984 28908
L47984 28946
L48171 28983
" />
<path d="M47815 28852
L47815 29115
" />
<path d="M47815 28890
L47797 28871
L47759 28852
L47703 28852
L47665 28871
L47647 28908
L47647 29115
" />
<path d="M47515 28852
L47365 28852
" />
<path d="M47459 28721
L47459 29058
L47440 29096
L47403 29115
L47365 29115
" />
<path d="M47234 29115
L47234 28721
L47140 28721
L47084 28740
L47047 28777
L47028 28815
L47009 28890
L47009 28946
L47028 29021
L47047 29058
L47084 29096
L47140 29115
L47234 29115
" />
<path d="M46840 29115
L46840 28852
" />
<path d="M46840 28721
L46859 28740
L46840 28758
L46822 28740
L46840 28721
L46840 28758
" />
<path d="M46672 29096
L46634 29115
L46559 29115
L46522 29096
L46503 29058
L46503 29040
L46522 29002
L46559 28983
L46615 28983
L46653 28965
L46672 28927
L46672 28908
L46653 28871
L46615 28852
L46559 28852
L46522 28871
" />
<path d="M46334 28852
L46334 29246
" />
<path d="M46334 28871
L46297 28852
L46222 28852
L46184 28871
L46165 28890
L46147 28927
L46147 29040
L46165 29077
L46184 29096
L46222 29115
L46297 29115
L46334 29096
" />
<path d="M45922 29115
L45959 29096
L45978 29058
L45978 28721
" />
<path d="M45603 29115
L45603 28908
L45622 28871
L45659 28852
L45734 28852
L45772 28871
" />
<path d="M45603 29096
L45641 29115
L45734 29115
L45772 29096
L45791 29058
L45791 29021
L45772 28983
L45734 28965
L45641 28965
L45603 28946
" />
<path d="M45453 28852
L45359 29115
" />
<path d="M45266 28852
L45359 29115
L45397 29208
L45416 29227
L45453 29246
" />
</g>
<g style="fill:#000084; fill-opacity:0.0; 
stroke:#000084; stroke-width:62.9921; stroke-opacity:1; 
stroke-linecap:round; stroke-linejoin:round;">
<path d="M60840 22997
L60840 22525
L60728 22525
L60660 22548
L60615 22593
L60593 22638
L60570 22728
L60570 22795
L60593 22885
L60615 22930
L60660 22975
L60728 22997
L60840 22997
" />
<path d="M60390 22570
L60368 22548
L60323 22525
L60210 22525
L60165 22548
L60143 22570
L60120 22615
L60120 22660
L60143 22728
L60413 22997
L60120 22997
" />
<path d="M62840 35629
L62840 35157
L62728 35157
L62660 35179
L62615 35224
L62593 35269
L62570 35359
L62570 35426
L62593 35516
L62615 35561
L62660 35606
L62728 35629
L62840 35629
" />
<path d="M62120 35629
L62390 35629
" />
<path d="M62255 35629
L62255 35157
L62300 35224
L62345 35269
L62390 35292
" />
<g >
</g>
</g>
<g style="fill:#000000; fill-opacity:0.0; 
stroke:#000000; stroke-width:62.9921; stroke-opacity:1; 
stroke-linecap:round; stroke-linejoin:round;">
</g>
<g style="fill:#C2C200; fill-opacity:0.0; 
stroke:#C2C200; stroke-width:62.9921; stroke-opacity:1; 
stroke-linecap:round; stroke-linejoin:round;">
</g>
<g style="fill:#C2C200; fill-opacity:0.0; 
stroke:#C2C200; stroke-width:19.685; stroke-opacity:1; 
stroke-linecap:round; stroke-linejoin:round;">
<path d="M16910 43305
L23209 43305
" />
<path d="M106281 42517
L106280 43306
" />
<path d="M23209 43305
L106280 43306
" />
<path d="M16912 14960
L16910 43305
" />
<path d="M99981 14962
L106280 14960
" />
<path d="M106280 14960
L106281 42517
" />
<path d="M16912 14960
L99981 14962
" />
<g >
</g>
<g >
</g>
<g >
</g>
<g >
</g>
<g >
</g>
<g >
</g>
<g >
</g>
<g >
</g>
<g >
</g>
<g >
</g>
<g >
</g>
<g >
</g>
<g >
</g>
<g >
</g>
<g >
</g>
<g >
</g>
<g >
</g>
<g >
</g>
<g >
</g>
<g >
</g>
<g >
</g>
<g >
</g>
<g >
</g>
<g >
</g>
<g >
</g>
<g >
</g>
<g >
</g>
<g >
</g>
<g >
</g>
<g >
</g>
<g >
</g>
<g >
</g>
<g >
</g>
<g >
</g>
<g >
</g>
<g >
</g>
<g >
</g>
<g >
</g>
<g >
</g>
<g >
</g>
<g >
</g>
<g >
</g>
<g >
</g>
<g >
</g>
<g >
</g>
<g >
</g>
<g >
</g>
<g >
</g>
<g >
</g>
<g >
</g>
<g >
</g>
<g >
</g>
<g >
</g>
<g >
</g>
<g >
</g>
<g >
</g>
<g >
</g>
<g >
</g>
<g >
</g>
<g >
</g>
<g >
</g>
<g >
</g>
<g >
</g>
<g >
</g>
</g> 
</svg>
