G04 #@! TF.GenerationSoftware,KiCad,Pcbnew,5.1.4-e60b266~84~ubuntu18.04.1*
G04 #@! TF.CreationDate,2019-10-31T22:25:58+05:30*
G04 #@! TF.ProjectId,WemosClock,57656d6f-7343-46c6-9f63-6b2e6b696361,rev?*
G04 #@! TF.SameCoordinates,Original*
G04 #@! TF.FileFunction,Soldermask,Bot*
G04 #@! TF.FilePolarity,Negative*
%FSLAX46Y46*%
G04 Gerber Fmt 4.6, Leading zero omitted, Abs format (unit mm)*
G04 Created by KiCad (PCBNEW 5.1.4-e60b266~84~ubuntu18.04.1) date 2019-10-31 22:25:58*
%MOMM*%
%LPD*%
G04 APERTURE LIST*
%ADD10C,0.100000*%
G04 APERTURE END LIST*
D10*
G36*
X173488398Y-103157099D02*
G01*
X173679574Y-103236287D01*
X173679576Y-103236288D01*
X173851630Y-103351251D01*
X173997951Y-103497572D01*
X174112915Y-103669628D01*
X174192103Y-103860804D01*
X174232472Y-104063754D01*
X174232472Y-104270686D01*
X174192103Y-104473636D01*
X174186508Y-104487143D01*
X174112914Y-104664814D01*
X173997951Y-104836868D01*
X173851630Y-104983189D01*
X173679576Y-105098152D01*
X173679575Y-105098153D01*
X173679574Y-105098153D01*
X173488398Y-105177341D01*
X173285448Y-105217710D01*
X173078516Y-105217710D01*
X172875566Y-105177341D01*
X172684390Y-105098153D01*
X172684389Y-105098153D01*
X172684388Y-105098152D01*
X172512334Y-104983189D01*
X172366013Y-104836868D01*
X172251050Y-104664814D01*
X172177456Y-104487143D01*
X172171861Y-104473636D01*
X172131492Y-104270686D01*
X172131492Y-104063754D01*
X172171861Y-103860804D01*
X172251049Y-103669628D01*
X172366013Y-103497572D01*
X172512334Y-103351251D01*
X172684388Y-103236288D01*
X172684390Y-103236287D01*
X172875566Y-103157099D01*
X173078516Y-103116730D01*
X173285448Y-103116730D01*
X173488398Y-103157099D01*
X173488398Y-103157099D01*
G37*
G36*
X235651142Y-103468242D02*
G01*
X235799101Y-103529529D01*
X235932255Y-103618499D01*
X236045501Y-103731745D01*
X236134471Y-103864899D01*
X236195758Y-104012858D01*
X236227000Y-104169925D01*
X236227000Y-104330075D01*
X236195758Y-104487142D01*
X236134471Y-104635101D01*
X236045501Y-104768255D01*
X235932255Y-104881501D01*
X235799101Y-104970471D01*
X235651142Y-105031758D01*
X235494075Y-105063000D01*
X235333925Y-105063000D01*
X235176858Y-105031758D01*
X235028899Y-104970471D01*
X234895745Y-104881501D01*
X234782499Y-104768255D01*
X234693529Y-104635101D01*
X234632242Y-104487142D01*
X234601000Y-104330075D01*
X234601000Y-104169925D01*
X234632242Y-104012858D01*
X234693529Y-103864899D01*
X234782499Y-103731745D01*
X234895745Y-103618499D01*
X235028899Y-103529529D01*
X235176858Y-103468242D01*
X235333925Y-103437000D01*
X235494075Y-103437000D01*
X235651142Y-103468242D01*
X235651142Y-103468242D01*
G37*
G36*
X121649142Y-103468242D02*
G01*
X121797101Y-103529529D01*
X121930255Y-103618499D01*
X122043501Y-103731745D01*
X122132471Y-103864899D01*
X122193758Y-104012858D01*
X122225000Y-104169925D01*
X122225000Y-104330075D01*
X122193758Y-104487142D01*
X122132471Y-104635101D01*
X122043501Y-104768255D01*
X121930255Y-104881501D01*
X121797101Y-104970471D01*
X121649142Y-105031758D01*
X121492075Y-105063000D01*
X121331925Y-105063000D01*
X121174858Y-105031758D01*
X121026899Y-104970471D01*
X120893745Y-104881501D01*
X120780499Y-104768255D01*
X120691529Y-104635101D01*
X120630242Y-104487142D01*
X120599000Y-104330075D01*
X120599000Y-104169925D01*
X120630242Y-104012858D01*
X120691529Y-103864899D01*
X120780499Y-103731745D01*
X120893745Y-103618499D01*
X121026899Y-103529529D01*
X121174858Y-103468242D01*
X121331925Y-103437000D01*
X121492075Y-103437000D01*
X121649142Y-103468242D01*
X121649142Y-103468242D01*
G37*
G36*
X119109142Y-103468242D02*
G01*
X119257101Y-103529529D01*
X119390255Y-103618499D01*
X119503501Y-103731745D01*
X119592471Y-103864899D01*
X119653758Y-104012858D01*
X119685000Y-104169925D01*
X119685000Y-104330075D01*
X119653758Y-104487142D01*
X119592471Y-104635101D01*
X119503501Y-104768255D01*
X119390255Y-104881501D01*
X119257101Y-104970471D01*
X119109142Y-105031758D01*
X118952075Y-105063000D01*
X118791925Y-105063000D01*
X118634858Y-105031758D01*
X118486899Y-104970471D01*
X118353745Y-104881501D01*
X118240499Y-104768255D01*
X118151529Y-104635101D01*
X118090242Y-104487142D01*
X118059000Y-104330075D01*
X118059000Y-104169925D01*
X118090242Y-104012858D01*
X118151529Y-103864899D01*
X118240499Y-103731745D01*
X118353745Y-103618499D01*
X118486899Y-103529529D01*
X118634858Y-103468242D01*
X118791925Y-103437000D01*
X118952075Y-103437000D01*
X119109142Y-103468242D01*
X119109142Y-103468242D01*
G37*
G36*
X124189142Y-103468242D02*
G01*
X124337101Y-103529529D01*
X124470255Y-103618499D01*
X124583501Y-103731745D01*
X124672471Y-103864899D01*
X124733758Y-104012858D01*
X124765000Y-104169925D01*
X124765000Y-104330075D01*
X124733758Y-104487142D01*
X124672471Y-104635101D01*
X124583501Y-104768255D01*
X124470255Y-104881501D01*
X124337101Y-104970471D01*
X124189142Y-105031758D01*
X124032075Y-105063000D01*
X123871925Y-105063000D01*
X123714858Y-105031758D01*
X123566899Y-104970471D01*
X123433745Y-104881501D01*
X123320499Y-104768255D01*
X123231529Y-104635101D01*
X123170242Y-104487142D01*
X123139000Y-104330075D01*
X123139000Y-104169925D01*
X123170242Y-104012858D01*
X123231529Y-103864899D01*
X123320499Y-103731745D01*
X123433745Y-103618499D01*
X123566899Y-103529529D01*
X123714858Y-103468242D01*
X123871925Y-103437000D01*
X124032075Y-103437000D01*
X124189142Y-103468242D01*
X124189142Y-103468242D01*
G37*
G36*
X191733142Y-103468242D02*
G01*
X191881101Y-103529529D01*
X192014255Y-103618499D01*
X192127501Y-103731745D01*
X192216471Y-103864899D01*
X192277758Y-104012858D01*
X192309000Y-104169925D01*
X192309000Y-104330075D01*
X192277758Y-104487142D01*
X192216471Y-104635101D01*
X192127501Y-104768255D01*
X192014255Y-104881501D01*
X191881101Y-104970471D01*
X191733142Y-105031758D01*
X191576075Y-105063000D01*
X191415925Y-105063000D01*
X191258858Y-105031758D01*
X191110899Y-104970471D01*
X190977745Y-104881501D01*
X190864499Y-104768255D01*
X190775529Y-104635101D01*
X190714242Y-104487142D01*
X190683000Y-104330075D01*
X190683000Y-104169925D01*
X190714242Y-104012858D01*
X190775529Y-103864899D01*
X190864499Y-103731745D01*
X190977745Y-103618499D01*
X191110899Y-103529529D01*
X191258858Y-103468242D01*
X191415925Y-103437000D01*
X191576075Y-103437000D01*
X191733142Y-103468242D01*
X191733142Y-103468242D01*
G37*
G36*
X194273142Y-103468242D02*
G01*
X194421101Y-103529529D01*
X194554255Y-103618499D01*
X194667501Y-103731745D01*
X194756471Y-103864899D01*
X194817758Y-104012858D01*
X194849000Y-104169925D01*
X194849000Y-104330075D01*
X194817758Y-104487142D01*
X194756471Y-104635101D01*
X194667501Y-104768255D01*
X194554255Y-104881501D01*
X194421101Y-104970471D01*
X194273142Y-105031758D01*
X194116075Y-105063000D01*
X193955925Y-105063000D01*
X193798858Y-105031758D01*
X193650899Y-104970471D01*
X193517745Y-104881501D01*
X193404499Y-104768255D01*
X193315529Y-104635101D01*
X193254242Y-104487142D01*
X193223000Y-104330075D01*
X193223000Y-104169925D01*
X193254242Y-104012858D01*
X193315529Y-103864899D01*
X193404499Y-103731745D01*
X193517745Y-103618499D01*
X193650899Y-103529529D01*
X193798858Y-103468242D01*
X193955925Y-103437000D01*
X194116075Y-103437000D01*
X194273142Y-103468242D01*
X194273142Y-103468242D01*
G37*
G36*
X186653142Y-103468242D02*
G01*
X186801101Y-103529529D01*
X186934255Y-103618499D01*
X187047501Y-103731745D01*
X187136471Y-103864899D01*
X187197758Y-104012858D01*
X187229000Y-104169925D01*
X187229000Y-104330075D01*
X187197758Y-104487142D01*
X187136471Y-104635101D01*
X187047501Y-104768255D01*
X186934255Y-104881501D01*
X186801101Y-104970471D01*
X186653142Y-105031758D01*
X186496075Y-105063000D01*
X186335925Y-105063000D01*
X186178858Y-105031758D01*
X186030899Y-104970471D01*
X185897745Y-104881501D01*
X185784499Y-104768255D01*
X185695529Y-104635101D01*
X185634242Y-104487142D01*
X185603000Y-104330075D01*
X185603000Y-104169925D01*
X185634242Y-104012858D01*
X185695529Y-103864899D01*
X185784499Y-103731745D01*
X185897745Y-103618499D01*
X186030899Y-103529529D01*
X186178858Y-103468242D01*
X186335925Y-103437000D01*
X186496075Y-103437000D01*
X186653142Y-103468242D01*
X186653142Y-103468242D01*
G37*
G36*
X184113142Y-103468242D02*
G01*
X184261101Y-103529529D01*
X184394255Y-103618499D01*
X184507501Y-103731745D01*
X184596471Y-103864899D01*
X184657758Y-104012858D01*
X184689000Y-104169925D01*
X184689000Y-104330075D01*
X184657758Y-104487142D01*
X184596471Y-104635101D01*
X184507501Y-104768255D01*
X184394255Y-104881501D01*
X184261101Y-104970471D01*
X184113142Y-105031758D01*
X183956075Y-105063000D01*
X183795925Y-105063000D01*
X183638858Y-105031758D01*
X183490899Y-104970471D01*
X183357745Y-104881501D01*
X183244499Y-104768255D01*
X183155529Y-104635101D01*
X183094242Y-104487142D01*
X183063000Y-104330075D01*
X183063000Y-104169925D01*
X183094242Y-104012858D01*
X183155529Y-103864899D01*
X183244499Y-103731745D01*
X183357745Y-103618499D01*
X183490899Y-103529529D01*
X183638858Y-103468242D01*
X183795925Y-103437000D01*
X183956075Y-103437000D01*
X184113142Y-103468242D01*
X184113142Y-103468242D01*
G37*
G36*
X189193142Y-103468242D02*
G01*
X189341101Y-103529529D01*
X189474255Y-103618499D01*
X189587501Y-103731745D01*
X189676471Y-103864899D01*
X189737758Y-104012858D01*
X189769000Y-104169925D01*
X189769000Y-104330075D01*
X189737758Y-104487142D01*
X189676471Y-104635101D01*
X189587501Y-104768255D01*
X189474255Y-104881501D01*
X189341101Y-104970471D01*
X189193142Y-105031758D01*
X189036075Y-105063000D01*
X188875925Y-105063000D01*
X188718858Y-105031758D01*
X188570899Y-104970471D01*
X188437745Y-104881501D01*
X188324499Y-104768255D01*
X188235529Y-104635101D01*
X188174242Y-104487142D01*
X188143000Y-104330075D01*
X188143000Y-104169925D01*
X188174242Y-104012858D01*
X188235529Y-103864899D01*
X188324499Y-103731745D01*
X188437745Y-103618499D01*
X188570899Y-103529529D01*
X188718858Y-103468242D01*
X188875925Y-103437000D01*
X189036075Y-103437000D01*
X189193142Y-103468242D01*
X189193142Y-103468242D01*
G37*
G36*
X240731142Y-103468242D02*
G01*
X240879101Y-103529529D01*
X241012255Y-103618499D01*
X241125501Y-103731745D01*
X241214471Y-103864899D01*
X241275758Y-104012858D01*
X241307000Y-104169925D01*
X241307000Y-104330075D01*
X241275758Y-104487142D01*
X241214471Y-104635101D01*
X241125501Y-104768255D01*
X241012255Y-104881501D01*
X240879101Y-104970471D01*
X240731142Y-105031758D01*
X240574075Y-105063000D01*
X240413925Y-105063000D01*
X240256858Y-105031758D01*
X240108899Y-104970471D01*
X239975745Y-104881501D01*
X239862499Y-104768255D01*
X239773529Y-104635101D01*
X239712242Y-104487142D01*
X239681000Y-104330075D01*
X239681000Y-104169925D01*
X239712242Y-104012858D01*
X239773529Y-103864899D01*
X239862499Y-103731745D01*
X239975745Y-103618499D01*
X240108899Y-103529529D01*
X240256858Y-103468242D01*
X240413925Y-103437000D01*
X240574075Y-103437000D01*
X240731142Y-103468242D01*
X240731142Y-103468242D01*
G37*
G36*
X77732142Y-103468242D02*
G01*
X77880101Y-103529529D01*
X78013255Y-103618499D01*
X78126501Y-103731745D01*
X78215471Y-103864899D01*
X78276758Y-104012858D01*
X78308000Y-104169925D01*
X78308000Y-104330075D01*
X78276758Y-104487142D01*
X78215471Y-104635101D01*
X78126501Y-104768255D01*
X78013255Y-104881501D01*
X77880101Y-104970471D01*
X77732142Y-105031758D01*
X77575075Y-105063000D01*
X77414925Y-105063000D01*
X77257858Y-105031758D01*
X77109899Y-104970471D01*
X76976745Y-104881501D01*
X76863499Y-104768255D01*
X76774529Y-104635101D01*
X76713242Y-104487142D01*
X76682000Y-104330075D01*
X76682000Y-104169925D01*
X76713242Y-104012858D01*
X76774529Y-103864899D01*
X76863499Y-103731745D01*
X76976745Y-103618499D01*
X77109899Y-103529529D01*
X77257858Y-103468242D01*
X77414925Y-103437000D01*
X77575075Y-103437000D01*
X77732142Y-103468242D01*
X77732142Y-103468242D01*
G37*
G36*
X243271142Y-103468242D02*
G01*
X243419101Y-103529529D01*
X243552255Y-103618499D01*
X243665501Y-103731745D01*
X243754471Y-103864899D01*
X243815758Y-104012858D01*
X243847000Y-104169925D01*
X243847000Y-104330075D01*
X243815758Y-104487142D01*
X243754471Y-104635101D01*
X243665501Y-104768255D01*
X243552255Y-104881501D01*
X243419101Y-104970471D01*
X243271142Y-105031758D01*
X243114075Y-105063000D01*
X242953925Y-105063000D01*
X242796858Y-105031758D01*
X242648899Y-104970471D01*
X242515745Y-104881501D01*
X242402499Y-104768255D01*
X242313529Y-104635101D01*
X242252242Y-104487142D01*
X242221000Y-104330075D01*
X242221000Y-104169925D01*
X242252242Y-104012858D01*
X242313529Y-103864899D01*
X242402499Y-103731745D01*
X242515745Y-103618499D01*
X242648899Y-103529529D01*
X242796858Y-103468242D01*
X242953925Y-103437000D01*
X243114075Y-103437000D01*
X243271142Y-103468242D01*
X243271142Y-103468242D01*
G37*
G36*
X80272142Y-103468242D02*
G01*
X80420101Y-103529529D01*
X80553255Y-103618499D01*
X80666501Y-103731745D01*
X80755471Y-103864899D01*
X80816758Y-104012858D01*
X80848000Y-104169925D01*
X80848000Y-104330075D01*
X80816758Y-104487142D01*
X80755471Y-104635101D01*
X80666501Y-104768255D01*
X80553255Y-104881501D01*
X80420101Y-104970471D01*
X80272142Y-105031758D01*
X80115075Y-105063000D01*
X79954925Y-105063000D01*
X79797858Y-105031758D01*
X79649899Y-104970471D01*
X79516745Y-104881501D01*
X79403499Y-104768255D01*
X79314529Y-104635101D01*
X79253242Y-104487142D01*
X79222000Y-104330075D01*
X79222000Y-104169925D01*
X79253242Y-104012858D01*
X79314529Y-103864899D01*
X79403499Y-103731745D01*
X79516745Y-103618499D01*
X79649899Y-103529529D01*
X79797858Y-103468242D01*
X79954925Y-103437000D01*
X80115075Y-103437000D01*
X80272142Y-103468242D01*
X80272142Y-103468242D01*
G37*
G36*
X72652142Y-103468242D02*
G01*
X72800101Y-103529529D01*
X72933255Y-103618499D01*
X73046501Y-103731745D01*
X73135471Y-103864899D01*
X73196758Y-104012858D01*
X73228000Y-104169925D01*
X73228000Y-104330075D01*
X73196758Y-104487142D01*
X73135471Y-104635101D01*
X73046501Y-104768255D01*
X72933255Y-104881501D01*
X72800101Y-104970471D01*
X72652142Y-105031758D01*
X72495075Y-105063000D01*
X72334925Y-105063000D01*
X72177858Y-105031758D01*
X72029899Y-104970471D01*
X71896745Y-104881501D01*
X71783499Y-104768255D01*
X71694529Y-104635101D01*
X71633242Y-104487142D01*
X71602000Y-104330075D01*
X71602000Y-104169925D01*
X71633242Y-104012858D01*
X71694529Y-103864899D01*
X71783499Y-103731745D01*
X71896745Y-103618499D01*
X72029899Y-103529529D01*
X72177858Y-103468242D01*
X72334925Y-103437000D01*
X72495075Y-103437000D01*
X72652142Y-103468242D01*
X72652142Y-103468242D01*
G37*
G36*
X70112142Y-103468242D02*
G01*
X70260101Y-103529529D01*
X70393255Y-103618499D01*
X70506501Y-103731745D01*
X70595471Y-103864899D01*
X70656758Y-104012858D01*
X70688000Y-104169925D01*
X70688000Y-104330075D01*
X70656758Y-104487142D01*
X70595471Y-104635101D01*
X70506501Y-104768255D01*
X70393255Y-104881501D01*
X70260101Y-104970471D01*
X70112142Y-105031758D01*
X69955075Y-105063000D01*
X69794925Y-105063000D01*
X69637858Y-105031758D01*
X69489899Y-104970471D01*
X69356745Y-104881501D01*
X69243499Y-104768255D01*
X69154529Y-104635101D01*
X69093242Y-104487142D01*
X69062000Y-104330075D01*
X69062000Y-104169925D01*
X69093242Y-104012858D01*
X69154529Y-103864899D01*
X69243499Y-103731745D01*
X69356745Y-103618499D01*
X69489899Y-103529529D01*
X69637858Y-103468242D01*
X69794925Y-103437000D01*
X69955075Y-103437000D01*
X70112142Y-103468242D01*
X70112142Y-103468242D01*
G37*
G36*
X75192142Y-103468242D02*
G01*
X75340101Y-103529529D01*
X75473255Y-103618499D01*
X75586501Y-103731745D01*
X75675471Y-103864899D01*
X75736758Y-104012858D01*
X75768000Y-104169925D01*
X75768000Y-104330075D01*
X75736758Y-104487142D01*
X75675471Y-104635101D01*
X75586501Y-104768255D01*
X75473255Y-104881501D01*
X75340101Y-104970471D01*
X75192142Y-105031758D01*
X75035075Y-105063000D01*
X74874925Y-105063000D01*
X74717858Y-105031758D01*
X74569899Y-104970471D01*
X74436745Y-104881501D01*
X74323499Y-104768255D01*
X74234529Y-104635101D01*
X74173242Y-104487142D01*
X74142000Y-104330075D01*
X74142000Y-104169925D01*
X74173242Y-104012858D01*
X74234529Y-103864899D01*
X74323499Y-103731745D01*
X74436745Y-103618499D01*
X74569899Y-103529529D01*
X74717858Y-103468242D01*
X74874925Y-103437000D01*
X75035075Y-103437000D01*
X75192142Y-103468242D01*
X75192142Y-103468242D01*
G37*
G36*
X126729142Y-103468242D02*
G01*
X126877101Y-103529529D01*
X127010255Y-103618499D01*
X127123501Y-103731745D01*
X127212471Y-103864899D01*
X127273758Y-104012858D01*
X127305000Y-104169925D01*
X127305000Y-104330075D01*
X127273758Y-104487142D01*
X127212471Y-104635101D01*
X127123501Y-104768255D01*
X127010255Y-104881501D01*
X126877101Y-104970471D01*
X126729142Y-105031758D01*
X126572075Y-105063000D01*
X126411925Y-105063000D01*
X126254858Y-105031758D01*
X126106899Y-104970471D01*
X125973745Y-104881501D01*
X125860499Y-104768255D01*
X125771529Y-104635101D01*
X125710242Y-104487142D01*
X125679000Y-104330075D01*
X125679000Y-104169925D01*
X125710242Y-104012858D01*
X125771529Y-103864899D01*
X125860499Y-103731745D01*
X125973745Y-103618499D01*
X126106899Y-103529529D01*
X126254858Y-103468242D01*
X126411925Y-103437000D01*
X126572075Y-103437000D01*
X126729142Y-103468242D01*
X126729142Y-103468242D01*
G37*
G36*
X129269142Y-103468242D02*
G01*
X129417101Y-103529529D01*
X129550255Y-103618499D01*
X129663501Y-103731745D01*
X129752471Y-103864899D01*
X129813758Y-104012858D01*
X129845000Y-104169925D01*
X129845000Y-104330075D01*
X129813758Y-104487142D01*
X129752471Y-104635101D01*
X129663501Y-104768255D01*
X129550255Y-104881501D01*
X129417101Y-104970471D01*
X129269142Y-105031758D01*
X129112075Y-105063000D01*
X128951925Y-105063000D01*
X128794858Y-105031758D01*
X128646899Y-104970471D01*
X128513745Y-104881501D01*
X128400499Y-104768255D01*
X128311529Y-104635101D01*
X128250242Y-104487142D01*
X128219000Y-104330075D01*
X128219000Y-104169925D01*
X128250242Y-104012858D01*
X128311529Y-103864899D01*
X128400499Y-103731745D01*
X128513745Y-103618499D01*
X128646899Y-103529529D01*
X128794858Y-103468242D01*
X128951925Y-103437000D01*
X129112075Y-103437000D01*
X129269142Y-103468242D01*
X129269142Y-103468242D01*
G37*
G36*
X238191142Y-103468242D02*
G01*
X238339101Y-103529529D01*
X238472255Y-103618499D01*
X238585501Y-103731745D01*
X238674471Y-103864899D01*
X238735758Y-104012858D01*
X238767000Y-104169925D01*
X238767000Y-104330075D01*
X238735758Y-104487142D01*
X238674471Y-104635101D01*
X238585501Y-104768255D01*
X238472255Y-104881501D01*
X238339101Y-104970471D01*
X238191142Y-105031758D01*
X238034075Y-105063000D01*
X237873925Y-105063000D01*
X237716858Y-105031758D01*
X237568899Y-104970471D01*
X237435745Y-104881501D01*
X237322499Y-104768255D01*
X237233529Y-104635101D01*
X237172242Y-104487142D01*
X237141000Y-104330075D01*
X237141000Y-104169925D01*
X237172242Y-104012858D01*
X237233529Y-103864899D01*
X237322499Y-103731745D01*
X237435745Y-103618499D01*
X237568899Y-103529529D01*
X237716858Y-103468242D01*
X237873925Y-103437000D01*
X238034075Y-103437000D01*
X238191142Y-103468242D01*
X238191142Y-103468242D01*
G37*
G36*
X233111142Y-103468242D02*
G01*
X233259101Y-103529529D01*
X233392255Y-103618499D01*
X233505501Y-103731745D01*
X233594471Y-103864899D01*
X233655758Y-104012858D01*
X233687000Y-104169925D01*
X233687000Y-104330075D01*
X233655758Y-104487142D01*
X233594471Y-104635101D01*
X233505501Y-104768255D01*
X233392255Y-104881501D01*
X233259101Y-104970471D01*
X233111142Y-105031758D01*
X232954075Y-105063000D01*
X232793925Y-105063000D01*
X232636858Y-105031758D01*
X232488899Y-104970471D01*
X232355745Y-104881501D01*
X232242499Y-104768255D01*
X232153529Y-104635101D01*
X232092242Y-104487142D01*
X232061000Y-104330075D01*
X232061000Y-104169925D01*
X232092242Y-104012858D01*
X232153529Y-103864899D01*
X232242499Y-103731745D01*
X232355745Y-103618499D01*
X232488899Y-103529529D01*
X232636858Y-103468242D01*
X232793925Y-103437000D01*
X232954075Y-103437000D01*
X233111142Y-103468242D01*
X233111142Y-103468242D01*
G37*
G36*
X266220941Y-98439133D02*
G01*
X266361596Y-98467111D01*
X266662059Y-98591567D01*
X266932468Y-98772249D01*
X267162432Y-99002213D01*
X267343114Y-99272622D01*
X267455982Y-99545108D01*
X267467570Y-99573086D01*
X267525452Y-99864075D01*
X267531017Y-99892055D01*
X267531017Y-100217273D01*
X267467570Y-100536243D01*
X267343114Y-100836706D01*
X267162432Y-101107115D01*
X266932468Y-101337079D01*
X266662059Y-101517761D01*
X266361596Y-101642217D01*
X266255273Y-101663366D01*
X266042628Y-101705664D01*
X265717406Y-101705664D01*
X265504761Y-101663366D01*
X265398438Y-101642217D01*
X265097975Y-101517761D01*
X264827566Y-101337079D01*
X264597602Y-101107115D01*
X264416920Y-100836706D01*
X264292464Y-100536243D01*
X264229017Y-100217273D01*
X264229017Y-99892055D01*
X264234583Y-99864075D01*
X264292464Y-99573086D01*
X264304053Y-99545108D01*
X264416920Y-99272622D01*
X264597602Y-99002213D01*
X264827566Y-98772249D01*
X265097975Y-98591567D01*
X265398438Y-98467111D01*
X265539093Y-98439133D01*
X265717406Y-98403664D01*
X266042628Y-98403664D01*
X266220941Y-98439133D01*
X266220941Y-98439133D01*
G37*
G36*
X47329716Y-98417984D02*
G01*
X47436039Y-98439133D01*
X47736502Y-98563589D01*
X48006911Y-98744271D01*
X48236875Y-98974235D01*
X48417557Y-99244644D01*
X48417558Y-99244646D01*
X48542013Y-99545108D01*
X48605460Y-99864075D01*
X48605460Y-100189297D01*
X48563162Y-100401942D01*
X48542013Y-100508265D01*
X48417557Y-100808728D01*
X48236875Y-101079137D01*
X48006911Y-101309101D01*
X47736502Y-101489783D01*
X47436039Y-101614239D01*
X47329716Y-101635388D01*
X47117071Y-101677686D01*
X46791849Y-101677686D01*
X46579204Y-101635388D01*
X46472881Y-101614239D01*
X46172418Y-101489783D01*
X45902009Y-101309101D01*
X45672045Y-101079137D01*
X45491363Y-100808728D01*
X45366907Y-100508265D01*
X45345758Y-100401942D01*
X45303460Y-100189297D01*
X45303460Y-99864075D01*
X45366907Y-99545108D01*
X45491362Y-99244646D01*
X45491363Y-99244644D01*
X45672045Y-98974235D01*
X45902009Y-98744271D01*
X46172418Y-98563589D01*
X46472881Y-98439133D01*
X46579204Y-98417984D01*
X46791849Y-98375686D01*
X47117071Y-98375686D01*
X47329716Y-98417984D01*
X47329716Y-98417984D01*
G37*
G36*
X184124228Y-96185703D02*
G01*
X184279100Y-96249853D01*
X184418481Y-96342985D01*
X184537015Y-96461519D01*
X184630147Y-96600900D01*
X184694297Y-96755772D01*
X184727000Y-96920184D01*
X184727000Y-97087816D01*
X184694297Y-97252228D01*
X184630147Y-97407100D01*
X184537015Y-97546481D01*
X184418481Y-97665015D01*
X184279100Y-97758147D01*
X184124228Y-97822297D01*
X183959816Y-97855000D01*
X183792184Y-97855000D01*
X183627772Y-97822297D01*
X183472900Y-97758147D01*
X183333519Y-97665015D01*
X183214985Y-97546481D01*
X183121853Y-97407100D01*
X183057703Y-97252228D01*
X183025000Y-97087816D01*
X183025000Y-96920184D01*
X183057703Y-96755772D01*
X183121853Y-96600900D01*
X183214985Y-96461519D01*
X183333519Y-96342985D01*
X183472900Y-96249853D01*
X183627772Y-96185703D01*
X183792184Y-96153000D01*
X183959816Y-96153000D01*
X184124228Y-96185703D01*
X184124228Y-96185703D01*
G37*
G36*
X194202823Y-96165313D02*
G01*
X194363242Y-96213976D01*
X194466781Y-96269319D01*
X194511078Y-96292996D01*
X194640659Y-96399341D01*
X194747004Y-96528922D01*
X194752520Y-96539241D01*
X194826024Y-96676758D01*
X194874687Y-96837177D01*
X194891117Y-97004000D01*
X194874687Y-97170823D01*
X194826024Y-97331242D01*
X194785477Y-97407100D01*
X194747004Y-97479078D01*
X194640659Y-97608659D01*
X194511078Y-97715004D01*
X194511076Y-97715005D01*
X194363242Y-97794024D01*
X194202823Y-97842687D01*
X194077804Y-97855000D01*
X193994196Y-97855000D01*
X193869177Y-97842687D01*
X193708758Y-97794024D01*
X193560924Y-97715005D01*
X193560922Y-97715004D01*
X193431341Y-97608659D01*
X193324996Y-97479078D01*
X193286523Y-97407100D01*
X193245976Y-97331242D01*
X193197313Y-97170823D01*
X193180883Y-97004000D01*
X193197313Y-96837177D01*
X193245976Y-96676758D01*
X193319480Y-96539241D01*
X193324996Y-96528922D01*
X193431341Y-96399341D01*
X193560922Y-96292996D01*
X193605219Y-96269319D01*
X193708758Y-96213976D01*
X193869177Y-96165313D01*
X193994196Y-96153000D01*
X194077804Y-96153000D01*
X194202823Y-96165313D01*
X194202823Y-96165313D01*
G37*
G36*
X98718823Y-94973313D02*
G01*
X98879242Y-95021976D01*
X99011906Y-95092886D01*
X99027078Y-95100996D01*
X99156659Y-95207341D01*
X99263004Y-95336922D01*
X99263005Y-95336924D01*
X99342024Y-95484758D01*
X99390687Y-95645178D01*
X99403000Y-95770197D01*
X99403000Y-96253804D01*
X99390687Y-96378823D01*
X99342024Y-96539242D01*
X99333601Y-96555000D01*
X99263004Y-96687078D01*
X99206628Y-96755772D01*
X99156659Y-96816659D01*
X99027077Y-96923005D01*
X98879241Y-97002024D01*
X98718822Y-97050687D01*
X98552000Y-97067117D01*
X98385177Y-97050687D01*
X98224758Y-97002024D01*
X98076924Y-96923005D01*
X98076922Y-96923004D01*
X97947341Y-96816659D01*
X97897372Y-96755772D01*
X97840995Y-96687077D01*
X97761976Y-96539241D01*
X97754505Y-96514611D01*
X97752917Y-96509379D01*
X97713313Y-96378822D01*
X97701000Y-96253803D01*
X97701000Y-95770196D01*
X97713313Y-95645177D01*
X97761976Y-95484758D01*
X97840995Y-95336924D01*
X97840996Y-95336922D01*
X97947342Y-95207341D01*
X98076923Y-95100996D01*
X98092095Y-95092886D01*
X98224759Y-95021976D01*
X98385178Y-94973313D01*
X98552000Y-94956883D01*
X98718823Y-94973313D01*
X98718823Y-94973313D01*
G37*
G36*
X108878823Y-94973313D02*
G01*
X109039242Y-95021976D01*
X109171906Y-95092886D01*
X109187078Y-95100996D01*
X109316659Y-95207341D01*
X109423004Y-95336922D01*
X109423005Y-95336924D01*
X109502024Y-95484758D01*
X109550687Y-95645178D01*
X109563000Y-95770197D01*
X109563000Y-96253804D01*
X109550687Y-96378823D01*
X109502024Y-96539242D01*
X109493601Y-96555000D01*
X109423004Y-96687078D01*
X109366628Y-96755772D01*
X109316659Y-96816659D01*
X109187077Y-96923005D01*
X109039241Y-97002024D01*
X108878822Y-97050687D01*
X108712000Y-97067117D01*
X108545177Y-97050687D01*
X108384758Y-97002024D01*
X108236924Y-96923005D01*
X108236922Y-96923004D01*
X108107341Y-96816659D01*
X108057372Y-96755772D01*
X108000995Y-96687077D01*
X107921976Y-96539241D01*
X107914505Y-96514611D01*
X107912917Y-96509379D01*
X107873313Y-96378822D01*
X107861000Y-96253803D01*
X107861000Y-95770196D01*
X107873313Y-95645177D01*
X107921976Y-95484758D01*
X108000995Y-95336924D01*
X108000996Y-95336922D01*
X108107342Y-95207341D01*
X108236923Y-95100996D01*
X108252095Y-95092886D01*
X108384759Y-95021976D01*
X108545178Y-94973313D01*
X108712000Y-94956883D01*
X108878823Y-94973313D01*
X108878823Y-94973313D01*
G37*
G36*
X106338823Y-94973313D02*
G01*
X106499242Y-95021976D01*
X106631906Y-95092886D01*
X106647078Y-95100996D01*
X106776659Y-95207341D01*
X106883004Y-95336922D01*
X106883005Y-95336924D01*
X106962024Y-95484758D01*
X107010687Y-95645178D01*
X107023000Y-95770197D01*
X107023000Y-96253804D01*
X107010687Y-96378823D01*
X106962024Y-96539242D01*
X106953601Y-96555000D01*
X106883004Y-96687078D01*
X106826628Y-96755772D01*
X106776659Y-96816659D01*
X106647077Y-96923005D01*
X106499241Y-97002024D01*
X106338822Y-97050687D01*
X106172000Y-97067117D01*
X106005177Y-97050687D01*
X105844758Y-97002024D01*
X105696924Y-96923005D01*
X105696922Y-96923004D01*
X105567341Y-96816659D01*
X105517372Y-96755772D01*
X105460995Y-96687077D01*
X105381976Y-96539241D01*
X105374505Y-96514611D01*
X105372917Y-96509379D01*
X105333313Y-96378822D01*
X105321000Y-96253803D01*
X105321000Y-95770196D01*
X105333313Y-95645177D01*
X105381976Y-95484758D01*
X105460995Y-95336924D01*
X105460996Y-95336922D01*
X105567342Y-95207341D01*
X105696923Y-95100996D01*
X105712095Y-95092886D01*
X105844759Y-95021976D01*
X106005178Y-94973313D01*
X106172000Y-94956883D01*
X106338823Y-94973313D01*
X106338823Y-94973313D01*
G37*
G36*
X103798823Y-94973313D02*
G01*
X103959242Y-95021976D01*
X104091906Y-95092886D01*
X104107078Y-95100996D01*
X104236659Y-95207341D01*
X104343004Y-95336922D01*
X104343005Y-95336924D01*
X104422024Y-95484758D01*
X104470687Y-95645178D01*
X104483000Y-95770197D01*
X104483000Y-96253804D01*
X104470687Y-96378823D01*
X104422024Y-96539242D01*
X104413601Y-96555000D01*
X104343004Y-96687078D01*
X104286628Y-96755772D01*
X104236659Y-96816659D01*
X104107077Y-96923005D01*
X103959241Y-97002024D01*
X103798822Y-97050687D01*
X103632000Y-97067117D01*
X103465177Y-97050687D01*
X103304758Y-97002024D01*
X103156924Y-96923005D01*
X103156922Y-96923004D01*
X103027341Y-96816659D01*
X102977372Y-96755772D01*
X102920995Y-96687077D01*
X102841976Y-96539241D01*
X102834505Y-96514611D01*
X102832917Y-96509379D01*
X102793313Y-96378822D01*
X102781000Y-96253803D01*
X102781000Y-95770196D01*
X102793313Y-95645177D01*
X102841976Y-95484758D01*
X102920995Y-95336924D01*
X102920996Y-95336922D01*
X103027342Y-95207341D01*
X103156923Y-95100996D01*
X103172095Y-95092886D01*
X103304759Y-95021976D01*
X103465178Y-94973313D01*
X103632000Y-94956883D01*
X103798823Y-94973313D01*
X103798823Y-94973313D01*
G37*
G36*
X96178823Y-94973313D02*
G01*
X96339242Y-95021976D01*
X96471906Y-95092886D01*
X96487078Y-95100996D01*
X96616659Y-95207341D01*
X96723004Y-95336922D01*
X96723005Y-95336924D01*
X96802024Y-95484758D01*
X96850687Y-95645178D01*
X96863000Y-95770197D01*
X96863000Y-96253804D01*
X96850687Y-96378823D01*
X96802024Y-96539242D01*
X96793601Y-96555000D01*
X96723004Y-96687078D01*
X96666628Y-96755772D01*
X96616659Y-96816659D01*
X96487077Y-96923005D01*
X96339241Y-97002024D01*
X96178822Y-97050687D01*
X96012000Y-97067117D01*
X95845177Y-97050687D01*
X95684758Y-97002024D01*
X95536924Y-96923005D01*
X95536922Y-96923004D01*
X95407341Y-96816659D01*
X95357372Y-96755772D01*
X95300995Y-96687077D01*
X95221976Y-96539241D01*
X95214505Y-96514611D01*
X95212917Y-96509379D01*
X95173313Y-96378822D01*
X95161000Y-96253803D01*
X95161000Y-95770196D01*
X95173313Y-95645177D01*
X95221976Y-95484758D01*
X95300995Y-95336924D01*
X95300996Y-95336922D01*
X95407342Y-95207341D01*
X95536923Y-95100996D01*
X95552095Y-95092886D01*
X95684759Y-95021976D01*
X95845178Y-94973313D01*
X96012000Y-94956883D01*
X96178823Y-94973313D01*
X96178823Y-94973313D01*
G37*
G36*
X93638823Y-94973313D02*
G01*
X93799242Y-95021976D01*
X93931906Y-95092886D01*
X93947078Y-95100996D01*
X94076659Y-95207341D01*
X94183004Y-95336922D01*
X94183005Y-95336924D01*
X94262024Y-95484758D01*
X94310687Y-95645178D01*
X94323000Y-95770197D01*
X94323000Y-96253804D01*
X94310687Y-96378823D01*
X94262024Y-96539242D01*
X94253601Y-96555000D01*
X94183004Y-96687078D01*
X94126628Y-96755772D01*
X94076659Y-96816659D01*
X93947077Y-96923005D01*
X93799241Y-97002024D01*
X93638822Y-97050687D01*
X93472000Y-97067117D01*
X93305177Y-97050687D01*
X93144758Y-97002024D01*
X92996924Y-96923005D01*
X92996922Y-96923004D01*
X92867341Y-96816659D01*
X92817372Y-96755772D01*
X92760995Y-96687077D01*
X92681976Y-96539241D01*
X92674505Y-96514611D01*
X92672917Y-96509379D01*
X92633313Y-96378822D01*
X92621000Y-96253803D01*
X92621000Y-95770196D01*
X92633313Y-95645177D01*
X92681976Y-95484758D01*
X92760995Y-95336924D01*
X92760996Y-95336922D01*
X92867342Y-95207341D01*
X92996923Y-95100996D01*
X93012095Y-95092886D01*
X93144759Y-95021976D01*
X93305178Y-94973313D01*
X93472000Y-94956883D01*
X93638823Y-94973313D01*
X93638823Y-94973313D01*
G37*
G36*
X91098823Y-94973313D02*
G01*
X91259242Y-95021976D01*
X91391906Y-95092886D01*
X91407078Y-95100996D01*
X91536659Y-95207341D01*
X91643004Y-95336922D01*
X91643005Y-95336924D01*
X91722024Y-95484758D01*
X91770687Y-95645178D01*
X91783000Y-95770197D01*
X91783000Y-96253804D01*
X91770687Y-96378823D01*
X91722024Y-96539242D01*
X91713601Y-96555000D01*
X91643004Y-96687078D01*
X91586628Y-96755772D01*
X91536659Y-96816659D01*
X91407077Y-96923005D01*
X91259241Y-97002024D01*
X91098822Y-97050687D01*
X90932000Y-97067117D01*
X90765177Y-97050687D01*
X90604758Y-97002024D01*
X90456924Y-96923005D01*
X90456922Y-96923004D01*
X90327341Y-96816659D01*
X90277372Y-96755772D01*
X90220995Y-96687077D01*
X90141976Y-96539241D01*
X90134505Y-96514611D01*
X90132917Y-96509379D01*
X90093313Y-96378822D01*
X90081000Y-96253803D01*
X90081000Y-95770196D01*
X90093313Y-95645177D01*
X90141976Y-95484758D01*
X90220995Y-95336924D01*
X90220996Y-95336922D01*
X90327342Y-95207341D01*
X90456923Y-95100996D01*
X90472095Y-95092886D01*
X90604759Y-95021976D01*
X90765178Y-94973313D01*
X90932000Y-94956883D01*
X91098823Y-94973313D01*
X91098823Y-94973313D01*
G37*
G36*
X101258823Y-94973313D02*
G01*
X101419242Y-95021976D01*
X101551906Y-95092886D01*
X101567078Y-95100996D01*
X101696659Y-95207341D01*
X101803004Y-95336922D01*
X101803005Y-95336924D01*
X101882024Y-95484758D01*
X101930687Y-95645178D01*
X101943000Y-95770197D01*
X101943000Y-96253804D01*
X101930687Y-96378823D01*
X101882024Y-96539242D01*
X101873601Y-96555000D01*
X101803004Y-96687078D01*
X101746628Y-96755772D01*
X101696659Y-96816659D01*
X101567077Y-96923005D01*
X101419241Y-97002024D01*
X101258822Y-97050687D01*
X101092000Y-97067117D01*
X100925177Y-97050687D01*
X100764758Y-97002024D01*
X100616924Y-96923005D01*
X100616922Y-96923004D01*
X100487341Y-96816659D01*
X100437372Y-96755772D01*
X100380995Y-96687077D01*
X100301976Y-96539241D01*
X100294505Y-96514611D01*
X100292917Y-96509379D01*
X100253313Y-96378822D01*
X100241000Y-96253803D01*
X100241000Y-95770196D01*
X100253313Y-95645177D01*
X100301976Y-95484758D01*
X100380995Y-95336924D01*
X100380996Y-95336922D01*
X100487342Y-95207341D01*
X100616923Y-95100996D01*
X100632095Y-95092886D01*
X100764759Y-95021976D01*
X100925178Y-94973313D01*
X101092000Y-94956883D01*
X101258823Y-94973313D01*
X101258823Y-94973313D01*
G37*
G36*
X235590564Y-94493389D02*
G01*
X235781833Y-94572615D01*
X235781835Y-94572616D01*
X235953973Y-94687635D01*
X236100365Y-94834027D01*
X236193434Y-94973314D01*
X236215385Y-95006167D01*
X236294611Y-95197436D01*
X236335000Y-95400484D01*
X236335000Y-95607516D01*
X236294611Y-95810564D01*
X236262338Y-95888477D01*
X236215384Y-96001835D01*
X236100365Y-96173973D01*
X235953973Y-96320365D01*
X235781835Y-96435384D01*
X235781834Y-96435385D01*
X235781833Y-96435385D01*
X235590564Y-96514611D01*
X235387516Y-96555000D01*
X235180484Y-96555000D01*
X234977436Y-96514611D01*
X234786167Y-96435385D01*
X234786166Y-96435385D01*
X234786165Y-96435384D01*
X234614027Y-96320365D01*
X234467635Y-96173973D01*
X234352616Y-96001835D01*
X234305662Y-95888477D01*
X234273389Y-95810564D01*
X234233000Y-95607516D01*
X234233000Y-95400484D01*
X234273389Y-95197436D01*
X234352615Y-95006167D01*
X234374567Y-94973314D01*
X234467635Y-94834027D01*
X234614027Y-94687635D01*
X234786165Y-94572616D01*
X234786167Y-94572615D01*
X234977436Y-94493389D01*
X235180484Y-94453000D01*
X235387516Y-94453000D01*
X235590564Y-94493389D01*
X235590564Y-94493389D01*
G37*
G36*
X241335000Y-96555000D02*
G01*
X239233000Y-96555000D01*
X239233000Y-94453000D01*
X241335000Y-94453000D01*
X241335000Y-96555000D01*
X241335000Y-96555000D01*
G37*
G36*
X173861000Y-96301000D02*
G01*
X172259000Y-96301000D01*
X172259000Y-94699000D01*
X173861000Y-94699000D01*
X173861000Y-96301000D01*
X173861000Y-96301000D01*
G37*
G36*
X205861000Y-96301000D02*
G01*
X204259000Y-96301000D01*
X204259000Y-94699000D01*
X205861000Y-94699000D01*
X205861000Y-96301000D01*
X205861000Y-96301000D01*
G37*
G36*
X144366877Y-94208708D02*
G01*
X144558053Y-94287896D01*
X144558055Y-94287897D01*
X144730109Y-94402860D01*
X144876430Y-94549181D01*
X144991394Y-94721237D01*
X145070582Y-94912413D01*
X145110951Y-95115363D01*
X145110951Y-95322295D01*
X145070582Y-95525245D01*
X145036505Y-95607514D01*
X144991393Y-95716423D01*
X144876430Y-95888477D01*
X144730109Y-96034798D01*
X144558055Y-96149761D01*
X144558054Y-96149762D01*
X144558053Y-96149762D01*
X144366877Y-96228950D01*
X144163927Y-96269319D01*
X143956995Y-96269319D01*
X143754045Y-96228950D01*
X143562869Y-96149762D01*
X143562868Y-96149762D01*
X143562867Y-96149761D01*
X143390813Y-96034798D01*
X143244492Y-95888477D01*
X143129529Y-95716423D01*
X143084417Y-95607514D01*
X143050340Y-95525245D01*
X143009971Y-95322295D01*
X143009971Y-95115363D01*
X143050340Y-94912413D01*
X143129528Y-94721237D01*
X143244492Y-94549181D01*
X143390813Y-94402860D01*
X143562867Y-94287897D01*
X143562869Y-94287896D01*
X143754045Y-94208708D01*
X143956995Y-94168339D01*
X144163927Y-94168339D01*
X144366877Y-94208708D01*
X144366877Y-94208708D01*
G37*
G36*
X194284228Y-92121703D02*
G01*
X194439100Y-92185853D01*
X194578481Y-92278985D01*
X194697015Y-92397519D01*
X194790147Y-92536900D01*
X194854297Y-92691772D01*
X194887000Y-92856184D01*
X194887000Y-93023816D01*
X194854297Y-93188228D01*
X194790147Y-93343100D01*
X194697015Y-93482481D01*
X194578481Y-93601015D01*
X194439100Y-93694147D01*
X194284228Y-93758297D01*
X194119816Y-93791000D01*
X193952184Y-93791000D01*
X193787772Y-93758297D01*
X193632900Y-93694147D01*
X193493519Y-93601015D01*
X193374985Y-93482481D01*
X193281853Y-93343100D01*
X193217703Y-93188228D01*
X193185000Y-93023816D01*
X193185000Y-92856184D01*
X193217703Y-92691772D01*
X193281853Y-92536900D01*
X193374985Y-92397519D01*
X193493519Y-92278985D01*
X193632900Y-92185853D01*
X193787772Y-92121703D01*
X193952184Y-92089000D01*
X194119816Y-92089000D01*
X194284228Y-92121703D01*
X194284228Y-92121703D01*
G37*
G36*
X184042823Y-92101313D02*
G01*
X184203242Y-92149976D01*
X184335906Y-92220886D01*
X184351078Y-92228996D01*
X184480659Y-92335341D01*
X184587004Y-92464922D01*
X184587005Y-92464924D01*
X184666024Y-92612758D01*
X184714687Y-92773177D01*
X184731117Y-92940000D01*
X184714687Y-93106823D01*
X184666024Y-93267242D01*
X184625477Y-93343100D01*
X184587004Y-93415078D01*
X184480659Y-93544659D01*
X184351078Y-93651004D01*
X184351076Y-93651005D01*
X184203242Y-93730024D01*
X184203239Y-93730025D01*
X184202599Y-93730219D01*
X184042823Y-93778687D01*
X183917804Y-93791000D01*
X183834196Y-93791000D01*
X183709177Y-93778687D01*
X183549401Y-93730219D01*
X183548761Y-93730025D01*
X183548758Y-93730024D01*
X183400924Y-93651005D01*
X183400922Y-93651004D01*
X183271341Y-93544659D01*
X183164996Y-93415078D01*
X183126523Y-93343100D01*
X183085976Y-93267242D01*
X183037313Y-93106823D01*
X183020883Y-92940000D01*
X183037313Y-92773177D01*
X183085976Y-92612758D01*
X183164995Y-92464924D01*
X183164996Y-92464922D01*
X183271341Y-92335341D01*
X183400922Y-92228996D01*
X183416094Y-92220886D01*
X183548758Y-92149976D01*
X183709177Y-92101313D01*
X183834196Y-92089000D01*
X183917804Y-92089000D01*
X184042823Y-92101313D01*
X184042823Y-92101313D01*
G37*
G36*
X205293642Y-92189781D02*
G01*
X205439414Y-92250162D01*
X205439416Y-92250163D01*
X205570608Y-92337822D01*
X205682178Y-92449392D01*
X205769837Y-92580584D01*
X205769838Y-92580586D01*
X205830219Y-92726358D01*
X205861000Y-92881107D01*
X205861000Y-93038893D01*
X205830219Y-93193642D01*
X205769838Y-93339414D01*
X205769837Y-93339416D01*
X205682178Y-93470608D01*
X205570608Y-93582178D01*
X205439416Y-93669837D01*
X205439415Y-93669838D01*
X205439414Y-93669838D01*
X205293642Y-93730219D01*
X205138893Y-93761000D01*
X204981107Y-93761000D01*
X204826358Y-93730219D01*
X204680586Y-93669838D01*
X204680585Y-93669838D01*
X204680584Y-93669837D01*
X204549392Y-93582178D01*
X204437822Y-93470608D01*
X204350163Y-93339416D01*
X204350162Y-93339414D01*
X204289781Y-93193642D01*
X204259000Y-93038893D01*
X204259000Y-92881107D01*
X204289781Y-92726358D01*
X204350162Y-92580586D01*
X204350163Y-92580584D01*
X204437822Y-92449392D01*
X204549392Y-92337822D01*
X204680584Y-92250163D01*
X204680586Y-92250162D01*
X204826358Y-92189781D01*
X204981107Y-92159000D01*
X205138893Y-92159000D01*
X205293642Y-92189781D01*
X205293642Y-92189781D01*
G37*
G36*
X173293642Y-92189781D02*
G01*
X173439414Y-92250162D01*
X173439416Y-92250163D01*
X173570608Y-92337822D01*
X173682178Y-92449392D01*
X173769837Y-92580584D01*
X173769838Y-92580586D01*
X173830219Y-92726358D01*
X173861000Y-92881107D01*
X173861000Y-93038893D01*
X173830219Y-93193642D01*
X173769838Y-93339414D01*
X173769837Y-93339416D01*
X173682178Y-93470608D01*
X173570608Y-93582178D01*
X173439416Y-93669837D01*
X173439415Y-93669838D01*
X173439414Y-93669838D01*
X173293642Y-93730219D01*
X173138893Y-93761000D01*
X172981107Y-93761000D01*
X172826358Y-93730219D01*
X172680586Y-93669838D01*
X172680585Y-93669838D01*
X172680584Y-93669837D01*
X172549392Y-93582178D01*
X172437822Y-93470608D01*
X172350163Y-93339416D01*
X172350162Y-93339414D01*
X172289781Y-93193642D01*
X172259000Y-93038893D01*
X172259000Y-92881107D01*
X172289781Y-92726358D01*
X172350162Y-92580586D01*
X172350163Y-92580584D01*
X172437822Y-92449392D01*
X172549392Y-92337822D01*
X172680584Y-92250163D01*
X172680586Y-92250162D01*
X172826358Y-92189781D01*
X172981107Y-92159000D01*
X173138893Y-92159000D01*
X173293642Y-92189781D01*
X173293642Y-92189781D01*
G37*
G36*
X252621936Y-89933340D02*
G01*
X252720220Y-89943020D01*
X252909381Y-90000401D01*
X253083712Y-90093583D01*
X253236515Y-90218985D01*
X253361917Y-90371788D01*
X253455099Y-90546119D01*
X253512480Y-90735280D01*
X253531855Y-90932000D01*
X253512480Y-91128720D01*
X253455099Y-91317881D01*
X253361917Y-91492212D01*
X253236515Y-91645015D01*
X253083712Y-91770417D01*
X252909381Y-91863599D01*
X252720220Y-91920980D01*
X252621936Y-91930660D01*
X252572795Y-91935500D01*
X252379205Y-91935500D01*
X252330064Y-91930660D01*
X252231780Y-91920980D01*
X252042619Y-91863599D01*
X251868288Y-91770417D01*
X251715485Y-91645015D01*
X251590083Y-91492212D01*
X251496901Y-91317881D01*
X251439520Y-91128720D01*
X251420145Y-90932000D01*
X251439520Y-90735280D01*
X251496901Y-90546119D01*
X251590083Y-90371788D01*
X251715485Y-90218985D01*
X251868288Y-90093583D01*
X252042619Y-90000401D01*
X252231780Y-89943020D01*
X252330064Y-89933340D01*
X252379205Y-89928500D01*
X252572795Y-89928500D01*
X252621936Y-89933340D01*
X252621936Y-89933340D01*
G37*
G36*
X205293642Y-89649781D02*
G01*
X205439414Y-89710162D01*
X205439416Y-89710163D01*
X205570608Y-89797822D01*
X205682178Y-89909392D01*
X205742988Y-90000402D01*
X205769838Y-90040586D01*
X205830219Y-90186358D01*
X205861000Y-90341107D01*
X205861000Y-90498893D01*
X205830219Y-90653642D01*
X205783264Y-90767000D01*
X205769837Y-90799416D01*
X205682178Y-90930608D01*
X205570608Y-91042178D01*
X205439416Y-91129837D01*
X205439415Y-91129838D01*
X205439414Y-91129838D01*
X205293642Y-91190219D01*
X205138893Y-91221000D01*
X204981107Y-91221000D01*
X204826358Y-91190219D01*
X204680586Y-91129838D01*
X204680585Y-91129838D01*
X204680584Y-91129837D01*
X204549392Y-91042178D01*
X204437822Y-90930608D01*
X204350163Y-90799416D01*
X204336736Y-90767000D01*
X204289781Y-90653642D01*
X204259000Y-90498893D01*
X204259000Y-90341107D01*
X204289781Y-90186358D01*
X204350162Y-90040586D01*
X204377012Y-90000402D01*
X204437822Y-89909392D01*
X204549392Y-89797822D01*
X204680584Y-89710163D01*
X204680586Y-89710162D01*
X204826358Y-89649781D01*
X204981107Y-89619000D01*
X205138893Y-89619000D01*
X205293642Y-89649781D01*
X205293642Y-89649781D01*
G37*
G36*
X173293642Y-89649781D02*
G01*
X173439414Y-89710162D01*
X173439416Y-89710163D01*
X173570608Y-89797822D01*
X173682178Y-89909392D01*
X173742988Y-90000402D01*
X173769838Y-90040586D01*
X173830219Y-90186358D01*
X173861000Y-90341107D01*
X173861000Y-90498893D01*
X173830219Y-90653642D01*
X173783264Y-90767000D01*
X173769837Y-90799416D01*
X173682178Y-90930608D01*
X173570608Y-91042178D01*
X173439416Y-91129837D01*
X173439415Y-91129838D01*
X173439414Y-91129838D01*
X173293642Y-91190219D01*
X173138893Y-91221000D01*
X172981107Y-91221000D01*
X172826358Y-91190219D01*
X172680586Y-91129838D01*
X172680585Y-91129838D01*
X172680584Y-91129837D01*
X172549392Y-91042178D01*
X172437822Y-90930608D01*
X172350163Y-90799416D01*
X172336736Y-90767000D01*
X172289781Y-90653642D01*
X172259000Y-90498893D01*
X172259000Y-90341107D01*
X172289781Y-90186358D01*
X172350162Y-90040586D01*
X172377012Y-90000402D01*
X172437822Y-89909392D01*
X172549392Y-89797822D01*
X172680584Y-89710163D01*
X172680586Y-89710162D01*
X172826358Y-89649781D01*
X172981107Y-89619000D01*
X173138893Y-89619000D01*
X173293642Y-89649781D01*
X173293642Y-89649781D01*
G37*
G36*
X158431000Y-90907000D02*
G01*
X156529000Y-90907000D01*
X156529000Y-89005000D01*
X158431000Y-89005000D01*
X158431000Y-90907000D01*
X158431000Y-90907000D01*
G37*
G36*
X160297395Y-89041546D02*
G01*
X160470466Y-89113234D01*
X160547818Y-89164919D01*
X160626227Y-89217310D01*
X160758690Y-89349773D01*
X160759562Y-89351078D01*
X160862766Y-89505534D01*
X160934454Y-89678605D01*
X160971000Y-89862333D01*
X160971000Y-90049667D01*
X160934454Y-90233395D01*
X160862766Y-90406466D01*
X160862765Y-90406467D01*
X160758690Y-90562227D01*
X160626227Y-90694690D01*
X160565479Y-90735280D01*
X160470466Y-90798766D01*
X160297395Y-90870454D01*
X160113667Y-90907000D01*
X159926333Y-90907000D01*
X159742605Y-90870454D01*
X159569534Y-90798766D01*
X159474521Y-90735280D01*
X159413773Y-90694690D01*
X159281310Y-90562227D01*
X159177235Y-90406467D01*
X159177234Y-90406466D01*
X159105546Y-90233395D01*
X159069000Y-90049667D01*
X159069000Y-89862333D01*
X159105546Y-89678605D01*
X159177234Y-89505534D01*
X159280438Y-89351078D01*
X159281310Y-89349773D01*
X159413773Y-89217310D01*
X159492182Y-89164919D01*
X159569534Y-89113234D01*
X159742605Y-89041546D01*
X159926333Y-89005000D01*
X160113667Y-89005000D01*
X160297395Y-89041546D01*
X160297395Y-89041546D01*
G37*
G36*
X90590823Y-89077313D02*
G01*
X90751242Y-89125976D01*
X90883906Y-89196886D01*
X90899078Y-89204996D01*
X91028659Y-89311341D01*
X91135004Y-89440922D01*
X91135005Y-89440924D01*
X91214024Y-89588758D01*
X91262687Y-89749177D01*
X91279117Y-89916000D01*
X91262687Y-90082823D01*
X91214024Y-90243242D01*
X91161714Y-90341107D01*
X91135004Y-90391078D01*
X91028659Y-90520659D01*
X90899078Y-90627004D01*
X90899076Y-90627005D01*
X90751242Y-90706024D01*
X90590823Y-90754687D01*
X90465804Y-90767000D01*
X90382196Y-90767000D01*
X90257177Y-90754687D01*
X90096758Y-90706024D01*
X89948924Y-90627005D01*
X89948922Y-90627004D01*
X89819341Y-90520659D01*
X89712996Y-90391078D01*
X89686286Y-90341107D01*
X89633976Y-90243242D01*
X89585313Y-90082823D01*
X89568883Y-89916000D01*
X89585313Y-89749177D01*
X89633976Y-89588758D01*
X89712995Y-89440924D01*
X89712996Y-89440922D01*
X89819341Y-89311341D01*
X89948922Y-89204996D01*
X89964094Y-89196886D01*
X90096758Y-89125976D01*
X90257177Y-89077313D01*
X90382196Y-89065000D01*
X90465804Y-89065000D01*
X90590823Y-89077313D01*
X90590823Y-89077313D01*
G37*
G36*
X184042823Y-88037313D02*
G01*
X184203242Y-88085976D01*
X184270361Y-88121852D01*
X184351078Y-88164996D01*
X184480659Y-88271341D01*
X184587004Y-88400922D01*
X184587005Y-88400924D01*
X184666024Y-88548758D01*
X184714687Y-88709177D01*
X184731117Y-88876000D01*
X184714687Y-89042823D01*
X184666024Y-89203242D01*
X184625477Y-89279100D01*
X184587004Y-89351078D01*
X184480659Y-89480659D01*
X184351078Y-89587004D01*
X184351076Y-89587005D01*
X184203242Y-89666024D01*
X184042823Y-89714687D01*
X183917804Y-89727000D01*
X183834196Y-89727000D01*
X183709177Y-89714687D01*
X183548758Y-89666024D01*
X183400924Y-89587005D01*
X183400922Y-89587004D01*
X183271341Y-89480659D01*
X183164996Y-89351078D01*
X183126523Y-89279100D01*
X183085976Y-89203242D01*
X183037313Y-89042823D01*
X183020883Y-88876000D01*
X183037313Y-88709177D01*
X183085976Y-88548758D01*
X183164995Y-88400924D01*
X183164996Y-88400922D01*
X183271341Y-88271341D01*
X183400922Y-88164996D01*
X183481639Y-88121852D01*
X183548758Y-88085976D01*
X183709177Y-88037313D01*
X183834196Y-88025000D01*
X183917804Y-88025000D01*
X184042823Y-88037313D01*
X184042823Y-88037313D01*
G37*
G36*
X194284228Y-88057703D02*
G01*
X194439100Y-88121853D01*
X194578481Y-88214985D01*
X194697015Y-88333519D01*
X194790147Y-88472900D01*
X194854297Y-88627772D01*
X194887000Y-88792184D01*
X194887000Y-88959816D01*
X194854297Y-89124228D01*
X194790147Y-89279100D01*
X194697015Y-89418481D01*
X194578481Y-89537015D01*
X194439100Y-89630147D01*
X194284228Y-89694297D01*
X194119816Y-89727000D01*
X193952184Y-89727000D01*
X193787772Y-89694297D01*
X193632900Y-89630147D01*
X193493519Y-89537015D01*
X193374985Y-89418481D01*
X193281853Y-89279100D01*
X193217703Y-89124228D01*
X193185000Y-88959816D01*
X193185000Y-88792184D01*
X193217703Y-88627772D01*
X193281853Y-88472900D01*
X193374985Y-88333519D01*
X193493519Y-88214985D01*
X193632900Y-88121853D01*
X193787772Y-88057703D01*
X193952184Y-88025000D01*
X194119816Y-88025000D01*
X194284228Y-88057703D01*
X194284228Y-88057703D01*
G37*
G36*
X252621936Y-87393340D02*
G01*
X252720220Y-87403020D01*
X252909381Y-87460401D01*
X253083712Y-87553583D01*
X253236515Y-87678985D01*
X253361917Y-87831788D01*
X253455099Y-88006119D01*
X253512480Y-88195280D01*
X253531855Y-88392000D01*
X253512480Y-88588720D01*
X253455099Y-88777881D01*
X253361917Y-88952212D01*
X253236515Y-89105015D01*
X253083712Y-89230417D01*
X252909381Y-89323599D01*
X252720220Y-89380980D01*
X252621936Y-89390660D01*
X252572795Y-89395500D01*
X252379205Y-89395500D01*
X252330064Y-89390660D01*
X252231780Y-89380980D01*
X252042619Y-89323599D01*
X251868288Y-89230417D01*
X251715485Y-89105015D01*
X251590083Y-88952212D01*
X251496901Y-88777881D01*
X251439520Y-88588720D01*
X251420145Y-88392000D01*
X251439520Y-88195280D01*
X251496901Y-88006119D01*
X251590083Y-87831788D01*
X251715485Y-87678985D01*
X251868288Y-87553583D01*
X252042619Y-87460401D01*
X252231780Y-87403020D01*
X252330064Y-87393340D01*
X252379205Y-87388500D01*
X252572795Y-87388500D01*
X252621936Y-87393340D01*
X252621936Y-87393340D01*
G37*
G36*
X128830416Y-85857879D02*
G01*
X129021592Y-85937067D01*
X129021594Y-85937068D01*
X129193648Y-86052031D01*
X129339969Y-86198352D01*
X129427839Y-86329858D01*
X129454933Y-86370408D01*
X129534121Y-86561584D01*
X129574490Y-86764534D01*
X129574490Y-86971466D01*
X129534121Y-87174416D01*
X129454933Y-87365592D01*
X129454932Y-87365594D01*
X129339969Y-87537648D01*
X129193648Y-87683969D01*
X129021594Y-87798932D01*
X129021593Y-87798933D01*
X129021592Y-87798933D01*
X128830416Y-87878121D01*
X128627466Y-87918490D01*
X128420534Y-87918490D01*
X128217584Y-87878121D01*
X128026408Y-87798933D01*
X128026407Y-87798933D01*
X128026406Y-87798932D01*
X127854352Y-87683969D01*
X127708031Y-87537648D01*
X127593068Y-87365594D01*
X127593067Y-87365592D01*
X127513879Y-87174416D01*
X127473510Y-86971466D01*
X127473510Y-86764534D01*
X127513879Y-86561584D01*
X127593067Y-86370408D01*
X127620162Y-86329858D01*
X127708031Y-86198352D01*
X127854352Y-86052031D01*
X128026406Y-85937068D01*
X128026408Y-85937067D01*
X128217584Y-85857879D01*
X128420534Y-85817510D01*
X128627466Y-85817510D01*
X128830416Y-85857879D01*
X128830416Y-85857879D01*
G37*
G36*
X253527000Y-86855500D02*
G01*
X251425000Y-86855500D01*
X251425000Y-84848500D01*
X253527000Y-84848500D01*
X253527000Y-86855500D01*
X253527000Y-86855500D01*
G37*
G36*
X222018426Y-84249515D02*
G01*
X222233208Y-84338481D01*
X222255194Y-84347588D01*
X222468278Y-84489966D01*
X222649492Y-84671180D01*
X222779797Y-84866195D01*
X222791871Y-84884266D01*
X222889943Y-85121032D01*
X222939939Y-85372380D01*
X222939939Y-85628658D01*
X222889943Y-85880006D01*
X222791871Y-86116772D01*
X222791870Y-86116774D01*
X222649492Y-86329858D01*
X222468278Y-86511072D01*
X222255194Y-86653450D01*
X222255193Y-86653451D01*
X222255192Y-86653451D01*
X222018426Y-86751523D01*
X221767078Y-86801519D01*
X221510800Y-86801519D01*
X221259452Y-86751523D01*
X221022686Y-86653451D01*
X221022685Y-86653451D01*
X221022684Y-86653450D01*
X220809600Y-86511072D01*
X220628386Y-86329858D01*
X220486008Y-86116774D01*
X220486007Y-86116772D01*
X220387935Y-85880006D01*
X220337939Y-85628658D01*
X220337939Y-85372380D01*
X220387935Y-85121032D01*
X220486007Y-84884266D01*
X220498082Y-84866195D01*
X220628386Y-84671180D01*
X220809600Y-84489966D01*
X221022684Y-84347588D01*
X221044670Y-84338481D01*
X221259452Y-84249515D01*
X221510800Y-84199519D01*
X221767078Y-84199519D01*
X222018426Y-84249515D01*
X222018426Y-84249515D01*
G37*
G36*
X240034394Y-84231446D02*
G01*
X240184253Y-84293520D01*
X240271162Y-84329519D01*
X240484246Y-84471897D01*
X240665460Y-84653111D01*
X240796015Y-84848500D01*
X240807839Y-84866197D01*
X240905911Y-85102963D01*
X240955907Y-85354311D01*
X240955907Y-85610589D01*
X240905911Y-85861937D01*
X240827171Y-86052031D01*
X240807838Y-86098705D01*
X240665460Y-86311789D01*
X240484246Y-86493003D01*
X240271162Y-86635381D01*
X240271161Y-86635382D01*
X240271160Y-86635382D01*
X240034394Y-86733454D01*
X239783046Y-86783450D01*
X239526768Y-86783450D01*
X239275420Y-86733454D01*
X239038654Y-86635382D01*
X239038653Y-86635382D01*
X239038652Y-86635381D01*
X238825568Y-86493003D01*
X238644354Y-86311789D01*
X238501976Y-86098705D01*
X238482643Y-86052031D01*
X238403903Y-85861937D01*
X238353907Y-85610589D01*
X238353907Y-85354311D01*
X238403903Y-85102963D01*
X238501975Y-84866197D01*
X238513800Y-84848500D01*
X238644354Y-84653111D01*
X238825568Y-84471897D01*
X239038652Y-84329519D01*
X239125561Y-84293520D01*
X239275420Y-84231446D01*
X239526768Y-84181450D01*
X239783046Y-84181450D01*
X240034394Y-84231446D01*
X240034394Y-84231446D01*
G37*
G36*
X105404228Y-84017703D02*
G01*
X105559100Y-84081853D01*
X105698481Y-84174985D01*
X105817015Y-84293519D01*
X105910147Y-84432900D01*
X105974297Y-84587772D01*
X106007000Y-84752184D01*
X106007000Y-84919816D01*
X105974297Y-85084228D01*
X105910147Y-85239100D01*
X105817015Y-85378481D01*
X105698481Y-85497015D01*
X105559100Y-85590147D01*
X105404228Y-85654297D01*
X105239816Y-85687000D01*
X105072184Y-85687000D01*
X104907772Y-85654297D01*
X104752900Y-85590147D01*
X104613519Y-85497015D01*
X104494985Y-85378481D01*
X104401853Y-85239100D01*
X104337703Y-85084228D01*
X104305000Y-84919816D01*
X104305000Y-84752184D01*
X104337703Y-84587772D01*
X104401853Y-84432900D01*
X104494985Y-84293519D01*
X104613519Y-84174985D01*
X104752900Y-84081853D01*
X104907772Y-84017703D01*
X105072184Y-83985000D01*
X105239816Y-83985000D01*
X105404228Y-84017703D01*
X105404228Y-84017703D01*
G37*
G36*
X95162823Y-83997313D02*
G01*
X95323242Y-84045976D01*
X95390361Y-84081852D01*
X95471078Y-84124996D01*
X95600659Y-84231341D01*
X95707004Y-84360922D01*
X95707005Y-84360924D01*
X95786024Y-84508758D01*
X95834687Y-84669177D01*
X95851117Y-84836000D01*
X95834687Y-85002823D01*
X95786024Y-85163242D01*
X95745477Y-85239100D01*
X95707004Y-85311078D01*
X95600659Y-85440659D01*
X95471078Y-85547004D01*
X95471076Y-85547005D01*
X95323242Y-85626024D01*
X95162823Y-85674687D01*
X95037804Y-85687000D01*
X94954196Y-85687000D01*
X94829177Y-85674687D01*
X94668758Y-85626024D01*
X94520924Y-85547005D01*
X94520922Y-85547004D01*
X94391341Y-85440659D01*
X94284996Y-85311078D01*
X94246523Y-85239100D01*
X94205976Y-85163242D01*
X94157313Y-85002823D01*
X94140883Y-84836000D01*
X94157313Y-84669177D01*
X94205976Y-84508758D01*
X94284995Y-84360924D01*
X94284996Y-84360922D01*
X94391341Y-84231341D01*
X94520922Y-84124996D01*
X94601639Y-84081852D01*
X94668758Y-84045976D01*
X94829177Y-83997313D01*
X94954196Y-83985000D01*
X95037804Y-83985000D01*
X95162823Y-83997313D01*
X95162823Y-83997313D01*
G37*
G36*
X194202823Y-82957313D02*
G01*
X194363242Y-83005976D01*
X194430361Y-83041852D01*
X194511078Y-83084996D01*
X194640659Y-83191341D01*
X194747004Y-83320922D01*
X194747005Y-83320924D01*
X194826024Y-83468758D01*
X194874687Y-83629177D01*
X194891117Y-83796000D01*
X194874687Y-83962823D01*
X194826024Y-84123242D01*
X194785477Y-84199100D01*
X194747004Y-84271078D01*
X194640659Y-84400659D01*
X194511078Y-84507004D01*
X194511076Y-84507005D01*
X194363242Y-84586024D01*
X194202823Y-84634687D01*
X194077804Y-84647000D01*
X193994196Y-84647000D01*
X193869177Y-84634687D01*
X193708758Y-84586024D01*
X193560924Y-84507005D01*
X193560922Y-84507004D01*
X193431341Y-84400659D01*
X193324996Y-84271078D01*
X193286523Y-84199100D01*
X193245976Y-84123242D01*
X193197313Y-83962823D01*
X193180883Y-83796000D01*
X193197313Y-83629177D01*
X193245976Y-83468758D01*
X193324995Y-83320924D01*
X193324996Y-83320922D01*
X193431341Y-83191341D01*
X193560922Y-83084996D01*
X193641639Y-83041852D01*
X193708758Y-83005976D01*
X193869177Y-82957313D01*
X193994196Y-82945000D01*
X194077804Y-82945000D01*
X194202823Y-82957313D01*
X194202823Y-82957313D01*
G37*
G36*
X184124228Y-82977703D02*
G01*
X184279100Y-83041853D01*
X184418481Y-83134985D01*
X184537015Y-83253519D01*
X184630147Y-83392900D01*
X184694297Y-83547772D01*
X184727000Y-83712184D01*
X184727000Y-83879816D01*
X184694297Y-84044228D01*
X184630147Y-84199100D01*
X184537015Y-84338481D01*
X184418481Y-84457015D01*
X184279100Y-84550147D01*
X184124228Y-84614297D01*
X183959816Y-84647000D01*
X183792184Y-84647000D01*
X183627772Y-84614297D01*
X183472900Y-84550147D01*
X183333519Y-84457015D01*
X183214985Y-84338481D01*
X183121853Y-84199100D01*
X183057703Y-84044228D01*
X183025000Y-83879816D01*
X183025000Y-83712184D01*
X183057703Y-83547772D01*
X183121853Y-83392900D01*
X183214985Y-83253519D01*
X183333519Y-83134985D01*
X183472900Y-83041853D01*
X183627772Y-82977703D01*
X183792184Y-82945000D01*
X183959816Y-82945000D01*
X184124228Y-82977703D01*
X184124228Y-82977703D01*
G37*
G36*
X173861000Y-83301000D02*
G01*
X172259000Y-83301000D01*
X172259000Y-81699000D01*
X173861000Y-81699000D01*
X173861000Y-83301000D01*
X173861000Y-83301000D01*
G37*
G36*
X205861000Y-83301000D02*
G01*
X204259000Y-83301000D01*
X204259000Y-81699000D01*
X205861000Y-81699000D01*
X205861000Y-83301000D01*
X205861000Y-83301000D01*
G37*
G36*
X205293642Y-79189781D02*
G01*
X205439414Y-79250162D01*
X205439416Y-79250163D01*
X205570608Y-79337822D01*
X205682178Y-79449392D01*
X205769837Y-79580584D01*
X205769838Y-79580586D01*
X205830219Y-79726358D01*
X205861000Y-79881107D01*
X205861000Y-80038893D01*
X205830219Y-80193642D01*
X205814713Y-80231076D01*
X205769837Y-80339416D01*
X205682178Y-80470608D01*
X205570608Y-80582178D01*
X205439416Y-80669837D01*
X205439415Y-80669838D01*
X205439414Y-80669838D01*
X205293642Y-80730219D01*
X205138893Y-80761000D01*
X204981107Y-80761000D01*
X204826358Y-80730219D01*
X204680586Y-80669838D01*
X204680585Y-80669838D01*
X204680584Y-80669837D01*
X204549392Y-80582178D01*
X204437822Y-80470608D01*
X204350163Y-80339416D01*
X204305287Y-80231076D01*
X204289781Y-80193642D01*
X204259000Y-80038893D01*
X204259000Y-79881107D01*
X204289781Y-79726358D01*
X204350162Y-79580586D01*
X204350163Y-79580584D01*
X204437822Y-79449392D01*
X204549392Y-79337822D01*
X204680584Y-79250163D01*
X204680586Y-79250162D01*
X204826358Y-79189781D01*
X204981107Y-79159000D01*
X205138893Y-79159000D01*
X205293642Y-79189781D01*
X205293642Y-79189781D01*
G37*
G36*
X173293642Y-79189781D02*
G01*
X173439414Y-79250162D01*
X173439416Y-79250163D01*
X173570608Y-79337822D01*
X173682178Y-79449392D01*
X173769837Y-79580584D01*
X173769838Y-79580586D01*
X173830219Y-79726358D01*
X173861000Y-79881107D01*
X173861000Y-80038893D01*
X173830219Y-80193642D01*
X173814713Y-80231076D01*
X173769837Y-80339416D01*
X173682178Y-80470608D01*
X173570608Y-80582178D01*
X173439416Y-80669837D01*
X173439415Y-80669838D01*
X173439414Y-80669838D01*
X173293642Y-80730219D01*
X173138893Y-80761000D01*
X172981107Y-80761000D01*
X172826358Y-80730219D01*
X172680586Y-80669838D01*
X172680585Y-80669838D01*
X172680584Y-80669837D01*
X172549392Y-80582178D01*
X172437822Y-80470608D01*
X172350163Y-80339416D01*
X172305287Y-80231076D01*
X172289781Y-80193642D01*
X172259000Y-80038893D01*
X172259000Y-79881107D01*
X172289781Y-79726358D01*
X172350162Y-79580586D01*
X172350163Y-79580584D01*
X172437822Y-79449392D01*
X172549392Y-79337822D01*
X172680584Y-79250163D01*
X172680586Y-79250162D01*
X172826358Y-79189781D01*
X172981107Y-79159000D01*
X173138893Y-79159000D01*
X173293642Y-79189781D01*
X173293642Y-79189781D01*
G37*
G36*
X184062823Y-78917313D02*
G01*
X184223242Y-78965976D01*
X184290361Y-79001852D01*
X184371078Y-79044996D01*
X184500659Y-79151341D01*
X184607004Y-79280922D01*
X184607005Y-79280924D01*
X184686024Y-79428758D01*
X184734687Y-79589177D01*
X184751117Y-79756000D01*
X184734687Y-79922823D01*
X184686024Y-80083242D01*
X184645477Y-80159100D01*
X184607004Y-80231078D01*
X184500659Y-80360659D01*
X184371078Y-80467004D01*
X184371076Y-80467005D01*
X184223242Y-80546024D01*
X184062823Y-80594687D01*
X183937804Y-80607000D01*
X183854196Y-80607000D01*
X183729177Y-80594687D01*
X183568758Y-80546024D01*
X183420924Y-80467005D01*
X183420922Y-80467004D01*
X183291341Y-80360659D01*
X183184996Y-80231078D01*
X183146523Y-80159100D01*
X183105976Y-80083242D01*
X183057313Y-79922823D01*
X183040883Y-79756000D01*
X183057313Y-79589177D01*
X183105976Y-79428758D01*
X183184995Y-79280924D01*
X183184996Y-79280922D01*
X183291341Y-79151341D01*
X183420922Y-79044996D01*
X183501639Y-79001852D01*
X183568758Y-78965976D01*
X183729177Y-78917313D01*
X183854196Y-78905000D01*
X183937804Y-78905000D01*
X184062823Y-78917313D01*
X184062823Y-78917313D01*
G37*
G36*
X90672228Y-78937703D02*
G01*
X90827100Y-79001853D01*
X90966481Y-79094985D01*
X91085015Y-79213519D01*
X91178147Y-79352900D01*
X91242297Y-79507772D01*
X91275000Y-79672184D01*
X91275000Y-79839816D01*
X91242297Y-80004228D01*
X91178147Y-80159100D01*
X91085015Y-80298481D01*
X90966481Y-80417015D01*
X90827100Y-80510147D01*
X90672228Y-80574297D01*
X90507816Y-80607000D01*
X90340184Y-80607000D01*
X90175772Y-80574297D01*
X90020900Y-80510147D01*
X89881519Y-80417015D01*
X89762985Y-80298481D01*
X89669853Y-80159100D01*
X89605703Y-80004228D01*
X89573000Y-79839816D01*
X89573000Y-79672184D01*
X89605703Y-79507772D01*
X89669853Y-79352900D01*
X89762985Y-79213519D01*
X89881519Y-79094985D01*
X90020900Y-79001853D01*
X90175772Y-78937703D01*
X90340184Y-78905000D01*
X90507816Y-78905000D01*
X90672228Y-78937703D01*
X90672228Y-78937703D01*
G37*
G36*
X194304228Y-78937703D02*
G01*
X194459100Y-79001853D01*
X194598481Y-79094985D01*
X194717015Y-79213519D01*
X194810147Y-79352900D01*
X194874297Y-79507772D01*
X194907000Y-79672184D01*
X194907000Y-79839816D01*
X194874297Y-80004228D01*
X194810147Y-80159100D01*
X194717015Y-80298481D01*
X194598481Y-80417015D01*
X194459100Y-80510147D01*
X194304228Y-80574297D01*
X194139816Y-80607000D01*
X193972184Y-80607000D01*
X193807772Y-80574297D01*
X193652900Y-80510147D01*
X193513519Y-80417015D01*
X193394985Y-80298481D01*
X193301853Y-80159100D01*
X193237703Y-80004228D01*
X193205000Y-79839816D01*
X193205000Y-79672184D01*
X193237703Y-79507772D01*
X193301853Y-79352900D01*
X193394985Y-79213519D01*
X193513519Y-79094985D01*
X193652900Y-79001853D01*
X193807772Y-78937703D01*
X193972184Y-78905000D01*
X194139816Y-78905000D01*
X194304228Y-78937703D01*
X194304228Y-78937703D01*
G37*
G36*
X205293642Y-76649781D02*
G01*
X205439414Y-76710162D01*
X205439416Y-76710163D01*
X205570608Y-76797822D01*
X205682178Y-76909392D01*
X205769837Y-77040584D01*
X205769838Y-77040586D01*
X205830219Y-77186358D01*
X205861000Y-77341107D01*
X205861000Y-77498893D01*
X205830219Y-77653642D01*
X205769838Y-77799414D01*
X205769837Y-77799416D01*
X205682178Y-77930608D01*
X205570608Y-78042178D01*
X205439416Y-78129837D01*
X205439415Y-78129838D01*
X205439414Y-78129838D01*
X205293642Y-78190219D01*
X205138893Y-78221000D01*
X204981107Y-78221000D01*
X204826358Y-78190219D01*
X204680586Y-78129838D01*
X204680585Y-78129838D01*
X204680584Y-78129837D01*
X204549392Y-78042178D01*
X204437822Y-77930608D01*
X204350163Y-77799416D01*
X204350162Y-77799414D01*
X204289781Y-77653642D01*
X204259000Y-77498893D01*
X204259000Y-77341107D01*
X204289781Y-77186358D01*
X204350162Y-77040586D01*
X204350163Y-77040584D01*
X204437822Y-76909392D01*
X204549392Y-76797822D01*
X204680584Y-76710163D01*
X204680586Y-76710162D01*
X204826358Y-76649781D01*
X204981107Y-76619000D01*
X205138893Y-76619000D01*
X205293642Y-76649781D01*
X205293642Y-76649781D01*
G37*
G36*
X173293642Y-76649781D02*
G01*
X173439414Y-76710162D01*
X173439416Y-76710163D01*
X173570608Y-76797822D01*
X173682178Y-76909392D01*
X173769837Y-77040584D01*
X173769838Y-77040586D01*
X173830219Y-77186358D01*
X173861000Y-77341107D01*
X173861000Y-77498893D01*
X173830219Y-77653642D01*
X173769838Y-77799414D01*
X173769837Y-77799416D01*
X173682178Y-77930608D01*
X173570608Y-78042178D01*
X173439416Y-78129837D01*
X173439415Y-78129838D01*
X173439414Y-78129838D01*
X173293642Y-78190219D01*
X173138893Y-78221000D01*
X172981107Y-78221000D01*
X172826358Y-78190219D01*
X172680586Y-78129838D01*
X172680585Y-78129838D01*
X172680584Y-78129837D01*
X172549392Y-78042178D01*
X172437822Y-77930608D01*
X172350163Y-77799416D01*
X172350162Y-77799414D01*
X172289781Y-77653642D01*
X172259000Y-77498893D01*
X172259000Y-77341107D01*
X172289781Y-77186358D01*
X172350162Y-77040586D01*
X172350163Y-77040584D01*
X172437822Y-76909392D01*
X172549392Y-76797822D01*
X172680584Y-76710163D01*
X172680586Y-76710162D01*
X172826358Y-76649781D01*
X172981107Y-76619000D01*
X173138893Y-76619000D01*
X173293642Y-76649781D01*
X173293642Y-76649781D01*
G37*
G36*
X194284228Y-74849703D02*
G01*
X194439100Y-74913853D01*
X194578481Y-75006985D01*
X194697015Y-75125519D01*
X194790147Y-75264900D01*
X194854297Y-75419772D01*
X194887000Y-75584184D01*
X194887000Y-75751816D01*
X194854297Y-75916228D01*
X194790147Y-76071100D01*
X194697015Y-76210481D01*
X194578481Y-76329015D01*
X194439100Y-76422147D01*
X194284228Y-76486297D01*
X194119816Y-76519000D01*
X193952184Y-76519000D01*
X193787772Y-76486297D01*
X193632900Y-76422147D01*
X193493519Y-76329015D01*
X193374985Y-76210481D01*
X193281853Y-76071100D01*
X193217703Y-75916228D01*
X193185000Y-75751816D01*
X193185000Y-75584184D01*
X193217703Y-75419772D01*
X193281853Y-75264900D01*
X193374985Y-75125519D01*
X193493519Y-75006985D01*
X193632900Y-74913853D01*
X193787772Y-74849703D01*
X193952184Y-74817000D01*
X194119816Y-74817000D01*
X194284228Y-74849703D01*
X194284228Y-74849703D01*
G37*
G36*
X184042823Y-74829313D02*
G01*
X184203242Y-74877976D01*
X184270361Y-74913852D01*
X184351078Y-74956996D01*
X184480659Y-75063341D01*
X184587004Y-75192922D01*
X184587005Y-75192924D01*
X184666024Y-75340758D01*
X184714687Y-75501177D01*
X184731117Y-75668000D01*
X184714687Y-75834823D01*
X184666024Y-75995242D01*
X184625477Y-76071100D01*
X184587004Y-76143078D01*
X184480659Y-76272659D01*
X184351078Y-76379004D01*
X184351076Y-76379005D01*
X184203242Y-76458024D01*
X184042823Y-76506687D01*
X183917804Y-76519000D01*
X183834196Y-76519000D01*
X183709177Y-76506687D01*
X183548758Y-76458024D01*
X183400924Y-76379005D01*
X183400922Y-76379004D01*
X183271341Y-76272659D01*
X183164996Y-76143078D01*
X183126523Y-76071100D01*
X183085976Y-75995242D01*
X183037313Y-75834823D01*
X183020883Y-75668000D01*
X183037313Y-75501177D01*
X183085976Y-75340758D01*
X183164995Y-75192924D01*
X183164996Y-75192922D01*
X183271341Y-75063341D01*
X183400922Y-74956996D01*
X183481639Y-74913852D01*
X183548758Y-74877976D01*
X183709177Y-74829313D01*
X183834196Y-74817000D01*
X183917804Y-74817000D01*
X184042823Y-74829313D01*
X184042823Y-74829313D01*
G37*
G36*
X98718823Y-72113313D02*
G01*
X98879242Y-72161976D01*
X99011906Y-72232886D01*
X99027078Y-72240996D01*
X99156659Y-72347341D01*
X99263004Y-72476922D01*
X99263005Y-72476924D01*
X99342024Y-72624758D01*
X99390687Y-72785178D01*
X99403000Y-72910197D01*
X99403000Y-73393804D01*
X99390687Y-73518823D01*
X99342024Y-73679242D01*
X99271114Y-73811906D01*
X99263004Y-73827078D01*
X99156659Y-73956659D01*
X99027077Y-74063005D01*
X98879241Y-74142024D01*
X98718822Y-74190687D01*
X98552000Y-74207117D01*
X98385177Y-74190687D01*
X98224758Y-74142024D01*
X98076924Y-74063005D01*
X98076922Y-74063004D01*
X97947341Y-73956659D01*
X97840995Y-73827077D01*
X97761976Y-73679241D01*
X97713313Y-73518822D01*
X97701000Y-73393803D01*
X97701000Y-72910196D01*
X97713313Y-72785177D01*
X97761976Y-72624758D01*
X97840995Y-72476924D01*
X97840996Y-72476922D01*
X97947342Y-72347341D01*
X98076923Y-72240996D01*
X98092095Y-72232886D01*
X98224759Y-72161976D01*
X98385178Y-72113313D01*
X98552000Y-72096883D01*
X98718823Y-72113313D01*
X98718823Y-72113313D01*
G37*
G36*
X96178823Y-72113313D02*
G01*
X96339242Y-72161976D01*
X96471906Y-72232886D01*
X96487078Y-72240996D01*
X96616659Y-72347341D01*
X96723004Y-72476922D01*
X96723005Y-72476924D01*
X96802024Y-72624758D01*
X96850687Y-72785178D01*
X96863000Y-72910197D01*
X96863000Y-73393804D01*
X96850687Y-73518823D01*
X96802024Y-73679242D01*
X96731114Y-73811906D01*
X96723004Y-73827078D01*
X96616659Y-73956659D01*
X96487077Y-74063005D01*
X96339241Y-74142024D01*
X96178822Y-74190687D01*
X96012000Y-74207117D01*
X95845177Y-74190687D01*
X95684758Y-74142024D01*
X95536924Y-74063005D01*
X95536922Y-74063004D01*
X95407341Y-73956659D01*
X95300995Y-73827077D01*
X95221976Y-73679241D01*
X95173313Y-73518822D01*
X95161000Y-73393803D01*
X95161000Y-72910196D01*
X95173313Y-72785177D01*
X95221976Y-72624758D01*
X95300995Y-72476924D01*
X95300996Y-72476922D01*
X95407342Y-72347341D01*
X95536923Y-72240996D01*
X95552095Y-72232886D01*
X95684759Y-72161976D01*
X95845178Y-72113313D01*
X96012000Y-72096883D01*
X96178823Y-72113313D01*
X96178823Y-72113313D01*
G37*
G36*
X106338823Y-72113313D02*
G01*
X106499242Y-72161976D01*
X106631906Y-72232886D01*
X106647078Y-72240996D01*
X106776659Y-72347341D01*
X106883004Y-72476922D01*
X106883005Y-72476924D01*
X106962024Y-72624758D01*
X107010687Y-72785178D01*
X107023000Y-72910197D01*
X107023000Y-73393804D01*
X107010687Y-73518823D01*
X106962024Y-73679242D01*
X106891114Y-73811906D01*
X106883004Y-73827078D01*
X106776659Y-73956659D01*
X106647077Y-74063005D01*
X106499241Y-74142024D01*
X106338822Y-74190687D01*
X106172000Y-74207117D01*
X106005177Y-74190687D01*
X105844758Y-74142024D01*
X105696924Y-74063005D01*
X105696922Y-74063004D01*
X105567341Y-73956659D01*
X105460995Y-73827077D01*
X105381976Y-73679241D01*
X105333313Y-73518822D01*
X105321000Y-73393803D01*
X105321000Y-72910196D01*
X105333313Y-72785177D01*
X105381976Y-72624758D01*
X105460995Y-72476924D01*
X105460996Y-72476922D01*
X105567342Y-72347341D01*
X105696923Y-72240996D01*
X105712095Y-72232886D01*
X105844759Y-72161976D01*
X106005178Y-72113313D01*
X106172000Y-72096883D01*
X106338823Y-72113313D01*
X106338823Y-72113313D01*
G37*
G36*
X101258823Y-72113313D02*
G01*
X101419242Y-72161976D01*
X101551906Y-72232886D01*
X101567078Y-72240996D01*
X101696659Y-72347341D01*
X101803004Y-72476922D01*
X101803005Y-72476924D01*
X101882024Y-72624758D01*
X101930687Y-72785178D01*
X101943000Y-72910197D01*
X101943000Y-73393804D01*
X101930687Y-73518823D01*
X101882024Y-73679242D01*
X101811114Y-73811906D01*
X101803004Y-73827078D01*
X101696659Y-73956659D01*
X101567077Y-74063005D01*
X101419241Y-74142024D01*
X101258822Y-74190687D01*
X101092000Y-74207117D01*
X100925177Y-74190687D01*
X100764758Y-74142024D01*
X100616924Y-74063005D01*
X100616922Y-74063004D01*
X100487341Y-73956659D01*
X100380995Y-73827077D01*
X100301976Y-73679241D01*
X100253313Y-73518822D01*
X100241000Y-73393803D01*
X100241000Y-72910196D01*
X100253313Y-72785177D01*
X100301976Y-72624758D01*
X100380995Y-72476924D01*
X100380996Y-72476922D01*
X100487342Y-72347341D01*
X100616923Y-72240996D01*
X100632095Y-72232886D01*
X100764759Y-72161976D01*
X100925178Y-72113313D01*
X101092000Y-72096883D01*
X101258823Y-72113313D01*
X101258823Y-72113313D01*
G37*
G36*
X93638823Y-72113313D02*
G01*
X93799242Y-72161976D01*
X93931906Y-72232886D01*
X93947078Y-72240996D01*
X94076659Y-72347341D01*
X94183004Y-72476922D01*
X94183005Y-72476924D01*
X94262024Y-72624758D01*
X94310687Y-72785178D01*
X94323000Y-72910197D01*
X94323000Y-73393804D01*
X94310687Y-73518823D01*
X94262024Y-73679242D01*
X94191114Y-73811906D01*
X94183004Y-73827078D01*
X94076659Y-73956659D01*
X93947077Y-74063005D01*
X93799241Y-74142024D01*
X93638822Y-74190687D01*
X93472000Y-74207117D01*
X93305177Y-74190687D01*
X93144758Y-74142024D01*
X92996924Y-74063005D01*
X92996922Y-74063004D01*
X92867341Y-73956659D01*
X92760995Y-73827077D01*
X92681976Y-73679241D01*
X92633313Y-73518822D01*
X92621000Y-73393803D01*
X92621000Y-72910196D01*
X92633313Y-72785177D01*
X92681976Y-72624758D01*
X92760995Y-72476924D01*
X92760996Y-72476922D01*
X92867342Y-72347341D01*
X92996923Y-72240996D01*
X93012095Y-72232886D01*
X93144759Y-72161976D01*
X93305178Y-72113313D01*
X93472000Y-72096883D01*
X93638823Y-72113313D01*
X93638823Y-72113313D01*
G37*
G36*
X103798823Y-72113313D02*
G01*
X103959242Y-72161976D01*
X104091906Y-72232886D01*
X104107078Y-72240996D01*
X104236659Y-72347341D01*
X104343004Y-72476922D01*
X104343005Y-72476924D01*
X104422024Y-72624758D01*
X104470687Y-72785178D01*
X104483000Y-72910197D01*
X104483000Y-73393804D01*
X104470687Y-73518823D01*
X104422024Y-73679242D01*
X104351114Y-73811906D01*
X104343004Y-73827078D01*
X104236659Y-73956659D01*
X104107077Y-74063005D01*
X103959241Y-74142024D01*
X103798822Y-74190687D01*
X103632000Y-74207117D01*
X103465177Y-74190687D01*
X103304758Y-74142024D01*
X103156924Y-74063005D01*
X103156922Y-74063004D01*
X103027341Y-73956659D01*
X102920995Y-73827077D01*
X102841976Y-73679241D01*
X102793313Y-73518822D01*
X102781000Y-73393803D01*
X102781000Y-72910196D01*
X102793313Y-72785177D01*
X102841976Y-72624758D01*
X102920995Y-72476924D01*
X102920996Y-72476922D01*
X103027342Y-72347341D01*
X103156923Y-72240996D01*
X103172095Y-72232886D01*
X103304759Y-72161976D01*
X103465178Y-72113313D01*
X103632000Y-72096883D01*
X103798823Y-72113313D01*
X103798823Y-72113313D01*
G37*
G36*
X91098823Y-72113313D02*
G01*
X91259242Y-72161976D01*
X91391906Y-72232886D01*
X91407078Y-72240996D01*
X91536659Y-72347341D01*
X91643004Y-72476922D01*
X91643005Y-72476924D01*
X91722024Y-72624758D01*
X91770687Y-72785178D01*
X91783000Y-72910197D01*
X91783000Y-73393804D01*
X91770687Y-73518823D01*
X91722024Y-73679242D01*
X91651114Y-73811906D01*
X91643004Y-73827078D01*
X91536659Y-73956659D01*
X91407077Y-74063005D01*
X91259241Y-74142024D01*
X91098822Y-74190687D01*
X90932000Y-74207117D01*
X90765177Y-74190687D01*
X90604758Y-74142024D01*
X90456924Y-74063005D01*
X90456922Y-74063004D01*
X90327341Y-73956659D01*
X90220995Y-73827077D01*
X90141976Y-73679241D01*
X90093313Y-73518822D01*
X90081000Y-73393803D01*
X90081000Y-72910196D01*
X90093313Y-72785177D01*
X90141976Y-72624758D01*
X90220995Y-72476924D01*
X90220996Y-72476922D01*
X90327342Y-72347341D01*
X90456923Y-72240996D01*
X90472095Y-72232886D01*
X90604759Y-72161976D01*
X90765178Y-72113313D01*
X90932000Y-72096883D01*
X91098823Y-72113313D01*
X91098823Y-72113313D01*
G37*
G36*
X109763000Y-74203000D02*
G01*
X107661000Y-74203000D01*
X107661000Y-72101000D01*
X109763000Y-72101000D01*
X109763000Y-74203000D01*
X109763000Y-74203000D01*
G37*
G36*
X194202823Y-70281313D02*
G01*
X194363242Y-70329976D01*
X194430361Y-70365852D01*
X194511078Y-70408996D01*
X194640659Y-70515341D01*
X194747004Y-70644922D01*
X194747005Y-70644924D01*
X194826024Y-70792758D01*
X194874687Y-70953177D01*
X194891117Y-71120000D01*
X194874687Y-71286823D01*
X194826024Y-71447242D01*
X194785477Y-71523100D01*
X194747004Y-71595078D01*
X194640659Y-71724659D01*
X194511078Y-71831004D01*
X194511076Y-71831005D01*
X194363242Y-71910024D01*
X194202823Y-71958687D01*
X194077804Y-71971000D01*
X193994196Y-71971000D01*
X193869177Y-71958687D01*
X193708758Y-71910024D01*
X193560924Y-71831005D01*
X193560922Y-71831004D01*
X193431341Y-71724659D01*
X193324996Y-71595078D01*
X193286523Y-71523100D01*
X193245976Y-71447242D01*
X193197313Y-71286823D01*
X193180883Y-71120000D01*
X193197313Y-70953177D01*
X193245976Y-70792758D01*
X193324995Y-70644924D01*
X193324996Y-70644922D01*
X193431341Y-70515341D01*
X193560922Y-70408996D01*
X193641639Y-70365852D01*
X193708758Y-70329976D01*
X193869177Y-70281313D01*
X193994196Y-70269000D01*
X194077804Y-70269000D01*
X194202823Y-70281313D01*
X194202823Y-70281313D01*
G37*
G36*
X184124228Y-70301703D02*
G01*
X184279100Y-70365853D01*
X184418481Y-70458985D01*
X184537015Y-70577519D01*
X184630147Y-70716900D01*
X184694297Y-70871772D01*
X184727000Y-71036184D01*
X184727000Y-71203816D01*
X184694297Y-71368228D01*
X184630147Y-71523100D01*
X184537015Y-71662481D01*
X184418481Y-71781015D01*
X184279100Y-71874147D01*
X184124228Y-71938297D01*
X183959816Y-71971000D01*
X183792184Y-71971000D01*
X183627772Y-71938297D01*
X183472900Y-71874147D01*
X183333519Y-71781015D01*
X183214985Y-71662481D01*
X183121853Y-71523100D01*
X183057703Y-71368228D01*
X183025000Y-71203816D01*
X183025000Y-71036184D01*
X183057703Y-70871772D01*
X183121853Y-70716900D01*
X183214985Y-70577519D01*
X183333519Y-70458985D01*
X183472900Y-70365853D01*
X183627772Y-70301703D01*
X183792184Y-70269000D01*
X183959816Y-70269000D01*
X184124228Y-70301703D01*
X184124228Y-70301703D01*
G37*
G36*
X205861000Y-70301000D02*
G01*
X204259000Y-70301000D01*
X204259000Y-68699000D01*
X205861000Y-68699000D01*
X205861000Y-70301000D01*
X205861000Y-70301000D01*
G37*
G36*
X173861000Y-70301000D02*
G01*
X172259000Y-70301000D01*
X172259000Y-68699000D01*
X173861000Y-68699000D01*
X173861000Y-70301000D01*
X173861000Y-70301000D01*
G37*
G36*
X184042823Y-66193313D02*
G01*
X184203242Y-66241976D01*
X184335906Y-66312886D01*
X184351078Y-66320996D01*
X184480659Y-66427341D01*
X184587004Y-66556922D01*
X184587005Y-66556924D01*
X184666024Y-66704758D01*
X184714687Y-66865177D01*
X184731117Y-67032000D01*
X184714687Y-67198823D01*
X184666024Y-67359242D01*
X184595114Y-67491906D01*
X184587004Y-67507078D01*
X184480659Y-67636659D01*
X184351078Y-67743004D01*
X184351076Y-67743005D01*
X184203242Y-67822024D01*
X184042823Y-67870687D01*
X183917804Y-67883000D01*
X183834196Y-67883000D01*
X183709177Y-67870687D01*
X183548758Y-67822024D01*
X183400924Y-67743005D01*
X183400922Y-67743004D01*
X183271341Y-67636659D01*
X183164996Y-67507078D01*
X183156886Y-67491906D01*
X183085976Y-67359242D01*
X183037313Y-67198823D01*
X183020883Y-67032000D01*
X183037313Y-66865177D01*
X183085976Y-66704758D01*
X183164995Y-66556924D01*
X183164996Y-66556922D01*
X183271341Y-66427341D01*
X183400922Y-66320996D01*
X183416094Y-66312886D01*
X183548758Y-66241976D01*
X183709177Y-66193313D01*
X183834196Y-66181000D01*
X183917804Y-66181000D01*
X184042823Y-66193313D01*
X184042823Y-66193313D01*
G37*
G36*
X194284228Y-66213703D02*
G01*
X194439100Y-66277853D01*
X194578481Y-66370985D01*
X194697015Y-66489519D01*
X194790147Y-66628900D01*
X194854297Y-66783772D01*
X194887000Y-66948184D01*
X194887000Y-67115816D01*
X194854297Y-67280228D01*
X194790147Y-67435100D01*
X194697015Y-67574481D01*
X194578481Y-67693015D01*
X194439100Y-67786147D01*
X194284228Y-67850297D01*
X194119816Y-67883000D01*
X193952184Y-67883000D01*
X193787772Y-67850297D01*
X193632900Y-67786147D01*
X193493519Y-67693015D01*
X193374985Y-67574481D01*
X193281853Y-67435100D01*
X193217703Y-67280228D01*
X193185000Y-67115816D01*
X193185000Y-66948184D01*
X193217703Y-66783772D01*
X193281853Y-66628900D01*
X193374985Y-66489519D01*
X193493519Y-66370985D01*
X193632900Y-66277853D01*
X193787772Y-66213703D01*
X193952184Y-66181000D01*
X194119816Y-66181000D01*
X194284228Y-66213703D01*
X194284228Y-66213703D01*
G37*
G36*
X205293642Y-66189781D02*
G01*
X205419651Y-66241976D01*
X205439416Y-66250163D01*
X205570608Y-66337822D01*
X205682178Y-66449392D01*
X205754028Y-66556924D01*
X205769838Y-66580586D01*
X205830219Y-66726358D01*
X205861000Y-66881107D01*
X205861000Y-67038893D01*
X205830219Y-67193642D01*
X205785274Y-67302148D01*
X205769837Y-67339416D01*
X205682178Y-67470608D01*
X205570608Y-67582178D01*
X205439416Y-67669837D01*
X205439415Y-67669838D01*
X205439414Y-67669838D01*
X205293642Y-67730219D01*
X205138893Y-67761000D01*
X204981107Y-67761000D01*
X204826358Y-67730219D01*
X204680586Y-67669838D01*
X204680585Y-67669838D01*
X204680584Y-67669837D01*
X204549392Y-67582178D01*
X204437822Y-67470608D01*
X204350163Y-67339416D01*
X204334726Y-67302148D01*
X204289781Y-67193642D01*
X204259000Y-67038893D01*
X204259000Y-66881107D01*
X204289781Y-66726358D01*
X204350162Y-66580586D01*
X204365972Y-66556924D01*
X204437822Y-66449392D01*
X204549392Y-66337822D01*
X204680584Y-66250163D01*
X204700349Y-66241976D01*
X204826358Y-66189781D01*
X204981107Y-66159000D01*
X205138893Y-66159000D01*
X205293642Y-66189781D01*
X205293642Y-66189781D01*
G37*
G36*
X173293642Y-66189781D02*
G01*
X173419651Y-66241976D01*
X173439416Y-66250163D01*
X173570608Y-66337822D01*
X173682178Y-66449392D01*
X173754028Y-66556924D01*
X173769838Y-66580586D01*
X173830219Y-66726358D01*
X173861000Y-66881107D01*
X173861000Y-67038893D01*
X173830219Y-67193642D01*
X173785274Y-67302148D01*
X173769837Y-67339416D01*
X173682178Y-67470608D01*
X173570608Y-67582178D01*
X173439416Y-67669837D01*
X173439415Y-67669838D01*
X173439414Y-67669838D01*
X173293642Y-67730219D01*
X173138893Y-67761000D01*
X172981107Y-67761000D01*
X172826358Y-67730219D01*
X172680586Y-67669838D01*
X172680585Y-67669838D01*
X172680584Y-67669837D01*
X172549392Y-67582178D01*
X172437822Y-67470608D01*
X172350163Y-67339416D01*
X172334726Y-67302148D01*
X172289781Y-67193642D01*
X172259000Y-67038893D01*
X172259000Y-66881107D01*
X172289781Y-66726358D01*
X172350162Y-66580586D01*
X172365972Y-66556924D01*
X172437822Y-66449392D01*
X172549392Y-66337822D01*
X172680584Y-66250163D01*
X172700349Y-66241976D01*
X172826358Y-66189781D01*
X172981107Y-66159000D01*
X173138893Y-66159000D01*
X173293642Y-66189781D01*
X173293642Y-66189781D01*
G37*
G36*
X78480228Y-65729703D02*
G01*
X78635100Y-65793853D01*
X78774481Y-65886985D01*
X78893015Y-66005519D01*
X78986147Y-66144900D01*
X79050297Y-66299772D01*
X79083000Y-66464184D01*
X79083000Y-66631816D01*
X79050297Y-66796228D01*
X78986147Y-66951100D01*
X78893015Y-67090481D01*
X78774481Y-67209015D01*
X78635100Y-67302147D01*
X78480228Y-67366297D01*
X78315816Y-67399000D01*
X78148184Y-67399000D01*
X77983772Y-67366297D01*
X77828900Y-67302147D01*
X77689519Y-67209015D01*
X77570985Y-67090481D01*
X77477853Y-66951100D01*
X77413703Y-66796228D01*
X77381000Y-66631816D01*
X77381000Y-66464184D01*
X77413703Y-66299772D01*
X77477853Y-66144900D01*
X77570985Y-66005519D01*
X77689519Y-65886985D01*
X77828900Y-65793853D01*
X77983772Y-65729703D01*
X78148184Y-65697000D01*
X78315816Y-65697000D01*
X78480228Y-65729703D01*
X78480228Y-65729703D01*
G37*
G36*
X144248228Y-65729703D02*
G01*
X144403100Y-65793853D01*
X144542481Y-65886985D01*
X144661015Y-66005519D01*
X144754147Y-66144900D01*
X144818297Y-66299772D01*
X144851000Y-66464184D01*
X144851000Y-66631816D01*
X144818297Y-66796228D01*
X144754147Y-66951100D01*
X144661015Y-67090481D01*
X144542481Y-67209015D01*
X144403100Y-67302147D01*
X144248228Y-67366297D01*
X144083816Y-67399000D01*
X143916184Y-67399000D01*
X143751772Y-67366297D01*
X143596900Y-67302147D01*
X143457519Y-67209015D01*
X143338985Y-67090481D01*
X143245853Y-66951100D01*
X143181703Y-66796228D01*
X143149000Y-66631816D01*
X143149000Y-66464184D01*
X143181703Y-66299772D01*
X143245853Y-66144900D01*
X143338985Y-66005519D01*
X143457519Y-65886985D01*
X143596900Y-65793853D01*
X143751772Y-65729703D01*
X143916184Y-65697000D01*
X144083816Y-65697000D01*
X144248228Y-65729703D01*
X144248228Y-65729703D01*
G37*
G36*
X121006823Y-65709313D02*
G01*
X121167242Y-65757976D01*
X121234361Y-65793852D01*
X121315078Y-65836996D01*
X121444659Y-65943341D01*
X121551004Y-66072922D01*
X121551005Y-66072924D01*
X121630024Y-66220758D01*
X121678687Y-66381177D01*
X121695117Y-66548000D01*
X121678687Y-66714823D01*
X121630024Y-66875242D01*
X121589477Y-66951100D01*
X121551004Y-67023078D01*
X121444659Y-67152659D01*
X121315078Y-67259004D01*
X121315076Y-67259005D01*
X121167242Y-67338024D01*
X121006823Y-67386687D01*
X120881804Y-67399000D01*
X120798196Y-67399000D01*
X120673177Y-67386687D01*
X120512758Y-67338024D01*
X120364924Y-67259005D01*
X120364922Y-67259004D01*
X120235341Y-67152659D01*
X120128996Y-67023078D01*
X120090523Y-66951100D01*
X120049976Y-66875242D01*
X120001313Y-66714823D01*
X119984883Y-66548000D01*
X120001313Y-66381177D01*
X120049976Y-66220758D01*
X120128995Y-66072924D01*
X120128996Y-66072922D01*
X120235341Y-65943341D01*
X120364922Y-65836996D01*
X120445639Y-65793852D01*
X120512758Y-65757976D01*
X120673177Y-65709313D01*
X120798196Y-65697000D01*
X120881804Y-65697000D01*
X121006823Y-65709313D01*
X121006823Y-65709313D01*
G37*
G36*
X131248228Y-65729703D02*
G01*
X131403100Y-65793853D01*
X131542481Y-65886985D01*
X131661015Y-66005519D01*
X131754147Y-66144900D01*
X131818297Y-66299772D01*
X131851000Y-66464184D01*
X131851000Y-66631816D01*
X131818297Y-66796228D01*
X131754147Y-66951100D01*
X131661015Y-67090481D01*
X131542481Y-67209015D01*
X131403100Y-67302147D01*
X131248228Y-67366297D01*
X131083816Y-67399000D01*
X130916184Y-67399000D01*
X130751772Y-67366297D01*
X130596900Y-67302147D01*
X130457519Y-67209015D01*
X130338985Y-67090481D01*
X130245853Y-66951100D01*
X130181703Y-66796228D01*
X130149000Y-66631816D01*
X130149000Y-66464184D01*
X130181703Y-66299772D01*
X130245853Y-66144900D01*
X130338985Y-66005519D01*
X130457519Y-65886985D01*
X130596900Y-65793853D01*
X130751772Y-65729703D01*
X130916184Y-65697000D01*
X131083816Y-65697000D01*
X131248228Y-65729703D01*
X131248228Y-65729703D01*
G37*
G36*
X107862823Y-65709313D02*
G01*
X108023242Y-65757976D01*
X108090361Y-65793852D01*
X108171078Y-65836996D01*
X108300659Y-65943341D01*
X108407004Y-66072922D01*
X108407005Y-66072924D01*
X108486024Y-66220758D01*
X108534687Y-66381177D01*
X108551117Y-66548000D01*
X108534687Y-66714823D01*
X108486024Y-66875242D01*
X108445477Y-66951100D01*
X108407004Y-67023078D01*
X108300659Y-67152659D01*
X108171078Y-67259004D01*
X108171076Y-67259005D01*
X108023242Y-67338024D01*
X107862823Y-67386687D01*
X107737804Y-67399000D01*
X107654196Y-67399000D01*
X107529177Y-67386687D01*
X107368758Y-67338024D01*
X107220924Y-67259005D01*
X107220922Y-67259004D01*
X107091341Y-67152659D01*
X106984996Y-67023078D01*
X106946523Y-66951100D01*
X106905976Y-66875242D01*
X106857313Y-66714823D01*
X106840883Y-66548000D01*
X106857313Y-66381177D01*
X106905976Y-66220758D01*
X106984995Y-66072924D01*
X106984996Y-66072922D01*
X107091341Y-65943341D01*
X107220922Y-65836996D01*
X107301639Y-65793852D01*
X107368758Y-65757976D01*
X107529177Y-65709313D01*
X107654196Y-65697000D01*
X107737804Y-65697000D01*
X107862823Y-65709313D01*
X107862823Y-65709313D01*
G37*
G36*
X118104228Y-65729703D02*
G01*
X118259100Y-65793853D01*
X118398481Y-65886985D01*
X118517015Y-66005519D01*
X118610147Y-66144900D01*
X118674297Y-66299772D01*
X118707000Y-66464184D01*
X118707000Y-66631816D01*
X118674297Y-66796228D01*
X118610147Y-66951100D01*
X118517015Y-67090481D01*
X118398481Y-67209015D01*
X118259100Y-67302147D01*
X118104228Y-67366297D01*
X117939816Y-67399000D01*
X117772184Y-67399000D01*
X117607772Y-67366297D01*
X117452900Y-67302147D01*
X117313519Y-67209015D01*
X117194985Y-67090481D01*
X117101853Y-66951100D01*
X117037703Y-66796228D01*
X117005000Y-66631816D01*
X117005000Y-66464184D01*
X117037703Y-66299772D01*
X117101853Y-66144900D01*
X117194985Y-66005519D01*
X117313519Y-65886985D01*
X117452900Y-65793853D01*
X117607772Y-65729703D01*
X117772184Y-65697000D01*
X117939816Y-65697000D01*
X118104228Y-65729703D01*
X118104228Y-65729703D01*
G37*
G36*
X104896228Y-65729703D02*
G01*
X105051100Y-65793853D01*
X105190481Y-65886985D01*
X105309015Y-66005519D01*
X105402147Y-66144900D01*
X105466297Y-66299772D01*
X105499000Y-66464184D01*
X105499000Y-66631816D01*
X105466297Y-66796228D01*
X105402147Y-66951100D01*
X105309015Y-67090481D01*
X105190481Y-67209015D01*
X105051100Y-67302147D01*
X104896228Y-67366297D01*
X104731816Y-67399000D01*
X104564184Y-67399000D01*
X104399772Y-67366297D01*
X104244900Y-67302147D01*
X104105519Y-67209015D01*
X103986985Y-67090481D01*
X103893853Y-66951100D01*
X103829703Y-66796228D01*
X103797000Y-66631816D01*
X103797000Y-66464184D01*
X103829703Y-66299772D01*
X103893853Y-66144900D01*
X103986985Y-66005519D01*
X104105519Y-65886985D01*
X104244900Y-65793853D01*
X104399772Y-65729703D01*
X104564184Y-65697000D01*
X104731816Y-65697000D01*
X104896228Y-65729703D01*
X104896228Y-65729703D01*
G37*
G36*
X91688228Y-65729703D02*
G01*
X91843100Y-65793853D01*
X91982481Y-65886985D01*
X92101015Y-66005519D01*
X92194147Y-66144900D01*
X92258297Y-66299772D01*
X92291000Y-66464184D01*
X92291000Y-66631816D01*
X92258297Y-66796228D01*
X92194147Y-66951100D01*
X92101015Y-67090481D01*
X91982481Y-67209015D01*
X91843100Y-67302147D01*
X91688228Y-67366297D01*
X91523816Y-67399000D01*
X91356184Y-67399000D01*
X91191772Y-67366297D01*
X91036900Y-67302147D01*
X90897519Y-67209015D01*
X90778985Y-67090481D01*
X90685853Y-66951100D01*
X90621703Y-66796228D01*
X90589000Y-66631816D01*
X90589000Y-66464184D01*
X90621703Y-66299772D01*
X90685853Y-66144900D01*
X90778985Y-66005519D01*
X90897519Y-65886985D01*
X91036900Y-65793853D01*
X91191772Y-65729703D01*
X91356184Y-65697000D01*
X91523816Y-65697000D01*
X91688228Y-65729703D01*
X91688228Y-65729703D01*
G37*
G36*
X134006823Y-65709313D02*
G01*
X134167242Y-65757976D01*
X134234361Y-65793852D01*
X134315078Y-65836996D01*
X134444659Y-65943341D01*
X134551004Y-66072922D01*
X134551005Y-66072924D01*
X134630024Y-66220758D01*
X134678687Y-66381177D01*
X134695117Y-66548000D01*
X134678687Y-66714823D01*
X134630024Y-66875242D01*
X134589477Y-66951100D01*
X134551004Y-67023078D01*
X134444659Y-67152659D01*
X134315078Y-67259004D01*
X134315076Y-67259005D01*
X134167242Y-67338024D01*
X134006823Y-67386687D01*
X133881804Y-67399000D01*
X133798196Y-67399000D01*
X133673177Y-67386687D01*
X133512758Y-67338024D01*
X133364924Y-67259005D01*
X133364922Y-67259004D01*
X133235341Y-67152659D01*
X133128996Y-67023078D01*
X133090523Y-66951100D01*
X133049976Y-66875242D01*
X133001313Y-66714823D01*
X132984883Y-66548000D01*
X133001313Y-66381177D01*
X133049976Y-66220758D01*
X133128995Y-66072924D01*
X133128996Y-66072922D01*
X133235341Y-65943341D01*
X133364922Y-65836996D01*
X133445639Y-65793852D01*
X133512758Y-65757976D01*
X133673177Y-65709313D01*
X133798196Y-65697000D01*
X133881804Y-65697000D01*
X134006823Y-65709313D01*
X134006823Y-65709313D01*
G37*
G36*
X81446823Y-65709313D02*
G01*
X81607242Y-65757976D01*
X81674361Y-65793852D01*
X81755078Y-65836996D01*
X81884659Y-65943341D01*
X81991004Y-66072922D01*
X81991005Y-66072924D01*
X82070024Y-66220758D01*
X82118687Y-66381177D01*
X82135117Y-66548000D01*
X82118687Y-66714823D01*
X82070024Y-66875242D01*
X82029477Y-66951100D01*
X81991004Y-67023078D01*
X81884659Y-67152659D01*
X81755078Y-67259004D01*
X81755076Y-67259005D01*
X81607242Y-67338024D01*
X81446823Y-67386687D01*
X81321804Y-67399000D01*
X81238196Y-67399000D01*
X81113177Y-67386687D01*
X80952758Y-67338024D01*
X80804924Y-67259005D01*
X80804922Y-67259004D01*
X80675341Y-67152659D01*
X80568996Y-67023078D01*
X80530523Y-66951100D01*
X80489976Y-66875242D01*
X80441313Y-66714823D01*
X80424883Y-66548000D01*
X80441313Y-66381177D01*
X80489976Y-66220758D01*
X80568995Y-66072924D01*
X80568996Y-66072922D01*
X80675341Y-65943341D01*
X80804922Y-65836996D01*
X80885639Y-65793852D01*
X80952758Y-65757976D01*
X81113177Y-65709313D01*
X81238196Y-65697000D01*
X81321804Y-65697000D01*
X81446823Y-65709313D01*
X81446823Y-65709313D01*
G37*
G36*
X94654823Y-65709313D02*
G01*
X94815242Y-65757976D01*
X94882361Y-65793852D01*
X94963078Y-65836996D01*
X95092659Y-65943341D01*
X95199004Y-66072922D01*
X95199005Y-66072924D01*
X95278024Y-66220758D01*
X95326687Y-66381177D01*
X95343117Y-66548000D01*
X95326687Y-66714823D01*
X95278024Y-66875242D01*
X95237477Y-66951100D01*
X95199004Y-67023078D01*
X95092659Y-67152659D01*
X94963078Y-67259004D01*
X94963076Y-67259005D01*
X94815242Y-67338024D01*
X94654823Y-67386687D01*
X94529804Y-67399000D01*
X94446196Y-67399000D01*
X94321177Y-67386687D01*
X94160758Y-67338024D01*
X94012924Y-67259005D01*
X94012922Y-67259004D01*
X93883341Y-67152659D01*
X93776996Y-67023078D01*
X93738523Y-66951100D01*
X93697976Y-66875242D01*
X93649313Y-66714823D01*
X93632883Y-66548000D01*
X93649313Y-66381177D01*
X93697976Y-66220758D01*
X93776995Y-66072924D01*
X93776996Y-66072922D01*
X93883341Y-65943341D01*
X94012922Y-65836996D01*
X94093639Y-65793852D01*
X94160758Y-65757976D01*
X94321177Y-65709313D01*
X94446196Y-65697000D01*
X94529804Y-65697000D01*
X94654823Y-65709313D01*
X94654823Y-65709313D01*
G37*
G36*
X55030823Y-65709313D02*
G01*
X55191242Y-65757976D01*
X55258361Y-65793852D01*
X55339078Y-65836996D01*
X55468659Y-65943341D01*
X55575004Y-66072922D01*
X55575005Y-66072924D01*
X55654024Y-66220758D01*
X55702687Y-66381177D01*
X55719117Y-66548000D01*
X55702687Y-66714823D01*
X55654024Y-66875242D01*
X55613477Y-66951100D01*
X55575004Y-67023078D01*
X55468659Y-67152659D01*
X55339078Y-67259004D01*
X55339076Y-67259005D01*
X55191242Y-67338024D01*
X55030823Y-67386687D01*
X54905804Y-67399000D01*
X54822196Y-67399000D01*
X54697177Y-67386687D01*
X54536758Y-67338024D01*
X54388924Y-67259005D01*
X54388922Y-67259004D01*
X54259341Y-67152659D01*
X54152996Y-67023078D01*
X54114523Y-66951100D01*
X54073976Y-66875242D01*
X54025313Y-66714823D01*
X54008883Y-66548000D01*
X54025313Y-66381177D01*
X54073976Y-66220758D01*
X54152995Y-66072924D01*
X54152996Y-66072922D01*
X54259341Y-65943341D01*
X54388922Y-65836996D01*
X54469639Y-65793852D01*
X54536758Y-65757976D01*
X54697177Y-65709313D01*
X54822196Y-65697000D01*
X54905804Y-65697000D01*
X55030823Y-65709313D01*
X55030823Y-65709313D01*
G37*
G36*
X68238823Y-65709313D02*
G01*
X68399242Y-65757976D01*
X68466361Y-65793852D01*
X68547078Y-65836996D01*
X68676659Y-65943341D01*
X68783004Y-66072922D01*
X68783005Y-66072924D01*
X68862024Y-66220758D01*
X68910687Y-66381177D01*
X68927117Y-66548000D01*
X68910687Y-66714823D01*
X68862024Y-66875242D01*
X68821477Y-66951100D01*
X68783004Y-67023078D01*
X68676659Y-67152659D01*
X68547078Y-67259004D01*
X68547076Y-67259005D01*
X68399242Y-67338024D01*
X68238823Y-67386687D01*
X68113804Y-67399000D01*
X68030196Y-67399000D01*
X67905177Y-67386687D01*
X67744758Y-67338024D01*
X67596924Y-67259005D01*
X67596922Y-67259004D01*
X67467341Y-67152659D01*
X67360996Y-67023078D01*
X67322523Y-66951100D01*
X67281976Y-66875242D01*
X67233313Y-66714823D01*
X67216883Y-66548000D01*
X67233313Y-66381177D01*
X67281976Y-66220758D01*
X67360995Y-66072924D01*
X67360996Y-66072922D01*
X67467341Y-65943341D01*
X67596922Y-65836996D01*
X67677639Y-65793852D01*
X67744758Y-65757976D01*
X67905177Y-65709313D01*
X68030196Y-65697000D01*
X68113804Y-65697000D01*
X68238823Y-65709313D01*
X68238823Y-65709313D01*
G37*
G36*
X65272228Y-65729703D02*
G01*
X65427100Y-65793853D01*
X65566481Y-65886985D01*
X65685015Y-66005519D01*
X65778147Y-66144900D01*
X65842297Y-66299772D01*
X65875000Y-66464184D01*
X65875000Y-66631816D01*
X65842297Y-66796228D01*
X65778147Y-66951100D01*
X65685015Y-67090481D01*
X65566481Y-67209015D01*
X65427100Y-67302147D01*
X65272228Y-67366297D01*
X65107816Y-67399000D01*
X64940184Y-67399000D01*
X64775772Y-67366297D01*
X64620900Y-67302147D01*
X64481519Y-67209015D01*
X64362985Y-67090481D01*
X64269853Y-66951100D01*
X64205703Y-66796228D01*
X64173000Y-66631816D01*
X64173000Y-66464184D01*
X64205703Y-66299772D01*
X64269853Y-66144900D01*
X64362985Y-66005519D01*
X64481519Y-65886985D01*
X64620900Y-65793853D01*
X64775772Y-65729703D01*
X64940184Y-65697000D01*
X65107816Y-65697000D01*
X65272228Y-65729703D01*
X65272228Y-65729703D01*
G37*
G36*
X253519000Y-65559000D02*
G01*
X250417000Y-65559000D01*
X250417000Y-62457000D01*
X253519000Y-62457000D01*
X253519000Y-65559000D01*
X253519000Y-65559000D01*
G37*
G36*
X173293642Y-63649781D02*
G01*
X173439414Y-63710162D01*
X173439416Y-63710163D01*
X173570608Y-63797822D01*
X173682178Y-63909392D01*
X173769837Y-64040584D01*
X173769838Y-64040586D01*
X173830219Y-64186358D01*
X173861000Y-64341107D01*
X173861000Y-64498893D01*
X173830219Y-64653642D01*
X173769838Y-64799414D01*
X173769837Y-64799416D01*
X173682178Y-64930608D01*
X173570608Y-65042178D01*
X173439416Y-65129837D01*
X173439415Y-65129838D01*
X173439414Y-65129838D01*
X173293642Y-65190219D01*
X173138893Y-65221000D01*
X172981107Y-65221000D01*
X172826358Y-65190219D01*
X172680586Y-65129838D01*
X172680585Y-65129838D01*
X172680584Y-65129837D01*
X172549392Y-65042178D01*
X172437822Y-64930608D01*
X172350163Y-64799416D01*
X172350162Y-64799414D01*
X172289781Y-64653642D01*
X172259000Y-64498893D01*
X172259000Y-64341107D01*
X172289781Y-64186358D01*
X172350162Y-64040586D01*
X172350163Y-64040584D01*
X172437822Y-63909392D01*
X172549392Y-63797822D01*
X172680584Y-63710163D01*
X172680586Y-63710162D01*
X172826358Y-63649781D01*
X172981107Y-63619000D01*
X173138893Y-63619000D01*
X173293642Y-63649781D01*
X173293642Y-63649781D01*
G37*
G36*
X205293642Y-63649781D02*
G01*
X205439414Y-63710162D01*
X205439416Y-63710163D01*
X205570608Y-63797822D01*
X205682178Y-63909392D01*
X205769837Y-64040584D01*
X205769838Y-64040586D01*
X205830219Y-64186358D01*
X205861000Y-64341107D01*
X205861000Y-64498893D01*
X205830219Y-64653642D01*
X205769838Y-64799414D01*
X205769837Y-64799416D01*
X205682178Y-64930608D01*
X205570608Y-65042178D01*
X205439416Y-65129837D01*
X205439415Y-65129838D01*
X205439414Y-65129838D01*
X205293642Y-65190219D01*
X205138893Y-65221000D01*
X204981107Y-65221000D01*
X204826358Y-65190219D01*
X204680586Y-65129838D01*
X204680585Y-65129838D01*
X204680584Y-65129837D01*
X204549392Y-65042178D01*
X204437822Y-64930608D01*
X204350163Y-64799416D01*
X204350162Y-64799414D01*
X204289781Y-64653642D01*
X204259000Y-64498893D01*
X204259000Y-64341107D01*
X204289781Y-64186358D01*
X204350162Y-64040586D01*
X204350163Y-64040584D01*
X204437822Y-63909392D01*
X204549392Y-63797822D01*
X204680584Y-63710163D01*
X204680586Y-63710162D01*
X204826358Y-63649781D01*
X204981107Y-63619000D01*
X205138893Y-63619000D01*
X205293642Y-63649781D01*
X205293642Y-63649781D01*
G37*
G36*
X184042823Y-62129313D02*
G01*
X184203242Y-62177976D01*
X184270361Y-62213852D01*
X184351078Y-62256996D01*
X184480659Y-62363341D01*
X184587004Y-62492922D01*
X184587005Y-62492924D01*
X184666024Y-62640758D01*
X184714687Y-62801177D01*
X184731117Y-62968000D01*
X184714687Y-63134823D01*
X184666024Y-63295242D01*
X184625477Y-63371100D01*
X184587004Y-63443078D01*
X184480659Y-63572659D01*
X184351078Y-63679004D01*
X184351076Y-63679005D01*
X184203242Y-63758024D01*
X184042823Y-63806687D01*
X183917804Y-63819000D01*
X183834196Y-63819000D01*
X183709177Y-63806687D01*
X183548758Y-63758024D01*
X183400924Y-63679005D01*
X183400922Y-63679004D01*
X183271341Y-63572659D01*
X183164996Y-63443078D01*
X183126523Y-63371100D01*
X183085976Y-63295242D01*
X183037313Y-63134823D01*
X183020883Y-62968000D01*
X183037313Y-62801177D01*
X183085976Y-62640758D01*
X183164995Y-62492924D01*
X183164996Y-62492922D01*
X183271341Y-62363341D01*
X183400922Y-62256996D01*
X183481639Y-62213852D01*
X183548758Y-62177976D01*
X183709177Y-62129313D01*
X183834196Y-62117000D01*
X183917804Y-62117000D01*
X184042823Y-62129313D01*
X184042823Y-62129313D01*
G37*
G36*
X194284228Y-62149703D02*
G01*
X194439100Y-62213853D01*
X194578481Y-62306985D01*
X194697015Y-62425519D01*
X194790147Y-62564900D01*
X194854297Y-62719772D01*
X194887000Y-62884184D01*
X194887000Y-63051816D01*
X194854297Y-63216228D01*
X194790147Y-63371100D01*
X194697015Y-63510481D01*
X194578481Y-63629015D01*
X194439100Y-63722147D01*
X194284228Y-63786297D01*
X194119816Y-63819000D01*
X193952184Y-63819000D01*
X193787772Y-63786297D01*
X193632900Y-63722147D01*
X193493519Y-63629015D01*
X193374985Y-63510481D01*
X193281853Y-63371100D01*
X193217703Y-63216228D01*
X193185000Y-63051816D01*
X193185000Y-62884184D01*
X193217703Y-62719772D01*
X193281853Y-62564900D01*
X193374985Y-62425519D01*
X193493519Y-62306985D01*
X193632900Y-62213853D01*
X193787772Y-62149703D01*
X193952184Y-62117000D01*
X194119816Y-62117000D01*
X194284228Y-62149703D01*
X194284228Y-62149703D01*
G37*
G36*
X97829000Y-60745000D02*
G01*
X96227000Y-60745000D01*
X96227000Y-59143000D01*
X97829000Y-59143000D01*
X97829000Y-60745000D01*
X97829000Y-60745000D01*
G37*
G36*
X89641642Y-59173781D02*
G01*
X89787414Y-59234162D01*
X89787416Y-59234163D01*
X89918608Y-59321822D01*
X90030178Y-59433392D01*
X90117837Y-59564584D01*
X90117838Y-59564586D01*
X90178219Y-59710358D01*
X90209000Y-59865107D01*
X90209000Y-60022893D01*
X90178219Y-60177642D01*
X90117838Y-60323414D01*
X90117837Y-60323416D01*
X90030178Y-60454608D01*
X89918608Y-60566178D01*
X89787416Y-60653837D01*
X89787415Y-60653838D01*
X89787414Y-60653838D01*
X89641642Y-60714219D01*
X89486893Y-60745000D01*
X89329107Y-60745000D01*
X89174358Y-60714219D01*
X89028586Y-60653838D01*
X89028585Y-60653838D01*
X89028584Y-60653837D01*
X88897392Y-60566178D01*
X88785822Y-60454608D01*
X88698163Y-60323416D01*
X88698162Y-60323414D01*
X88637781Y-60177642D01*
X88607000Y-60022893D01*
X88607000Y-59865107D01*
X88637781Y-59710358D01*
X88698162Y-59564586D01*
X88698163Y-59564584D01*
X88785822Y-59433392D01*
X88897392Y-59321822D01*
X89028584Y-59234163D01*
X89028586Y-59234162D01*
X89174358Y-59173781D01*
X89329107Y-59143000D01*
X89486893Y-59143000D01*
X89641642Y-59173781D01*
X89641642Y-59173781D01*
G37*
G36*
X87101642Y-59173781D02*
G01*
X87247414Y-59234162D01*
X87247416Y-59234163D01*
X87378608Y-59321822D01*
X87490178Y-59433392D01*
X87577837Y-59564584D01*
X87577838Y-59564586D01*
X87638219Y-59710358D01*
X87669000Y-59865107D01*
X87669000Y-60022893D01*
X87638219Y-60177642D01*
X87577838Y-60323414D01*
X87577837Y-60323416D01*
X87490178Y-60454608D01*
X87378608Y-60566178D01*
X87247416Y-60653837D01*
X87247415Y-60653838D01*
X87247414Y-60653838D01*
X87101642Y-60714219D01*
X86946893Y-60745000D01*
X86789107Y-60745000D01*
X86634358Y-60714219D01*
X86488586Y-60653838D01*
X86488585Y-60653838D01*
X86488584Y-60653837D01*
X86357392Y-60566178D01*
X86245822Y-60454608D01*
X86158163Y-60323416D01*
X86158162Y-60323414D01*
X86097781Y-60177642D01*
X86067000Y-60022893D01*
X86067000Y-59865107D01*
X86097781Y-59710358D01*
X86158162Y-59564586D01*
X86158163Y-59564584D01*
X86245822Y-59433392D01*
X86357392Y-59321822D01*
X86488584Y-59234163D01*
X86488586Y-59234162D01*
X86634358Y-59173781D01*
X86789107Y-59143000D01*
X86946893Y-59143000D01*
X87101642Y-59173781D01*
X87101642Y-59173781D01*
G37*
G36*
X85129000Y-60745000D02*
G01*
X83527000Y-60745000D01*
X83527000Y-59143000D01*
X85129000Y-59143000D01*
X85129000Y-60745000D01*
X85129000Y-60745000D01*
G37*
G36*
X75925642Y-59173781D02*
G01*
X76071414Y-59234162D01*
X76071416Y-59234163D01*
X76202608Y-59321822D01*
X76314178Y-59433392D01*
X76401837Y-59564584D01*
X76401838Y-59564586D01*
X76462219Y-59710358D01*
X76493000Y-59865107D01*
X76493000Y-60022893D01*
X76462219Y-60177642D01*
X76401838Y-60323414D01*
X76401837Y-60323416D01*
X76314178Y-60454608D01*
X76202608Y-60566178D01*
X76071416Y-60653837D01*
X76071415Y-60653838D01*
X76071414Y-60653838D01*
X75925642Y-60714219D01*
X75770893Y-60745000D01*
X75613107Y-60745000D01*
X75458358Y-60714219D01*
X75312586Y-60653838D01*
X75312585Y-60653838D01*
X75312584Y-60653837D01*
X75181392Y-60566178D01*
X75069822Y-60454608D01*
X74982163Y-60323416D01*
X74982162Y-60323414D01*
X74921781Y-60177642D01*
X74891000Y-60022893D01*
X74891000Y-59865107D01*
X74921781Y-59710358D01*
X74982162Y-59564586D01*
X74982163Y-59564584D01*
X75069822Y-59433392D01*
X75181392Y-59321822D01*
X75312584Y-59234163D01*
X75312586Y-59234162D01*
X75458358Y-59173781D01*
X75613107Y-59143000D01*
X75770893Y-59143000D01*
X75925642Y-59173781D01*
X75925642Y-59173781D01*
G37*
G36*
X73385642Y-59173781D02*
G01*
X73531414Y-59234162D01*
X73531416Y-59234163D01*
X73662608Y-59321822D01*
X73774178Y-59433392D01*
X73861837Y-59564584D01*
X73861838Y-59564586D01*
X73922219Y-59710358D01*
X73953000Y-59865107D01*
X73953000Y-60022893D01*
X73922219Y-60177642D01*
X73861838Y-60323414D01*
X73861837Y-60323416D01*
X73774178Y-60454608D01*
X73662608Y-60566178D01*
X73531416Y-60653837D01*
X73531415Y-60653838D01*
X73531414Y-60653838D01*
X73385642Y-60714219D01*
X73230893Y-60745000D01*
X73073107Y-60745000D01*
X72918358Y-60714219D01*
X72772586Y-60653838D01*
X72772585Y-60653838D01*
X72772584Y-60653837D01*
X72641392Y-60566178D01*
X72529822Y-60454608D01*
X72442163Y-60323416D01*
X72442162Y-60323414D01*
X72381781Y-60177642D01*
X72351000Y-60022893D01*
X72351000Y-59865107D01*
X72381781Y-59710358D01*
X72442162Y-59564586D01*
X72442163Y-59564584D01*
X72529822Y-59433392D01*
X72641392Y-59321822D01*
X72772584Y-59234163D01*
X72772586Y-59234162D01*
X72918358Y-59173781D01*
X73073107Y-59143000D01*
X73230893Y-59143000D01*
X73385642Y-59173781D01*
X73385642Y-59173781D01*
G37*
G36*
X71413000Y-60745000D02*
G01*
X69811000Y-60745000D01*
X69811000Y-59143000D01*
X71413000Y-59143000D01*
X71413000Y-60745000D01*
X71413000Y-60745000D01*
G37*
G36*
X139425642Y-59173781D02*
G01*
X139571414Y-59234162D01*
X139571416Y-59234163D01*
X139702608Y-59321822D01*
X139814178Y-59433392D01*
X139901837Y-59564584D01*
X139901838Y-59564586D01*
X139962219Y-59710358D01*
X139993000Y-59865107D01*
X139993000Y-60022893D01*
X139962219Y-60177642D01*
X139901838Y-60323414D01*
X139901837Y-60323416D01*
X139814178Y-60454608D01*
X139702608Y-60566178D01*
X139571416Y-60653837D01*
X139571415Y-60653838D01*
X139571414Y-60653838D01*
X139425642Y-60714219D01*
X139270893Y-60745000D01*
X139113107Y-60745000D01*
X138958358Y-60714219D01*
X138812586Y-60653838D01*
X138812585Y-60653838D01*
X138812584Y-60653837D01*
X138681392Y-60566178D01*
X138569822Y-60454608D01*
X138482163Y-60323416D01*
X138482162Y-60323414D01*
X138421781Y-60177642D01*
X138391000Y-60022893D01*
X138391000Y-59865107D01*
X138421781Y-59710358D01*
X138482162Y-59564586D01*
X138482163Y-59564584D01*
X138569822Y-59433392D01*
X138681392Y-59321822D01*
X138812584Y-59234163D01*
X138812586Y-59234162D01*
X138958358Y-59173781D01*
X139113107Y-59143000D01*
X139270893Y-59143000D01*
X139425642Y-59173781D01*
X139425642Y-59173781D01*
G37*
G36*
X141965642Y-59173781D02*
G01*
X142111414Y-59234162D01*
X142111416Y-59234163D01*
X142242608Y-59321822D01*
X142354178Y-59433392D01*
X142441837Y-59564584D01*
X142441838Y-59564586D01*
X142502219Y-59710358D01*
X142533000Y-59865107D01*
X142533000Y-60022893D01*
X142502219Y-60177642D01*
X142441838Y-60323414D01*
X142441837Y-60323416D01*
X142354178Y-60454608D01*
X142242608Y-60566178D01*
X142111416Y-60653837D01*
X142111415Y-60653838D01*
X142111414Y-60653838D01*
X141965642Y-60714219D01*
X141810893Y-60745000D01*
X141653107Y-60745000D01*
X141498358Y-60714219D01*
X141352586Y-60653838D01*
X141352585Y-60653838D01*
X141352584Y-60653837D01*
X141221392Y-60566178D01*
X141109822Y-60454608D01*
X141022163Y-60323416D01*
X141022162Y-60323414D01*
X140961781Y-60177642D01*
X140931000Y-60022893D01*
X140931000Y-59865107D01*
X140961781Y-59710358D01*
X141022162Y-59564586D01*
X141022163Y-59564584D01*
X141109822Y-59433392D01*
X141221392Y-59321822D01*
X141352584Y-59234163D01*
X141352586Y-59234162D01*
X141498358Y-59173781D01*
X141653107Y-59143000D01*
X141810893Y-59143000D01*
X141965642Y-59173781D01*
X141965642Y-59173781D01*
G37*
G36*
X62717642Y-59173781D02*
G01*
X62863414Y-59234162D01*
X62863416Y-59234163D01*
X62994608Y-59321822D01*
X63106178Y-59433392D01*
X63193837Y-59564584D01*
X63193838Y-59564586D01*
X63254219Y-59710358D01*
X63285000Y-59865107D01*
X63285000Y-60022893D01*
X63254219Y-60177642D01*
X63193838Y-60323414D01*
X63193837Y-60323416D01*
X63106178Y-60454608D01*
X62994608Y-60566178D01*
X62863416Y-60653837D01*
X62863415Y-60653838D01*
X62863414Y-60653838D01*
X62717642Y-60714219D01*
X62562893Y-60745000D01*
X62405107Y-60745000D01*
X62250358Y-60714219D01*
X62104586Y-60653838D01*
X62104585Y-60653838D01*
X62104584Y-60653837D01*
X61973392Y-60566178D01*
X61861822Y-60454608D01*
X61774163Y-60323416D01*
X61774162Y-60323414D01*
X61713781Y-60177642D01*
X61683000Y-60022893D01*
X61683000Y-59865107D01*
X61713781Y-59710358D01*
X61774162Y-59564586D01*
X61774163Y-59564584D01*
X61861822Y-59433392D01*
X61973392Y-59321822D01*
X62104584Y-59234163D01*
X62104586Y-59234162D01*
X62250358Y-59173781D01*
X62405107Y-59143000D01*
X62562893Y-59143000D01*
X62717642Y-59173781D01*
X62717642Y-59173781D01*
G37*
G36*
X102341642Y-59173781D02*
G01*
X102487414Y-59234162D01*
X102487416Y-59234163D01*
X102618608Y-59321822D01*
X102730178Y-59433392D01*
X102817837Y-59564584D01*
X102817838Y-59564586D01*
X102878219Y-59710358D01*
X102909000Y-59865107D01*
X102909000Y-60022893D01*
X102878219Y-60177642D01*
X102817838Y-60323414D01*
X102817837Y-60323416D01*
X102730178Y-60454608D01*
X102618608Y-60566178D01*
X102487416Y-60653837D01*
X102487415Y-60653838D01*
X102487414Y-60653838D01*
X102341642Y-60714219D01*
X102186893Y-60745000D01*
X102029107Y-60745000D01*
X101874358Y-60714219D01*
X101728586Y-60653838D01*
X101728585Y-60653838D01*
X101728584Y-60653837D01*
X101597392Y-60566178D01*
X101485822Y-60454608D01*
X101398163Y-60323416D01*
X101398162Y-60323414D01*
X101337781Y-60177642D01*
X101307000Y-60022893D01*
X101307000Y-59865107D01*
X101337781Y-59710358D01*
X101398162Y-59564586D01*
X101398163Y-59564584D01*
X101485822Y-59433392D01*
X101597392Y-59321822D01*
X101728584Y-59234163D01*
X101728586Y-59234162D01*
X101874358Y-59173781D01*
X102029107Y-59143000D01*
X102186893Y-59143000D01*
X102341642Y-59173781D01*
X102341642Y-59173781D01*
G37*
G36*
X111037000Y-60745000D02*
G01*
X109435000Y-60745000D01*
X109435000Y-59143000D01*
X111037000Y-59143000D01*
X111037000Y-60745000D01*
X111037000Y-60745000D01*
G37*
G36*
X60177642Y-59173781D02*
G01*
X60323414Y-59234162D01*
X60323416Y-59234163D01*
X60454608Y-59321822D01*
X60566178Y-59433392D01*
X60653837Y-59564584D01*
X60653838Y-59564586D01*
X60714219Y-59710358D01*
X60745000Y-59865107D01*
X60745000Y-60022893D01*
X60714219Y-60177642D01*
X60653838Y-60323414D01*
X60653837Y-60323416D01*
X60566178Y-60454608D01*
X60454608Y-60566178D01*
X60323416Y-60653837D01*
X60323415Y-60653838D01*
X60323414Y-60653838D01*
X60177642Y-60714219D01*
X60022893Y-60745000D01*
X59865107Y-60745000D01*
X59710358Y-60714219D01*
X59564586Y-60653838D01*
X59564585Y-60653838D01*
X59564584Y-60653837D01*
X59433392Y-60566178D01*
X59321822Y-60454608D01*
X59234163Y-60323416D01*
X59234162Y-60323414D01*
X59173781Y-60177642D01*
X59143000Y-60022893D01*
X59143000Y-59865107D01*
X59173781Y-59710358D01*
X59234162Y-59564586D01*
X59234163Y-59564584D01*
X59321822Y-59433392D01*
X59433392Y-59321822D01*
X59564584Y-59234163D01*
X59564586Y-59234162D01*
X59710358Y-59173781D01*
X59865107Y-59143000D01*
X60022893Y-59143000D01*
X60177642Y-59173781D01*
X60177642Y-59173781D01*
G37*
G36*
X113009642Y-59173781D02*
G01*
X113155414Y-59234162D01*
X113155416Y-59234163D01*
X113286608Y-59321822D01*
X113398178Y-59433392D01*
X113485837Y-59564584D01*
X113485838Y-59564586D01*
X113546219Y-59710358D01*
X113577000Y-59865107D01*
X113577000Y-60022893D01*
X113546219Y-60177642D01*
X113485838Y-60323414D01*
X113485837Y-60323416D01*
X113398178Y-60454608D01*
X113286608Y-60566178D01*
X113155416Y-60653837D01*
X113155415Y-60653838D01*
X113155414Y-60653838D01*
X113009642Y-60714219D01*
X112854893Y-60745000D01*
X112697107Y-60745000D01*
X112542358Y-60714219D01*
X112396586Y-60653838D01*
X112396585Y-60653838D01*
X112396584Y-60653837D01*
X112265392Y-60566178D01*
X112153822Y-60454608D01*
X112066163Y-60323416D01*
X112066162Y-60323414D01*
X112005781Y-60177642D01*
X111975000Y-60022893D01*
X111975000Y-59865107D01*
X112005781Y-59710358D01*
X112066162Y-59564586D01*
X112066163Y-59564584D01*
X112153822Y-59433392D01*
X112265392Y-59321822D01*
X112396584Y-59234163D01*
X112396586Y-59234162D01*
X112542358Y-59173781D01*
X112697107Y-59143000D01*
X112854893Y-59143000D01*
X113009642Y-59173781D01*
X113009642Y-59173781D01*
G37*
G36*
X115549642Y-59173781D02*
G01*
X115695414Y-59234162D01*
X115695416Y-59234163D01*
X115826608Y-59321822D01*
X115938178Y-59433392D01*
X116025837Y-59564584D01*
X116025838Y-59564586D01*
X116086219Y-59710358D01*
X116117000Y-59865107D01*
X116117000Y-60022893D01*
X116086219Y-60177642D01*
X116025838Y-60323414D01*
X116025837Y-60323416D01*
X115938178Y-60454608D01*
X115826608Y-60566178D01*
X115695416Y-60653837D01*
X115695415Y-60653838D01*
X115695414Y-60653838D01*
X115549642Y-60714219D01*
X115394893Y-60745000D01*
X115237107Y-60745000D01*
X115082358Y-60714219D01*
X114936586Y-60653838D01*
X114936585Y-60653838D01*
X114936584Y-60653837D01*
X114805392Y-60566178D01*
X114693822Y-60454608D01*
X114606163Y-60323416D01*
X114606162Y-60323414D01*
X114545781Y-60177642D01*
X114515000Y-60022893D01*
X114515000Y-59865107D01*
X114545781Y-59710358D01*
X114606162Y-59564586D01*
X114606163Y-59564584D01*
X114693822Y-59433392D01*
X114805392Y-59321822D01*
X114936584Y-59234163D01*
X114936586Y-59234162D01*
X115082358Y-59173781D01*
X115237107Y-59143000D01*
X115394893Y-59143000D01*
X115549642Y-59173781D01*
X115549642Y-59173781D01*
G37*
G36*
X124245000Y-60745000D02*
G01*
X122643000Y-60745000D01*
X122643000Y-59143000D01*
X124245000Y-59143000D01*
X124245000Y-60745000D01*
X124245000Y-60745000D01*
G37*
G36*
X126217642Y-59173781D02*
G01*
X126363414Y-59234162D01*
X126363416Y-59234163D01*
X126494608Y-59321822D01*
X126606178Y-59433392D01*
X126693837Y-59564584D01*
X126693838Y-59564586D01*
X126754219Y-59710358D01*
X126785000Y-59865107D01*
X126785000Y-60022893D01*
X126754219Y-60177642D01*
X126693838Y-60323414D01*
X126693837Y-60323416D01*
X126606178Y-60454608D01*
X126494608Y-60566178D01*
X126363416Y-60653837D01*
X126363415Y-60653838D01*
X126363414Y-60653838D01*
X126217642Y-60714219D01*
X126062893Y-60745000D01*
X125905107Y-60745000D01*
X125750358Y-60714219D01*
X125604586Y-60653838D01*
X125604585Y-60653838D01*
X125604584Y-60653837D01*
X125473392Y-60566178D01*
X125361822Y-60454608D01*
X125274163Y-60323416D01*
X125274162Y-60323414D01*
X125213781Y-60177642D01*
X125183000Y-60022893D01*
X125183000Y-59865107D01*
X125213781Y-59710358D01*
X125274162Y-59564586D01*
X125274163Y-59564584D01*
X125361822Y-59433392D01*
X125473392Y-59321822D01*
X125604584Y-59234163D01*
X125604586Y-59234162D01*
X125750358Y-59173781D01*
X125905107Y-59143000D01*
X126062893Y-59143000D01*
X126217642Y-59173781D01*
X126217642Y-59173781D01*
G37*
G36*
X128757642Y-59173781D02*
G01*
X128903414Y-59234162D01*
X128903416Y-59234163D01*
X129034608Y-59321822D01*
X129146178Y-59433392D01*
X129233837Y-59564584D01*
X129233838Y-59564586D01*
X129294219Y-59710358D01*
X129325000Y-59865107D01*
X129325000Y-60022893D01*
X129294219Y-60177642D01*
X129233838Y-60323414D01*
X129233837Y-60323416D01*
X129146178Y-60454608D01*
X129034608Y-60566178D01*
X128903416Y-60653837D01*
X128903415Y-60653838D01*
X128903414Y-60653838D01*
X128757642Y-60714219D01*
X128602893Y-60745000D01*
X128445107Y-60745000D01*
X128290358Y-60714219D01*
X128144586Y-60653838D01*
X128144585Y-60653838D01*
X128144584Y-60653837D01*
X128013392Y-60566178D01*
X127901822Y-60454608D01*
X127814163Y-60323416D01*
X127814162Y-60323414D01*
X127753781Y-60177642D01*
X127723000Y-60022893D01*
X127723000Y-59865107D01*
X127753781Y-59710358D01*
X127814162Y-59564586D01*
X127814163Y-59564584D01*
X127901822Y-59433392D01*
X128013392Y-59321822D01*
X128144584Y-59234163D01*
X128144586Y-59234162D01*
X128290358Y-59173781D01*
X128445107Y-59143000D01*
X128602893Y-59143000D01*
X128757642Y-59173781D01*
X128757642Y-59173781D01*
G37*
G36*
X58205000Y-60745000D02*
G01*
X56603000Y-60745000D01*
X56603000Y-59143000D01*
X58205000Y-59143000D01*
X58205000Y-60745000D01*
X58205000Y-60745000D01*
G37*
G36*
X137453000Y-60745000D02*
G01*
X135851000Y-60745000D01*
X135851000Y-59143000D01*
X137453000Y-59143000D01*
X137453000Y-60745000D01*
X137453000Y-60745000D01*
G37*
G36*
X99801642Y-59173781D02*
G01*
X99947414Y-59234162D01*
X99947416Y-59234163D01*
X100078608Y-59321822D01*
X100190178Y-59433392D01*
X100277837Y-59564584D01*
X100277838Y-59564586D01*
X100338219Y-59710358D01*
X100369000Y-59865107D01*
X100369000Y-60022893D01*
X100338219Y-60177642D01*
X100277838Y-60323414D01*
X100277837Y-60323416D01*
X100190178Y-60454608D01*
X100078608Y-60566178D01*
X99947416Y-60653837D01*
X99947415Y-60653838D01*
X99947414Y-60653838D01*
X99801642Y-60714219D01*
X99646893Y-60745000D01*
X99489107Y-60745000D01*
X99334358Y-60714219D01*
X99188586Y-60653838D01*
X99188585Y-60653838D01*
X99188584Y-60653837D01*
X99057392Y-60566178D01*
X98945822Y-60454608D01*
X98858163Y-60323416D01*
X98858162Y-60323414D01*
X98797781Y-60177642D01*
X98767000Y-60022893D01*
X98767000Y-59865107D01*
X98797781Y-59710358D01*
X98858162Y-59564586D01*
X98858163Y-59564584D01*
X98945822Y-59433392D01*
X99057392Y-59321822D01*
X99188584Y-59234163D01*
X99188586Y-59234162D01*
X99334358Y-59173781D01*
X99489107Y-59143000D01*
X99646893Y-59143000D01*
X99801642Y-59173781D01*
X99801642Y-59173781D01*
G37*
G36*
X252270585Y-57406802D02*
G01*
X252420410Y-57436604D01*
X252702674Y-57553521D01*
X252956705Y-57723259D01*
X253172741Y-57939295D01*
X253342479Y-58193326D01*
X253459396Y-58475590D01*
X253483945Y-58599005D01*
X253511792Y-58739000D01*
X253519000Y-58775240D01*
X253519000Y-59080760D01*
X253459396Y-59380410D01*
X253342479Y-59662674D01*
X253172741Y-59916705D01*
X252956705Y-60132741D01*
X252702674Y-60302479D01*
X252420410Y-60419396D01*
X252270585Y-60449198D01*
X252120761Y-60479000D01*
X251815239Y-60479000D01*
X251665415Y-60449198D01*
X251515590Y-60419396D01*
X251233326Y-60302479D01*
X250979295Y-60132741D01*
X250763259Y-59916705D01*
X250593521Y-59662674D01*
X250476604Y-59380410D01*
X250417000Y-59080760D01*
X250417000Y-58775240D01*
X250424209Y-58739000D01*
X250452055Y-58599005D01*
X250476604Y-58475590D01*
X250593521Y-58193326D01*
X250763259Y-57939295D01*
X250979295Y-57723259D01*
X251233326Y-57553521D01*
X251515590Y-57436604D01*
X251665415Y-57406802D01*
X251815239Y-57377000D01*
X252120761Y-57377000D01*
X252270585Y-57406802D01*
X252270585Y-57406802D01*
G37*
G36*
X153351000Y-58823000D02*
G01*
X151449000Y-58823000D01*
X151449000Y-56921000D01*
X153351000Y-56921000D01*
X153351000Y-58823000D01*
X153351000Y-58823000D01*
G37*
G36*
X155217395Y-56957546D02*
G01*
X155390466Y-57029234D01*
X155451032Y-57069703D01*
X155546227Y-57133310D01*
X155678690Y-57265773D01*
X155701626Y-57300099D01*
X155782766Y-57421534D01*
X155854454Y-57594605D01*
X155891000Y-57778333D01*
X155891000Y-57965667D01*
X155854454Y-58149395D01*
X155782766Y-58322466D01*
X155782765Y-58322467D01*
X155678690Y-58478227D01*
X155546227Y-58610690D01*
X155467818Y-58663081D01*
X155390466Y-58714766D01*
X155217395Y-58786454D01*
X155033667Y-58823000D01*
X154846333Y-58823000D01*
X154662605Y-58786454D01*
X154489534Y-58714766D01*
X154412182Y-58663081D01*
X154333773Y-58610690D01*
X154201310Y-58478227D01*
X154097235Y-58322467D01*
X154097234Y-58322466D01*
X154025546Y-58149395D01*
X153989000Y-57965667D01*
X153989000Y-57778333D01*
X154025546Y-57594605D01*
X154097234Y-57421534D01*
X154178374Y-57300099D01*
X154201310Y-57265773D01*
X154333773Y-57133310D01*
X154428968Y-57069703D01*
X154489534Y-57029234D01*
X154662605Y-56957546D01*
X154846333Y-56921000D01*
X155033667Y-56921000D01*
X155217395Y-56957546D01*
X155217395Y-56957546D01*
G37*
G36*
X194202823Y-57049313D02*
G01*
X194363242Y-57097976D01*
X194429345Y-57133309D01*
X194511078Y-57176996D01*
X194640659Y-57283341D01*
X194747004Y-57412922D01*
X194747005Y-57412924D01*
X194826024Y-57560758D01*
X194874687Y-57721177D01*
X194891117Y-57888000D01*
X194874687Y-58054823D01*
X194826024Y-58215242D01*
X194768711Y-58322467D01*
X194747004Y-58363078D01*
X194640659Y-58492659D01*
X194511078Y-58599004D01*
X194511076Y-58599005D01*
X194363242Y-58678024D01*
X194202823Y-58726687D01*
X194077804Y-58739000D01*
X193994196Y-58739000D01*
X193869177Y-58726687D01*
X193708758Y-58678024D01*
X193560924Y-58599005D01*
X193560922Y-58599004D01*
X193431341Y-58492659D01*
X193324996Y-58363078D01*
X193303289Y-58322467D01*
X193245976Y-58215242D01*
X193197313Y-58054823D01*
X193180883Y-57888000D01*
X193197313Y-57721177D01*
X193245976Y-57560758D01*
X193324995Y-57412924D01*
X193324996Y-57412922D01*
X193431341Y-57283341D01*
X193560922Y-57176996D01*
X193642655Y-57133309D01*
X193708758Y-57097976D01*
X193869177Y-57049313D01*
X193994196Y-57037000D01*
X194077804Y-57037000D01*
X194202823Y-57049313D01*
X194202823Y-57049313D01*
G37*
G36*
X184124228Y-57069703D02*
G01*
X184279100Y-57133853D01*
X184418481Y-57226985D01*
X184537015Y-57345519D01*
X184630147Y-57484900D01*
X184694297Y-57639772D01*
X184727000Y-57804184D01*
X184727000Y-57971816D01*
X184694297Y-58136228D01*
X184630147Y-58291100D01*
X184537015Y-58430481D01*
X184418481Y-58549015D01*
X184279100Y-58642147D01*
X184124228Y-58706297D01*
X183959816Y-58739000D01*
X183792184Y-58739000D01*
X183627772Y-58706297D01*
X183472900Y-58642147D01*
X183333519Y-58549015D01*
X183214985Y-58430481D01*
X183121853Y-58291100D01*
X183057703Y-58136228D01*
X183025000Y-57971816D01*
X183025000Y-57804184D01*
X183057703Y-57639772D01*
X183121853Y-57484900D01*
X183214985Y-57345519D01*
X183333519Y-57226985D01*
X183472900Y-57133853D01*
X183627772Y-57069703D01*
X183792184Y-57037000D01*
X183959816Y-57037000D01*
X184124228Y-57069703D01*
X184124228Y-57069703D01*
G37*
G36*
X145854652Y-55620330D02*
G01*
X146044577Y-55699000D01*
X146045830Y-55699519D01*
X146217884Y-55814482D01*
X146364205Y-55960803D01*
X146479169Y-56132859D01*
X146558357Y-56324035D01*
X146598726Y-56526985D01*
X146598726Y-56733917D01*
X146558357Y-56936867D01*
X146491623Y-57097976D01*
X146479168Y-57128045D01*
X146364205Y-57300099D01*
X146217884Y-57446420D01*
X146045830Y-57561383D01*
X146045829Y-57561384D01*
X146045828Y-57561384D01*
X145854652Y-57640572D01*
X145651702Y-57680941D01*
X145444770Y-57680941D01*
X145241820Y-57640572D01*
X145050644Y-57561384D01*
X145050643Y-57561384D01*
X145050642Y-57561383D01*
X144878588Y-57446420D01*
X144732267Y-57300099D01*
X144617304Y-57128045D01*
X144604849Y-57097976D01*
X144538115Y-56936867D01*
X144497746Y-56733917D01*
X144497746Y-56526985D01*
X144538115Y-56324035D01*
X144617303Y-56132859D01*
X144732267Y-55960803D01*
X144878588Y-55814482D01*
X145050642Y-55699519D01*
X145051895Y-55699000D01*
X145241820Y-55620330D01*
X145444770Y-55579961D01*
X145651702Y-55579961D01*
X145854652Y-55620330D01*
X145854652Y-55620330D01*
G37*
G36*
X173861000Y-57301000D02*
G01*
X172259000Y-57301000D01*
X172259000Y-55699000D01*
X173861000Y-55699000D01*
X173861000Y-57301000D01*
X173861000Y-57301000D01*
G37*
G36*
X205861000Y-57301000D02*
G01*
X204259000Y-57301000D01*
X204259000Y-55699000D01*
X205861000Y-55699000D01*
X205861000Y-57301000D01*
X205861000Y-57301000D01*
G37*
G36*
X205293642Y-53189781D02*
G01*
X205439414Y-53250162D01*
X205439416Y-53250163D01*
X205570608Y-53337822D01*
X205682178Y-53449392D01*
X205769837Y-53580584D01*
X205769838Y-53580586D01*
X205830219Y-53726358D01*
X205861000Y-53881107D01*
X205861000Y-54038893D01*
X205830219Y-54193642D01*
X205769838Y-54339414D01*
X205769837Y-54339416D01*
X205682178Y-54470608D01*
X205570608Y-54582178D01*
X205439416Y-54669837D01*
X205439415Y-54669838D01*
X205439414Y-54669838D01*
X205293642Y-54730219D01*
X205138893Y-54761000D01*
X204981107Y-54761000D01*
X204826358Y-54730219D01*
X204680586Y-54669838D01*
X204680585Y-54669838D01*
X204680584Y-54669837D01*
X204549392Y-54582178D01*
X204437822Y-54470608D01*
X204350163Y-54339416D01*
X204350162Y-54339414D01*
X204289781Y-54193642D01*
X204259000Y-54038893D01*
X204259000Y-53881107D01*
X204289781Y-53726358D01*
X204350162Y-53580586D01*
X204350163Y-53580584D01*
X204437822Y-53449392D01*
X204549392Y-53337822D01*
X204680584Y-53250163D01*
X204680586Y-53250162D01*
X204826358Y-53189781D01*
X204981107Y-53159000D01*
X205138893Y-53159000D01*
X205293642Y-53189781D01*
X205293642Y-53189781D01*
G37*
G36*
X173293642Y-53189781D02*
G01*
X173439414Y-53250162D01*
X173439416Y-53250163D01*
X173570608Y-53337822D01*
X173682178Y-53449392D01*
X173769837Y-53580584D01*
X173769838Y-53580586D01*
X173830219Y-53726358D01*
X173861000Y-53881107D01*
X173861000Y-54038893D01*
X173830219Y-54193642D01*
X173769838Y-54339414D01*
X173769837Y-54339416D01*
X173682178Y-54470608D01*
X173570608Y-54582178D01*
X173439416Y-54669837D01*
X173439415Y-54669838D01*
X173439414Y-54669838D01*
X173293642Y-54730219D01*
X173138893Y-54761000D01*
X172981107Y-54761000D01*
X172826358Y-54730219D01*
X172680586Y-54669838D01*
X172680585Y-54669838D01*
X172680584Y-54669837D01*
X172549392Y-54582178D01*
X172437822Y-54470608D01*
X172350163Y-54339416D01*
X172350162Y-54339414D01*
X172289781Y-54193642D01*
X172259000Y-54038893D01*
X172259000Y-53881107D01*
X172289781Y-53726358D01*
X172350162Y-53580586D01*
X172350163Y-53580584D01*
X172437822Y-53449392D01*
X172549392Y-53337822D01*
X172680584Y-53250163D01*
X172680586Y-53250162D01*
X172826358Y-53189781D01*
X172981107Y-53159000D01*
X173138893Y-53159000D01*
X173293642Y-53189781D01*
X173293642Y-53189781D01*
G37*
G36*
X184042823Y-53009313D02*
G01*
X184203242Y-53057976D01*
X184270361Y-53093852D01*
X184351078Y-53136996D01*
X184480659Y-53243341D01*
X184587004Y-53372922D01*
X184587005Y-53372924D01*
X184666024Y-53520758D01*
X184714687Y-53681177D01*
X184731117Y-53848000D01*
X184714687Y-54014823D01*
X184666024Y-54175242D01*
X184625477Y-54251100D01*
X184587004Y-54323078D01*
X184480659Y-54452659D01*
X184351078Y-54559004D01*
X184351076Y-54559005D01*
X184203242Y-54638024D01*
X184042823Y-54686687D01*
X183917804Y-54699000D01*
X183834196Y-54699000D01*
X183709177Y-54686687D01*
X183548758Y-54638024D01*
X183400924Y-54559005D01*
X183400922Y-54559004D01*
X183271341Y-54452659D01*
X183164996Y-54323078D01*
X183126523Y-54251100D01*
X183085976Y-54175242D01*
X183037313Y-54014823D01*
X183020883Y-53848000D01*
X183037313Y-53681177D01*
X183085976Y-53520758D01*
X183164995Y-53372924D01*
X183164996Y-53372922D01*
X183271341Y-53243341D01*
X183400922Y-53136996D01*
X183481639Y-53093852D01*
X183548758Y-53057976D01*
X183709177Y-53009313D01*
X183834196Y-52997000D01*
X183917804Y-52997000D01*
X184042823Y-53009313D01*
X184042823Y-53009313D01*
G37*
G36*
X194284228Y-53029703D02*
G01*
X194439100Y-53093853D01*
X194578481Y-53186985D01*
X194697015Y-53305519D01*
X194790147Y-53444900D01*
X194854297Y-53599772D01*
X194887000Y-53764184D01*
X194887000Y-53931816D01*
X194854297Y-54096228D01*
X194790147Y-54251100D01*
X194697015Y-54390481D01*
X194578481Y-54509015D01*
X194439100Y-54602147D01*
X194284228Y-54666297D01*
X194119816Y-54699000D01*
X193952184Y-54699000D01*
X193787772Y-54666297D01*
X193632900Y-54602147D01*
X193493519Y-54509015D01*
X193374985Y-54390481D01*
X193281853Y-54251100D01*
X193217703Y-54096228D01*
X193185000Y-53931816D01*
X193185000Y-53764184D01*
X193217703Y-53599772D01*
X193281853Y-53444900D01*
X193374985Y-53305519D01*
X193493519Y-53186985D01*
X193632900Y-53093853D01*
X193787772Y-53029703D01*
X193952184Y-52997000D01*
X194119816Y-52997000D01*
X194284228Y-53029703D01*
X194284228Y-53029703D01*
G37*
G36*
X234078207Y-50931397D02*
G01*
X234269943Y-51010817D01*
X234314975Y-51029470D01*
X234528059Y-51171848D01*
X234709273Y-51353062D01*
X234830156Y-51533976D01*
X234851652Y-51566148D01*
X234949724Y-51802914D01*
X234999720Y-52054262D01*
X234999720Y-52310540D01*
X234949724Y-52561888D01*
X234851652Y-52798654D01*
X234851651Y-52798656D01*
X234709273Y-53011740D01*
X234528059Y-53192954D01*
X234314975Y-53335332D01*
X234314974Y-53335333D01*
X234314973Y-53335333D01*
X234078207Y-53433405D01*
X233826859Y-53483401D01*
X233570581Y-53483401D01*
X233319233Y-53433405D01*
X233082467Y-53335333D01*
X233082466Y-53335333D01*
X233082465Y-53335332D01*
X232869381Y-53192954D01*
X232688167Y-53011740D01*
X232545789Y-52798656D01*
X232545788Y-52798654D01*
X232447716Y-52561888D01*
X232397720Y-52310540D01*
X232397720Y-52054262D01*
X232447716Y-51802914D01*
X232545788Y-51566148D01*
X232567285Y-51533976D01*
X232688167Y-51353062D01*
X232869381Y-51171848D01*
X233082465Y-51029470D01*
X233127497Y-51010817D01*
X233319233Y-50931397D01*
X233570581Y-50881401D01*
X233826859Y-50881401D01*
X234078207Y-50931397D01*
X234078207Y-50931397D01*
G37*
G36*
X227968117Y-50912744D02*
G01*
X228204883Y-51010816D01*
X228204885Y-51010817D01*
X228417969Y-51153195D01*
X228599183Y-51334409D01*
X228732529Y-51533975D01*
X228741562Y-51547495D01*
X228839634Y-51784261D01*
X228889630Y-52035609D01*
X228889630Y-52291887D01*
X228839634Y-52543235D01*
X228763474Y-52727100D01*
X228741561Y-52780003D01*
X228599183Y-52993087D01*
X228417969Y-53174301D01*
X228204885Y-53316679D01*
X228204884Y-53316680D01*
X228204883Y-53316680D01*
X227968117Y-53414752D01*
X227716769Y-53464748D01*
X227460491Y-53464748D01*
X227209143Y-53414752D01*
X226972377Y-53316680D01*
X226972376Y-53316680D01*
X226972375Y-53316679D01*
X226759291Y-53174301D01*
X226578077Y-52993087D01*
X226435699Y-52780003D01*
X226413786Y-52727100D01*
X226337626Y-52543235D01*
X226287630Y-52291887D01*
X226287630Y-52035609D01*
X226337626Y-51784261D01*
X226435698Y-51547495D01*
X226444732Y-51533975D01*
X226578077Y-51334409D01*
X226759291Y-51153195D01*
X226972375Y-51010817D01*
X226972377Y-51010816D01*
X227209143Y-50912744D01*
X227460491Y-50862748D01*
X227716769Y-50862748D01*
X227968117Y-50912744D01*
X227968117Y-50912744D01*
G37*
G36*
X134278823Y-51485313D02*
G01*
X134439242Y-51533976D01*
X134506361Y-51569852D01*
X134587078Y-51612996D01*
X134716659Y-51719341D01*
X134823004Y-51848922D01*
X134823005Y-51848924D01*
X134902024Y-51996758D01*
X134950687Y-52157177D01*
X134967117Y-52324000D01*
X134950687Y-52490823D01*
X134902024Y-52651242D01*
X134861477Y-52727100D01*
X134823004Y-52799078D01*
X134716659Y-52928659D01*
X134587078Y-53035004D01*
X134587076Y-53035005D01*
X134439242Y-53114024D01*
X134278823Y-53162687D01*
X134153804Y-53175000D01*
X134070196Y-53175000D01*
X133945177Y-53162687D01*
X133784758Y-53114024D01*
X133636924Y-53035005D01*
X133636922Y-53035004D01*
X133507341Y-52928659D01*
X133400996Y-52799078D01*
X133362523Y-52727100D01*
X133321976Y-52651242D01*
X133273313Y-52490823D01*
X133256883Y-52324000D01*
X133273313Y-52157177D01*
X133321976Y-51996758D01*
X133400995Y-51848924D01*
X133400996Y-51848922D01*
X133507341Y-51719341D01*
X133636922Y-51612996D01*
X133717639Y-51569852D01*
X133784758Y-51533976D01*
X133945177Y-51485313D01*
X134070196Y-51473000D01*
X134153804Y-51473000D01*
X134278823Y-51485313D01*
X134278823Y-51485313D01*
G37*
G36*
X81446823Y-51485313D02*
G01*
X81607242Y-51533976D01*
X81674361Y-51569852D01*
X81755078Y-51612996D01*
X81884659Y-51719341D01*
X81991004Y-51848922D01*
X81991005Y-51848924D01*
X82070024Y-51996758D01*
X82118687Y-52157177D01*
X82135117Y-52324000D01*
X82118687Y-52490823D01*
X82070024Y-52651242D01*
X82029477Y-52727100D01*
X81991004Y-52799078D01*
X81884659Y-52928659D01*
X81755078Y-53035004D01*
X81755076Y-53035005D01*
X81607242Y-53114024D01*
X81446823Y-53162687D01*
X81321804Y-53175000D01*
X81238196Y-53175000D01*
X81113177Y-53162687D01*
X80952758Y-53114024D01*
X80804924Y-53035005D01*
X80804922Y-53035004D01*
X80675341Y-52928659D01*
X80568996Y-52799078D01*
X80530523Y-52727100D01*
X80489976Y-52651242D01*
X80441313Y-52490823D01*
X80424883Y-52324000D01*
X80441313Y-52157177D01*
X80489976Y-51996758D01*
X80568995Y-51848924D01*
X80568996Y-51848922D01*
X80675341Y-51719341D01*
X80804922Y-51612996D01*
X80885639Y-51569852D01*
X80952758Y-51533976D01*
X81113177Y-51485313D01*
X81238196Y-51473000D01*
X81321804Y-51473000D01*
X81446823Y-51485313D01*
X81446823Y-51485313D01*
G37*
G36*
X104896228Y-51505703D02*
G01*
X105051100Y-51569853D01*
X105190481Y-51662985D01*
X105309015Y-51781519D01*
X105402147Y-51920900D01*
X105466297Y-52075772D01*
X105499000Y-52240184D01*
X105499000Y-52407816D01*
X105466297Y-52572228D01*
X105402147Y-52727100D01*
X105309015Y-52866481D01*
X105190481Y-52985015D01*
X105051100Y-53078147D01*
X104896228Y-53142297D01*
X104731816Y-53175000D01*
X104564184Y-53175000D01*
X104399772Y-53142297D01*
X104244900Y-53078147D01*
X104105519Y-52985015D01*
X103986985Y-52866481D01*
X103893853Y-52727100D01*
X103829703Y-52572228D01*
X103797000Y-52407816D01*
X103797000Y-52240184D01*
X103829703Y-52075772D01*
X103893853Y-51920900D01*
X103986985Y-51781519D01*
X104105519Y-51662985D01*
X104244900Y-51569853D01*
X104399772Y-51505703D01*
X104564184Y-51473000D01*
X104731816Y-51473000D01*
X104896228Y-51505703D01*
X104896228Y-51505703D01*
G37*
G36*
X94654823Y-51485313D02*
G01*
X94815242Y-51533976D01*
X94882361Y-51569852D01*
X94963078Y-51612996D01*
X95092659Y-51719341D01*
X95199004Y-51848922D01*
X95199005Y-51848924D01*
X95278024Y-51996758D01*
X95326687Y-52157177D01*
X95343117Y-52324000D01*
X95326687Y-52490823D01*
X95278024Y-52651242D01*
X95237477Y-52727100D01*
X95199004Y-52799078D01*
X95092659Y-52928659D01*
X94963078Y-53035004D01*
X94963076Y-53035005D01*
X94815242Y-53114024D01*
X94654823Y-53162687D01*
X94529804Y-53175000D01*
X94446196Y-53175000D01*
X94321177Y-53162687D01*
X94160758Y-53114024D01*
X94012924Y-53035005D01*
X94012922Y-53035004D01*
X93883341Y-52928659D01*
X93776996Y-52799078D01*
X93738523Y-52727100D01*
X93697976Y-52651242D01*
X93649313Y-52490823D01*
X93632883Y-52324000D01*
X93649313Y-52157177D01*
X93697976Y-51996758D01*
X93776995Y-51848924D01*
X93776996Y-51848922D01*
X93883341Y-51719341D01*
X94012922Y-51612996D01*
X94093639Y-51569852D01*
X94160758Y-51533976D01*
X94321177Y-51485313D01*
X94446196Y-51473000D01*
X94529804Y-51473000D01*
X94654823Y-51485313D01*
X94654823Y-51485313D01*
G37*
G36*
X107944228Y-51505703D02*
G01*
X108099100Y-51569853D01*
X108238481Y-51662985D01*
X108357015Y-51781519D01*
X108450147Y-51920900D01*
X108514297Y-52075772D01*
X108547000Y-52240184D01*
X108547000Y-52407816D01*
X108514297Y-52572228D01*
X108450147Y-52727100D01*
X108357015Y-52866481D01*
X108238481Y-52985015D01*
X108099100Y-53078147D01*
X107944228Y-53142297D01*
X107779816Y-53175000D01*
X107612184Y-53175000D01*
X107447772Y-53142297D01*
X107292900Y-53078147D01*
X107153519Y-52985015D01*
X107034985Y-52866481D01*
X106941853Y-52727100D01*
X106877703Y-52572228D01*
X106845000Y-52407816D01*
X106845000Y-52240184D01*
X106877703Y-52075772D01*
X106941853Y-51920900D01*
X107034985Y-51781519D01*
X107153519Y-51662985D01*
X107292900Y-51569853D01*
X107447772Y-51505703D01*
X107612184Y-51473000D01*
X107779816Y-51473000D01*
X107944228Y-51505703D01*
X107944228Y-51505703D01*
G37*
G36*
X118022823Y-51485313D02*
G01*
X118183242Y-51533976D01*
X118250361Y-51569852D01*
X118331078Y-51612996D01*
X118460659Y-51719341D01*
X118567004Y-51848922D01*
X118567005Y-51848924D01*
X118646024Y-51996758D01*
X118694687Y-52157177D01*
X118711117Y-52324000D01*
X118694687Y-52490823D01*
X118646024Y-52651242D01*
X118605477Y-52727100D01*
X118567004Y-52799078D01*
X118460659Y-52928659D01*
X118331078Y-53035004D01*
X118331076Y-53035005D01*
X118183242Y-53114024D01*
X118022823Y-53162687D01*
X117897804Y-53175000D01*
X117814196Y-53175000D01*
X117689177Y-53162687D01*
X117528758Y-53114024D01*
X117380924Y-53035005D01*
X117380922Y-53035004D01*
X117251341Y-52928659D01*
X117144996Y-52799078D01*
X117106523Y-52727100D01*
X117065976Y-52651242D01*
X117017313Y-52490823D01*
X117000883Y-52324000D01*
X117017313Y-52157177D01*
X117065976Y-51996758D01*
X117144995Y-51848924D01*
X117144996Y-51848922D01*
X117251341Y-51719341D01*
X117380922Y-51612996D01*
X117461639Y-51569852D01*
X117528758Y-51533976D01*
X117689177Y-51485313D01*
X117814196Y-51473000D01*
X117897804Y-51473000D01*
X118022823Y-51485313D01*
X118022823Y-51485313D01*
G37*
G36*
X131312228Y-51505703D02*
G01*
X131467100Y-51569853D01*
X131606481Y-51662985D01*
X131725015Y-51781519D01*
X131818147Y-51920900D01*
X131882297Y-52075772D01*
X131915000Y-52240184D01*
X131915000Y-52407816D01*
X131882297Y-52572228D01*
X131818147Y-52727100D01*
X131725015Y-52866481D01*
X131606481Y-52985015D01*
X131467100Y-53078147D01*
X131312228Y-53142297D01*
X131147816Y-53175000D01*
X130980184Y-53175000D01*
X130815772Y-53142297D01*
X130660900Y-53078147D01*
X130521519Y-52985015D01*
X130402985Y-52866481D01*
X130309853Y-52727100D01*
X130245703Y-52572228D01*
X130213000Y-52407816D01*
X130213000Y-52240184D01*
X130245703Y-52075772D01*
X130309853Y-51920900D01*
X130402985Y-51781519D01*
X130521519Y-51662985D01*
X130660900Y-51569853D01*
X130815772Y-51505703D01*
X130980184Y-51473000D01*
X131147816Y-51473000D01*
X131312228Y-51505703D01*
X131312228Y-51505703D01*
G37*
G36*
X78398823Y-51485313D02*
G01*
X78559242Y-51533976D01*
X78626361Y-51569852D01*
X78707078Y-51612996D01*
X78836659Y-51719341D01*
X78943004Y-51848922D01*
X78943005Y-51848924D01*
X79022024Y-51996758D01*
X79070687Y-52157177D01*
X79087117Y-52324000D01*
X79070687Y-52490823D01*
X79022024Y-52651242D01*
X78981477Y-52727100D01*
X78943004Y-52799078D01*
X78836659Y-52928659D01*
X78707078Y-53035004D01*
X78707076Y-53035005D01*
X78559242Y-53114024D01*
X78398823Y-53162687D01*
X78273804Y-53175000D01*
X78190196Y-53175000D01*
X78065177Y-53162687D01*
X77904758Y-53114024D01*
X77756924Y-53035005D01*
X77756922Y-53035004D01*
X77627341Y-52928659D01*
X77520996Y-52799078D01*
X77482523Y-52727100D01*
X77441976Y-52651242D01*
X77393313Y-52490823D01*
X77376883Y-52324000D01*
X77393313Y-52157177D01*
X77441976Y-51996758D01*
X77520995Y-51848924D01*
X77520996Y-51848922D01*
X77627341Y-51719341D01*
X77756922Y-51612996D01*
X77837639Y-51569852D01*
X77904758Y-51533976D01*
X78065177Y-51485313D01*
X78190196Y-51473000D01*
X78273804Y-51473000D01*
X78398823Y-51485313D01*
X78398823Y-51485313D01*
G37*
G36*
X121070823Y-51485313D02*
G01*
X121231242Y-51533976D01*
X121298361Y-51569852D01*
X121379078Y-51612996D01*
X121508659Y-51719341D01*
X121615004Y-51848922D01*
X121615005Y-51848924D01*
X121694024Y-51996758D01*
X121742687Y-52157177D01*
X121759117Y-52324000D01*
X121742687Y-52490823D01*
X121694024Y-52651242D01*
X121653477Y-52727100D01*
X121615004Y-52799078D01*
X121508659Y-52928659D01*
X121379078Y-53035004D01*
X121379076Y-53035005D01*
X121231242Y-53114024D01*
X121070823Y-53162687D01*
X120945804Y-53175000D01*
X120862196Y-53175000D01*
X120737177Y-53162687D01*
X120576758Y-53114024D01*
X120428924Y-53035005D01*
X120428922Y-53035004D01*
X120299341Y-52928659D01*
X120192996Y-52799078D01*
X120154523Y-52727100D01*
X120113976Y-52651242D01*
X120065313Y-52490823D01*
X120048883Y-52324000D01*
X120065313Y-52157177D01*
X120113976Y-51996758D01*
X120192995Y-51848924D01*
X120192996Y-51848922D01*
X120299341Y-51719341D01*
X120428922Y-51612996D01*
X120509639Y-51569852D01*
X120576758Y-51533976D01*
X120737177Y-51485313D01*
X120862196Y-51473000D01*
X120945804Y-51473000D01*
X121070823Y-51485313D01*
X121070823Y-51485313D01*
G37*
G36*
X144520228Y-51505703D02*
G01*
X144675100Y-51569853D01*
X144814481Y-51662985D01*
X144933015Y-51781519D01*
X145026147Y-51920900D01*
X145090297Y-52075772D01*
X145123000Y-52240184D01*
X145123000Y-52407816D01*
X145090297Y-52572228D01*
X145026147Y-52727100D01*
X144933015Y-52866481D01*
X144814481Y-52985015D01*
X144675100Y-53078147D01*
X144520228Y-53142297D01*
X144355816Y-53175000D01*
X144188184Y-53175000D01*
X144023772Y-53142297D01*
X143868900Y-53078147D01*
X143729519Y-52985015D01*
X143610985Y-52866481D01*
X143517853Y-52727100D01*
X143453703Y-52572228D01*
X143421000Y-52407816D01*
X143421000Y-52240184D01*
X143453703Y-52075772D01*
X143517853Y-51920900D01*
X143610985Y-51781519D01*
X143729519Y-51662985D01*
X143868900Y-51569853D01*
X144023772Y-51505703D01*
X144188184Y-51473000D01*
X144355816Y-51473000D01*
X144520228Y-51505703D01*
X144520228Y-51505703D01*
G37*
G36*
X91688228Y-51505703D02*
G01*
X91843100Y-51569853D01*
X91982481Y-51662985D01*
X92101015Y-51781519D01*
X92194147Y-51920900D01*
X92258297Y-52075772D01*
X92291000Y-52240184D01*
X92291000Y-52407816D01*
X92258297Y-52572228D01*
X92194147Y-52727100D01*
X92101015Y-52866481D01*
X91982481Y-52985015D01*
X91843100Y-53078147D01*
X91688228Y-53142297D01*
X91523816Y-53175000D01*
X91356184Y-53175000D01*
X91191772Y-53142297D01*
X91036900Y-53078147D01*
X90897519Y-52985015D01*
X90778985Y-52866481D01*
X90685853Y-52727100D01*
X90621703Y-52572228D01*
X90589000Y-52407816D01*
X90589000Y-52240184D01*
X90621703Y-52075772D01*
X90685853Y-51920900D01*
X90778985Y-51781519D01*
X90897519Y-51662985D01*
X91036900Y-51569853D01*
X91191772Y-51505703D01*
X91356184Y-51473000D01*
X91523816Y-51473000D01*
X91688228Y-51505703D01*
X91688228Y-51505703D01*
G37*
G36*
X68320228Y-51505703D02*
G01*
X68475100Y-51569853D01*
X68614481Y-51662985D01*
X68733015Y-51781519D01*
X68826147Y-51920900D01*
X68890297Y-52075772D01*
X68923000Y-52240184D01*
X68923000Y-52407816D01*
X68890297Y-52572228D01*
X68826147Y-52727100D01*
X68733015Y-52866481D01*
X68614481Y-52985015D01*
X68475100Y-53078147D01*
X68320228Y-53142297D01*
X68155816Y-53175000D01*
X67988184Y-53175000D01*
X67823772Y-53142297D01*
X67668900Y-53078147D01*
X67529519Y-52985015D01*
X67410985Y-52866481D01*
X67317853Y-52727100D01*
X67253703Y-52572228D01*
X67221000Y-52407816D01*
X67221000Y-52240184D01*
X67253703Y-52075772D01*
X67317853Y-51920900D01*
X67410985Y-51781519D01*
X67529519Y-51662985D01*
X67668900Y-51569853D01*
X67823772Y-51505703D01*
X67988184Y-51473000D01*
X68155816Y-51473000D01*
X68320228Y-51505703D01*
X68320228Y-51505703D01*
G37*
G36*
X55112228Y-51505703D02*
G01*
X55267100Y-51569853D01*
X55406481Y-51662985D01*
X55525015Y-51781519D01*
X55618147Y-51920900D01*
X55682297Y-52075772D01*
X55715000Y-52240184D01*
X55715000Y-52407816D01*
X55682297Y-52572228D01*
X55618147Y-52727100D01*
X55525015Y-52866481D01*
X55406481Y-52985015D01*
X55267100Y-53078147D01*
X55112228Y-53142297D01*
X54947816Y-53175000D01*
X54780184Y-53175000D01*
X54615772Y-53142297D01*
X54460900Y-53078147D01*
X54321519Y-52985015D01*
X54202985Y-52866481D01*
X54109853Y-52727100D01*
X54045703Y-52572228D01*
X54013000Y-52407816D01*
X54013000Y-52240184D01*
X54045703Y-52075772D01*
X54109853Y-51920900D01*
X54202985Y-51781519D01*
X54321519Y-51662985D01*
X54460900Y-51569853D01*
X54615772Y-51505703D01*
X54780184Y-51473000D01*
X54947816Y-51473000D01*
X55112228Y-51505703D01*
X55112228Y-51505703D01*
G37*
G36*
X65190823Y-51485313D02*
G01*
X65351242Y-51533976D01*
X65418361Y-51569852D01*
X65499078Y-51612996D01*
X65628659Y-51719341D01*
X65735004Y-51848922D01*
X65735005Y-51848924D01*
X65814024Y-51996758D01*
X65862687Y-52157177D01*
X65879117Y-52324000D01*
X65862687Y-52490823D01*
X65814024Y-52651242D01*
X65773477Y-52727100D01*
X65735004Y-52799078D01*
X65628659Y-52928659D01*
X65499078Y-53035004D01*
X65499076Y-53035005D01*
X65351242Y-53114024D01*
X65190823Y-53162687D01*
X65065804Y-53175000D01*
X64982196Y-53175000D01*
X64857177Y-53162687D01*
X64696758Y-53114024D01*
X64548924Y-53035005D01*
X64548922Y-53035004D01*
X64419341Y-52928659D01*
X64312996Y-52799078D01*
X64274523Y-52727100D01*
X64233976Y-52651242D01*
X64185313Y-52490823D01*
X64168883Y-52324000D01*
X64185313Y-52157177D01*
X64233976Y-51996758D01*
X64312995Y-51848924D01*
X64312996Y-51848922D01*
X64419341Y-51719341D01*
X64548922Y-51612996D01*
X64629639Y-51569852D01*
X64696758Y-51533976D01*
X64857177Y-51485313D01*
X64982196Y-51473000D01*
X65065804Y-51473000D01*
X65190823Y-51485313D01*
X65190823Y-51485313D01*
G37*
G36*
X205293642Y-50649781D02*
G01*
X205439414Y-50710162D01*
X205439416Y-50710163D01*
X205570608Y-50797822D01*
X205682178Y-50909392D01*
X205749947Y-51010817D01*
X205769838Y-51040586D01*
X205830219Y-51186358D01*
X205861000Y-51341107D01*
X205861000Y-51498893D01*
X205830219Y-51653642D01*
X205769838Y-51799414D01*
X205769837Y-51799416D01*
X205682178Y-51930608D01*
X205570608Y-52042178D01*
X205439416Y-52129837D01*
X205439415Y-52129838D01*
X205439414Y-52129838D01*
X205293642Y-52190219D01*
X205138893Y-52221000D01*
X204981107Y-52221000D01*
X204826358Y-52190219D01*
X204680586Y-52129838D01*
X204680585Y-52129838D01*
X204680584Y-52129837D01*
X204549392Y-52042178D01*
X204437822Y-51930608D01*
X204350163Y-51799416D01*
X204350162Y-51799414D01*
X204289781Y-51653642D01*
X204259000Y-51498893D01*
X204259000Y-51341107D01*
X204289781Y-51186358D01*
X204350162Y-51040586D01*
X204370053Y-51010817D01*
X204437822Y-50909392D01*
X204549392Y-50797822D01*
X204680584Y-50710163D01*
X204680586Y-50710162D01*
X204826358Y-50649781D01*
X204981107Y-50619000D01*
X205138893Y-50619000D01*
X205293642Y-50649781D01*
X205293642Y-50649781D01*
G37*
G36*
X173293642Y-50649781D02*
G01*
X173439414Y-50710162D01*
X173439416Y-50710163D01*
X173570608Y-50797822D01*
X173682178Y-50909392D01*
X173749947Y-51010817D01*
X173769838Y-51040586D01*
X173830219Y-51186358D01*
X173861000Y-51341107D01*
X173861000Y-51498893D01*
X173830219Y-51653642D01*
X173769838Y-51799414D01*
X173769837Y-51799416D01*
X173682178Y-51930608D01*
X173570608Y-52042178D01*
X173439416Y-52129837D01*
X173439415Y-52129838D01*
X173439414Y-52129838D01*
X173293642Y-52190219D01*
X173138893Y-52221000D01*
X172981107Y-52221000D01*
X172826358Y-52190219D01*
X172680586Y-52129838D01*
X172680585Y-52129838D01*
X172680584Y-52129837D01*
X172549392Y-52042178D01*
X172437822Y-51930608D01*
X172350163Y-51799416D01*
X172350162Y-51799414D01*
X172289781Y-51653642D01*
X172259000Y-51498893D01*
X172259000Y-51341107D01*
X172289781Y-51186358D01*
X172350162Y-51040586D01*
X172370053Y-51010817D01*
X172437822Y-50909392D01*
X172549392Y-50797822D01*
X172680584Y-50710163D01*
X172680586Y-50710162D01*
X172826358Y-50649781D01*
X172981107Y-50619000D01*
X173138893Y-50619000D01*
X173293642Y-50649781D01*
X173293642Y-50649781D01*
G37*
G36*
X184042823Y-49009313D02*
G01*
X184203242Y-49057976D01*
X184281863Y-49100000D01*
X184351078Y-49136996D01*
X184480659Y-49243341D01*
X184587004Y-49372922D01*
X184587005Y-49372924D01*
X184666024Y-49520758D01*
X184714687Y-49681177D01*
X184731117Y-49848000D01*
X184714687Y-50014823D01*
X184666024Y-50175242D01*
X184625477Y-50251100D01*
X184587004Y-50323078D01*
X184480659Y-50452659D01*
X184351078Y-50559004D01*
X184351076Y-50559005D01*
X184203242Y-50638024D01*
X184042823Y-50686687D01*
X183917804Y-50699000D01*
X183834196Y-50699000D01*
X183709177Y-50686687D01*
X183548758Y-50638024D01*
X183400924Y-50559005D01*
X183400922Y-50559004D01*
X183271341Y-50452659D01*
X183164996Y-50323078D01*
X183126523Y-50251100D01*
X183085976Y-50175242D01*
X183037313Y-50014823D01*
X183020883Y-49848000D01*
X183037313Y-49681177D01*
X183085976Y-49520758D01*
X183164995Y-49372924D01*
X183164996Y-49372922D01*
X183271341Y-49243341D01*
X183400922Y-49136996D01*
X183470137Y-49100000D01*
X183548758Y-49057976D01*
X183709177Y-49009313D01*
X183834196Y-48997000D01*
X183917804Y-48997000D01*
X184042823Y-49009313D01*
X184042823Y-49009313D01*
G37*
G36*
X194284228Y-49029703D02*
G01*
X194439100Y-49093853D01*
X194578481Y-49186985D01*
X194697015Y-49305519D01*
X194790147Y-49444900D01*
X194854297Y-49599772D01*
X194887000Y-49764184D01*
X194887000Y-49931816D01*
X194854297Y-50096228D01*
X194790147Y-50251100D01*
X194697015Y-50390481D01*
X194578481Y-50509015D01*
X194439100Y-50602147D01*
X194284228Y-50666297D01*
X194119816Y-50699000D01*
X193952184Y-50699000D01*
X193787772Y-50666297D01*
X193632900Y-50602147D01*
X193493519Y-50509015D01*
X193374985Y-50390481D01*
X193281853Y-50251100D01*
X193217703Y-50096228D01*
X193185000Y-49931816D01*
X193185000Y-49764184D01*
X193217703Y-49599772D01*
X193281853Y-49444900D01*
X193374985Y-49305519D01*
X193493519Y-49186985D01*
X193632900Y-49093853D01*
X193787772Y-49029703D01*
X193952184Y-48997000D01*
X194119816Y-48997000D01*
X194284228Y-49029703D01*
X194284228Y-49029703D01*
G37*
G36*
X266179767Y-46432018D02*
G01*
X266320422Y-46459996D01*
X266620885Y-46584452D01*
X266891294Y-46765134D01*
X267121258Y-46995098D01*
X267301940Y-47265507D01*
X267414808Y-47537993D01*
X267426396Y-47565971D01*
X267484278Y-47856960D01*
X267489843Y-47884940D01*
X267489843Y-48210158D01*
X267426396Y-48529128D01*
X267301940Y-48829591D01*
X267121258Y-49100000D01*
X266891294Y-49329964D01*
X266620885Y-49510646D01*
X266620884Y-49510647D01*
X266620883Y-49510647D01*
X266532880Y-49547099D01*
X266320422Y-49635102D01*
X266214099Y-49656251D01*
X266001454Y-49698549D01*
X265676232Y-49698549D01*
X265463587Y-49656251D01*
X265357264Y-49635102D01*
X265144806Y-49547099D01*
X265056803Y-49510647D01*
X265056802Y-49510647D01*
X265056801Y-49510646D01*
X264786392Y-49329964D01*
X264556428Y-49100000D01*
X264375746Y-48829591D01*
X264251290Y-48529128D01*
X264187843Y-48210158D01*
X264187843Y-47884940D01*
X264193409Y-47856960D01*
X264251290Y-47565971D01*
X264262879Y-47537993D01*
X264375746Y-47265507D01*
X264556428Y-46995098D01*
X264786392Y-46765134D01*
X265056801Y-46584452D01*
X265357264Y-46459996D01*
X265497919Y-46432018D01*
X265676232Y-46396549D01*
X266001454Y-46396549D01*
X266179767Y-46432018D01*
X266179767Y-46432018D01*
G37*
G36*
X47288542Y-46410869D02*
G01*
X47394865Y-46432018D01*
X47695328Y-46556474D01*
X47965737Y-46737156D01*
X48195701Y-46967120D01*
X48376383Y-47237529D01*
X48376384Y-47237531D01*
X48500839Y-47537993D01*
X48564286Y-47856960D01*
X48564286Y-48182182D01*
X48521988Y-48394827D01*
X48500839Y-48501150D01*
X48376383Y-48801613D01*
X48195701Y-49072022D01*
X47965737Y-49301986D01*
X47695328Y-49482668D01*
X47394865Y-49607124D01*
X47288542Y-49628273D01*
X47075897Y-49670571D01*
X46750675Y-49670571D01*
X46538030Y-49628273D01*
X46431707Y-49607124D01*
X46131244Y-49482668D01*
X45860835Y-49301986D01*
X45630871Y-49072022D01*
X45450189Y-48801613D01*
X45325733Y-48501150D01*
X45304584Y-48394827D01*
X45262286Y-48182182D01*
X45262286Y-47856960D01*
X45325733Y-47537993D01*
X45450188Y-47237531D01*
X45450189Y-47237529D01*
X45630871Y-46967120D01*
X45860835Y-46737156D01*
X46131244Y-46556474D01*
X46431707Y-46432018D01*
X46538030Y-46410869D01*
X46750675Y-46368571D01*
X47075897Y-46368571D01*
X47288542Y-46410869D01*
X47288542Y-46410869D01*
G37*
G36*
X156841281Y-41313537D02*
G01*
X156947604Y-41334686D01*
X157248067Y-41459142D01*
X157518476Y-41639824D01*
X157748440Y-41869788D01*
X157748441Y-41869790D01*
X157929123Y-42140199D01*
X158053578Y-42440661D01*
X158117025Y-42759628D01*
X158117025Y-43084850D01*
X158074727Y-43297495D01*
X158053578Y-43403818D01*
X157929122Y-43704281D01*
X157748440Y-43974690D01*
X157518476Y-44204654D01*
X157248067Y-44385336D01*
X156947604Y-44509792D01*
X156841281Y-44530941D01*
X156628636Y-44573239D01*
X156303414Y-44573239D01*
X156090769Y-44530941D01*
X155984446Y-44509792D01*
X155683983Y-44385336D01*
X155413574Y-44204654D01*
X155183610Y-43974690D01*
X155002928Y-43704281D01*
X154878472Y-43403818D01*
X154857323Y-43297495D01*
X154815025Y-43084850D01*
X154815025Y-42759628D01*
X154878472Y-42440661D01*
X155002927Y-42140199D01*
X155183609Y-41869790D01*
X155183610Y-41869788D01*
X155413574Y-41639824D01*
X155683983Y-41459142D01*
X155984446Y-41334686D01*
X156090769Y-41313537D01*
X156303414Y-41271239D01*
X156628636Y-41271239D01*
X156841281Y-41313537D01*
X156841281Y-41313537D01*
G37*
G36*
X233111142Y-42968242D02*
G01*
X233259101Y-43029529D01*
X233392255Y-43118499D01*
X233505501Y-43231745D01*
X233594471Y-43364899D01*
X233655758Y-43512858D01*
X233687000Y-43669925D01*
X233687000Y-43830075D01*
X233655758Y-43987142D01*
X233594471Y-44135101D01*
X233505501Y-44268255D01*
X233392255Y-44381501D01*
X233259101Y-44470471D01*
X233111142Y-44531758D01*
X232954075Y-44563000D01*
X232793925Y-44563000D01*
X232636858Y-44531758D01*
X232488899Y-44470471D01*
X232355745Y-44381501D01*
X232242499Y-44268255D01*
X232153529Y-44135101D01*
X232092242Y-43987142D01*
X232061000Y-43830075D01*
X232061000Y-43669925D01*
X232092242Y-43512858D01*
X232153529Y-43364899D01*
X232242499Y-43231745D01*
X232355745Y-43118499D01*
X232488899Y-43029529D01*
X232636858Y-42968242D01*
X232793925Y-42937000D01*
X232954075Y-42937000D01*
X233111142Y-42968242D01*
X233111142Y-42968242D01*
G37*
G36*
X72652142Y-42968242D02*
G01*
X72800101Y-43029529D01*
X72933255Y-43118499D01*
X73046501Y-43231745D01*
X73135471Y-43364899D01*
X73196758Y-43512858D01*
X73228000Y-43669925D01*
X73228000Y-43830075D01*
X73196758Y-43987142D01*
X73135471Y-44135101D01*
X73046501Y-44268255D01*
X72933255Y-44381501D01*
X72800101Y-44470471D01*
X72652142Y-44531758D01*
X72495075Y-44563000D01*
X72334925Y-44563000D01*
X72177858Y-44531758D01*
X72029899Y-44470471D01*
X71896745Y-44381501D01*
X71783499Y-44268255D01*
X71694529Y-44135101D01*
X71633242Y-43987142D01*
X71602000Y-43830075D01*
X71602000Y-43669925D01*
X71633242Y-43512858D01*
X71694529Y-43364899D01*
X71783499Y-43231745D01*
X71896745Y-43118499D01*
X72029899Y-43029529D01*
X72177858Y-42968242D01*
X72334925Y-42937000D01*
X72495075Y-42937000D01*
X72652142Y-42968242D01*
X72652142Y-42968242D01*
G37*
G36*
X75192142Y-42968242D02*
G01*
X75340101Y-43029529D01*
X75473255Y-43118499D01*
X75586501Y-43231745D01*
X75675471Y-43364899D01*
X75736758Y-43512858D01*
X75768000Y-43669925D01*
X75768000Y-43830075D01*
X75736758Y-43987142D01*
X75675471Y-44135101D01*
X75586501Y-44268255D01*
X75473255Y-44381501D01*
X75340101Y-44470471D01*
X75192142Y-44531758D01*
X75035075Y-44563000D01*
X74874925Y-44563000D01*
X74717858Y-44531758D01*
X74569899Y-44470471D01*
X74436745Y-44381501D01*
X74323499Y-44268255D01*
X74234529Y-44135101D01*
X74173242Y-43987142D01*
X74142000Y-43830075D01*
X74142000Y-43669925D01*
X74173242Y-43512858D01*
X74234529Y-43364899D01*
X74323499Y-43231745D01*
X74436745Y-43118499D01*
X74569899Y-43029529D01*
X74717858Y-42968242D01*
X74874925Y-42937000D01*
X75035075Y-42937000D01*
X75192142Y-42968242D01*
X75192142Y-42968242D01*
G37*
G36*
X77732142Y-42968242D02*
G01*
X77880101Y-43029529D01*
X78013255Y-43118499D01*
X78126501Y-43231745D01*
X78215471Y-43364899D01*
X78276758Y-43512858D01*
X78308000Y-43669925D01*
X78308000Y-43830075D01*
X78276758Y-43987142D01*
X78215471Y-44135101D01*
X78126501Y-44268255D01*
X78013255Y-44381501D01*
X77880101Y-44470471D01*
X77732142Y-44531758D01*
X77575075Y-44563000D01*
X77414925Y-44563000D01*
X77257858Y-44531758D01*
X77109899Y-44470471D01*
X76976745Y-44381501D01*
X76863499Y-44268255D01*
X76774529Y-44135101D01*
X76713242Y-43987142D01*
X76682000Y-43830075D01*
X76682000Y-43669925D01*
X76713242Y-43512858D01*
X76774529Y-43364899D01*
X76863499Y-43231745D01*
X76976745Y-43118499D01*
X77109899Y-43029529D01*
X77257858Y-42968242D01*
X77414925Y-42937000D01*
X77575075Y-42937000D01*
X77732142Y-42968242D01*
X77732142Y-42968242D01*
G37*
G36*
X80272142Y-42968242D02*
G01*
X80420101Y-43029529D01*
X80553255Y-43118499D01*
X80666501Y-43231745D01*
X80755471Y-43364899D01*
X80816758Y-43512858D01*
X80848000Y-43669925D01*
X80848000Y-43830075D01*
X80816758Y-43987142D01*
X80755471Y-44135101D01*
X80666501Y-44268255D01*
X80553255Y-44381501D01*
X80420101Y-44470471D01*
X80272142Y-44531758D01*
X80115075Y-44563000D01*
X79954925Y-44563000D01*
X79797858Y-44531758D01*
X79649899Y-44470471D01*
X79516745Y-44381501D01*
X79403499Y-44268255D01*
X79314529Y-44135101D01*
X79253242Y-43987142D01*
X79222000Y-43830075D01*
X79222000Y-43669925D01*
X79253242Y-43512858D01*
X79314529Y-43364899D01*
X79403499Y-43231745D01*
X79516745Y-43118499D01*
X79649899Y-43029529D01*
X79797858Y-42968242D01*
X79954925Y-42937000D01*
X80115075Y-42937000D01*
X80272142Y-42968242D01*
X80272142Y-42968242D01*
G37*
G36*
X119109142Y-42968242D02*
G01*
X119257101Y-43029529D01*
X119390255Y-43118499D01*
X119503501Y-43231745D01*
X119592471Y-43364899D01*
X119653758Y-43512858D01*
X119685000Y-43669925D01*
X119685000Y-43830075D01*
X119653758Y-43987142D01*
X119592471Y-44135101D01*
X119503501Y-44268255D01*
X119390255Y-44381501D01*
X119257101Y-44470471D01*
X119109142Y-44531758D01*
X118952075Y-44563000D01*
X118791925Y-44563000D01*
X118634858Y-44531758D01*
X118486899Y-44470471D01*
X118353745Y-44381501D01*
X118240499Y-44268255D01*
X118151529Y-44135101D01*
X118090242Y-43987142D01*
X118059000Y-43830075D01*
X118059000Y-43669925D01*
X118090242Y-43512858D01*
X118151529Y-43364899D01*
X118240499Y-43231745D01*
X118353745Y-43118499D01*
X118486899Y-43029529D01*
X118634858Y-42968242D01*
X118791925Y-42937000D01*
X118952075Y-42937000D01*
X119109142Y-42968242D01*
X119109142Y-42968242D01*
G37*
G36*
X121649142Y-42968242D02*
G01*
X121797101Y-43029529D01*
X121930255Y-43118499D01*
X122043501Y-43231745D01*
X122132471Y-43364899D01*
X122193758Y-43512858D01*
X122225000Y-43669925D01*
X122225000Y-43830075D01*
X122193758Y-43987142D01*
X122132471Y-44135101D01*
X122043501Y-44268255D01*
X121930255Y-44381501D01*
X121797101Y-44470471D01*
X121649142Y-44531758D01*
X121492075Y-44563000D01*
X121331925Y-44563000D01*
X121174858Y-44531758D01*
X121026899Y-44470471D01*
X120893745Y-44381501D01*
X120780499Y-44268255D01*
X120691529Y-44135101D01*
X120630242Y-43987142D01*
X120599000Y-43830075D01*
X120599000Y-43669925D01*
X120630242Y-43512858D01*
X120691529Y-43364899D01*
X120780499Y-43231745D01*
X120893745Y-43118499D01*
X121026899Y-43029529D01*
X121174858Y-42968242D01*
X121331925Y-42937000D01*
X121492075Y-42937000D01*
X121649142Y-42968242D01*
X121649142Y-42968242D01*
G37*
G36*
X124189142Y-42968242D02*
G01*
X124337101Y-43029529D01*
X124470255Y-43118499D01*
X124583501Y-43231745D01*
X124672471Y-43364899D01*
X124733758Y-43512858D01*
X124765000Y-43669925D01*
X124765000Y-43830075D01*
X124733758Y-43987142D01*
X124672471Y-44135101D01*
X124583501Y-44268255D01*
X124470255Y-44381501D01*
X124337101Y-44470471D01*
X124189142Y-44531758D01*
X124032075Y-44563000D01*
X123871925Y-44563000D01*
X123714858Y-44531758D01*
X123566899Y-44470471D01*
X123433745Y-44381501D01*
X123320499Y-44268255D01*
X123231529Y-44135101D01*
X123170242Y-43987142D01*
X123139000Y-43830075D01*
X123139000Y-43669925D01*
X123170242Y-43512858D01*
X123231529Y-43364899D01*
X123320499Y-43231745D01*
X123433745Y-43118499D01*
X123566899Y-43029529D01*
X123714858Y-42968242D01*
X123871925Y-42937000D01*
X124032075Y-42937000D01*
X124189142Y-42968242D01*
X124189142Y-42968242D01*
G37*
G36*
X126729142Y-42968242D02*
G01*
X126877101Y-43029529D01*
X127010255Y-43118499D01*
X127123501Y-43231745D01*
X127212471Y-43364899D01*
X127273758Y-43512858D01*
X127305000Y-43669925D01*
X127305000Y-43830075D01*
X127273758Y-43987142D01*
X127212471Y-44135101D01*
X127123501Y-44268255D01*
X127010255Y-44381501D01*
X126877101Y-44470471D01*
X126729142Y-44531758D01*
X126572075Y-44563000D01*
X126411925Y-44563000D01*
X126254858Y-44531758D01*
X126106899Y-44470471D01*
X125973745Y-44381501D01*
X125860499Y-44268255D01*
X125771529Y-44135101D01*
X125710242Y-43987142D01*
X125679000Y-43830075D01*
X125679000Y-43669925D01*
X125710242Y-43512858D01*
X125771529Y-43364899D01*
X125860499Y-43231745D01*
X125973745Y-43118499D01*
X126106899Y-43029529D01*
X126254858Y-42968242D01*
X126411925Y-42937000D01*
X126572075Y-42937000D01*
X126729142Y-42968242D01*
X126729142Y-42968242D01*
G37*
G36*
X243271142Y-42968242D02*
G01*
X243419101Y-43029529D01*
X243552255Y-43118499D01*
X243665501Y-43231745D01*
X243754471Y-43364899D01*
X243815758Y-43512858D01*
X243847000Y-43669925D01*
X243847000Y-43830075D01*
X243815758Y-43987142D01*
X243754471Y-44135101D01*
X243665501Y-44268255D01*
X243552255Y-44381501D01*
X243419101Y-44470471D01*
X243271142Y-44531758D01*
X243114075Y-44563000D01*
X242953925Y-44563000D01*
X242796858Y-44531758D01*
X242648899Y-44470471D01*
X242515745Y-44381501D01*
X242402499Y-44268255D01*
X242313529Y-44135101D01*
X242252242Y-43987142D01*
X242221000Y-43830075D01*
X242221000Y-43669925D01*
X242252242Y-43512858D01*
X242313529Y-43364899D01*
X242402499Y-43231745D01*
X242515745Y-43118499D01*
X242648899Y-43029529D01*
X242796858Y-42968242D01*
X242953925Y-42937000D01*
X243114075Y-42937000D01*
X243271142Y-42968242D01*
X243271142Y-42968242D01*
G37*
G36*
X240731142Y-42968242D02*
G01*
X240879101Y-43029529D01*
X241012255Y-43118499D01*
X241125501Y-43231745D01*
X241214471Y-43364899D01*
X241275758Y-43512858D01*
X241307000Y-43669925D01*
X241307000Y-43830075D01*
X241275758Y-43987142D01*
X241214471Y-44135101D01*
X241125501Y-44268255D01*
X241012255Y-44381501D01*
X240879101Y-44470471D01*
X240731142Y-44531758D01*
X240574075Y-44563000D01*
X240413925Y-44563000D01*
X240256858Y-44531758D01*
X240108899Y-44470471D01*
X239975745Y-44381501D01*
X239862499Y-44268255D01*
X239773529Y-44135101D01*
X239712242Y-43987142D01*
X239681000Y-43830075D01*
X239681000Y-43669925D01*
X239712242Y-43512858D01*
X239773529Y-43364899D01*
X239862499Y-43231745D01*
X239975745Y-43118499D01*
X240108899Y-43029529D01*
X240256858Y-42968242D01*
X240413925Y-42937000D01*
X240574075Y-42937000D01*
X240731142Y-42968242D01*
X240731142Y-42968242D01*
G37*
G36*
X235651142Y-42968242D02*
G01*
X235799101Y-43029529D01*
X235932255Y-43118499D01*
X236045501Y-43231745D01*
X236134471Y-43364899D01*
X236195758Y-43512858D01*
X236227000Y-43669925D01*
X236227000Y-43830075D01*
X236195758Y-43987142D01*
X236134471Y-44135101D01*
X236045501Y-44268255D01*
X235932255Y-44381501D01*
X235799101Y-44470471D01*
X235651142Y-44531758D01*
X235494075Y-44563000D01*
X235333925Y-44563000D01*
X235176858Y-44531758D01*
X235028899Y-44470471D01*
X234895745Y-44381501D01*
X234782499Y-44268255D01*
X234693529Y-44135101D01*
X234632242Y-43987142D01*
X234601000Y-43830075D01*
X234601000Y-43669925D01*
X234632242Y-43512858D01*
X234693529Y-43364899D01*
X234782499Y-43231745D01*
X234895745Y-43118499D01*
X235028899Y-43029529D01*
X235176858Y-42968242D01*
X235333925Y-42937000D01*
X235494075Y-42937000D01*
X235651142Y-42968242D01*
X235651142Y-42968242D01*
G37*
G36*
X194273142Y-42968242D02*
G01*
X194421101Y-43029529D01*
X194554255Y-43118499D01*
X194667501Y-43231745D01*
X194756471Y-43364899D01*
X194817758Y-43512858D01*
X194849000Y-43669925D01*
X194849000Y-43830075D01*
X194817758Y-43987142D01*
X194756471Y-44135101D01*
X194667501Y-44268255D01*
X194554255Y-44381501D01*
X194421101Y-44470471D01*
X194273142Y-44531758D01*
X194116075Y-44563000D01*
X193955925Y-44563000D01*
X193798858Y-44531758D01*
X193650899Y-44470471D01*
X193517745Y-44381501D01*
X193404499Y-44268255D01*
X193315529Y-44135101D01*
X193254242Y-43987142D01*
X193223000Y-43830075D01*
X193223000Y-43669925D01*
X193254242Y-43512858D01*
X193315529Y-43364899D01*
X193404499Y-43231745D01*
X193517745Y-43118499D01*
X193650899Y-43029529D01*
X193798858Y-42968242D01*
X193955925Y-42937000D01*
X194116075Y-42937000D01*
X194273142Y-42968242D01*
X194273142Y-42968242D01*
G37*
G36*
X70112142Y-42968242D02*
G01*
X70260101Y-43029529D01*
X70393255Y-43118499D01*
X70506501Y-43231745D01*
X70595471Y-43364899D01*
X70656758Y-43512858D01*
X70688000Y-43669925D01*
X70688000Y-43830075D01*
X70656758Y-43987142D01*
X70595471Y-44135101D01*
X70506501Y-44268255D01*
X70393255Y-44381501D01*
X70260101Y-44470471D01*
X70112142Y-44531758D01*
X69955075Y-44563000D01*
X69794925Y-44563000D01*
X69637858Y-44531758D01*
X69489899Y-44470471D01*
X69356745Y-44381501D01*
X69243499Y-44268255D01*
X69154529Y-44135101D01*
X69093242Y-43987142D01*
X69062000Y-43830075D01*
X69062000Y-43669925D01*
X69093242Y-43512858D01*
X69154529Y-43364899D01*
X69243499Y-43231745D01*
X69356745Y-43118499D01*
X69489899Y-43029529D01*
X69637858Y-42968242D01*
X69794925Y-42937000D01*
X69955075Y-42937000D01*
X70112142Y-42968242D01*
X70112142Y-42968242D01*
G37*
G36*
X191733142Y-42968242D02*
G01*
X191881101Y-43029529D01*
X192014255Y-43118499D01*
X192127501Y-43231745D01*
X192216471Y-43364899D01*
X192277758Y-43512858D01*
X192309000Y-43669925D01*
X192309000Y-43830075D01*
X192277758Y-43987142D01*
X192216471Y-44135101D01*
X192127501Y-44268255D01*
X192014255Y-44381501D01*
X191881101Y-44470471D01*
X191733142Y-44531758D01*
X191576075Y-44563000D01*
X191415925Y-44563000D01*
X191258858Y-44531758D01*
X191110899Y-44470471D01*
X190977745Y-44381501D01*
X190864499Y-44268255D01*
X190775529Y-44135101D01*
X190714242Y-43987142D01*
X190683000Y-43830075D01*
X190683000Y-43669925D01*
X190714242Y-43512858D01*
X190775529Y-43364899D01*
X190864499Y-43231745D01*
X190977745Y-43118499D01*
X191110899Y-43029529D01*
X191258858Y-42968242D01*
X191415925Y-42937000D01*
X191576075Y-42937000D01*
X191733142Y-42968242D01*
X191733142Y-42968242D01*
G37*
G36*
X189193142Y-42968242D02*
G01*
X189341101Y-43029529D01*
X189474255Y-43118499D01*
X189587501Y-43231745D01*
X189676471Y-43364899D01*
X189737758Y-43512858D01*
X189769000Y-43669925D01*
X189769000Y-43830075D01*
X189737758Y-43987142D01*
X189676471Y-44135101D01*
X189587501Y-44268255D01*
X189474255Y-44381501D01*
X189341101Y-44470471D01*
X189193142Y-44531758D01*
X189036075Y-44563000D01*
X188875925Y-44563000D01*
X188718858Y-44531758D01*
X188570899Y-44470471D01*
X188437745Y-44381501D01*
X188324499Y-44268255D01*
X188235529Y-44135101D01*
X188174242Y-43987142D01*
X188143000Y-43830075D01*
X188143000Y-43669925D01*
X188174242Y-43512858D01*
X188235529Y-43364899D01*
X188324499Y-43231745D01*
X188437745Y-43118499D01*
X188570899Y-43029529D01*
X188718858Y-42968242D01*
X188875925Y-42937000D01*
X189036075Y-42937000D01*
X189193142Y-42968242D01*
X189193142Y-42968242D01*
G37*
G36*
X186653142Y-42968242D02*
G01*
X186801101Y-43029529D01*
X186934255Y-43118499D01*
X187047501Y-43231745D01*
X187136471Y-43364899D01*
X187197758Y-43512858D01*
X187229000Y-43669925D01*
X187229000Y-43830075D01*
X187197758Y-43987142D01*
X187136471Y-44135101D01*
X187047501Y-44268255D01*
X186934255Y-44381501D01*
X186801101Y-44470471D01*
X186653142Y-44531758D01*
X186496075Y-44563000D01*
X186335925Y-44563000D01*
X186178858Y-44531758D01*
X186030899Y-44470471D01*
X185897745Y-44381501D01*
X185784499Y-44268255D01*
X185695529Y-44135101D01*
X185634242Y-43987142D01*
X185603000Y-43830075D01*
X185603000Y-43669925D01*
X185634242Y-43512858D01*
X185695529Y-43364899D01*
X185784499Y-43231745D01*
X185897745Y-43118499D01*
X186030899Y-43029529D01*
X186178858Y-42968242D01*
X186335925Y-42937000D01*
X186496075Y-42937000D01*
X186653142Y-42968242D01*
X186653142Y-42968242D01*
G37*
G36*
X238191142Y-42968242D02*
G01*
X238339101Y-43029529D01*
X238472255Y-43118499D01*
X238585501Y-43231745D01*
X238674471Y-43364899D01*
X238735758Y-43512858D01*
X238767000Y-43669925D01*
X238767000Y-43830075D01*
X238735758Y-43987142D01*
X238674471Y-44135101D01*
X238585501Y-44268255D01*
X238472255Y-44381501D01*
X238339101Y-44470471D01*
X238191142Y-44531758D01*
X238034075Y-44563000D01*
X237873925Y-44563000D01*
X237716858Y-44531758D01*
X237568899Y-44470471D01*
X237435745Y-44381501D01*
X237322499Y-44268255D01*
X237233529Y-44135101D01*
X237172242Y-43987142D01*
X237141000Y-43830075D01*
X237141000Y-43669925D01*
X237172242Y-43512858D01*
X237233529Y-43364899D01*
X237322499Y-43231745D01*
X237435745Y-43118499D01*
X237568899Y-43029529D01*
X237716858Y-42968242D01*
X237873925Y-42937000D01*
X238034075Y-42937000D01*
X238191142Y-42968242D01*
X238191142Y-42968242D01*
G37*
G36*
X129269142Y-42968242D02*
G01*
X129417101Y-43029529D01*
X129550255Y-43118499D01*
X129663501Y-43231745D01*
X129752471Y-43364899D01*
X129813758Y-43512858D01*
X129845000Y-43669925D01*
X129845000Y-43830075D01*
X129813758Y-43987142D01*
X129752471Y-44135101D01*
X129663501Y-44268255D01*
X129550255Y-44381501D01*
X129417101Y-44470471D01*
X129269142Y-44531758D01*
X129112075Y-44563000D01*
X128951925Y-44563000D01*
X128794858Y-44531758D01*
X128646899Y-44470471D01*
X128513745Y-44381501D01*
X128400499Y-44268255D01*
X128311529Y-44135101D01*
X128250242Y-43987142D01*
X128219000Y-43830075D01*
X128219000Y-43669925D01*
X128250242Y-43512858D01*
X128311529Y-43364899D01*
X128400499Y-43231745D01*
X128513745Y-43118499D01*
X128646899Y-43029529D01*
X128794858Y-42968242D01*
X128951925Y-42937000D01*
X129112075Y-42937000D01*
X129269142Y-42968242D01*
X129269142Y-42968242D01*
G37*
G36*
X184113142Y-42968242D02*
G01*
X184261101Y-43029529D01*
X184394255Y-43118499D01*
X184507501Y-43231745D01*
X184596471Y-43364899D01*
X184657758Y-43512858D01*
X184689000Y-43669925D01*
X184689000Y-43830075D01*
X184657758Y-43987142D01*
X184596471Y-44135101D01*
X184507501Y-44268255D01*
X184394255Y-44381501D01*
X184261101Y-44470471D01*
X184113142Y-44531758D01*
X183956075Y-44563000D01*
X183795925Y-44563000D01*
X183638858Y-44531758D01*
X183490899Y-44470471D01*
X183357745Y-44381501D01*
X183244499Y-44268255D01*
X183155529Y-44135101D01*
X183094242Y-43987142D01*
X183063000Y-43830075D01*
X183063000Y-43669925D01*
X183094242Y-43512858D01*
X183155529Y-43364899D01*
X183244499Y-43231745D01*
X183357745Y-43118499D01*
X183490899Y-43029529D01*
X183638858Y-42968242D01*
X183795925Y-42937000D01*
X183956075Y-42937000D01*
X184113142Y-42968242D01*
X184113142Y-42968242D01*
G37*
M02*
