M48
; DRILL file {KiCad 5.1.4-e60b266~84~ubuntu18.04.1} date Thu Oct 31 22:26:01 2019
; FORMAT={-:-/ absolute / inch / decimal}
; #@! TF.CreationDate,2019-10-31T22:26:01+05:30
; #@! TF.GenerationSoftware,Kicad,Pcbnew,5.1.4-e60b266~84~ubuntu18.04.1
FMAT,2
INCH
T1C0.0300
T2C0.0315
T3C0.0315
T4C0.0354
T5C0.0394
T6C0.0433
T7C0.0598
T8C0.1260
%
G90
G05
T1
X7.2392Y-1.7224
X7.2392Y-4.1043
X7.3392Y-1.7224
X7.3392Y-4.1043
X7.4392Y-1.7224
X7.4392Y-4.1043
X7.5392Y-1.7224
X7.5392Y-4.1043
X7.6392Y-1.7224
X7.6392Y-4.1043
X4.68Y-1.7224
X4.68Y-4.1043
X4.78Y-1.7224
X4.78Y-4.1043
X4.88Y-1.7224
X4.88Y-4.1043
X4.98Y-1.7224
X4.98Y-4.1043
X5.08Y-1.7224
X5.08Y-4.1043
X2.751Y-1.7224
X2.751Y-4.1043
X2.851Y-1.7224
X2.851Y-4.1043
X2.951Y-1.7224
X2.951Y-4.1043
X3.051Y-1.7224
X3.051Y-4.1043
X3.151Y-1.7224
X3.151Y-4.1043
X9.1683Y-1.7224
X9.1683Y-4.1043
X9.2683Y-1.7224
X9.2683Y-4.1043
X9.3683Y-1.7224
X9.3683Y-4.1043
X9.4683Y-1.7224
X9.4683Y-4.1043
X9.5683Y-1.7224
X9.5683Y-4.1043
T2
X7.2392Y-2.8
X7.6392Y-2.8
X2.68Y-2.62
X3.08Y-2.62
X3.74Y-3.34
X4.14Y-3.34
X3.72Y-2.06
X4.12Y-2.06
X8.0732Y-3.5598
X8.0732Y-3.6598
X8.0732Y-3.7598
X4.76Y-2.06
X5.16Y-2.06
X2.16Y-2.62
X2.56Y-2.62
X7.2392Y-3.8191
X7.6392Y-3.8191
X8.0732Y-2.0244
X8.0732Y-2.1244
X8.0732Y-2.2244
X7.2392Y-3.4991
X7.6392Y-3.4991
X5.28Y-2.06
X5.68Y-2.06
X5.2693Y-2.62
X5.6693Y-2.62
X7.24Y-3.14
X7.64Y-3.14
X7.2392Y-3.6591
X7.6392Y-3.6591
X7.2392Y-3.2991
X7.6392Y-3.2991
X6.8134Y-3.5598
X6.8134Y-3.6598
X6.8134Y-3.7598
X2.16Y-2.06
X2.56Y-2.06
X5.38Y-2.36
X5.48Y-2.36
X5.58Y-2.36
X7.2392Y-2.9791
X7.6392Y-2.9791
X3.2Y-2.62
X3.6Y-2.62
X6.8134Y-2.0244
X6.8134Y-2.1244
X6.8134Y-2.2244
X3.82Y-2.36
X3.92Y-2.36
X4.02Y-2.36
X7.2392Y-2.2791
X7.6392Y-2.2791
X7.2392Y-1.9625
X7.6392Y-1.9625
X2.26Y-2.36
X2.36Y-2.36
X2.46Y-2.36
X3.72Y-2.62
X4.12Y-2.62
X4.24Y-2.06
X4.64Y-2.06
X4.7575Y-2.62
X5.1575Y-2.62
X4.86Y-2.36
X4.96Y-2.36
X5.06Y-2.36
X4.34Y-2.36
X4.44Y-2.36
X4.54Y-2.36
X8.0732Y-3.048
X8.0732Y-3.148
X8.0732Y-3.248
X2.78Y-2.36
X2.88Y-2.36
X2.98Y-2.36
X6.8134Y-3.048
X6.8134Y-3.148
X6.8134Y-3.248
X2.68Y-2.06
X3.08Y-2.06
X6.8134Y-2.5362
X6.8134Y-2.6362
X6.8134Y-2.7362
X7.2392Y-2.12
X7.6392Y-2.12
X3.32Y-2.36
X3.42Y-2.36
X3.52Y-2.36
X8.0732Y-2.5362
X8.0732Y-2.6362
X8.0732Y-2.7362
X3.56Y-3.14
X3.56Y-3.54
X7.2392Y-2.4791
X7.6392Y-2.4791
X3.2Y-2.06
X3.6Y-2.06
X4.24Y-2.62
X4.64Y-2.62
X7.2392Y-2.6391
X7.6392Y-2.6391
T3
X5.06Y-3.42
X5.7302Y-2.2295
X6.8182Y-4.1011
X5.6717Y-3.7488
T4
X6.2Y-3.5416
X6.3Y-3.5416
X6.0Y-2.2784
X6.1Y-2.2784
T5
X9.2631Y-3.76
X9.46Y-3.76
X3.58Y-2.88
X3.58Y-3.78
X3.68Y-2.88
X3.68Y-3.78
X3.78Y-2.88
X3.78Y-3.78
X3.88Y-2.88
X3.88Y-3.78
X3.98Y-2.88
X3.98Y-3.78
X4.08Y-2.88
X4.08Y-3.78
X4.18Y-2.88
X4.18Y-3.78
X4.28Y-2.88
X4.28Y-3.78
X8.7259Y-3.3662
X8.9602Y-2.0537
X9.2007Y-2.0544
X9.4352Y-3.3655
T6
X9.94Y-3.38
X9.94Y-3.48
X9.94Y-3.58
T7
X9.92Y-2.32
X9.92Y-2.52
T8
X10.4677Y-3.9392
X10.4661Y-1.8916
X6.1601Y-1.6899
X1.8486Y-3.9381
X1.847Y-1.8905
T0
M30
