G04 #@! TF.GenerationSoftware,KiCad,Pcbnew,5.1.4-e60b266~84~ubuntu18.04.1*
G04 #@! TF.CreationDate,2019-10-31T22:25:58+05:30*
G04 #@! TF.ProjectId,WemosClock,57656d6f-7343-46c6-9f63-6b2e6b696361,rev?*
G04 #@! TF.SameCoordinates,Original*
G04 #@! TF.FileFunction,Copper,L1,Top*
G04 #@! TF.FilePolarity,Positive*
%FSLAX46Y46*%
G04 Gerber Fmt 4.6, Leading zero omitted, Abs format (unit mm)*
G04 Created by KiCad (PCBNEW 5.1.4-e60b266~84~ubuntu18.04.1) date 2019-10-31 22:25:58*
%MOMM*%
%LPD*%
G04 APERTURE LIST*
%ADD10O,1.600000X2.000000*%
%ADD11R,2.000000X2.000000*%
%ADD12C,1.524000*%
%ADD13C,3.000000*%
%ADD14R,3.000000X3.000000*%
%ADD15C,2.500000*%
%ADD16C,1.998980*%
%ADD17R,2.000000X1.905000*%
%ADD18O,2.000000X1.905000*%
%ADD19C,2.000000*%
%ADD20O,1.600000X1.600000*%
%ADD21C,1.600000*%
%ADD22R,1.500000X1.500000*%
%ADD23C,1.500000*%
%ADD24C,1.800000*%
%ADD25R,1.800000X1.800000*%
%ADD26C,1.000000*%
G04 APERTURE END LIST*
D10*
X108712000Y-96012000D03*
X106172000Y-96012000D03*
X103632000Y-96012000D03*
X101092000Y-96012000D03*
X98552000Y-96012000D03*
X96012000Y-96012000D03*
X93472000Y-96012000D03*
X90932000Y-96012000D03*
X90932000Y-73152000D03*
X93472000Y-73152000D03*
X96012000Y-73152000D03*
X98552000Y-73152000D03*
X101092000Y-73152000D03*
X103632000Y-73152000D03*
D11*
X108712000Y-73152000D03*
D10*
X106172000Y-73152000D03*
D12*
X237954000Y-104250000D03*
X232874000Y-104250000D03*
X235414000Y-104250000D03*
X243034000Y-104250000D03*
X240494000Y-104250000D03*
X243034000Y-43750000D03*
X240494000Y-43750000D03*
X232874000Y-43750000D03*
X235414000Y-43750000D03*
X237954000Y-43750000D03*
X188956000Y-104250000D03*
X183876000Y-104250000D03*
X186416000Y-104250000D03*
X194036000Y-104250000D03*
X191496000Y-104250000D03*
X194036000Y-43750000D03*
X191496000Y-43750000D03*
X183876000Y-43750000D03*
X186416000Y-43750000D03*
X188956000Y-43750000D03*
X123952000Y-104250000D03*
X118872000Y-104250000D03*
X121412000Y-104250000D03*
X129032000Y-104250000D03*
X126492000Y-104250000D03*
X129032000Y-43750000D03*
X126492000Y-43750000D03*
X118872000Y-43750000D03*
X121412000Y-43750000D03*
X123952000Y-43750000D03*
X74955000Y-104250000D03*
X69875000Y-104250000D03*
X72415000Y-104250000D03*
X80035000Y-104250000D03*
X77495000Y-104250000D03*
X80035000Y-43750000D03*
X77495000Y-43750000D03*
X69875000Y-43750000D03*
X72415000Y-43750000D03*
X74955000Y-43750000D03*
D13*
X251968000Y-58928000D03*
D14*
X251968000Y-64008000D03*
D15*
X233698720Y-52182401D03*
X227588630Y-52163748D03*
X239654907Y-85482450D03*
X221638939Y-85500519D03*
D16*
X145548236Y-56630451D03*
X173181982Y-104167220D03*
X144060461Y-95218829D03*
X128524000Y-86868000D03*
D17*
X252476000Y-85852000D03*
D18*
X252476000Y-88392000D03*
X252476000Y-90932000D03*
D19*
X235284000Y-95504000D03*
D11*
X240284000Y-95504000D03*
D20*
X90424000Y-89916000D03*
D21*
X90424000Y-79756000D03*
D20*
X94996000Y-84836000D03*
D21*
X105156000Y-84836000D03*
D20*
X133840000Y-66548000D03*
D21*
X144000000Y-66548000D03*
D20*
X120840000Y-66548000D03*
D21*
X131000000Y-66548000D03*
D20*
X107696000Y-66548000D03*
D21*
X117856000Y-66548000D03*
D20*
X94488000Y-66548000D03*
D21*
X104648000Y-66548000D03*
D20*
X81280000Y-66548000D03*
D21*
X91440000Y-66548000D03*
D20*
X68072000Y-66548000D03*
D21*
X78232000Y-66548000D03*
D20*
X54864000Y-66548000D03*
D21*
X65024000Y-66548000D03*
D20*
X194036000Y-83796000D03*
D21*
X183876000Y-83796000D03*
D20*
X183876000Y-75668000D03*
D21*
X194036000Y-75668000D03*
D20*
X183896000Y-79756000D03*
D21*
X194056000Y-79756000D03*
D20*
X194036000Y-97004000D03*
D21*
X183876000Y-97004000D03*
D20*
X183876000Y-88876000D03*
D21*
X194036000Y-88876000D03*
D20*
X183876000Y-92940000D03*
D21*
X194036000Y-92940000D03*
D20*
X194036000Y-57888000D03*
D21*
X183876000Y-57888000D03*
D20*
X183876000Y-49848000D03*
D21*
X194036000Y-49848000D03*
D20*
X183876000Y-53848000D03*
D21*
X194036000Y-53848000D03*
D20*
X194036000Y-71120000D03*
D21*
X183876000Y-71120000D03*
D20*
X183876000Y-62968000D03*
D21*
X194036000Y-62968000D03*
D20*
X183876000Y-67032000D03*
D21*
X194036000Y-67032000D03*
X144272000Y-52324000D03*
D20*
X134112000Y-52324000D03*
X120904000Y-52324000D03*
D21*
X131064000Y-52324000D03*
D20*
X117856000Y-52324000D03*
D21*
X107696000Y-52324000D03*
D20*
X94488000Y-52324000D03*
D21*
X104648000Y-52324000D03*
D20*
X81280000Y-52324000D03*
D21*
X91440000Y-52324000D03*
D20*
X78232000Y-52324000D03*
D21*
X68072000Y-52324000D03*
X54864000Y-52324000D03*
D20*
X65024000Y-52324000D03*
D22*
X173060000Y-82500000D03*
D23*
X173060000Y-77420000D03*
X173060000Y-79960000D03*
D22*
X173060000Y-95500000D03*
D23*
X173060000Y-90420000D03*
X173060000Y-92960000D03*
D22*
X173060000Y-56500000D03*
D23*
X173060000Y-51420000D03*
X173060000Y-53960000D03*
D22*
X173060000Y-69500000D03*
D23*
X173060000Y-64420000D03*
X173060000Y-66960000D03*
D22*
X205060000Y-82500000D03*
D23*
X205060000Y-77420000D03*
X205060000Y-79960000D03*
X205060000Y-92960000D03*
X205060000Y-90420000D03*
D22*
X205060000Y-95500000D03*
X205060000Y-56500000D03*
D23*
X205060000Y-51420000D03*
X205060000Y-53960000D03*
D22*
X205060000Y-69500000D03*
D23*
X205060000Y-64420000D03*
X205060000Y-66960000D03*
D22*
X136652000Y-59944000D03*
D23*
X141732000Y-59944000D03*
X139192000Y-59944000D03*
D22*
X123444000Y-59944000D03*
D23*
X128524000Y-59944000D03*
X125984000Y-59944000D03*
D22*
X110236000Y-59944000D03*
D23*
X115316000Y-59944000D03*
X112776000Y-59944000D03*
D22*
X97028000Y-59944000D03*
D23*
X102108000Y-59944000D03*
X99568000Y-59944000D03*
D22*
X84328000Y-59944000D03*
D23*
X89408000Y-59944000D03*
X86868000Y-59944000D03*
D22*
X70612000Y-59944000D03*
D23*
X75692000Y-59944000D03*
X73152000Y-59944000D03*
D22*
X57404000Y-59944000D03*
D23*
X62484000Y-59944000D03*
X59944000Y-59944000D03*
D24*
X154940000Y-57872000D03*
D25*
X152400000Y-57872000D03*
D24*
X160020000Y-89956000D03*
D25*
X157480000Y-89956000D03*
D26*
X77495000Y-45999000D02*
X77495000Y-43750000D01*
X120904000Y-52324000D02*
X120904000Y-50885031D01*
X120904000Y-50885031D02*
X119502441Y-49483472D01*
X119502441Y-49483472D02*
X115523472Y-49483472D01*
X115523472Y-49483472D02*
X113284000Y-47244000D01*
X113284000Y-47244000D02*
X78740000Y-47244000D01*
X78740000Y-47244000D02*
X77495000Y-45999000D01*
X115531500Y-59728500D02*
X115316000Y-59944000D01*
X115531500Y-56388000D02*
X115531500Y-59728500D01*
X127000000Y-56388000D02*
X115531500Y-56388000D01*
X128524000Y-59944000D02*
X128524000Y-57912000D01*
X128524000Y-57912000D02*
X127000000Y-56388000D01*
X102108000Y-57912000D02*
X102108000Y-59944000D01*
X115531500Y-56388000D02*
X103632000Y-56388000D01*
X103632000Y-56388000D02*
X102108000Y-57912000D01*
X209092000Y-77420000D02*
X205060000Y-77420000D01*
X209296000Y-69596000D02*
X209416000Y-69716000D01*
X205060000Y-64420000D02*
X205483600Y-64420000D01*
X209296000Y-68232400D02*
X209296000Y-69596000D01*
X208884000Y-64420000D02*
X209296000Y-64008000D01*
X205060000Y-64420000D02*
X208884000Y-64420000D01*
X207776000Y-90420000D02*
X205060000Y-90420000D01*
X209296000Y-88900000D02*
X207776000Y-90420000D01*
X209296000Y-52832000D02*
X209296000Y-88900000D01*
X205060000Y-51420000D02*
X207884000Y-51420000D01*
X207884000Y-51420000D02*
X209296000Y-52832000D01*
X209804000Y-88392000D02*
X209296000Y-88900000D01*
X234696000Y-88392000D02*
X209804000Y-88392000D01*
X239663706Y-87259015D02*
X239663706Y-88313053D01*
X239654907Y-87250216D02*
X239663706Y-87259015D01*
X239654907Y-85482450D02*
X239654907Y-87250216D01*
X252476000Y-88392000D02*
X239663706Y-88313053D01*
X239663706Y-88313053D02*
X234696000Y-88392000D01*
X142173600Y-60385600D02*
X142173600Y-61500000D01*
X141732000Y-59944000D02*
X142173600Y-60385600D01*
X141129929Y-62543671D02*
X142173600Y-61500000D01*
X128524000Y-59944000D02*
X131123671Y-62543671D01*
X131123671Y-62543671D02*
X141129929Y-62543671D01*
X100842334Y-63241666D02*
X92705666Y-63241666D01*
X92705666Y-63241666D02*
X89408000Y-59944000D01*
X102108000Y-59944000D02*
X102108000Y-61976000D01*
X102108000Y-61976000D02*
X100842334Y-63241666D01*
X87393813Y-55897813D02*
X79738187Y-55897813D01*
X89408000Y-59944000D02*
X89408000Y-57912000D01*
X89408000Y-57912000D02*
X87393813Y-55897813D01*
X66556540Y-55871460D02*
X62484000Y-59944000D01*
X79738187Y-55897813D02*
X79711834Y-55871460D01*
X79711834Y-55871460D02*
X66556540Y-55871460D01*
X75906200Y-59729800D02*
X75692000Y-59944000D01*
X79738187Y-55897813D02*
X75906200Y-55897813D01*
X75906200Y-55897813D02*
X75906200Y-59729800D01*
X235284000Y-88980000D02*
X234696000Y-88392000D01*
X235284000Y-95504000D02*
X235284000Y-88980000D01*
X205060000Y-62820000D02*
X205060000Y-64420000D01*
X147352000Y-61500000D02*
X154030136Y-68178136D01*
X142173600Y-61500000D02*
X147352000Y-61500000D01*
X170244000Y-60452000D02*
X202692000Y-60452000D01*
X162517864Y-68178136D02*
X170244000Y-60452000D01*
X154030136Y-68178136D02*
X162517864Y-68178136D01*
X202692000Y-60452000D02*
X205060000Y-62820000D01*
X70104000Y-66548000D02*
X68072000Y-66548000D01*
X73152000Y-59944000D02*
X73152000Y-63500000D01*
X73152000Y-63500000D02*
X70104000Y-66548000D01*
X83312000Y-66548000D02*
X81280000Y-66548000D01*
X86868000Y-59944000D02*
X86868000Y-62992000D01*
X86868000Y-62992000D02*
X83312000Y-66548000D01*
X101600000Y-52324000D02*
X104648000Y-52324000D01*
X97028000Y-59944000D02*
X97028000Y-56896000D01*
X97028000Y-56896000D02*
X101600000Y-52324000D01*
X107696000Y-66548000D02*
X109728000Y-66548000D01*
X112776000Y-63500000D02*
X112776000Y-59944000D01*
X109728000Y-66548000D02*
X112776000Y-63500000D01*
X125984000Y-63500000D02*
X125984000Y-59944000D01*
X120840000Y-66548000D02*
X122936000Y-66548000D01*
X122936000Y-66548000D02*
X125984000Y-63500000D01*
X141224000Y-52324000D02*
X144272000Y-52324000D01*
X136652000Y-59944000D02*
X136652000Y-56896000D01*
X136652000Y-56896000D02*
X141224000Y-52324000D01*
X196572000Y-67032000D02*
X194036000Y-67032000D01*
X205060000Y-69500000D02*
X199040000Y-69500000D01*
X199040000Y-69500000D02*
X196572000Y-67032000D01*
X196596000Y-53848000D02*
X194036000Y-53848000D01*
X205060000Y-56500000D02*
X199248000Y-56500000D01*
X199248000Y-56500000D02*
X196596000Y-53848000D01*
X194036000Y-97004000D02*
X196161300Y-97004000D01*
X205060000Y-92960000D02*
X200205300Y-92960000D01*
X200205300Y-92960000D02*
X196161300Y-97004000D01*
X194036000Y-83796000D02*
X196161300Y-83796000D01*
X205060000Y-79960000D02*
X199997300Y-79960000D01*
X199997300Y-79960000D02*
X196161300Y-83796000D01*
X183876000Y-62968000D02*
X174512000Y-62968000D01*
X174512000Y-62968000D02*
X173060000Y-64420000D01*
X174812000Y-75668000D02*
X183876000Y-75668000D01*
X173060000Y-77420000D02*
X174812000Y-75668000D01*
X174632000Y-49848000D02*
X183876000Y-49848000D01*
X173060000Y-51420000D02*
X174632000Y-49848000D01*
X174604000Y-88876000D02*
X183876000Y-88876000D01*
X173060000Y-90420000D02*
X174604000Y-88876000D01*
X173060000Y-66960000D02*
X173132000Y-67032000D01*
X173132000Y-67032000D02*
X183876000Y-67032000D01*
X151892000Y-62992000D02*
X145542000Y-56642000D01*
X151892000Y-62992000D02*
X150799999Y-61899999D01*
X152908000Y-64008000D02*
X151892000Y-62992000D01*
X160020000Y-64008000D02*
X152908000Y-64008000D01*
X173060000Y-56500000D02*
X167528000Y-56500000D01*
X167528000Y-56500000D02*
X160020000Y-64008000D01*
X183876000Y-53848000D02*
X181750700Y-53848000D01*
X173060000Y-53960000D02*
X181638700Y-53960000D01*
X181638700Y-53960000D02*
X181750700Y-53848000D01*
X183876000Y-92940000D02*
X181750700Y-92940000D01*
X173060000Y-92960000D02*
X181730700Y-92960000D01*
X181730700Y-92960000D02*
X181750700Y-92940000D01*
X183692000Y-79960000D02*
X183896000Y-79756000D01*
X173060000Y-79960000D02*
X183692000Y-79960000D01*
X186416000Y-43750000D02*
X186416000Y-43228000D01*
X121412000Y-43306800D02*
X121412000Y-43750000D01*
X121412000Y-41656000D02*
X121412000Y-43306800D01*
X120396000Y-40640000D02*
X121412000Y-41656000D01*
X73660000Y-40640000D02*
X120396000Y-40640000D01*
X72415000Y-43750000D02*
X72415000Y-41885000D01*
X72415000Y-41885000D02*
X73660000Y-40640000D01*
X186416000Y-43228000D02*
X186416000Y-41676000D01*
X235414000Y-41866000D02*
X235414000Y-43750000D01*
X186416000Y-41676000D02*
X187452000Y-40640000D01*
X234188000Y-40640000D02*
X235414000Y-41866000D01*
X187452000Y-40640000D02*
X234188000Y-40640000D01*
X185380000Y-40640000D02*
X186416000Y-41676000D01*
X122428000Y-40640000D02*
X140716000Y-40640000D01*
X121412000Y-41656000D02*
X122428000Y-40640000D01*
X150876000Y-50800000D02*
X165100000Y-50800000D01*
X140716000Y-40640000D02*
X150876000Y-50800000D01*
X165100000Y-50800000D02*
X175260000Y-40640000D01*
X175260000Y-40640000D02*
X185380000Y-40640000D01*
X78232000Y-52324000D02*
X76106700Y-52324000D01*
X76106700Y-52324000D02*
X69875000Y-46092300D01*
X69875000Y-46092300D02*
X69875000Y-43750000D01*
X186416000Y-104250000D02*
X186416000Y-103719600D01*
X186416000Y-103719600D02*
X186436000Y-103699600D01*
X121412000Y-98552000D02*
X121412000Y-104250000D01*
X121438358Y-98525642D02*
X121412000Y-98552000D01*
X186436000Y-103699600D02*
X186436000Y-102616000D01*
X232799400Y-101092000D02*
X235414000Y-103706600D01*
X235414000Y-103706600D02*
X235414000Y-104250000D01*
X186436000Y-102616000D02*
X187960000Y-101092000D01*
X187960000Y-101092000D02*
X232799400Y-101092000D01*
X186436000Y-102296000D02*
X186436000Y-102616000D01*
X139352000Y-101092000D02*
X185232000Y-101092000D01*
X118898358Y-98525642D02*
X136785642Y-98525642D01*
X185232000Y-101092000D02*
X186436000Y-102296000D01*
X72415000Y-102337000D02*
X74168000Y-100584000D01*
X72415000Y-104250000D02*
X72415000Y-102337000D01*
X90424000Y-103632000D02*
X113792000Y-103632000D01*
X87376000Y-100584000D02*
X90424000Y-103632000D01*
X136785642Y-98525642D02*
X139352000Y-101092000D01*
X74168000Y-100584000D02*
X87376000Y-100584000D01*
X113792000Y-103632000D02*
X118898358Y-98525642D01*
X123952000Y-106172000D02*
X123952000Y-104250000D01*
X122936000Y-107188000D02*
X123952000Y-106172000D01*
X76200000Y-107188000D02*
X122936000Y-107188000D01*
X74955000Y-104250000D02*
X74955000Y-105943000D01*
X74955000Y-105943000D02*
X76200000Y-107188000D01*
X123952000Y-104250000D02*
X123952000Y-102108000D01*
X123952000Y-102108000D02*
X125191088Y-100868912D01*
X125191088Y-100868912D02*
X134904912Y-100868912D01*
X134904912Y-100868912D02*
X138176000Y-104140000D01*
X138176000Y-104140000D02*
X173227996Y-104140000D01*
X173227996Y-104140000D02*
X173228000Y-104139996D01*
X191496000Y-104694400D02*
X191496000Y-104250000D01*
X191496000Y-104694400D02*
X191496000Y-106152000D01*
X190460000Y-107188000D02*
X191496000Y-106152000D01*
X126492000Y-104250000D02*
X126492000Y-106172000D01*
X127508000Y-107188000D02*
X190460000Y-107188000D01*
X126492000Y-106172000D02*
X127508000Y-107188000D01*
X239268000Y-107188000D02*
X240494000Y-105962000D01*
X240494000Y-105962000D02*
X240494000Y-104250000D01*
X191496000Y-106152000D02*
X192532000Y-107188000D01*
X192532000Y-107188000D02*
X239268000Y-107188000D01*
X194036000Y-46756000D02*
X194036000Y-43750000D01*
X191251037Y-46991363D02*
X193800637Y-46991363D01*
X193800637Y-46991363D02*
X194036000Y-46756000D01*
X129287363Y-46991363D02*
X140463363Y-46991363D01*
X129032000Y-46736000D02*
X129032000Y-43750000D01*
X129287363Y-46991363D02*
X129032000Y-46736000D01*
X126744637Y-46991363D02*
X129287363Y-46991363D01*
X117095363Y-46991363D02*
X129287363Y-46991363D01*
X80035000Y-43750000D02*
X113854000Y-43750000D01*
X113854000Y-43750000D02*
X117095363Y-46991363D01*
X149860000Y-53340000D02*
X166118726Y-53340000D01*
X143511363Y-46991363D02*
X149860000Y-53340000D01*
X134112000Y-52324000D02*
X134112000Y-46991363D01*
X172467363Y-46991363D02*
X191251037Y-46991363D01*
X166118726Y-53340000D02*
X172467363Y-46991363D01*
X134112000Y-46991363D02*
X143511363Y-46991363D01*
X243034000Y-45510000D02*
X243034000Y-43750000D01*
X191251037Y-46991363D02*
X241552637Y-46991363D01*
X241552637Y-46991363D02*
X243034000Y-45510000D01*
X103632000Y-71120000D02*
X103632000Y-73152000D01*
X105156000Y-69596000D02*
X103632000Y-71120000D01*
X182352000Y-72644000D02*
X154940000Y-72644000D01*
X183876000Y-71120000D02*
X182352000Y-72644000D01*
X154940000Y-72644000D02*
X146304000Y-64008000D01*
X142748000Y-64008000D02*
X137160000Y-69596000D01*
X146304000Y-64008000D02*
X142748000Y-64008000D01*
X137160000Y-69596000D02*
X105156000Y-69596000D01*
X108712000Y-96012000D02*
X108712000Y-95812000D01*
X108712000Y-95812000D02*
X110904809Y-93619191D01*
X110904809Y-93619191D02*
X142443216Y-93619191D01*
X142443216Y-93619191D02*
X144019891Y-95195866D01*
X188468000Y-92412000D02*
X183876000Y-97004000D01*
X188468000Y-88392000D02*
X188468000Y-92412000D01*
X186672600Y-86596600D02*
X188468000Y-88392000D01*
X106172000Y-93980000D02*
X108964973Y-91187027D01*
X171975400Y-86596600D02*
X186672600Y-86596600D01*
X164084000Y-94488000D02*
X171975400Y-86596600D01*
X148083027Y-91187027D02*
X151384000Y-94488000D01*
X108964973Y-91187027D02*
X148083027Y-91187027D01*
X106172000Y-96520000D02*
X106172000Y-93980000D01*
X151384000Y-94488000D02*
X164084000Y-94488000D01*
X93472000Y-77216000D02*
X93472000Y-73152000D01*
X97536000Y-81280000D02*
X93472000Y-77216000D01*
X183876000Y-83796000D02*
X183076001Y-84595999D01*
X162052000Y-81280000D02*
X97536000Y-81280000D01*
X165367999Y-84595999D02*
X162052000Y-81280000D01*
X183076001Y-84595999D02*
X165367999Y-84595999D01*
X94996000Y-92996000D02*
X94996000Y-92456000D01*
X96012000Y-94012000D02*
X94996000Y-92996000D01*
X96012000Y-96012000D02*
X96012000Y-94012000D01*
X94996000Y-92964000D02*
X94996000Y-92456000D01*
X94996000Y-92456000D02*
X94996000Y-84836000D01*
X81280000Y-84836000D02*
X94996000Y-84836000D01*
X65024000Y-66548000D02*
X65024000Y-68580000D01*
X65024000Y-68580000D02*
X81280000Y-84836000D01*
X79248000Y-69596000D02*
X99568000Y-69596000D01*
X78232000Y-66548000D02*
X78232000Y-68580000D01*
X101092000Y-71120000D02*
X101092000Y-73152000D01*
X99568000Y-69596000D02*
X101092000Y-71120000D01*
X78232000Y-68580000D02*
X79248000Y-69596000D01*
X98552000Y-96012000D02*
X98552000Y-93980000D01*
X98552000Y-93980000D02*
X104140000Y-88392000D01*
X104140000Y-88392000D02*
X127000000Y-88392000D01*
X127000000Y-88392000D02*
X128524000Y-86868000D01*
X96012000Y-75692000D02*
X96012000Y-73152000D01*
X98044000Y-77724000D02*
X96012000Y-75692000D01*
X138176000Y-77724000D02*
X98044000Y-77724000D01*
X144000000Y-66548000D02*
X144000000Y-71900000D01*
X144000000Y-71900000D02*
X138176000Y-77724000D01*
X90932000Y-79248000D02*
X90424000Y-79756000D01*
X90932000Y-73152000D02*
X90932000Y-79248000D01*
X90932000Y-99060000D02*
X90932000Y-96012000D01*
X112776000Y-100584000D02*
X92456000Y-100584000D01*
X117266522Y-96093478D02*
X112776000Y-100584000D01*
X138511478Y-96093478D02*
X117266522Y-96093478D01*
X199136000Y-98044000D02*
X197952500Y-99227500D01*
X92456000Y-100584000D02*
X90932000Y-99060000D01*
X140462000Y-98044000D02*
X138511478Y-96093478D01*
X240284000Y-98044000D02*
X199136000Y-98044000D01*
X197952500Y-99227500D02*
X181015500Y-99227500D01*
X181015500Y-99227500D02*
X179832000Y-98044000D01*
X179832000Y-98044000D02*
X140462000Y-98044000D01*
X240284000Y-95504000D02*
X240284000Y-98044000D01*
X252476000Y-93472000D02*
X252476000Y-90932000D01*
X240284000Y-98044000D02*
X247904000Y-98044000D01*
X247904000Y-98044000D02*
X252476000Y-93472000D01*
M02*
