G04 #@! TF.GenerationSoftware,KiCad,Pcbnew,5.1.4-e60b266~84~ubuntu18.04.1*
G04 #@! TF.CreationDate,2019-10-31T22:25:58+05:30*
G04 #@! TF.ProjectId,WemosClock,57656d6f-7343-46c6-9f63-6b2e6b696361,rev?*
G04 #@! TF.SameCoordinates,Original*
G04 #@! TF.FileFunction,Copper,L2,Bot*
G04 #@! TF.FilePolarity,Positive*
%FSLAX46Y46*%
G04 Gerber Fmt 4.6, Leading zero omitted, Abs format (unit mm)*
G04 Created by KiCad (PCBNEW 5.1.4-e60b266~84~ubuntu18.04.1) date 2019-10-31 22:25:58*
%MOMM*%
%LPD*%
G04 APERTURE LIST*
%ADD10O,1.600000X2.000000*%
%ADD11R,2.000000X2.000000*%
%ADD12C,1.524000*%
%ADD13C,3.000000*%
%ADD14R,3.000000X3.000000*%
%ADD15C,2.500000*%
%ADD16C,1.998980*%
%ADD17R,2.000000X1.905000*%
%ADD18O,2.000000X1.905000*%
%ADD19C,2.000000*%
%ADD20O,1.600000X1.600000*%
%ADD21C,1.600000*%
%ADD22R,1.500000X1.500000*%
%ADD23C,1.500000*%
%ADD24C,1.800000*%
%ADD25R,1.800000X1.800000*%
%ADD26C,1.000000*%
G04 APERTURE END LIST*
D10*
X108712000Y-96012000D03*
X106172000Y-96012000D03*
X103632000Y-96012000D03*
X101092000Y-96012000D03*
X98552000Y-96012000D03*
X96012000Y-96012000D03*
X93472000Y-96012000D03*
X90932000Y-96012000D03*
X90932000Y-73152000D03*
X93472000Y-73152000D03*
X96012000Y-73152000D03*
X98552000Y-73152000D03*
X101092000Y-73152000D03*
X103632000Y-73152000D03*
D11*
X108712000Y-73152000D03*
D10*
X106172000Y-73152000D03*
D12*
X237954000Y-104250000D03*
X232874000Y-104250000D03*
X235414000Y-104250000D03*
X243034000Y-104250000D03*
X240494000Y-104250000D03*
X243034000Y-43750000D03*
X240494000Y-43750000D03*
X232874000Y-43750000D03*
X235414000Y-43750000D03*
X237954000Y-43750000D03*
X188956000Y-104250000D03*
X183876000Y-104250000D03*
X186416000Y-104250000D03*
X194036000Y-104250000D03*
X191496000Y-104250000D03*
X194036000Y-43750000D03*
X191496000Y-43750000D03*
X183876000Y-43750000D03*
X186416000Y-43750000D03*
X188956000Y-43750000D03*
X123952000Y-104250000D03*
X118872000Y-104250000D03*
X121412000Y-104250000D03*
X129032000Y-104250000D03*
X126492000Y-104250000D03*
X129032000Y-43750000D03*
X126492000Y-43750000D03*
X118872000Y-43750000D03*
X121412000Y-43750000D03*
X123952000Y-43750000D03*
X74955000Y-104250000D03*
X69875000Y-104250000D03*
X72415000Y-104250000D03*
X80035000Y-104250000D03*
X77495000Y-104250000D03*
X80035000Y-43750000D03*
X77495000Y-43750000D03*
X69875000Y-43750000D03*
X72415000Y-43750000D03*
X74955000Y-43750000D03*
D13*
X251968000Y-58928000D03*
D14*
X251968000Y-64008000D03*
D15*
X233698720Y-52182401D03*
X227588630Y-52163748D03*
X239654907Y-85482450D03*
X221638939Y-85500519D03*
D16*
X145548236Y-56630451D03*
X173181982Y-104167220D03*
X144060461Y-95218829D03*
X128524000Y-86868000D03*
D17*
X252476000Y-85852000D03*
D18*
X252476000Y-88392000D03*
X252476000Y-90932000D03*
D19*
X235284000Y-95504000D03*
D11*
X240284000Y-95504000D03*
D20*
X90424000Y-89916000D03*
D21*
X90424000Y-79756000D03*
D20*
X94996000Y-84836000D03*
D21*
X105156000Y-84836000D03*
D20*
X133840000Y-66548000D03*
D21*
X144000000Y-66548000D03*
D20*
X120840000Y-66548000D03*
D21*
X131000000Y-66548000D03*
D20*
X107696000Y-66548000D03*
D21*
X117856000Y-66548000D03*
D20*
X94488000Y-66548000D03*
D21*
X104648000Y-66548000D03*
D20*
X81280000Y-66548000D03*
D21*
X91440000Y-66548000D03*
D20*
X68072000Y-66548000D03*
D21*
X78232000Y-66548000D03*
D20*
X54864000Y-66548000D03*
D21*
X65024000Y-66548000D03*
D20*
X194036000Y-83796000D03*
D21*
X183876000Y-83796000D03*
D20*
X183876000Y-75668000D03*
D21*
X194036000Y-75668000D03*
D20*
X183896000Y-79756000D03*
D21*
X194056000Y-79756000D03*
D20*
X194036000Y-97004000D03*
D21*
X183876000Y-97004000D03*
D20*
X183876000Y-88876000D03*
D21*
X194036000Y-88876000D03*
D20*
X183876000Y-92940000D03*
D21*
X194036000Y-92940000D03*
D20*
X194036000Y-57888000D03*
D21*
X183876000Y-57888000D03*
D20*
X183876000Y-49848000D03*
D21*
X194036000Y-49848000D03*
D20*
X183876000Y-53848000D03*
D21*
X194036000Y-53848000D03*
D20*
X194036000Y-71120000D03*
D21*
X183876000Y-71120000D03*
D20*
X183876000Y-62968000D03*
D21*
X194036000Y-62968000D03*
D20*
X183876000Y-67032000D03*
D21*
X194036000Y-67032000D03*
X144272000Y-52324000D03*
D20*
X134112000Y-52324000D03*
X120904000Y-52324000D03*
D21*
X131064000Y-52324000D03*
D20*
X117856000Y-52324000D03*
D21*
X107696000Y-52324000D03*
D20*
X94488000Y-52324000D03*
D21*
X104648000Y-52324000D03*
D20*
X81280000Y-52324000D03*
D21*
X91440000Y-52324000D03*
D20*
X78232000Y-52324000D03*
D21*
X68072000Y-52324000D03*
X54864000Y-52324000D03*
D20*
X65024000Y-52324000D03*
D22*
X173060000Y-82500000D03*
D23*
X173060000Y-77420000D03*
X173060000Y-79960000D03*
D22*
X173060000Y-95500000D03*
D23*
X173060000Y-90420000D03*
X173060000Y-92960000D03*
D22*
X173060000Y-56500000D03*
D23*
X173060000Y-51420000D03*
X173060000Y-53960000D03*
D22*
X173060000Y-69500000D03*
D23*
X173060000Y-64420000D03*
X173060000Y-66960000D03*
D22*
X205060000Y-82500000D03*
D23*
X205060000Y-77420000D03*
X205060000Y-79960000D03*
X205060000Y-92960000D03*
X205060000Y-90420000D03*
D22*
X205060000Y-95500000D03*
X205060000Y-56500000D03*
D23*
X205060000Y-51420000D03*
X205060000Y-53960000D03*
D22*
X205060000Y-69500000D03*
D23*
X205060000Y-64420000D03*
X205060000Y-66960000D03*
D22*
X136652000Y-59944000D03*
D23*
X141732000Y-59944000D03*
X139192000Y-59944000D03*
D22*
X123444000Y-59944000D03*
D23*
X128524000Y-59944000D03*
X125984000Y-59944000D03*
D22*
X110236000Y-59944000D03*
D23*
X115316000Y-59944000D03*
X112776000Y-59944000D03*
D22*
X97028000Y-59944000D03*
D23*
X102108000Y-59944000D03*
X99568000Y-59944000D03*
D22*
X84328000Y-59944000D03*
D23*
X89408000Y-59944000D03*
X86868000Y-59944000D03*
D22*
X70612000Y-59944000D03*
D23*
X75692000Y-59944000D03*
X73152000Y-59944000D03*
D22*
X57404000Y-59944000D03*
D23*
X62484000Y-59944000D03*
X59944000Y-59944000D03*
D24*
X154940000Y-57872000D03*
D25*
X152400000Y-57872000D03*
D24*
X160020000Y-89956000D03*
D25*
X157480000Y-89956000D03*
D26*
X160020000Y-89956000D02*
X162560000Y-89956000D01*
X162560000Y-95504000D02*
X162560000Y-88392000D01*
X160528000Y-97536000D02*
X162560000Y-95504000D01*
X155448000Y-97536000D02*
X160528000Y-97536000D01*
X146812000Y-88900000D02*
X155448000Y-97536000D01*
X82973000Y-107188000D02*
X133604000Y-107188000D01*
X136652000Y-93980000D02*
X141732000Y-88900000D01*
X141732000Y-88900000D02*
X146812000Y-88900000D01*
X80035000Y-104250000D02*
X82973000Y-107188000D01*
X133604000Y-107188000D02*
X136652000Y-104140000D01*
X136652000Y-104140000D02*
X136652000Y-93980000D01*
X166212000Y-69500000D02*
X173060000Y-69500000D01*
X162560000Y-89916000D02*
X162560000Y-73152000D01*
X162560000Y-73152000D02*
X166212000Y-69500000D01*
X156424000Y-57872000D02*
X154940000Y-57872000D01*
X157480000Y-89956000D02*
X157480000Y-58928000D01*
X157480000Y-58928000D02*
X156424000Y-57872000D01*
X126492000Y-46736000D02*
X126492000Y-43750000D01*
X126492000Y-46736000D02*
X126492000Y-45837400D01*
X191496000Y-44267400D02*
X191496000Y-43750000D01*
X191516000Y-44287400D02*
X191496000Y-44267400D01*
X120904000Y-52324000D02*
X120904000Y-50292000D01*
X124460000Y-46736000D02*
X126492000Y-46736000D01*
X120904000Y-50292000D02*
X124460000Y-46736000D01*
X152400000Y-57872000D02*
X152400000Y-53848000D01*
X126492000Y-46736000D02*
X144780000Y-46736000D01*
X151892000Y-53848000D02*
X162052000Y-53848000D01*
X191496000Y-45740000D02*
X191496000Y-43750000D01*
X144780000Y-46736000D02*
X151892000Y-53848000D01*
X162052000Y-53848000D02*
X169164000Y-46736000D01*
X169164000Y-46736000D02*
X190500000Y-46736000D01*
X190500000Y-46736000D02*
X191496000Y-45740000D01*
X57404000Y-59944000D02*
X57404000Y-57868700D01*
X57404000Y-57868700D02*
X54864000Y-55328700D01*
X54864000Y-55328700D02*
X54864000Y-52324000D01*
X89408000Y-62421150D02*
X89408000Y-59944000D01*
X93472000Y-93980000D02*
X92456000Y-92964000D01*
X93472000Y-96012000D02*
X93472000Y-93980000D01*
X92456000Y-92964000D02*
X87884000Y-92964000D01*
X87884000Y-92964000D02*
X86868000Y-91948000D01*
X86868000Y-91948000D02*
X86868000Y-64961150D01*
X86868000Y-64961150D02*
X89408000Y-62421150D01*
X57404000Y-66548000D02*
X54864000Y-66548000D01*
X59944000Y-59944000D02*
X59944000Y-64008000D01*
X59944000Y-64008000D02*
X57404000Y-66548000D01*
X70612000Y-59944000D02*
X70612000Y-57868700D01*
X70612000Y-57868700D02*
X68072000Y-55328700D01*
X68072000Y-55328700D02*
X68072000Y-52324000D01*
X84371300Y-57868700D02*
X89916000Y-52324000D01*
X89916000Y-52324000D02*
X91440000Y-52324000D01*
X84328000Y-59944000D02*
X84328000Y-57868700D01*
X84328000Y-57868700D02*
X84371300Y-57868700D01*
X96520000Y-66548000D02*
X94488000Y-66548000D01*
X99568000Y-59944000D02*
X99568000Y-63500000D01*
X99568000Y-63500000D02*
X96520000Y-66548000D01*
X110236000Y-59944000D02*
X110236000Y-57868700D01*
X110236000Y-57868700D02*
X107696000Y-55328700D01*
X107696000Y-55328700D02*
X107696000Y-52324000D01*
X128016000Y-52324000D02*
X131064000Y-52324000D01*
X123444000Y-59944000D02*
X123444000Y-56896000D01*
X123444000Y-56896000D02*
X128016000Y-52324000D01*
X136144000Y-66548000D02*
X133840000Y-66548000D01*
X139192000Y-59944000D02*
X139192000Y-63500000D01*
X139192000Y-63500000D02*
X136144000Y-66548000D01*
X194036000Y-67032000D02*
X194036000Y-62968000D01*
X194036000Y-71120000D02*
X196161300Y-71120000D01*
X205060000Y-66960000D02*
X200321300Y-66960000D01*
X200321300Y-66960000D02*
X196161300Y-71120000D01*
X194036000Y-53848000D02*
X194036000Y-49848000D01*
X194036000Y-57888000D02*
X196161300Y-57888000D01*
X205060000Y-53960000D02*
X200089300Y-53960000D01*
X200089300Y-53960000D02*
X196161300Y-57888000D01*
X194036000Y-92940000D02*
X194036000Y-88876000D01*
X196108311Y-92940000D02*
X194036000Y-92940000D01*
X205060000Y-95500000D02*
X198668311Y-95500000D01*
X198668311Y-95500000D02*
X196108311Y-92940000D01*
X194056000Y-79756000D02*
X194056000Y-75688000D01*
X194056000Y-75688000D02*
X194036000Y-75668000D01*
X196160897Y-79756000D02*
X194056000Y-79756000D01*
X205060000Y-82500000D02*
X198904897Y-82500000D01*
X198904897Y-82500000D02*
X196160897Y-79756000D01*
X173060000Y-77420000D02*
X172624400Y-77420000D01*
X172624400Y-77420000D02*
X170984600Y-79059800D01*
X170984600Y-79059800D02*
X170984600Y-88344600D01*
X170984600Y-88344600D02*
X173060000Y-90420000D01*
X185952000Y-75668000D02*
X183876000Y-75668000D01*
X188468000Y-73152000D02*
X185952000Y-75668000D01*
X188468000Y-63549300D02*
X188468000Y-73152000D01*
X188468000Y-52324000D02*
X188468000Y-63500000D01*
X183876000Y-49848000D02*
X185992000Y-49848000D01*
X185992000Y-49848000D02*
X188468000Y-52324000D01*
X183876000Y-62968000D02*
X188468000Y-62968000D01*
X252428500Y-85852000D02*
X247348500Y-80772000D01*
X252476000Y-85852000D02*
X252428500Y-85852000D01*
X221638939Y-81129061D02*
X221996000Y-80772000D01*
X221638939Y-85500519D02*
X221638939Y-81129061D01*
X247348500Y-80772000D02*
X221996000Y-80772000D01*
X188673933Y-73357933D02*
X188468000Y-73152000D01*
X214073933Y-73357933D02*
X188673933Y-73357933D01*
X221996000Y-80772000D02*
X221488000Y-80772000D01*
X221488000Y-80772000D02*
X214073933Y-73357933D01*
X129032000Y-104250000D02*
X129032000Y-94996000D01*
X129032000Y-94996000D02*
X145542000Y-78486000D01*
X145542000Y-78486000D02*
X145542000Y-56642000D01*
X194036000Y-104250000D02*
X194036000Y-103808100D01*
X194036000Y-103808100D02*
X190200300Y-99972400D01*
X190200300Y-99972400D02*
X179607700Y-99972400D01*
X179607700Y-99972400D02*
X175135300Y-95500000D01*
X173060000Y-95500000D02*
X175135300Y-95500000D01*
X243034000Y-102826000D02*
X243034000Y-104250000D01*
X174956000Y-82500000D02*
X178816000Y-86360000D01*
X227076000Y-100076000D02*
X240284000Y-100076000D01*
X173060000Y-82500000D02*
X174956000Y-82500000D01*
X178816000Y-86360000D02*
X213360000Y-86360000D01*
X213360000Y-86360000D02*
X227076000Y-100076000D01*
X240284000Y-100076000D02*
X243034000Y-102826000D01*
X72415000Y-45949000D02*
X72415000Y-43750000D01*
X67056000Y-48260000D02*
X70104000Y-48260000D01*
X65024000Y-52324000D02*
X65024000Y-50292000D01*
X70104000Y-48260000D02*
X72415000Y-45949000D01*
X65024000Y-50292000D02*
X67056000Y-48260000D01*
X183896000Y-43730000D02*
X183876000Y-43750000D01*
X183896000Y-40640000D02*
X183896000Y-43730000D01*
X78232000Y-52324000D02*
X78232000Y-50292000D01*
X84774000Y-43750000D02*
X118872000Y-43750000D01*
X78232000Y-50292000D02*
X84774000Y-43750000D01*
X118872000Y-43750000D02*
X118872000Y-42164000D01*
X118872000Y-42164000D02*
X120396000Y-40640000D01*
X142562847Y-40640000D02*
X152865060Y-50942213D01*
X120396000Y-40640000D02*
X142562847Y-40640000D01*
X152865060Y-50942213D02*
X160893787Y-50942213D01*
X232874000Y-41866000D02*
X232874000Y-43750000D01*
X231648000Y-40640000D02*
X232874000Y-41866000D01*
X171196000Y-40640000D02*
X231648000Y-40640000D01*
X160893787Y-50942213D02*
X171196000Y-40640000D01*
X72415000Y-67730300D02*
X72415000Y-104250000D01*
X78740000Y-61405300D02*
X72415000Y-67730300D01*
X81280000Y-52324000D02*
X81280000Y-53848000D01*
X78740000Y-56388000D02*
X78740000Y-61405300D01*
X81280000Y-53848000D02*
X78740000Y-56388000D01*
X188956000Y-104250000D02*
X188956000Y-107168000D01*
X188956000Y-107168000D02*
X188976000Y-107188000D01*
X237954000Y-105962000D02*
X237954000Y-104250000D01*
X236728000Y-107188000D02*
X237954000Y-105962000D01*
X188956000Y-104250000D02*
X188956000Y-107188000D01*
X188956000Y-107188000D02*
X236728000Y-107188000D01*
X74955000Y-99273300D02*
X74955000Y-104250000D01*
X79756000Y-94472300D02*
X74955000Y-99273300D01*
X84328000Y-65024000D02*
X84328000Y-70104000D01*
X94488000Y-49784000D02*
X92964000Y-48260000D01*
X81280000Y-57531000D02*
X81280000Y-61976000D01*
X94488000Y-52324000D02*
X94488000Y-49784000D01*
X79756000Y-74676000D02*
X79756000Y-94472300D01*
X92964000Y-48260000D02*
X90551000Y-48260000D01*
X90551000Y-48260000D02*
X81280000Y-57531000D01*
X84328000Y-70104000D02*
X79756000Y-74676000D01*
X81280000Y-61976000D02*
X84328000Y-65024000D01*
X188976000Y-107188000D02*
X176276004Y-107188000D01*
X176276004Y-107188000D02*
X173228000Y-104139996D01*
X126492000Y-102108000D02*
X126492000Y-104250000D01*
X124460000Y-100076000D02*
X126492000Y-102108000D01*
X124460000Y-66040000D02*
X124460000Y-100076000D01*
X117856000Y-52324000D02*
X117856000Y-59436000D01*
X117856000Y-59436000D02*
X124460000Y-66040000D01*
X117825200Y-100076000D02*
X124460000Y-100076000D01*
X77495000Y-102337000D02*
X79248000Y-100584000D01*
X77495000Y-104250000D02*
X77495000Y-102337000D01*
X82296000Y-100584000D02*
X86360000Y-104648000D01*
X86360000Y-104648000D02*
X113253200Y-104648000D01*
X79248000Y-100584000D02*
X82296000Y-100584000D01*
X113253200Y-104648000D02*
X117825200Y-100076000D01*
X105156000Y-89916000D02*
X90424000Y-89916000D01*
X108712000Y-96012000D02*
X108712000Y-93472000D01*
X108712000Y-93472000D02*
X105156000Y-89916000D01*
X179324000Y-59944000D02*
X181380000Y-57888000D01*
X179324000Y-72136000D02*
X179324000Y-59944000D01*
X181380000Y-57888000D02*
X183876000Y-57888000D01*
X168656000Y-73660000D02*
X177800000Y-73660000D01*
X165940100Y-76375900D02*
X168656000Y-73660000D01*
X146360025Y-97536000D02*
X146360025Y-97592025D01*
X144019891Y-95195866D02*
X146360025Y-97536000D01*
X146360025Y-97592025D02*
X151892000Y-103124000D01*
X151892000Y-103124000D02*
X162052000Y-103124000D01*
X177800000Y-73660000D02*
X179324000Y-72136000D01*
X165940100Y-99235900D02*
X165940100Y-76375900D01*
X162052000Y-103124000D02*
X165940100Y-99235900D01*
X98552000Y-70866000D02*
X98552000Y-73152000D01*
X97282000Y-69596000D02*
X98552000Y-70866000D01*
X92456000Y-69596000D02*
X97282000Y-69596000D01*
X91440000Y-66548000D02*
X91440000Y-68580000D01*
X91440000Y-68580000D02*
X92456000Y-69596000D01*
X104648000Y-99568000D02*
X103632000Y-98552000D01*
X104648000Y-68580000D02*
X105664000Y-69596000D01*
X104648000Y-66548000D02*
X104648000Y-68580000D01*
X103632000Y-98552000D02*
X103632000Y-96012000D01*
X105664000Y-69596000D02*
X111252000Y-69596000D01*
X111252000Y-69596000D02*
X113792000Y-72136000D01*
X110744000Y-99568000D02*
X104648000Y-99568000D01*
X113792000Y-72136000D02*
X113792000Y-96520000D01*
X113792000Y-96520000D02*
X110744000Y-99568000D01*
X104140000Y-102108000D02*
X112268000Y-102108000D01*
X117856000Y-96520000D02*
X117856000Y-66548000D01*
X112268000Y-102108000D02*
X117856000Y-96520000D01*
X101092000Y-96012000D02*
X101092000Y-99060000D01*
X101092000Y-99060000D02*
X104140000Y-102108000D01*
X131000000Y-66548000D02*
X128524000Y-69024000D01*
X128524000Y-69024000D02*
X128524000Y-86868000D01*
X100076000Y-79756000D02*
X105156000Y-84836000D01*
X90424000Y-79756000D02*
X100076000Y-79756000D01*
X240444319Y-58928000D02*
X251968000Y-58928000D01*
X233698720Y-52182401D02*
X240444319Y-58928000D01*
X227588630Y-52163748D02*
X227588630Y-55884630D01*
X235712000Y-64008000D02*
X251968000Y-64008000D01*
X227588630Y-55884630D02*
X235712000Y-64008000D01*
M02*
